# 3ds Max Wavefront OBJ Exporter v0.97b - (c)2007 guruware
# File Created: 03.11.2013 18:39:17

mtllib Door_04.mtl

#
# object Box353
#

v  1965.3964 11.3175 -2620.4666
v  1965.3964 11.3175 -2619.4980
v  1906.3412 11.3175 -2619.4978
v  1906.3412 11.3175 -2620.4663
v  1965.3964 129.4277 -2620.4666
v  1906.3412 129.4277 -2620.4663
v  1906.3412 129.4277 -2619.4978
v  1965.3964 129.4277 -2619.4980
v  1907.3412 12.3175 -2618.4978
v  1964.3964 12.3175 -2618.4980
v  1964.3964 128.4277 -2618.4980
v  1907.3412 128.4277 -2618.4978
# 12 vertices

vn 0.0000 -1.0000 -0.0000
vn 0.0000 1.0000 -0.0000
vn -0.0000 0.0000 -1.0000
vn -1.0000 0.0000 0.0000
vn 0.0000 0.0000 1.0000
vn 1.0000 0.0000 -0.0000
vn 0.0000 -0.7071 0.7071
vn 0.0000 0.7071 0.7071
vn -0.7071 0.0000 0.7071
vn 0.7071 0.0000 0.7071
# 10 vertex normals

vt 1.0000 0.0000 0.0000
vt 1.0000 0.4920 0.0000
vt 0.0000 0.4920 0.0000
vt 0.0000 0.0000 0.0000
vt 1.0000 1.0000 0.0000
vt 0.0000 1.0000 0.0000
vt 0.4920 0.0000 0.0000
vt 0.4920 1.0000 0.0000
vt 0.0169 0.0085 0.0000
vt 0.9831 0.0085 0.0000
vt 0.9831 0.9915 0.0000
vt 0.0169 0.9915 0.0000
vt 0.5080 0.0000 0.0000
vt 0.5080 1.0000 0.0000
vt 1.0000 -0.1800 0.0000
vt 0.0000 -0.1800 0.0000
vt 0.0000 1.1800 0.0000
vt 1.0000 1.1800 0.0000
vt 0.1794 -0.0000 0.0000
vt 0.1794 1.0000 0.0000
vt 0.0155 0.0085 0.0000
vt 0.0155 0.9915 0.0000
# 22 texture coords

g Box353
usemtl Material__3
s 2
f 1/1/1 2/2/1 3/3/1 
f 3/3/1 4/4/1 1/1/1 
s 4
f 5/4/2 6/1/2 7/2/2 
f 7/2/2 8/3/2 5/4/2 
s 8
f 1/4/3 4/1/3 6/5/3 
f 6/5/3 5/6/3 1/4/3 
s 16
f 4/4/4 3/7/4 7/8/4 
f 7/8/4 6/6/4 4/4/4 
s 32
f 9/9/5 10/10/5 11/11/5 
f 11/11/5 12/12/5 9/9/5 
s 64
f 2/13/6 1/1/6 5/5/6 
f 5/5/6 8/14/6 2/13/6 
s off
f 2/15/7 10/10/7 9/9/7 
f 9/9/7 3/16/7 2/15/7 
f 7/17/8 12/12/8 11/11/8 
f 11/11/8 8/18/8 7/17/8 
f 3/19/9 9/9/9 12/12/9 
f 12/12/9 7/20/9 3/19/9 
f 10/21/10 2/13/10 8/14/10 
f 8/14/10 11/22/10 10/21/10 
# 20 faces

#
# object Box354
#

v  1912.3479 57.6474 -2623.6216
v  1912.3479 57.6474 -2625.0688
v  1922.7744 57.6474 -2625.0688
v  1922.7744 57.6474 -2623.6216
v  1913.9464 57.6474 -2623.6216
v  1913.9464 59.4240 -2623.6216
v  1922.7744 59.4240 -2623.6216
v  1922.7744 59.4240 -2625.0688
v  1912.3479 59.4240 -2623.6216
v  1912.3479 59.4240 -2625.0688
v  1915.0200 56.5738 -2620.1553
v  1915.0200 60.4976 -2620.1553
v  1911.2743 60.4976 -2620.1553
v  1911.2743 56.5738 -2620.1553
v  1912.3479 59.4240 -2621.2593
v  1913.9464 59.4240 -2621.2593
v  1912.3479 57.6474 -2621.2593
v  1913.9464 57.6474 -2621.2593
# 18 vertices

vn 0.0000 -1.0000 -0.0000
vn 0.0000 1.0000 -0.0000
vn 0.0000 0.0000 1.0000
vn 1.0000 0.0000 -0.0000
vn -0.0000 0.0000 -1.0000
vn -1.0000 0.0000 0.0000
vn -0.0000 0.7169 -0.6971
vn -0.7169 0.0000 -0.6971
vn -0.0000 -0.7169 -0.6971
vn 0.7169 0.0000 -0.6971
# 10 vertex normals

vt 1.0000 0.0000 0.0000
vt 1.0000 1.0000 0.0000
vt 0.0000 1.0000 0.0000
vt 0.0000 0.0000 0.0000
vt 0.5000 0.0000 0.0000
vt 0.5000 1.0000 0.0000
# 6 texture coords

g Box354
usemtl Material__5
s 2
f 13/23/11 14/24/11 15/25/11 
f 15/25/11 16/26/11 17/27/11 
f 13/23/11 15/25/11 17/27/11 
s 4
f 18/27/12 19/23/12 20/24/12 
f 21/26/12 18/27/12 20/24/12 
f 21/26/12 20/24/12 22/25/12 
s 8
f 23/27/13 24/28/13 25/25/13 
f 25/25/13 26/26/13 23/27/13 
s 16
f 16/26/14 15/23/14 20/24/14 
f 20/24/14 19/25/14 16/26/14 
s 32
f 15/26/15 14/23/15 22/24/15 
f 22/24/15 20/25/15 15/26/15 
s 64
f 14/26/16 13/23/16 21/24/16 
f 21/24/16 22/25/16 14/26/16 
s 8
f 16/23/13 19/24/13 18/28/13 
f 18/28/13 17/27/13 16/23/13 
s off
f 18/27/12 21/26/12 27/25/12 
f 27/25/12 28/28/12 18/27/12 
f 21/24/16 13/23/16 29/26/16 
f 29/26/16 27/25/16 21/24/16 
f 13/23/11 17/27/11 30/27/11 
f 30/27/11 29/26/11 13/23/11 
f 17/27/14 18/28/14 28/28/14 
f 28/28/14 30/27/14 17/27/14 
f 28/28/17 27/25/17 25/25/17 
f 25/25/17 24/28/17 28/28/17 
f 27/25/18 29/26/18 26/26/18 
f 26/26/18 25/25/18 27/25/18 
f 29/26/19 30/27/19 23/27/19 
f 23/27/19 26/26/19 29/26/19 
f 30/27/20 28/28/20 24/28/20 
f 24/28/20 23/27/20 30/27/20 
# 32 faces

#
# object Box357
#

v  1912.3479 59.5756 -2615.1965
v  1912.3479 59.5756 -2613.7493
v  1922.7744 59.5756 -2613.7493
v  1922.7744 59.5756 -2615.1965
v  1913.9464 59.5756 -2615.1965
v  1913.9464 57.7990 -2615.1965
v  1922.7744 57.7990 -2615.1965
v  1922.7744 57.7990 -2613.7493
v  1912.3479 57.7990 -2615.1965
v  1912.3479 57.7990 -2613.7493
v  1915.0200 60.6492 -2618.6628
v  1915.0200 56.7254 -2618.6628
v  1911.2743 56.7254 -2618.6628
v  1911.2743 60.6492 -2618.6628
v  1912.3479 57.7990 -2617.5588
v  1913.9464 57.7990 -2617.5588
v  1912.3479 59.5756 -2617.5588
v  1913.9464 59.5756 -2617.5588
# 18 vertices

vn 0.0000 1.0000 -0.0000
vn -0.0000 -1.0000 0.0000
vn -0.0000 0.0000 -1.0000
vn 1.0000 -0.0000 -0.0000
vn 0.0000 0.0000 1.0000
vn -1.0000 0.0000 0.0000
vn -0.0000 -0.7169 0.6971
vn -0.7169 0.0000 0.6971
vn 0.0000 0.7169 0.6971
vn 0.7169 -0.0000 0.6971
# 10 vertex normals

vt 1.0000 0.0000 0.0000
vt 1.0000 1.0000 0.0000
vt 0.0000 1.0000 0.0000
vt 0.0000 0.0000 0.0000
vt 0.5000 0.0000 0.0000
vt 0.5000 1.0000 0.0000
# 6 texture coords

g Box357
usemtl Material__4
s 2
f 31/29/21 32/30/21 33/31/21 
f 33/31/21 34/32/21 35/33/21 
f 31/29/21 33/31/21 35/33/21 
s 4
f 36/33/22 37/29/22 38/30/22 
f 39/32/22 36/33/22 38/30/22 
f 39/32/22 38/30/22 40/31/22 
s 8
f 41/33/23 42/34/23 43/31/23 
f 43/31/23 44/32/23 41/33/23 
s 16
f 34/32/24 33/29/24 38/30/24 
f 38/30/24 37/31/24 34/32/24 
s 32
f 33/32/25 32/29/25 40/30/25 
f 40/30/25 38/31/25 33/32/25 
s 64
f 32/32/26 31/29/26 39/30/26 
f 39/30/26 40/31/26 32/32/26 
s 8
f 34/29/23 37/30/23 36/34/23 
f 36/34/23 35/33/23 34/29/23 
s off
f 36/33/22 39/32/22 45/31/22 
f 45/31/22 46/34/22 36/33/22 
f 39/30/26 31/29/26 47/32/26 
f 47/32/26 45/31/26 39/30/26 
f 31/29/21 35/33/21 48/33/21 
f 48/33/21 47/32/21 31/29/21 
f 35/33/24 36/34/24 46/34/24 
f 46/34/24 48/33/24 35/33/24 
f 46/34/27 45/31/27 43/31/27 
f 43/31/27 42/34/27 46/34/27 
f 45/31/28 47/32/28 44/32/28 
f 44/32/28 43/31/28 45/31/28 
f 47/32/29 48/33/29 41/33/29 
f 41/33/29 44/32/29 47/32/29 
f 48/33/30 46/34/30 42/34/30 
f 42/34/30 41/33/30 48/33/30 
# 32 faces

