# 3ds Max Wavefront OBJ Exporter v0.97b - (c)2007 guruware
# File Created: 02.11.2013 17:08:13

mtllib FrontLeft2ndFloorP2.mtl

#
# object Box011
#

v  1399.5286 141.7323 -3787.7954
v  1399.5286 129.9213 -3787.7954
v  1399.5286 129.9213 -3412.4016
v  1399.5286 141.7323 -3424.2124
v  1399.5286 141.7323 -3412.4016
v  1529.4497 129.9213 -3412.4016
v  1529.4497 141.7323 -3412.4016
v  1411.3386 141.7323 -3412.4016
v  1529.4497 141.7323 -3787.7954
v  1529.4497 129.9213 -3787.7954
v  1411.3386 141.7323 -3787.7954
v  1419.6754 129.9213 -3412.4019
v  1411.3403 141.7323 -3412.4019
v  1509.7673 141.7323 -3412.4016
v  1509.7673 129.9213 -3412.4016
v  1399.5276 129.9213 -3787.7954
v  1411.3386 129.9213 -3787.7954
v  1399.5276 141.7323 -3787.7954
v  1521.5784 141.7323 -3412.4014
v  1521.5784 129.9213 -3412.4014
v  1529.4497 141.7323 -3424.2129
v  1411.3386 141.7323 -3424.2126
v  1529.4497 141.7323 -3424.2126
v  1399.5319 129.9213 -3412.4021
v  1399.5293 141.7323 -3412.4021
# 25 vertices

vn -1.0000 0.0000 -0.0000
vn 0.0000 0.0000 1.0000
vn 0.0000 0.0000 -1.0000
vn 0.0000 -1.0000 -0.0000
vn 0.0000 1.0000 -0.0000
# 5 vertex normals

vt 0.6250 0.5000 0.0000
vt 0.5625 0.5000 0.0000
vt 0.0000 0.6250 0.0000
vt 0.5000 0.7083 0.0000
vt -8.0751 5.6502 14.6732
vt -8.0751 10.2677 14.6732
vt -9.5752 10.2677 14.6732
vt -9.5752 5.6502 14.6732
# 8 texture coords

g Box011
usemtl 01___Default
s off
f 1/1/1 2/1/1 3/1/1 
f 4/1/1 1/1/1 3/1/1 
f 5/1/1 4/1/1 3/1/1 
f 6/1/2 7/1/2 8/1/2 
f 6/1/2 8/1/2 5/1/2 
f 6/1/2 5/1/2 3/1/2 
f 9/1/3 10/1/3 2/1/3 
f 2/1/3 1/1/3 11/1/3 
f 9/1/3 2/1/3 11/1/3 
f 10/1/4 6/1/4 3/1/4 
f 3/1/4 2/1/4 10/1/4 
f 12/2/3 13/2/3 14/2/3 
f 14/2/3 15/2/3 12/2/3 
f 16/3/2 17/4/2 11/4/2 
f 11/4/2 18/3/2 16/3/2 
f 15/2/3 14/2/3 19/2/3 
f 19/2/3 20/2/3 15/2/3 
f 21/5/5 9/6/5 11/7/5 
f 21/5/5 11/7/5 22/8/5 
f 21/5/4 22/8/4 22/8/4 
f 23/5/5 21/5/5 22/8/5 
f 24/2/3 25/2/3 13/2/3 
f 13/2/3 12/2/3 24/2/3 
# 23 faces

