# 3ds Max Wavefront OBJ Exporter v0.97b - (c)2007 guruware
# File Created: 04.11.2013 17:28:01

mtllib FrontWall.mtl

#
# object Box011
#

v  1399.5396 0.0000 -4223.4111
v  1399.5396 0.0000 -1813.9622
v  1399.5396 11.8110 -1813.9751
v  1399.5276 11.8110 -1825.7861
v  1399.5276 11.8110 -4211.6128
v  1399.5396 11.8110 -4223.4238
v  1399.5276 259.8425 -4211.6128
v  1399.5276 259.8425 -3787.7954
v  1411.3386 259.8425 -3787.7954
v  1411.3386 259.8425 -4211.6143
v  1411.3386 11.8110 -1825.7861
v  1399.5276 129.9213 -1825.7874
v  1411.3386 129.9213 -1825.7861
v  1399.5396 129.9213 -1813.9751
v  1399.5276 129.9213 -1825.7861
v  1399.5276 129.9213 -3787.7954
v  1399.5276 129.9213 -4211.6128
v  1411.3386 11.8110 -1955.7085
v  1411.3386 129.9213 -1955.7085
v  1411.3386 11.8110 -1967.5197
v  1411.3386 11.8110 -2425.7588
v  1411.3386 129.9213 -2425.7588
v  1411.3386 129.9213 -1967.5197
v  1411.3386 11.8110 -2436.0239
v  1411.3386 11.8110 -2613.1890
v  1411.3386 129.9213 -2613.1890
v  1411.3386 129.9213 -2436.0239
v  1411.3386 11.8110 -2625.0000
v  1411.3386 11.8110 -3412.4016
v  1411.3386 129.9213 -3412.4016
v  1411.3386 129.9213 -2625.0000
v  1411.3386 11.8110 -3424.2124
v  1411.3386 129.9213 -3424.2124
v  1411.3386 11.8110 -4106.4961
v  1411.3386 11.8110 -4211.6143
v  1411.3386 129.9213 -4211.6143
v  1411.3386 11.8110 -4093.5039
v  1411.3386 11.8110 -4078.2185
v  1411.3386 11.8110 -4062.9331
v  1411.3386 11.8110 -4047.6477
v  1411.3386 11.8110 -4032.3623
v  1411.3386 11.8110 -4017.0767
v  1411.3386 11.8110 -4001.7915
v  1411.3386 11.8110 -3986.5059
v  1411.3386 11.8110 -3971.2205
v  1411.3386 11.8110 -3955.9351
v  1411.3386 11.8110 -3940.6497
v  1411.3386 11.8110 -3925.3643
v  1411.3386 11.8110 -3910.0789
v  1411.3386 11.8110 -3894.7935
v  1411.3386 11.8110 -3879.5081
v  1411.3386 11.8110 -3864.2227
v  1411.3386 11.8110 -3848.9370
v  1411.3386 11.8110 -3833.6519
v  1411.3386 11.8110 -3818.3662
v  1411.3386 11.8110 -3803.0811
v  1411.3386 11.8110 -3787.7954
v  1411.3386 129.9213 -3787.7954
v  1399.5396 129.9213 -4223.4238
v  1411.3533 129.9213 -1967.5184
v  1399.5422 129.9213 -1967.5197
v  1399.5422 141.7323 -1967.5197
v  1411.3459 141.7323 -1967.5184
v  1399.5396 141.7323 -1813.9751
v  1399.5276 141.7323 -1825.7874
v  1399.5277 141.7323 -1967.5201
v  1399.5277 129.9213 -1967.5201
v  1399.5277 129.9213 -1955.7097
v  1399.5277 141.7323 -1955.7097
v  1399.5276 259.8425 -1825.7874
v  1411.3386 259.8425 -1825.7861
v  1411.3533 259.8425 -1967.5184
v  1399.5422 259.8425 -1967.5197
v  1411.3313 141.7323 -1825.7861
v  1399.5283 141.7323 -2625.0005
v  1399.5283 129.9213 -2625.0005
v  1411.3251 259.8425 -2613.1892
v  1411.3390 259.8425 -2625.0000
v  1399.5283 259.8425 -2625.0005
v  1411.3317 259.8425 -2279.0947
v  1411.3350 259.8425 -2267.2837
v  1411.3384 259.8425 -1967.5195
v  1399.5277 259.8425 -1967.5201
v  1399.5259 141.7323 -2723.4258
v  1399.5284 129.9213 -2723.4258
v  1411.3386 259.8425 -2624.9998
v  1411.3386 259.8425 -2723.4253
v  1411.3369 259.8425 -2723.4253
v  1399.5259 259.8425 -2723.4258
v  1399.5286 141.7323 -3787.7954
v  1399.5286 129.9213 -3787.7954
v  1399.5286 129.9213 -3412.4016
v  1399.5286 141.7323 -3424.2124
v  1399.5286 141.7323 -3412.4016
v  1399.5293 141.7323 -3412.4021
v  1399.5319 129.9213 -3412.4021
v  1411.3403 259.8425 -3412.4019
v  1399.5293 259.8425 -3412.4021
v  1399.5276 141.7323 -3787.7954
v  1399.5276 141.7323 -4211.6128
v  1411.3386 141.7323 -3787.7954
v  1411.3386 141.7323 -4211.6143
v  1399.5396 141.7323 -4223.4238
v  1399.5286 259.8425 -3787.7954
v  1399.5286 259.8425 -3424.2124
v  1411.3386 259.8425 -3424.2126
v  1399.5286 259.8425 -3412.4016
v  1411.3386 259.8425 -3412.4016
v  1399.5396 259.8425 -1813.9751
v  1411.3384 141.7323 -1967.5195
v  1411.3350 141.7323 -2267.2837
v  1411.3317 141.7323 -2279.0947
v  1411.3251 141.7323 -2613.1892
v  1411.3386 141.7323 -2624.9998
v  1411.3390 141.7323 -2625.0000
v  1411.3386 141.7323 -2723.4253
v  1411.3369 141.7323 -2723.4253
v  1411.3403 141.7323 -3412.4019
v  1411.3386 141.7323 -3412.4016
v  1411.3386 141.7323 -3424.2126
v  1399.5396 259.8425 -4223.4238
v  1411.3386 135.8268 -1825.7861
v  1411.3386 135.8268 -1955.7085
v  1411.3386 141.7323 -1825.7861
v  1411.3386 141.7323 -1955.7085
v  1411.3386 17.7165 -3787.7954
v  1411.3386 17.7165 -3803.0811
v  1411.3386 23.6220 -3803.0811
v  1411.3386 23.6220 -3818.3662
v  1411.3386 29.5276 -3818.3662
v  1411.3386 29.5276 -3833.6519
v  1411.3386 35.4331 -3833.6519
v  1411.3386 35.4331 -3848.9370
v  1411.3386 41.3386 -3848.9370
v  1411.3386 41.3386 -3864.2227
v  1411.3386 47.2441 -3864.2227
v  1411.3386 47.2441 -3879.5081
v  1411.3386 53.1496 -3879.5081
v  1411.3386 53.1496 -3894.7935
v  1411.3386 59.0551 -3894.7935
v  1411.3386 59.0551 -3910.0789
v  1411.3386 64.9606 -3910.0789
v  1411.3386 64.9606 -3925.3643
v  1411.3386 70.8661 -3925.3643
v  1411.3386 70.8661 -3940.6497
v  1411.3386 76.7717 -3940.6497
v  1411.3386 76.7717 -3955.9351
v  1411.3386 82.6772 -3955.9351
v  1411.3386 82.6772 -3971.2205
v  1411.3386 88.5827 -3971.2205
v  1411.3386 88.5827 -3986.5059
v  1411.3386 94.4882 -3986.5059
v  1411.3386 94.4882 -4001.7915
v  1411.3386 100.3937 -4001.7915
v  1411.3386 100.3937 -4017.0767
v  1411.3386 106.2992 -4017.0767
v  1411.3386 106.2992 -4032.3623
v  1411.3386 112.2047 -4032.3623
v  1411.3386 112.2047 -4047.6477
v  1411.3386 118.1102 -4047.6477
v  1411.3386 118.1102 -4062.9331
v  1411.3386 124.0157 -4062.9331
v  1411.3386 124.0157 -4078.2185
v  1411.3386 129.9213 -4078.2185
v  1411.3386 129.9213 -4093.5039
v  1411.3386 135.8268 -4093.5039
v  1411.3386 135.8268 -4106.4961
v  1411.3386 141.7323 -4106.4961
# 168 vertices

vn -1.0000 -0.0005 -0.0005
vn -1.0000 0.0000 -0.0000
vn -1.0000 -0.0006 0.0000
vn -0.9794 -0.2020 0.0010
vn -1.0000 -0.0008 -0.0003
vn -1.0000 -0.0000 -0.0010
vn 0.0000 1.0000 -0.0000
vn 0.0000 -0.0000 -1.0000
vn 0.0001 0.0000 -1.0000
vn -1.0000 0.0000 0.0010
vn 0.0000 0.0000 1.0000
vn 1.0000 0.0000 -0.0000
vn -0.0001 0.0000 -1.0000
vn -1.0000 0.0000 -0.0010
vn 0.0001 0.0000 1.0000
vn 0.0000 -1.0000 -0.0000
vn -1.0000 0.0000 -0.0001
vn 1.0000 0.0006 0.0001
vn -1.0000 0.0000 0.0000
vn -1.0000 -0.0002 -0.0000
vn 0.0000 0.0000 -0.0000
vn 0.0001 -0.0000 -1.0000
vn -0.0001 0.0000 1.0000
vn 1.0000 -0.0001 0.0001
vn 0.6000 0.0000 0.8000
vn 0.0000 0.0000 -1.0000
vn -0.0000 0.0000 1.0000
vn -0.6000 0.0000 -0.8000
vn 0.0712 0.0000 -0.9975
vn 1.0000 0.0000 0.0000
# 30 vertex normals

vt -14.7999 -1.1500 0.4251
vt 15.8001 -1.1500 0.4251
vt 15.7999 -1.0000 0.4251
vt 15.6499 -1.0000 0.4249
vt -14.6501 -1.0000 0.4249
vt -14.8001 -1.0000 0.4251
vt 0.4249 15.6501 2.1500
vt 0.4249 10.2676 2.1500
vt 0.5749 10.2676 2.1500
vt 0.5749 15.6501 2.1500
vt 0.4251 -1.0000 -14.6499
vt 0.5751 -1.0000 -14.6499
vt 0.5751 0.5000 -14.6499
vt 0.4251 0.5000 -14.6499
vt 15.7999 0.5000 0.4251
vt 15.6499 0.5000 0.4249
vt -9.2676 0.5000 0.4249
vt -14.6501 0.5000 0.4249
vt 0.4249 -1.0000 -14.6499
vt 0.5749 -1.0000 -14.6499
vt 0.5749 0.5000 -14.6499
vt 0.4249 0.5000 -14.6499
vt -14.6499 -1.0000 0.5749
vt -12.9999 -1.0000 0.5749
vt -12.9999 0.5000 0.5749
vt -14.6499 0.5000 0.5749
vt -12.8499 -1.0000 0.5749
vt -7.0303 -1.0000 0.5749
vt -7.0303 0.5000 0.5749
vt -12.8499 0.5000 0.5749
vt -6.8999 -1.0000 0.5749
vt -4.6499 -1.0000 0.5749
vt -4.6499 0.5000 0.5749
vt -6.8999 0.5000 0.5749
vt -4.4999 -1.0000 0.5749
vt 5.5001 -1.0000 0.5749
vt 5.5001 0.5000 0.5749
vt -4.4999 0.5000 0.5749
vt 5.6501 -1.0000 0.5749
vt 5.6501 0.5000 0.5749
vt 14.3151 -1.0000 0.5749
vt 15.6501 -1.0000 0.5749
vt 15.6501 0.5000 0.5749
vt 14.1501 -1.0000 0.5749
vt 13.9560 -1.0000 0.5749
vt 13.7618 -1.0000 0.5749
vt 13.5677 -1.0000 0.5749
vt 13.3736 -1.0000 0.5749
vt 13.1795 -1.0000 0.5749
vt 12.9853 -1.0000 0.5749
vt 12.7912 -1.0000 0.5749
vt 12.5971 -1.0000 0.5749
vt 12.4030 -1.0000 0.5749
vt 12.2088 -1.0000 0.5749
vt 12.0147 -1.0000 0.5749
vt 11.8206 -1.0000 0.5749
vt 11.6265 -1.0000 0.5749
vt 11.4324 -1.0000 0.5749
vt 11.2382 -1.0000 0.5749
vt 11.0441 -1.0000 0.5749
vt 10.8500 -1.0000 0.5749
vt 10.6559 -1.0000 0.5749
vt 10.4617 -1.0000 0.5749
vt 10.2676 -1.0000 0.5749
vt 10.2676 0.5000 0.5749
vt 0.4251 -1.0000 15.6501
vt 0.5751 -1.0000 15.6501
vt 0.5751 0.5000 15.6501
vt 0.4251 0.5000 15.6501
vt -14.8001 0.5000 0.4251
vt 0.4249 -1.0000 15.6501
vt 0.5749 -1.0000 15.6501
vt 0.5749 0.5000 15.6501
vt 0.4249 0.5000 15.6501
vt -4.6501 -1.0000 0.5749
vt -4.5001 -1.0000 0.5749
vt -4.5001 0.5000 0.5749
vt -4.6501 0.5000 0.5749
vt 0.4249 0.5000 -12.8499
vt 0.5749 0.5000 -12.8499
vt 0.5749 0.6500 -12.8499
vt 0.4250 0.6500 -12.8499
vt 15.7999 0.6500 0.4251
vt 15.6499 0.6500 0.4249
vt 13.8499 0.6500 0.4249
vt 13.8499 0.5000 0.4249
vt 13.9999 0.5000 0.4249
vt 13.9999 0.6500 0.4249
vt 0.4251 -14.6499 0.5000
vt 0.5751 -14.6499 0.5000
vt 0.5749 -12.8499 0.5000
vt 0.4249 -12.8499 0.5000
vt 13.8499 0.6500 0.4251
vt 13.8499 0.5000 0.4251
vt 0.4249 -14.6499 2.1500
vt 0.5749 -14.6499 2.1500
vt 0.5751 -12.8499 2.1500
vt 0.4251 -12.8499 2.1500
vt -14.6499 0.6500 0.5748
vt -12.8499 0.5000 0.5751
vt -12.8499 0.6500 0.5750
vt 5.4999 0.6500 0.4249
vt 5.4999 0.5000 0.4249
vt 0.5747 -4.6499 2.1500
vt 0.5749 -4.4999 2.1500
vt 0.4249 -4.4999 2.1500
vt 0.5748 -8.8929 2.1500
vt 0.5749 -9.0429 2.1500
vt 0.5749 -12.8499 2.1500
vt 0.4249 -12.8499 2.1500
vt 4.2499 0.6500 0.4249
vt 4.2499 0.5000 0.4249
vt 0.5749 -3.2499 2.1500
vt 0.4249 -3.2499 2.1500
vt -9.2676 0.6500 0.4249
vt -4.5001 0.5000 0.4249
vt -4.6501 0.6500 0.4249
vt -4.5001 0.6500 0.4249
vt -4.5001 0.5000 0.4250
vt 0.5749 5.5001 2.1500
vt 0.4249 5.5001 2.1500
vt 0.4249 10.2676 0.5000
vt 0.4249 -14.6499 0.5000
vt 0.5749 -14.6499 0.5000
vt 0.5749 -12.9999 0.5000
vt 0.5749 -7.0303 0.5000
vt 0.5749 -6.8999 0.5000
vt 0.5749 -4.6499 0.5000
vt 0.5749 -4.4999 0.5000
vt 0.5749 5.5001 0.5000
vt 0.5749 5.6501 0.5000
vt 0.5749 10.2676 0.5000
vt -14.6501 0.6500 0.4249
vt 0.4249 0.5000 10.2676
vt 0.5749 0.5000 10.2676
vt 0.5749 0.6500 10.2676
vt 0.4249 0.6500 10.2676
vt 15.6501 0.6500 0.5749
vt 10.2676 0.6500 0.5749
vt 0.5751 0.6500 15.6501
vt 0.4251 0.6500 15.6501
vt -14.8001 0.6500 0.4251
vt 0.5749 0.6500 15.6501
vt 0.4249 0.6500 15.6501
vt 0.4249 5.6501 2.1500
vt 0.5749 5.6501 2.1500
vt 0.4252 0.6500 -14.6499
vt 0.5751 0.6500 -14.6499
vt 0.5751 2.1500 -14.6499
vt 0.4251 2.1500 -14.6499
vt 15.7999 2.1500 0.4251
vt 15.6499 2.1500 0.4249
vt 0.4249 0.6500 -14.6499
vt 0.5748 0.6500 -14.6499
vt 0.5749 2.1500 -14.6499
vt 0.4249 2.1500 -14.6499
vt -12.8499 2.1500 0.5751
vt -14.6499 2.1500 0.5749
vt 0.5749 2.1500 -12.8499
vt 0.4249 2.1500 -12.8499
vt 13.8499 2.1500 0.4251
vt 0.4249 0.6500 -12.8499
vt -12.8499 0.6500 0.5749
vt -9.0429 0.6500 0.5749
vt -9.0429 2.1500 0.5749
vt -12.8499 2.1500 0.5749
vt -8.8929 0.6500 0.5748
vt -4.6499 0.6500 0.5747
vt -4.6499 2.1500 0.5747
vt -8.8929 2.1500 0.5748
vt 0.5749 0.6500 -4.4999
vt 0.5749 2.1500 -4.4999
vt 0.4251 0.6500 -4.4999
vt 0.5751 0.6500 -4.4999
vt 0.5751 2.1500 -4.4999
vt 0.4251 2.1500 -4.4999
vt 13.8499 2.1500 0.4249
vt 5.4999 2.1500 0.4249
vt -9.2676 2.1500 0.4249
vt -14.6501 2.1500 0.4249
vt 0.5749 2.1500 10.2676
vt 0.4249 2.1500 10.2676
vt 15.6501 2.1500 0.5749
vt 10.2676 2.1500 0.5749
vt 0.5751 2.1500 15.6501
vt 0.4251 2.1500 15.6501
vt 0.4249 0.6500 -4.4999
vt 0.4249 2.1500 -4.4999
vt -4.4999 0.6500 0.5749
vt -3.2499 0.6500 0.5749
vt -3.2499 2.1500 0.5749
vt -4.4999 2.1500 0.5749
vt 0.4251 0.6500 -3.2499
vt 0.4251 2.1500 -3.2499
vt 5.5001 0.6500 0.5749
vt 5.5001 2.1500 0.5749
vt 0.4251 0.6500 5.5001
vt 0.5751 0.6500 5.5001
vt 0.5751 2.1500 5.5001
vt 0.4251 2.1500 5.5001
vt 4.2499 2.1500 0.4249
vt -4.5001 2.1500 0.4249
vt -4.6501 2.1500 0.4249
vt 0.4249 0.6500 5.5001
vt 0.5749 0.6500 5.5001
vt 0.5749 2.1500 5.5001
vt 0.4249 2.1500 5.5001
vt -4.6501 0.6500 0.5749
vt -4.6501 2.1500 0.5749
vt 5.6501 0.6500 0.5749
vt 5.6501 2.1500 0.5749
vt 0.4251 0.6500 10.2676
vt 0.5751 0.6500 10.2676
vt 0.5751 2.1500 10.2676
vt 0.4251 2.1500 10.2676
vt -14.8001 2.1500 0.4251
vt 0.5749 2.1500 15.6501
vt 0.4249 2.1500 15.6501
vt 13.9999 -1.0000 0.5749
vt 15.6499 -1.0000 0.5749
vt 15.6499 0.5000 0.5749
vt 13.9999 0.5000 0.5749
vt 15.6499 0.5750 0.5749
vt 13.9999 0.5750 0.5749
vt 15.6499 0.6500 0.5749
vt 13.9999 0.6500 0.5749
vt -9.4617 -1.0000 0.5749
vt -9.2676 -1.0000 0.5749
vt -9.2676 -0.9250 0.5749
vt -9.4617 -0.9250 0.5749
vt -9.6559 -1.0000 0.5749
vt -9.4617 -0.8500 0.5749
vt -9.6559 -0.8500 0.5749
vt -9.8500 -1.0000 0.5749
vt -9.6559 -0.7750 0.5749
vt -9.8500 -0.7750 0.5749
vt -10.0441 -1.0000 0.5749
vt -9.8500 -0.7000 0.5749
vt -10.0441 -0.7000 0.5749
vt -10.2382 -1.0000 0.5749
vt -10.0441 -0.6250 0.5749
vt -10.2382 -0.6250 0.5749
vt -10.4324 -1.0000 0.5749
vt -10.2382 -0.5500 0.5749
vt -10.4324 -0.5500 0.5749
vt -10.6265 -1.0000 0.5749
vt -10.4324 -0.4750 0.5749
vt -10.6265 -0.4750 0.5749
vt -10.8206 -1.0000 0.5749
vt -10.6265 -0.4000 0.5749
vt -10.8206 -0.4000 0.5749
vt -11.0147 -1.0000 0.5749
vt -10.8206 -0.3250 0.5749
vt -11.0147 -0.3250 0.5749
vt -11.2088 -1.0000 0.5749
vt -11.0147 -0.2500 0.5749
vt -11.2088 -0.2500 0.5749
vt -11.4030 -1.0000 0.5749
vt -11.2088 -0.1750 0.5749
vt -11.4030 -0.1750 0.5749
vt -11.5971 -1.0000 0.5749
vt -11.4030 -0.1000 0.5749
vt -11.5971 -0.1000 0.5749
vt -11.7912 -1.0000 0.5749
vt -11.5971 -0.0250 0.5749
vt -11.7912 -0.0250 0.5749
vt -11.9853 -1.0000 0.5749
vt -11.7912 0.0500 0.5749
vt -11.9853 0.0500 0.5749
vt -12.1795 -1.0000 0.5749
vt -11.9853 0.1250 0.5749
vt -12.1795 0.1250 0.5749
vt -12.3736 -1.0000 0.5749
vt -12.1795 0.2000 0.5749
vt -12.3736 0.2000 0.5749
vt -12.5677 -1.0000 0.5749
vt -12.3736 0.2750 0.5749
vt -12.5677 0.2750 0.5749
vt -12.7618 -1.0000 0.5749
vt -12.5677 0.3500 0.5749
vt -12.7618 0.3500 0.5749
vt -12.9560 -1.0000 0.5749
vt -12.7618 0.4250 0.5749
vt -12.9560 0.4250 0.5749
vt -13.1501 -1.0000 0.5749
vt -12.9560 0.5000 0.5749
vt -13.1501 0.5000 0.5749
vt -13.3151 -1.0000 0.5749
vt -13.1501 0.5750 0.5749
vt -13.3151 0.5750 0.5749
vt -14.6501 -1.0000 0.5749
vt -13.3151 0.6500 0.5749
vt -14.6501 0.6500 0.5749
# 293 texture coords

g Box011
usemtl 01___Default
s 64
f 1/1/1 2/2/2 3/3/3 
f 1/1/1 3/3/3 4/4/4 
f 1/1/1 4/4/4 5/5/5 
f 1/1/1 5/5/5 6/6/6 
s 4
f 7/7/7 8/8/7 9/9/7 
f 9/9/7 10/10/7 7/7/7 
s off
f 11/11/8 4/12/8 12/13/8 
f 12/13/9 13/14/9 11/11/9 
f 4/4/10 3/3/10 14/15/10 
f 14/15/10 12/16/10 4/4/10 
f 5/5/2 4/4/2 15/16/2 
f 5/5/2 15/16/2 16/17/2 
f 5/5/2 16/17/2 17/18/2 
f 4/19/11 11/20/11 13/21/11 
f 13/21/11 15/22/11 4/19/11 
f 11/23/12 18/24/12 19/25/12 
f 19/25/12 13/26/12 11/23/12 
f 20/27/12 21/28/12 22/29/12 
f 22/29/12 23/30/12 20/27/12 
f 24/31/12 25/32/12 26/33/12 
f 26/33/12 27/34/12 24/31/12 
f 28/35/12 29/36/12 30/37/12 
f 30/37/12 31/38/12 28/35/12 
f 29/36/12 32/39/12 33/40/12 
f 33/40/12 30/37/12 29/36/12 
f 34/41/12 35/42/12 36/43/12 
f 37/44/12 34/41/12 36/43/12 
f 38/45/12 37/44/12 36/43/12 
f 39/46/12 38/45/12 36/43/12 
f 40/47/12 39/46/12 36/43/12 
f 41/48/12 40/47/12 36/43/12 
f 42/49/12 41/48/12 36/43/12 
f 43/50/12 42/49/12 36/43/12 
f 44/51/12 43/50/12 36/43/12 
f 45/52/12 44/51/12 36/43/12 
f 46/53/12 45/52/12 36/43/12 
f 47/54/12 46/53/12 36/43/12 
f 48/55/12 47/54/12 36/43/12 
f 49/56/12 48/55/12 36/43/12 
f 50/57/12 49/56/12 36/43/12 
f 51/58/12 50/57/12 36/43/12 
f 52/59/12 51/58/12 36/43/12 
f 53/60/12 52/59/12 36/43/12 
f 54/61/12 53/60/12 36/43/12 
f 55/62/12 54/61/12 36/43/12 
f 56/63/12 55/62/12 36/43/12 
f 57/64/12 56/63/12 36/43/12 
f 32/39/12 57/64/12 36/43/12 
f 32/39/12 36/43/12 58/65/12 
f 32/39/12 58/65/12 33/40/12 
f 35/66/13 5/67/13 17/68/13 
f 17/68/13 36/69/13 35/66/13 
f 6/6/14 5/5/14 17/18/14 
f 17/18/14 59/70/14 6/6/14 
f 5/71/15 35/72/15 36/73/15 
f 36/73/15 17/74/15 5/71/15 
f 32/75/2 29/76/2 30/77/2 
f 30/77/2 33/78/2 32/75/2 
f 60/79/9 61/80/9 62/81/9 
f 62/81/9 63/82/9 60/79/9 
f 12/16/10 14/15/10 64/83/10 
f 64/83/10 65/84/10 12/16/10 
f 66/85/2 67/86/2 68/87/2 
f 68/87/2 69/88/2 66/85/2 
f 13/89/16 12/90/16 61/91/16 
f 61/91/16 60/92/16 13/89/16 
f 12/16/17 65/84/17 62/93/17 
f 62/93/17 61/94/17 12/16/17 
f 70/95/7 71/96/7 72/97/7 
f 72/97/7 73/98/7 70/95/7 
f 74/99/18 13/26/18 60/100/18 
f 60/100/18 63/101/18 74/99/18 
f 67/86/2 66/85/2 75/102/2 
f 75/102/2 76/103/2 67/86/2 
f 77/104/7 78/105/7 79/106/7 
f 80/107/7 77/104/7 79/106/7 
f 81/108/7 80/107/7 79/106/7 
f 82/109/7 81/108/7 79/106/7 
f 83/110/7 82/109/7 79/106/7 
f 76/103/19 75/102/19 84/111/19 
f 84/111/20 85/112/20 76/103/20 
f 79/106/16 78/105/16 86/105/16 
f 86/105/7 87/113/7 88/113/7 
f 79/106/7 86/105/7 88/113/7 
f 79/106/7 88/113/7 89/114/7 
f 90/115/2 91/17/2 92/116/2 
f 93/117/2 90/115/2 92/116/2 
f 94/118/2 93/117/2 92/116/2 
f 85/112/20 84/111/20 95/118/20 
f 95/118/20 96/119/20 85/112/20 
f 88/113/7 97/120/7 98/121/7 
f 98/121/7 89/114/7 88/113/7 
s 4
f 16/122/7 15/123/7 13/124/7 
f 16/122/7 13/124/7 19/125/7 
f 16/122/7 19/125/7 23/91/7 
f 16/122/7 23/91/7 22/126/7 
f 16/122/7 22/126/7 27/127/7 
f 16/122/7 27/127/7 26/128/7 
f 16/122/7 26/128/7 31/129/7 
f 16/122/7 31/129/7 30/130/7 
f 16/122/7 30/130/7 33/131/7 
f 16/122/7 33/131/7 58/132/7 
s off
f 17/18/2 16/17/2 99/115/2 
f 99/115/2 100/133/2 17/18/2 
f 16/134/11 58/135/11 101/136/11 
f 101/136/11 99/137/11 16/134/11 
f 58/65/12 36/43/12 102/138/12 
f 102/138/12 101/139/12 58/65/12 
f 36/69/13 17/68/13 100/140/13 
f 100/140/13 102/141/13 36/69/13 
f 59/70/14 17/18/14 100/133/14 
f 100/133/14 103/142/14 59/70/14 
f 17/74/15 36/73/15 102/143/15 
f 102/143/15 100/144/15 17/74/15 
f 104/8/7 105/145/7 106/146/7 
f 106/146/7 9/9/7 104/8/7 
f 106/146/7 105/145/7 107/121/7 
f 106/146/7 107/121/7 108/120/7 
f 106/146/21 106/146/21 108/120/21 
f 74/147/9 65/148/9 70/149/9 
f 70/149/22 71/150/22 74/147/22 
f 65/84/10 64/83/10 109/151/10 
f 109/151/10 70/152/10 65/84/10 
f 65/153/23 74/154/23 71/155/23 
f 71/155/23 70/156/23 65/153/23 
f 74/99/24 63/101/24 72/157/24 
f 72/157/24 71/158/24 74/99/24 
f 63/82/9 62/81/9 73/159/9 
f 73/159/22 72/160/22 63/82/22 
f 62/93/17 65/84/17 70/152/17 
f 70/152/17 73/161/17 62/93/17 
f 66/162/23 110/81/23 82/159/23 
f 82/159/23 83/160/23 66/162/23 
f 110/163/12 111/164/12 81/165/12 
f 81/165/12 82/166/12 110/163/12 
f 112/167/12 113/168/12 77/169/12 
f 77/169/12 80/170/12 112/167/12 
f 114/171/25 115/171/25 78/172/25 
f 78/172/25 86/172/25 114/171/25 
f 115/173/26 75/174/26 79/175/26 
f 79/175/26 78/176/26 115/173/26 
f 75/102/2 66/85/2 83/177/2 
f 83/177/2 79/178/2 75/102/2 
f 100/133/2 99/115/2 8/179/2 
f 8/179/2 7/180/2 100/133/2 
f 99/137/11 101/136/11 9/181/11 
f 9/181/11 8/182/11 99/137/11 
f 101/139/12 102/138/12 10/183/12 
f 10/183/12 9/184/12 101/139/12 
f 102/141/13 100/140/13 7/185/13 
f 7/185/13 10/186/13 102/141/13 
f 75/187/27 115/171/27 78/172/27 
f 78/172/27 79/188/27 75/187/27 
f 115/173/28 114/173/28 86/176/28 
f 86/176/28 78/176/28 115/173/28 
f 114/189/12 116/190/12 87/191/12 
f 87/191/12 86/192/12 114/189/12 
f 116/193/29 117/193/29 88/194/29 
f 88/194/29 87/194/29 116/193/29 
f 117/190/30 118/195/30 97/196/30 
f 97/196/30 88/191/30 117/190/30 
f 118/197/26 95/198/26 98/199/26 
f 98/199/26 97/200/26 118/197/26 
f 95/118/2 84/111/2 89/201/2 
f 89/201/2 98/202/2 95/118/2 
f 84/111/19 75/102/19 79/178/19 
f 79/178/19 89/201/19 84/111/19 
f 93/117/2 94/118/2 107/202/2 
f 107/202/2 105/203/2 93/117/2 
f 94/204/11 119/205/11 108/206/11 
f 108/206/11 107/207/11 94/204/11 
f 120/208/2 120/208/2 106/209/2 
f 106/209/2 106/209/2 120/208/2 
f 120/210/12 101/139/12 9/184/12 
f 9/184/12 106/211/12 120/210/12 
f 101/212/26 90/213/26 104/214/26 
f 104/214/26 9/215/26 101/212/26 
f 90/115/2 93/117/2 105/203/2 
f 105/203/2 104/179/2 90/115/2 
f 103/142/14 100/133/14 7/180/14 
f 7/180/14 121/216/14 103/142/14 
f 100/144/15 102/143/15 10/217/15 
f 10/217/15 7/218/15 100/144/15 
f 18/219/2 11/220/2 13/221/2 
f 13/221/2 19/222/2 18/219/2 
f 19/222/2 13/221/2 122/223/2 
f 122/223/2 123/224/2 19/222/2 
f 123/224/2 122/223/2 124/225/2 
f 124/225/2 125/226/2 123/224/2 
f 56/227/2 57/228/2 126/229/2 
f 126/229/2 127/230/2 56/227/2 
f 55/231/2 56/227/2 128/232/2 
f 128/232/2 129/233/2 55/231/2 
f 54/234/2 55/231/2 130/235/2 
f 130/235/2 131/236/2 54/234/2 
f 53/237/2 54/234/2 132/238/2 
f 132/238/2 133/239/2 53/237/2 
f 52/240/2 53/237/2 134/241/2 
f 134/241/2 135/242/2 52/240/2 
f 51/243/2 52/240/2 136/244/2 
f 136/244/2 137/245/2 51/243/2 
f 50/246/2 51/243/2 138/247/2 
f 138/247/2 139/248/2 50/246/2 
f 49/249/2 50/246/2 140/250/2 
f 140/250/2 141/251/2 49/249/2 
f 48/252/2 49/249/2 142/253/2 
f 142/253/2 143/254/2 48/252/2 
f 47/255/2 48/252/2 144/256/2 
f 144/256/2 145/257/2 47/255/2 
f 46/258/2 47/255/2 146/259/2 
f 146/259/2 147/260/2 46/258/2 
f 45/261/2 46/258/2 148/262/2 
f 148/262/2 149/263/2 45/261/2 
f 44/264/2 45/261/2 150/265/2 
f 150/265/2 151/266/2 44/264/2 
f 43/267/2 44/264/2 152/268/2 
f 152/268/2 153/269/2 43/267/2 
f 42/270/2 43/267/2 154/271/2 
f 154/271/2 155/272/2 42/270/2 
f 41/273/2 42/270/2 156/274/2 
f 156/274/2 157/275/2 41/273/2 
f 40/276/2 41/273/2 158/277/2 
f 158/277/2 159/278/2 40/276/2 
f 39/279/2 40/276/2 160/280/2 
f 160/280/2 161/281/2 39/279/2 
f 38/282/2 39/279/2 162/283/2 
f 162/283/2 163/284/2 38/282/2 
f 37/285/2 38/282/2 164/286/2 
f 164/286/2 165/287/2 37/285/2 
f 34/288/2 37/285/2 166/289/2 
f 166/289/2 167/290/2 34/288/2 
f 35/291/2 34/288/2 168/292/2 
f 168/292/2 102/293/2 35/291/2 
# 233 faces

