# 3ds Max Wavefront OBJ Exporter v0.97b - (c)2007 guruware
# File Created: 02.11.2013 17:42:14

mtllib fstStair1_06.mtl

#
# object Box011
#

v  1722.3623 53.1496 -1825.7866
v  1722.3623 53.1496 -1955.7085
v  1708.5828 53.1496 -1955.7085
v  1708.5828 53.1496 -1825.7866
v  1722.3623 11.8110 -1955.7085
v  1722.3623 11.8110 -1825.7866
v  1722.3623 47.2441 -1825.7866
v  1722.3623 47.2441 -1955.7085
v  1708.5828 11.8110 -1825.7866
v  1708.5828 11.8110 -1955.7085
# 10 vertices

vn 0.0000 1.0000 -0.0000
vn -1.0000 0.0000 -0.0000
vn 0.0000 0.0000 1.0000
vn 1.0000 0.0000 0.0000
vn 0.0000 0.0000 -1.0000
# 5 vertex normals

vt 0.5875 -0.3250 0.9995
vt 0.5875 1.3250 0.9995
vt 0.4125 1.3250 0.9995
vt 0.4125 -0.3250 0.9995
vt 0.5264 0.5025 0.0000
vt 0.5531 0.5000 0.0000
vt 0.5516 0.5000 0.0000
vt 0.5875 -0.3250 0.0005
vt 0.5875 1.3250 0.0005
vt 0.5256 0.5025 0.0000
# 10 texture coords

g Box011
usemtl 01___Default
s 4
f 1/1/1 2/2/1 3/3/1 
f 3/3/1 4/4/1 1/1/1 
s off
f 5/5/2 6/6/2 7/6/2 
f 7/6/2 8/5/2 5/5/2 
f 9/7/3 6/6/3 1/6/3 
f 1/6/3 4/7/3 9/7/3 
f 6/8/4 5/9/4 2/2/4 
f 2/2/4 1/1/4 6/8/4 
f 5/5/5 10/10/5 3/10/5 
f 3/10/5 2/5/5 5/5/5 
f 10/10/2 9/7/2 4/7/2 
f 4/7/2 3/10/2 10/10/2 
# 12 faces

