# 3ds Max Wavefront OBJ Exporter v0.97b - (c)2007 guruware
# File Created: 02.11.2013 18:12:07

mtllib fstStair2_18.mtl

#
# object Box011
#

v  1529.4490 124.0157 -4078.2185
v  1411.3386 124.0157 -4078.2185
v  1411.3386 124.0157 -4062.9331
v  1529.4490 124.0157 -4062.9331
v  1529.4490 11.8110 -4062.9331
v  1411.3386 11.8110 -4062.9331
v  1411.3386 118.1102 -4062.9331
v  1529.4490 118.1102 -4062.9331
v  1411.3386 11.8110 -4078.2185
v  1529.4490 11.8110 -4078.2185
# 10 vertices

vn 0.0000 1.0000 -0.0000
vn 0.0000 0.0000 -1.0000
vn -1.0000 0.0000 -0.0000
vn 0.0000 0.0000 1.0000
vn 1.0000 0.0000 -0.0000
# 5 vertex normals

vt 1.2500 0.5971 0.9995
vt -0.2500 0.5971 0.9995
vt -0.2500 0.4029 0.9995
vt 1.2500 0.4029 0.9995
vt 0.5073 0.7462 0.0000
vt 0.5000 0.7271 0.0000
vt 0.5000 0.7281 0.0000
vt -0.2500 0.4029 0.0005
vt 1.2500 0.4029 0.0005
vt 0.5072 0.7464 0.0000
# 10 texture coords

g Box011
usemtl 01___Default
s 4
f 1/1/1 2/2/1 3/3/1 
f 3/3/1 4/4/1 1/1/1 
s off
f 5/5/2 6/6/2 7/6/2 
f 7/6/2 8/5/2 5/5/2 
f 9/7/3 6/6/3 3/6/3 
f 3/6/3 2/7/3 9/7/3 
f 6/8/4 5/9/4 4/4/4 
f 4/4/4 3/3/4 6/8/4 
f 5/5/5 10/10/5 1/10/5 
f 1/10/5 4/5/5 5/5/5 
f 10/10/2 9/7/2 2/7/2 
f 2/7/2 1/10/2 10/10/2 
# 12 faces

