# 3ds Max Wavefront OBJ Exporter v0.97b - (c)2007 guruware
# File Created: 02.11.2013 17:43:54

mtllib fstStair1_08.mtl

#
# object Box011
#

v  1694.8032 64.9606 -1825.7866
v  1694.8032 64.9606 -1955.7085
v  1681.0237 64.9606 -1955.7085
v  1681.0237 64.9606 -1825.7866
v  1694.8032 11.8110 -1955.7085
v  1694.8032 11.8110 -1825.7866
v  1694.8032 59.0551 -1825.7866
v  1694.8032 59.0551 -1955.7085
v  1681.0237 11.8110 -1825.7866
v  1681.0237 11.8110 -1955.7085
# 10 vertices

vn 0.0000 1.0000 -0.0000
vn -1.0000 0.0000 -0.0000
vn 0.0000 0.0000 1.0000
vn 1.0000 0.0000 0.0000
vn 0.0000 0.0000 -1.0000
# 5 vertex normals

vt 0.5875 -0.3250 0.9995
vt 0.5875 1.3250 0.9995
vt 0.4125 1.3250 0.9995
vt 0.4125 -0.3250 0.9995
vt 0.5875 1.3250 0.0005
vt 0.5875 -0.3250 0.0005
vt 0.5875 -0.3250 0.8885
vt 0.5875 1.3250 0.8885
vt 0.5484 0.5000 0.0000
vt 0.5500 0.5000 0.0000
vt 0.5248 0.5025 0.0000
vt 0.5241 0.5026 0.0000
vt 0.4125 1.3250 0.0005
vt 0.4125 -0.3250 0.0005
# 14 texture coords

g Box011
usemtl 01___Default
s 4
f 1/1/1 2/2/1 3/3/1 
f 3/3/1 4/4/1 1/1/1 
s off
f 5/5/2 6/6/2 7/7/2 
f 7/7/2 8/8/2 5/5/2 
f 9/9/3 6/10/3 1/10/3 
f 1/10/3 4/9/3 9/9/3 
f 6/6/4 5/5/4 2/2/4 
f 2/2/4 1/1/4 6/6/4 
f 5/11/5 10/12/5 3/12/5 
f 3/12/5 2/11/5 5/11/5 
f 10/13/2 9/14/2 4/4/2 
f 4/4/2 3/3/2 10/13/2 
# 12 faces

