# 3ds Max Wavefront OBJ Exporter v0.97b - (c)2007 guruware
# File Created: 04.11.2013 17:21:28

mtllib fstWallP.mtl

#
# object Box011
#

v  2997.9529 129.9213 -2928.1494
v  2997.9529 129.9213 -2939.9607
v  2914.8623 129.9213 -2939.9607
v  2914.8623 129.9213 -2928.1497
v  2997.9529 11.8110 -2939.9607
v  2997.9529 11.8110 -2928.1494
v  2914.8623 11.8110 -2939.9607
v  2914.8623 11.8110 -2928.1497
# 8 vertices

vn 0.0000 1.0000 -0.0000
vn -1.0000 0.0000 -0.0000
vn 1.0000 0.0000 -0.0000
vn -0.0000 0.0000 -1.0000
vn -0.0000 0.0000 1.0000
# 5 vertex normals

vt 1.0276 0.4250 1.2500
vt 1.0276 0.5750 1.2500
vt -0.0276 0.5750 1.2500
vt -0.0276 0.4250 1.2500
vt 0.4250 -0.2500 1.0276
vt 0.5750 -0.2500 1.0276
vt 0.5750 1.2500 1.0276
vt 0.4250 1.2500 1.0276
vt -0.0276 -0.2500 0.5750
vt 1.0276 -0.2500 0.5750
vt 1.0276 1.2500 0.5750
vt -0.0276 1.2500 0.5750
vt 0.4250 -0.2500 -0.0276
vt 0.5750 -0.2500 -0.0276
vt 0.5750 1.2500 -0.0276
vt 0.4250 1.2500 -0.0276
vt -0.0276 -0.2500 0.4250
vt 1.0276 -0.2500 0.4250
vt 1.0276 1.2500 0.4250
vt -0.0276 1.2500 0.4250
# 20 texture coords

g Box011
usemtl 01___Default
s 4
f 1/1/1 2/2/1 3/3/1 
f 3/3/1 4/4/1 1/1/1 
s off
f 5/5/2 6/6/2 1/7/2 
f 1/7/2 2/8/2 5/5/2 
f 6/5/3 5/6/3 2/7/3 
f 2/7/3 1/8/3 6/5/3 
f 5/9/4 7/10/4 3/11/4 
f 3/11/4 2/12/4 5/9/4 
f 7/13/2 8/14/2 4/15/2 
f 4/15/2 3/16/2 7/13/2 
f 8/17/5 6/18/5 1/19/5 
f 1/19/5 4/20/5 8/17/5 
# 12 faces

