# 3ds Max Wavefront OBJ Exporter v0.97b - (c)2007 guruware
# File Created: 04.11.2013 17:19:23

mtllib fstWallL.mtl

#
# object Box011
#

v  1411.3386 129.9213 -2625.0000
v  1411.3386 129.9213 -2613.1890
v  1740.2644 129.9213 -2613.1890
v  1740.2644 129.9213 -2625.0000
v  1411.3386 11.8110 -2613.1890
v  1740.2644 11.8110 -2613.1890
v  1740.2644 11.8110 -2625.0000
v  1411.3386 11.8110 -2625.0000
# 8 vertices

vn 0.0000 1.0000 -0.0000
vn 0.0000 0.0000 1.0000
vn 1.0000 0.0000 -0.0000
vn 0.0000 0.0000 -1.0000
# 4 vertex normals

vt -1.5887 0.5750 1.2500
vt -1.5887 0.4250 1.2500
vt 2.5887 0.4250 1.2500
vt 2.5887 0.5750 1.2500
vt -1.5887 -0.2500 0.4250
vt 2.5887 -0.2500 0.4250
vt 2.5887 1.2500 0.4250
vt -1.5887 1.2500 0.4250
vt 0.4250 -0.2500 2.5887
vt 0.5750 -0.2500 2.5887
vt 0.5750 1.2500 2.5887
vt 0.4250 1.2500 2.5887
vt -1.5887 -0.2500 0.5750
vt 2.5887 -0.2500 0.5750
vt 2.5887 1.2500 0.5750
vt -1.5887 1.2500 0.5750
# 16 texture coords

g Box011
usemtl 01___Default
s 4
f 1/1/1 2/2/1 3/3/1 
f 3/3/1 4/4/1 1/1/1 
s off
f 5/5/2 6/6/2 3/7/2 
f 3/7/2 2/8/2 5/5/2 
f 6/9/3 7/10/3 4/11/3 
f 4/11/3 3/12/3 6/9/3 
f 7/13/4 8/14/4 1/15/4 
f 1/15/4 4/16/4 7/13/4 
# 8 faces

