# 3ds Max Wavefront OBJ Exporter v0.97b - (c)2007 guruware
# File Created: 04.11.2013 17:19:57

mtllib fstWallM.mtl

#
# object Box011
#

v  1830.9580 129.9213 -2613.1890
v  1905.8196 129.9213 -2613.1890
v  1905.8198 129.9213 -2625.0000
v  1819.1470 129.9213 -2613.1890
v  1799.3196 129.9213 -2613.1890
v  1799.3196 129.9213 -2625.0000
v  1830.9580 11.8110 -2613.1890
v  1905.8196 11.8110 -2613.1890
v  1905.8198 11.8110 -2625.0000
v  1799.3196 11.8110 -2625.0000
v  1799.3196 11.8110 -2613.1890
v  1819.1470 11.8110 -2613.1890
# 12 vertices

vn 0.0000 1.0000 -0.0000
vn 0.0000 0.0000 1.0000
vn 1.0000 0.0000 0.0000
vn 0.0000 0.0000 -1.0000
vn -1.0000 0.0000 0.0000
# 5 vertex normals

vt 0.2255 0.4250 1.2500
vt 1.1763 0.4250 1.2500
vt 1.1763 0.5750 1.2500
vt 0.0755 0.4250 1.2500
vt -0.1763 0.4250 1.2500
vt -0.1763 0.5750 1.2500
vt 0.2255 -0.2500 0.4250
vt 1.1763 -0.2500 0.4250
vt 1.1763 1.2500 0.4250
vt 0.2255 1.2500 0.4250
vt 0.4250 -0.2500 1.1763
vt 0.5750 -0.2500 1.1763
vt 0.5750 1.2500 1.1763
vt 0.4250 1.2500 1.1763
vt -0.1763 -0.2500 0.5750
vt 1.1763 -0.2500 0.5750
vt 1.1763 1.2500 0.5750
vt -0.1763 1.2500 0.5750
vt 0.4250 -0.2500 -0.1763
vt 0.5750 -0.2500 -0.1763
vt 0.5750 1.2500 -0.1763
vt 0.4250 1.2500 -0.1763
vt -0.1763 -0.2500 0.4250
vt 0.0755 -0.2500 0.4250
vt 0.0755 1.2500 0.4250
vt -0.1763 1.2500 0.4250
# 26 texture coords

g Box011
usemtl 01___Default
s 4
f 1/1/1 2/2/1 3/3/1 
f 4/4/1 1/1/1 3/3/1 
f 5/5/1 4/4/1 3/3/1 
f 5/5/1 3/3/1 6/6/1 
s off
f 7/7/2 8/8/2 2/9/2 
f 2/9/2 1/10/2 7/7/2 
f 8/11/3 9/12/3 3/13/3 
f 3/13/3 2/14/3 8/11/3 
f 9/15/4 10/16/4 6/17/4 
f 6/17/4 3/18/4 9/15/4 
f 10/19/5 11/20/5 5/21/5 
f 5/21/5 6/22/5 10/19/5 
f 11/23/2 12/24/2 4/25/2 
f 4/25/2 5/26/2 11/23/2 
# 14 faces

