# 3ds Max Wavefront OBJ Exporter v0.97b - (c)2007 guruware
# File Created: 04.11.2013 17:24:11

mtllib fstWallU.mtl

#
# object Box011
#

v  2210.5513 129.9213 -3412.4016
v  2198.7402 129.9213 -3412.4016
v  2198.7402 129.9213 -3077.7559
v  2210.5513 129.9213 -3109.2520
v  2210.5513 129.9213 -3097.4409
v  2210.5513 129.9213 -3077.7559
v  2198.7402 129.9213 -3424.2124
v  2210.5513 129.9213 -3424.2124
v  2210.5513 11.8110 -3412.4016
v  2210.5513 11.8110 -3424.2124
v  2198.7402 11.8110 -3424.2124
v  2198.7402 11.8110 -3412.4016
v  2198.7402 11.8110 -3077.7559
v  2210.5513 11.8110 -3077.7559
v  2210.5513 11.8110 -3097.4409
v  2210.5513 11.8110 -3109.2520
# 16 vertices

vn 0.0000 1.0000 -0.0000
vn 1.0000 0.0000 -0.0000
vn 0.0000 -1.0000 -0.0000
vn 0.0000 0.0000 -1.0000
vn 1.0000 0.0000 0.0000
vn 0.0000 0.0000 -0.0000
vn -1.0000 0.0000 -0.0000
vn 0.0000 0.0000 1.0000
# 8 vertex normals

vt 0.5750 2.5500 1.2500
vt 0.4250 2.5500 1.2500
vt 0.4250 -1.7000 1.2500
vt 0.5750 -1.3000 1.2500
vt 0.5750 -1.4500 1.2500
vt 0.5750 -1.7000 1.2500
vt 0.4250 2.7000 1.2500
vt 0.5750 2.7000 1.2500
vt 0.4250 -0.2500 2.5500
vt 0.4250 1.2500 2.5500
vt 2.5500 -0.2500 0.5750
vt 2.7000 -0.2500 0.5750
vt 2.7000 1.2500 0.5750
vt 2.5500 1.2500 0.5750
vt 0.4250 -0.2500 2.7000
vt 0.5750 -0.2500 2.7000
vt 0.5750 1.2500 2.7000
vt 0.4250 1.2500 2.7000
vt 2.5500 -0.2500 0.4250
vt 2.5500 1.2500 0.4250
vt -1.5500 -0.2500 0.4250
vt 2.7000 -0.2500 0.4250
vt 2.7000 1.2500 0.4250
vt -1.5500 1.2500 0.4250
vt 0.4250 -0.2500 -1.7000
vt 0.5750 -0.2500 -1.7000
vt 0.5750 1.2500 -1.7000
vt 0.4250 1.2500 -1.7000
vt -1.7000 -0.2500 0.5750
vt -1.4500 -0.2500 0.5750
vt -1.4500 1.2500 0.5750
vt -1.7000 1.2500 0.5750
vt -1.3000 -0.2500 0.5750
vt -1.3000 1.2500 0.5750
vt 2.3000 -0.2500 0.5750
vt 2.4500 -0.2500 0.5750
vt 2.4500 1.2500 0.5750
vt 2.3000 1.2500 0.5750
# 38 texture coords

g Box011
usemtl 01___Default
s 4
f 1/1/1 2/2/1 3/3/1 
f 4/4/1 1/1/1 3/3/1 
f 5/5/1 4/4/1 3/3/1 
f 6/6/1 5/5/1 3/3/1 
f 7/7/1 2/2/2 2/2/1 
f 7/7/1 2/2/1 1/1/1 
f 8/8/1 7/7/1 1/1/1 
f 8/8/1 1/1/1 1/1/3 
s off
f 9/9/4 9/9/4 1/10/4 
f 1/10/4 1/10/4 9/9/4 
f 9/11/5 10/12/5 8/13/5 
f 8/13/5 1/14/5 9/11/5 
f 10/15/4 11/16/4 7/17/4 
f 7/17/4 8/18/4 10/15/4 
f 12/19/6 12/19/6 2/20/6 
f 2/20/6 2/20/6 12/19/6 
f 12/21/7 13/22/7 3/23/7 
f 3/23/7 2/24/7 12/21/7 
f 13/25/8 14/26/8 6/27/8 
f 6/27/8 3/28/8 13/25/8 
f 14/29/5 15/30/5 5/31/5 
f 5/31/5 6/32/5 14/29/5 
f 15/30/2 16/33/2 4/34/2 
f 4/34/2 5/31/2 15/30/2 
f 16/33/2 9/11/2 1/14/2 
f 1/14/2 4/34/2 16/33/2 
f 16/35/7 15/36/7 5/37/7 
f 5/37/7 4/38/7 16/35/7 
# 28 faces

