# 3ds Max Wavefront OBJ Exporter v0.97b - (c)2007 guruware
# File Created: 02.11.2013 18:41:00

mtllib fstWallQ.mtl

#
# object Box011
#

v  2997.9529 129.9213 -3097.4409
v  2997.9529 129.9213 -3109.2520
v  2914.8621 129.9213 -3109.2520
v  2914.8621 129.9213 -3097.4409
v  2997.9529 11.8110 -3109.2520
v  2997.9529 11.8110 -3097.4409
v  2914.8621 11.8110 -3109.2520
v  2914.8621 11.8110 -3097.4409
# 8 vertices

vn 0.0000 1.0000 -0.0000
vn -1.0000 0.0000 -0.0000
vn 1.0000 0.0000 -0.0000
vn -0.0000 0.0000 -1.0000
vn -0.0000 0.0000 1.0000
# 5 vertex normals

vt 0.7500 0.5772 0.0000
vt 0.7500 0.5802 0.0000
vt 0.7222 0.5802 0.0000
vt 0.7222 0.5772 0.0000
# 4 texture coords

g Box011
usemtl 01___Default
s 4
f 1/1/1 2/2/1 3/3/1 
f 3/3/1 4/4/1 1/1/1 
s off
f 5/2/2 6/1/2 1/1/2 
f 1/1/2 2/2/2 5/2/2 
f 6/1/3 5/2/3 2/2/3 
f 2/2/3 1/1/3 6/1/3 
f 5/2/4 7/3/4 3/3/4 
f 3/3/4 2/2/4 5/2/4 
f 7/3/2 8/4/2 4/4/2 
f 4/4/2 3/3/2 7/3/2 
f 8/4/5 6/1/5 1/1/5 
f 1/1/5 4/4/5 8/4/5 
# 12 faces

