# 3ds Max Wavefront OBJ Exporter v0.97b - (c)2007 guruware
# File Created: 04.11.2013 17:16:07

mtllib fstWallG.mtl

#
# object Box011
#

v  1411.3386 129.9213 -1955.7085
v  1805.0394 129.9213 -1955.7086
v  1805.0394 129.9213 -1967.5197
v  1411.3386 129.9213 -1967.5197
v  1805.0396 11.8110 -1955.7085
v  1805.0394 11.8110 -1955.7086
v  1791.2600 11.8110 -1955.7085
v  1777.4805 11.8110 -1955.7085
v  1763.7009 11.8110 -1955.7085
v  1749.9214 11.8110 -1955.7085
v  1736.1418 11.8110 -1955.7085
v  1722.3623 11.8110 -1955.7085
v  1708.5828 11.8110 -1955.7085
v  1694.8032 11.8110 -1955.7085
v  1681.0237 11.8110 -1955.7085
v  1667.2441 11.8110 -1955.7085
v  1653.4646 11.8110 -1955.7085
v  1639.6851 11.8110 -1955.7085
v  1625.9055 11.8110 -1955.7085
v  1612.1260 11.8110 -1955.7085
v  1598.3464 11.8110 -1955.7085
v  1584.5669 11.8110 -1955.7085
v  1570.7875 11.8110 -1955.7085
v  1557.0079 11.8110 -1955.7085
v  1543.2284 11.8110 -1955.7085
v  1529.4489 11.8110 -1955.7085
v  1411.3386 11.8110 -1955.7085
v  1805.0394 11.8110 -1967.5197
v  1411.3386 11.8110 -1967.5197
v  1805.0396 129.9213 -1967.5190
v  1805.0396 129.9213 -1955.7086
v  1399.5277 129.9213 -1955.7097
v  1399.5277 129.9213 -1967.5201
v  1791.2600 17.7165 -1955.7085
v  1805.0396 17.7165 -1955.7085
v  1777.4805 23.6220 -1955.7085
v  1791.2600 23.6220 -1955.7085
v  1763.7009 29.5276 -1955.7085
v  1777.4805 29.5276 -1955.7085
v  1749.9214 35.4331 -1955.7085
v  1763.7009 35.4331 -1955.7085
v  1736.1418 41.3386 -1955.7085
v  1749.9214 41.3386 -1955.7085
v  1722.3623 47.2441 -1955.7085
v  1736.1418 47.2441 -1955.7085
v  1708.5828 53.1496 -1955.7085
v  1722.3623 53.1496 -1955.7085
v  1694.8032 59.0551 -1955.7085
v  1708.5828 59.0551 -1955.7085
v  1681.0237 64.9606 -1955.7085
v  1694.8032 64.9606 -1955.7085
v  1667.2441 70.8661 -1955.7085
v  1681.0237 70.8661 -1955.7085
v  1653.4646 76.7717 -1955.7085
v  1667.2441 76.7717 -1955.7085
v  1639.6851 82.6772 -1955.7085
v  1653.4646 82.6772 -1955.7085
v  1625.9055 88.5827 -1955.7085
v  1639.6851 88.5827 -1955.7085
v  1612.1260 94.4882 -1955.7085
v  1625.9055 94.4882 -1955.7085
v  1598.3464 100.3937 -1955.7085
v  1612.1260 100.3937 -1955.7085
v  1584.5669 106.2992 -1955.7085
v  1598.3464 106.2992 -1955.7085
v  1570.7875 112.2047 -1955.7085
v  1584.5669 112.2047 -1955.7085
v  1557.0079 118.1102 -1955.7085
v  1570.7875 118.1102 -1955.7085
v  1543.2284 124.0157 -1955.7085
v  1557.0079 124.0157 -1955.7085
v  1529.4489 129.9213 -1955.7085
v  1543.2284 129.9213 -1955.7085
# 73 vertices

vn 0.0000 1.0000 -0.0000
vn 0.9701 0.0000 -0.2425
vn 0.0000 0.0000 1.0000
vn 1.0000 0.0000 -0.0000
vn 0.0000 0.0000 -1.0000
vn 0.0000 -1.0000 -0.0000
# 6 vertex normals

vt -1.9250 0.4250 1.2500
vt 3.0750 0.4250 1.2500
vt 3.0750 0.5750 1.2500
vt -1.9250 0.5750 1.2500
vt 3.0750 -0.2500 0.4250
vt 3.0750 1.2500 0.4250
vt 2.9000 -0.2500 0.4250
vt 2.7250 -0.2500 0.4250
vt 2.5500 -0.2500 0.4250
vt 2.3750 -0.2500 0.4250
vt 2.2000 -0.2500 0.4250
vt 2.0250 -0.2500 0.4250
vt 1.8500 -0.2500 0.4250
vt 1.6750 -0.2500 0.4250
vt 1.5000 -0.2500 0.4250
vt 1.3250 -0.2500 0.4250
vt 1.1500 -0.2500 0.4250
vt 0.9750 -0.2500 0.4250
vt 0.8000 -0.2500 0.4250
vt 0.6250 -0.2500 0.4250
vt 0.4500 -0.2500 0.4250
vt 0.2750 -0.2500 0.4250
vt 0.1000 -0.2500 0.4250
vt -0.0750 -0.2500 0.4250
vt -0.2500 -0.2500 0.4250
vt -0.4250 -0.2500 0.4250
vt -1.9250 -0.2500 0.4250
vt -1.9250 1.2500 0.4250
vt 0.4250 -0.2500 3.0750
vt 0.5750 -0.2500 3.0750
vt 0.5750 1.2500 3.0750
vt 0.4250 1.2500 3.0750
vt -2.0750 -0.2500 0.5750
vt 2.9250 -0.2500 0.5750
vt 2.9250 1.2500 0.5750
vt -2.0750 1.2500 0.5750
vt -2.0750 0.5750 1.2500
vt -2.0750 0.4250 1.2500
vt -2.0750 -0.2500 0.4250
vt -1.9000 -0.2500 0.4250
vt -1.9000 -0.1750 0.4250
vt -2.0750 -0.1750 0.4250
vt -1.7250 -0.2500 0.4250
vt -1.7250 -0.1000 0.4250
vt -1.9000 -0.1000 0.4250
vt -1.5500 -0.2500 0.4250
vt -1.5500 -0.0250 0.4250
vt -1.7250 -0.0250 0.4250
vt -1.3750 -0.2500 0.4250
vt -1.3750 0.0500 0.4250
vt -1.5500 0.0500 0.4250
vt -1.2000 -0.2500 0.4250
vt -1.2000 0.1250 0.4250
vt -1.3750 0.1250 0.4250
vt -1.0250 -0.2500 0.4250
vt -1.0250 0.2000 0.4250
vt -1.2000 0.2000 0.4250
vt -0.8500 -0.2500 0.4250
vt -0.8500 0.2750 0.4250
vt -1.0250 0.2750 0.4250
vt -0.6750 -0.2500 0.4250
vt -0.6750 0.3500 0.4250
vt -0.8500 0.3500 0.4250
vt -0.5000 -0.2500 0.4250
vt -0.5000 0.4250 0.4250
vt -0.6750 0.4250 0.4250
vt -0.3250 -0.2500 0.4250
vt -0.3250 0.5000 0.4250
vt -0.5000 0.5000 0.4250
vt -0.1500 -0.2500 0.4250
vt -0.1500 0.5750 0.4250
vt -0.3250 0.5750 0.4250
vt 0.0250 -0.2500 0.4250
vt 0.0250 0.6500 0.4250
vt -0.1500 0.6500 0.4250
vt 0.2000 -0.2500 0.4250
vt 0.2000 0.7250 0.4250
vt 0.0250 0.7250 0.4250
vt 0.3750 -0.2500 0.4250
vt 0.3750 0.8000 0.4250
vt 0.2000 0.8000 0.4250
vt 0.5500 -0.2500 0.4250
vt 0.5500 0.8750 0.4250
vt 0.3750 0.8750 0.4250
vt 0.7250 -0.2500 0.4250
vt 0.7250 0.9500 0.4250
vt 0.5500 0.9500 0.4250
vt 0.9000 -0.2500 0.4250
vt 0.9000 1.0250 0.4250
vt 0.7250 1.0250 0.4250
vt 1.0750 -0.2500 0.4250
vt 1.0750 1.1000 0.4250
vt 0.9000 1.1000 0.4250
vt 1.2500 -0.2500 0.4250
vt 1.2500 1.1750 0.4250
vt 1.0750 1.1750 0.4250
vt 1.4250 -0.2500 0.4250
vt 1.4250 1.2500 0.4250
vt 1.2500 1.2500 0.4250
vt 2.9250 -0.2500 0.4250
vt 2.9250 1.2500 0.4250
# 101 texture coords

g Box011
usemtl 01___Default
s 4
f 1/1/1 2/2/1 3/3/1 
f 3/3/1 4/4/1 1/1/1 
s off
f 5/5/2 6/5/2 2/6/2 
f 7/7/3 5/5/3 2/6/3 
f 8/8/3 7/7/3 2/6/3 
f 9/9/3 8/8/3 2/6/3 
f 10/10/3 9/9/3 2/6/3 
f 11/11/3 10/10/3 2/6/3 
f 12/12/3 11/11/3 2/6/3 
f 13/13/3 12/12/3 2/6/3 
f 14/14/3 13/13/3 2/6/3 
f 15/15/3 14/14/3 2/6/3 
f 16/16/3 15/15/3 2/6/3 
f 17/17/3 16/16/3 2/6/3 
f 18/18/3 17/17/3 2/6/3 
f 19/19/3 18/18/3 2/6/3 
f 20/20/3 19/19/3 2/6/3 
f 21/21/3 20/20/3 2/6/3 
f 22/22/3 21/21/3 2/6/3 
f 23/23/3 22/22/3 2/6/3 
f 24/24/3 23/23/3 2/6/3 
f 25/25/3 24/24/3 2/6/3 
f 26/26/3 25/25/3 2/6/3 
f 27/27/3 26/26/3 2/6/3 
f 27/27/3 2/6/3 1/28/3 
f 6/29/4 28/30/4 3/31/4 
f 3/31/4 2/32/4 6/29/4 
f 28/33/5 29/34/5 4/35/5 
f 4/35/5 3/36/5 28/33/5 
f 30/37/6 31/38/6 32/2/6 
f 32/2/6 33/3/6 30/37/6 
f 5/39/5 7/40/5 34/41/5 
f 34/41/5 35/42/5 5/39/5 
f 7/40/5 8/43/5 36/44/5 
f 36/44/5 37/45/5 7/40/5 
f 8/43/5 9/46/5 38/47/5 
f 38/47/5 39/48/5 8/43/5 
f 9/46/5 10/49/5 40/50/5 
f 40/50/5 41/51/5 9/46/5 
f 10/49/5 11/52/5 42/53/5 
f 42/53/5 43/54/5 10/49/5 
f 11/52/5 12/55/5 44/56/5 
f 44/56/5 45/57/5 11/52/5 
f 12/55/5 13/58/5 46/59/5 
f 46/59/5 47/60/5 12/55/5 
f 13/58/5 14/61/5 48/62/5 
f 48/62/5 49/63/5 13/58/5 
f 14/61/5 15/64/5 50/65/5 
f 50/65/5 51/66/5 14/61/5 
f 15/64/5 16/67/5 52/68/5 
f 52/68/5 53/69/5 15/64/5 
f 16/67/5 17/70/5 54/71/5 
f 54/71/5 55/72/5 16/67/5 
f 17/70/5 18/73/5 56/74/5 
f 56/74/5 57/75/5 17/70/5 
f 18/73/5 19/76/5 58/77/5 
f 58/77/5 59/78/5 18/73/5 
f 19/76/5 20/79/5 60/80/5 
f 60/80/5 61/81/5 19/76/5 
f 20/79/5 21/82/5 62/83/5 
f 62/83/5 63/84/5 20/79/5 
f 21/82/5 22/85/5 64/86/5 
f 64/86/5 65/87/5 21/82/5 
f 22/85/5 23/88/5 66/89/5 
f 66/89/5 67/90/5 22/85/5 
f 23/88/5 24/91/5 68/92/5 
f 68/92/5 69/93/5 23/88/5 
f 24/91/5 25/94/5 70/95/5 
f 70/95/5 71/96/5 24/91/5 
f 25/94/5 26/97/5 72/98/5 
f 72/98/5 73/99/5 25/94/5 
f 26/97/5 27/100/5 1/101/5 
f 1/101/5 72/98/5 26/97/5 
# 73 faces

