# 3ds Max Wavefront OBJ Exporter v0.97b - (c)2007 guruware
# File Created: 03.11.2013 16:08:19

mtllib Obstacle_052.mtl

#
# object Box144
#

v  2347.4968 140.1280 -1901.4059
v  2356.9226 140.1280 -1875.5089
v  2331.0256 140.1280 -1866.0831
v  2321.5999 140.1280 -1891.9801
v  2341.9885 181.6241 -1889.5935
v  2333.4124 181.6241 -1886.4719
v  2336.5339 181.6241 -1877.8955
v  2345.1101 181.6241 -1881.0171
v  2321.5999 177.5296 -1891.9801
v  2347.4968 177.5296 -1901.4059
v  2331.0256 177.5296 -1866.0831
v  2356.9226 177.5296 -1875.5089
v  2346.3203 179.4981 -1898.8828
v  2324.1228 179.4981 -1890.8036
v  2332.2021 179.4981 -1868.6062
v  2354.3997 179.4981 -1876.6854
v  2333.4124 179.4981 -1886.4719
v  2341.9885 179.4981 -1889.5935
v  2336.5339 179.4981 -1877.8955
v  2345.1101 179.4981 -1881.0171
# 20 vertices

vn 0.0000 -1.0000 -0.0000
vn 0.0000 1.0000 -0.0000
vn -0.3420 0.0000 -0.9397
vn -0.9397 0.0000 0.3420
vn 0.3420 0.0000 0.9397
vn 0.9397 0.0000 -0.3420
vn -0.2418 0.7071 -0.6645
vn -0.6645 0.7071 0.2418
vn 0.2418 0.7071 0.6645
vn 0.6645 0.7071 -0.2418
# 10 vertex normals

vt 1.0000 0.0000 0.0000
vt 1.0000 1.0000 0.0000
vt 0.0000 1.0000 0.0000
vt 0.0000 0.0000 0.0000
vt 0.0714 0.0714 0.0000
vt 0.9286 0.0714 0.0000
vt 0.9286 0.9286 0.0000
vt 0.0714 0.9286 0.0000
vt 1.0000 0.9500 0.0000
vt 0.0000 0.9500 0.0000
vt 0.0714 1.0600 0.0000
vt 0.9286 1.0600 0.0000
# 12 texture coords

g Box144
usemtl Material__1
s 2
f 1/1/1 2/2/1 3/3/1 
f 3/3/1 4/4/1 1/1/1 
s 4
f 5/5/2 6/6/2 7/7/2 
f 7/7/2 8/8/2 5/5/2 
s 8
f 1/4/3 4/1/3 9/9/3 
f 9/9/3 10/10/3 1/4/3 
s 16
f 4/4/4 3/1/4 11/9/4 
f 11/9/4 9/10/4 4/4/4 
s 32
f 3/4/5 2/1/5 12/9/5 
f 12/9/5 11/10/5 3/4/5 
s 64
f 2/4/6 1/1/6 10/9/6 
f 10/9/6 12/10/6 2/4/6 
s off
f 13/11/7 10/10/7 9/9/7 
f 9/9/7 14/12/7 13/11/7 
f 14/11/8 9/10/8 11/9/8 
f 11/9/8 15/12/8 14/11/8 
f 15/11/9 11/10/9 12/9/9 
f 12/9/9 16/12/9 15/11/9 
f 16/11/10 12/10/10 10/9/10 
f 10/9/10 13/12/10 16/11/10 
f 13/11/2 14/12/2 17/6/2 
f 17/6/2 18/5/2 13/11/2 
f 14/11/2 15/12/2 19/7/2 
f 19/7/2 17/6/2 14/11/2 
f 15/11/2 16/12/2 20/8/2 
f 20/8/2 19/7/2 15/11/2 
f 16/11/2 13/12/2 18/5/2 
f 18/5/2 20/8/2 16/11/2 
f 18/5/3 17/6/3 6/6/3 
f 6/6/3 5/5/3 18/5/3 
f 17/6/4 19/7/4 7/7/4 
f 7/7/4 6/6/4 17/6/4 
f 19/7/5 20/8/5 8/8/5 
f 8/8/5 7/7/5 19/7/5 
f 20/8/6 18/5/6 5/5/6 
f 5/5/6 8/8/6 20/8/6 
# 36 faces

