# 3ds Max Wavefront OBJ Exporter v0.97b - (c)2007 guruware
# File Created: 03.11.2013 14:52:44

mtllib Obstacle_029.mtl

#
# object Box060
#

v  1853.8140 27.3105 -3413.7139
v  1932.5542 27.3105 -3413.7139
v  1932.5542 27.3105 -3409.7769
v  1853.8140 27.3105 -3409.7769
v  1853.8140 30.0940 -3413.7139
v  1853.8140 30.0940 -3409.7769
v  1932.5542 30.0940 -3409.7769
v  1932.5542 30.0940 -3413.7139
v  1853.8140 27.3105 -3407.9536
v  1932.5542 27.3105 -3407.9536
v  1932.5542 27.3105 -3404.0166
v  1853.8140 27.3105 -3404.0166
v  1853.8140 30.0940 -3407.9536
v  1853.8140 30.0940 -3404.0166
v  1932.5542 30.0940 -3404.0166
v  1932.5542 30.0940 -3407.9536
v  1853.8140 27.3105 -3401.7876
v  1932.5542 27.3105 -3401.7876
v  1932.5542 27.3105 -3397.8506
v  1853.8140 27.3105 -3397.8506
v  1853.8140 30.0940 -3401.7876
v  1853.8140 30.0940 -3397.8506
v  1932.5542 30.0940 -3397.8506
v  1932.5542 30.0940 -3401.7876
v  1853.8140 27.3105 -3396.1731
v  1932.5542 27.3105 -3396.1731
v  1932.5542 27.3105 -3392.2361
v  1853.8140 27.3105 -3392.2361
v  1853.8140 30.0940 -3396.1731
v  1853.8140 30.0940 -3392.2361
v  1932.5542 30.0940 -3392.2361
v  1932.5542 30.0940 -3396.1731
# 32 vertices

vn 0.0000 -1.0000 -0.0000
vn 0.0000 1.0000 -0.0000
vn -1.0000 0.0000 -0.0000
vn -0.0000 0.0000 1.0000
vn 1.0000 0.0000 0.0000
vn 0.0000 0.0000 -1.0000
# 6 vertex normals

vt 1.0000 0.0000 0.0000
vt 1.0000 1.0000 0.0000
vt 0.0000 1.0000 0.0000
vt 0.0000 0.0000 0.0000
# 4 texture coords

g Box060
usemtl Material__0
s 2
f 1/1/1 2/2/1 3/3/1 
f 3/3/1 4/4/1 1/1/1 
s 4
f 5/4/2 6/1/2 7/2/2 
f 7/2/2 8/3/2 5/4/2 
s 8
f 1/4/3 4/1/3 6/2/3 
f 6/2/3 5/3/3 1/4/3 
s 16
f 4/4/4 3/1/4 7/2/4 
f 7/2/4 6/3/4 4/4/4 
s 32
f 3/4/5 2/1/5 8/2/5 
f 8/2/5 7/3/5 3/4/5 
s 64
f 2/4/6 1/1/6 5/2/6 
f 5/2/6 8/3/6 2/4/6 
s 2
f 9/1/1 10/2/1 11/3/1 
f 11/3/1 12/4/1 9/1/1 
s 4
f 13/4/2 14/1/2 15/2/2 
f 15/2/2 16/3/2 13/4/2 
s 8
f 9/4/3 12/1/3 14/2/3 
f 14/2/3 13/3/3 9/4/3 
s 16
f 12/4/4 11/1/4 15/2/4 
f 15/2/4 14/3/4 12/4/4 
s 32
f 11/4/5 10/1/5 16/2/5 
f 16/2/5 15/3/5 11/4/5 
s 64
f 10/4/6 9/1/6 13/2/6 
f 13/2/6 16/3/6 10/4/6 
s 2
f 17/1/1 18/2/1 19/3/1 
f 19/3/1 20/4/1 17/1/1 
s 4
f 21/4/2 22/1/2 23/2/2 
f 23/2/2 24/3/2 21/4/2 
s 8
f 17/4/3 20/1/3 22/2/3 
f 22/2/3 21/3/3 17/4/3 
s 16
f 20/4/4 19/1/4 23/2/4 
f 23/2/4 22/3/4 20/4/4 
s 32
f 19/4/5 18/1/5 24/2/5 
f 24/2/5 23/3/5 19/4/5 
s 64
f 18/4/6 17/1/6 21/2/6 
f 21/2/6 24/3/6 18/4/6 
s 2
f 25/1/1 26/2/1 27/3/1 
f 27/3/1 28/4/1 25/1/1 
s 4
f 29/4/2 30/1/2 31/2/2 
f 31/2/2 32/3/2 29/4/2 
s 8
f 25/4/3 28/1/3 30/2/3 
f 30/2/3 29/3/3 25/4/3 
s 16
f 28/4/4 27/1/4 31/2/4 
f 31/2/4 30/3/4 28/4/4 
s 32
f 27/4/5 26/1/5 32/2/5 
f 32/2/5 31/3/5 27/4/5 
s 64
f 26/4/6 25/1/6 29/2/6 
f 29/2/6 32/3/6 26/4/6 
# 48 faces

#
# object Box061
#

v  1926.0336 8.9338 -3412.8384
v  1931.9391 8.9338 -3412.8384
v  1931.9391 8.9338 -3393.1533
v  1926.0336 8.9338 -3393.1533
v  1926.0336 28.6189 -3412.8384
v  1926.0336 28.6189 -3393.1533
v  1931.9391 28.6189 -3393.1533
v  1931.9391 28.6189 -3412.8384
# 8 vertices

vn 0.0000 -1.0000 -0.0000
vn 0.0000 1.0000 -0.0000
vn -1.0000 0.0000 -0.0000
vn -0.0000 0.0000 1.0000
vn 1.0000 0.0000 0.0000
vn 0.0000 0.0000 -1.0000
# 6 vertex normals

vt 1.0000 0.0000 0.0000
vt 1.0000 1.0000 0.0000
vt 0.0000 1.0000 0.0000
vt 0.0000 0.0000 0.0000
# 4 texture coords

g Box061
usemtl Material__0
s 2
f 33/5/7 34/6/7 35/7/7 
f 35/7/7 36/8/7 33/5/7 
s 4
f 37/8/8 38/5/8 39/6/8 
f 39/6/8 40/7/8 37/8/8 
s 8
f 33/8/9 36/5/9 38/6/9 
f 38/6/9 37/7/9 33/8/9 
s 16
f 36/8/10 35/5/10 39/6/10 
f 39/6/10 38/7/10 36/8/10 
s 32
f 35/8/11 34/5/11 40/6/11 
f 40/6/11 39/7/11 35/8/11 
s 64
f 34/8/12 33/5/12 37/6/12 
f 37/6/12 40/7/12 34/8/12 
# 12 faces

#
# object Box062
#

v  1854.5721 8.9338 -3412.8384
v  1860.4777 8.9338 -3412.8384
v  1860.4777 8.9338 -3393.1533
v  1854.5721 8.9338 -3393.1533
v  1854.5721 28.6189 -3412.8384
v  1854.5721 28.6189 -3393.1533
v  1860.4777 28.6189 -3393.1533
v  1860.4777 28.6189 -3412.8384
# 8 vertices

vn 0.0000 -1.0000 -0.0000
vn 0.0000 1.0000 -0.0000
vn -1.0000 0.0000 -0.0000
vn -0.0000 0.0000 1.0000
vn 1.0000 0.0000 0.0000
vn 0.0000 0.0000 -1.0000
# 6 vertex normals

vt 1.0000 0.0000 0.0000
vt 1.0000 1.0000 0.0000
vt 0.0000 1.0000 0.0000
vt 0.0000 0.0000 0.0000
# 4 texture coords

g Box062
usemtl Material__0
s 2
f 41/9/13 42/10/13 43/11/13 
f 43/11/13 44/12/13 41/9/13 
s 4
f 45/12/14 46/9/14 47/10/14 
f 47/10/14 48/11/14 45/12/14 
s 8
f 41/12/15 44/9/15 46/10/15 
f 46/10/15 45/11/15 41/12/15 
s 16
f 44/12/16 43/9/16 47/10/16 
f 47/10/16 46/11/16 44/12/16 
s 32
f 43/12/17 42/9/17 48/10/17 
f 48/10/17 47/11/17 43/12/17 
s 64
f 42/12/18 41/9/18 45/10/18 
f 45/10/18 48/11/18 42/12/18 
# 12 faces

#
# object Box016
#

#
# object Box016
#

#
# object Box022
#

