# 3ds Max Wavefront OBJ Exporter v0.97b - (c)2007 guruware
# File Created: 03.11.2013 14:50:02

mtllib Obstacle_027.mtl

#
# object Box016
#

#
# object Box117
#

v  2605.5291 9.9774 -2697.9722
v  2606.7944 9.9774 -2699.4802
v  2608.3025 9.9774 -2698.2148
v  2607.0371 9.9774 -2696.7068
v  2605.5291 49.3475 -2697.9722
v  2607.0371 49.3475 -2696.7068
v  2608.3025 49.3475 -2698.2148
v  2606.7944 49.3475 -2699.4802
v  2583.5671 9.9774 -2716.4006
v  2584.8323 9.9774 -2717.9084
v  2586.3403 9.9774 -2716.6431
v  2585.0750 9.9774 -2715.1353
v  2583.5671 49.3475 -2716.4006
v  2585.0750 49.3475 -2715.1353
v  2586.3403 49.3475 -2716.6431
v  2584.8323 49.3475 -2717.9084
v  2576.1716 48.2749 -2715.9482
v  2652.0913 48.2749 -2806.4260
v  2682.2505 48.2749 -2781.1194
v  2606.3308 48.2749 -2690.6418
v  2576.1716 50.2434 -2715.9482
v  2606.3308 50.2434 -2690.6418
v  2682.2505 50.2434 -2781.1194
v  2652.0913 50.2434 -2806.4260
v  2652.2600 9.9774 -2798.2656
v  2653.5254 9.9774 -2799.7734
v  2655.0332 9.9774 -2798.5083
v  2653.7678 9.9774 -2797.0002
v  2652.2600 49.3475 -2798.2656
v  2653.7678 49.3475 -2797.0002
v  2655.0332 49.3475 -2798.5083
v  2653.5254 49.3475 -2799.7734
v  2674.2219 9.9774 -2779.8372
v  2675.4873 9.9774 -2781.3452
v  2676.9954 9.9774 -2780.0798
v  2675.7300 9.9774 -2778.5718
v  2674.2219 49.3475 -2779.8372
v  2675.7300 49.3475 -2778.5718
v  2676.9954 49.3475 -2780.0798
v  2675.4873 49.3475 -2781.3452
# 40 vertices

vn 0.0000 -1.0000 -0.0000
vn 0.0000 1.0000 -0.0000
vn -0.6428 0.0000 0.7660
vn 0.7660 0.0000 0.6428
vn 0.6428 0.0000 -0.7660
vn -0.7660 0.0000 -0.6428
# 6 vertex normals

vt 1.0000 0.0000 0.0000
vt 1.0000 1.0000 0.0000
vt 0.0000 1.0000 0.0000
vt 0.0000 0.0000 0.0000
# 4 texture coords

g Box117
usemtl 03___Default
s 2
f 1/1/1 2/2/1 3/3/1 
f 3/3/1 4/4/1 1/1/1 
s 4
f 5/4/2 6/1/2 7/2/2 
f 7/2/2 8/3/2 5/4/2 
s 8
f 1/4/3 4/1/3 6/2/3 
f 6/2/3 5/3/3 1/4/3 
s 16
f 4/4/4 3/1/4 7/2/4 
f 7/2/4 6/3/4 4/4/4 
s 32
f 3/4/5 2/1/5 8/2/5 
f 8/2/5 7/3/5 3/4/5 
s 64
f 2/4/6 1/1/6 5/2/6 
f 5/2/6 8/3/6 2/4/6 
s 2
f 9/1/1 10/2/1 11/3/1 
f 11/3/1 12/4/1 9/1/1 
s 4
f 13/4/2 14/1/2 15/2/2 
f 15/2/2 16/3/2 13/4/2 
s 8
f 9/4/3 12/1/3 14/2/3 
f 14/2/3 13/3/3 9/4/3 
s 16
f 12/4/4 11/1/4 15/2/4 
f 15/2/4 14/3/4 12/4/4 
s 32
f 11/4/5 10/1/5 16/2/5 
f 16/2/5 15/3/5 11/4/5 
s 64
f 10/4/6 9/1/6 13/2/6 
f 13/2/6 16/3/6 10/4/6 
s 2
f 17/1/1 18/2/1 19/3/1 
f 19/3/1 20/4/1 17/1/1 
s 4
f 21/4/2 22/1/2 23/2/2 
f 23/2/2 24/3/2 21/4/2 
s 8
f 17/4/3 20/1/3 22/2/3 
f 22/2/3 21/3/3 17/4/3 
s 16
f 20/4/4 19/1/4 23/2/4 
f 23/2/4 22/3/4 20/4/4 
s 32
f 19/4/5 18/1/5 24/2/5 
f 24/2/5 23/3/5 19/4/5 
s 64
f 18/4/6 17/1/6 21/2/6 
f 21/2/6 24/3/6 18/4/6 
s 2
f 25/1/1 26/2/1 27/3/1 
f 27/3/1 28/4/1 25/1/1 
s 4
f 29/4/2 30/1/2 31/2/2 
f 31/2/2 32/3/2 29/4/2 
s 8
f 25/4/3 28/1/3 30/2/3 
f 30/2/3 29/3/3 25/4/3 
s 16
f 28/4/4 27/1/4 31/2/4 
f 31/2/4 30/3/4 28/4/4 
s 32
f 27/4/5 26/1/5 32/2/5 
f 32/2/5 31/3/5 27/4/5 
s 64
f 26/4/6 25/1/6 29/2/6 
f 29/2/6 32/3/6 26/4/6 
s 2
f 33/1/1 34/2/1 35/3/1 
f 35/3/1 36/4/1 33/1/1 
s 4
f 37/4/2 38/1/2 39/2/2 
f 39/2/2 40/3/2 37/4/2 
s 8
f 33/4/3 36/1/3 38/2/3 
f 38/2/3 37/3/3 33/4/3 
s 16
f 36/4/4 35/1/4 39/2/4 
f 39/2/4 38/3/4 36/4/4 
s 32
f 35/4/5 34/1/5 40/2/5 
f 40/2/5 39/3/5 35/4/5 
s 64
f 34/4/6 33/1/6 37/2/6 
f 37/2/6 40/3/6 34/4/6 
# 60 faces

#
# object Box016
#

