# 3ds Max Wavefront OBJ Exporter v0.97b - (c)2007 guruware
# File Created: 03.11.2013 14:29:37

mtllib Obstacle_015.mtl

#
# object Box016
#

#
# object Box122
#

v  2876.3418 10.0573 -1930.0190
v  2902.9619 10.0573 -1937.1519
v  2910.0947 10.0573 -1910.5317
v  2883.4746 10.0573 -1903.3989
v  2887.6294 51.5534 -1923.5022
v  2889.9915 51.5534 -1914.6864
v  2898.8071 51.5534 -1917.0486
v  2896.4451 51.5534 -1925.8644
v  2883.4746 47.4589 -1903.3989
v  2876.3418 47.4589 -1930.0190
v  2910.0947 47.4589 -1910.5317
v  2902.9619 47.4589 -1937.1519
v  2878.7527 49.4274 -1928.6271
v  2884.8667 49.4274 -1905.8099
v  2907.6838 49.4274 -1911.9237
v  2901.5698 49.4274 -1934.7408
v  2889.9915 49.4274 -1914.6864
v  2887.6294 49.4274 -1923.5022
v  2898.8071 49.4274 -1917.0486
v  2896.4451 49.4274 -1925.8644
# 20 vertices

vn 0.0000 -1.0000 -0.0000
vn 0.0000 1.0000 -0.0000
vn -0.9659 0.0000 0.2588
vn 0.2588 0.0000 0.9659
vn 0.9659 0.0000 -0.2588
vn -0.2588 0.0000 -0.9659
vn -0.6830 0.7071 0.1830
vn 0.1830 0.7071 0.6830
vn 0.6830 0.7071 -0.1830
vn -0.1830 0.7071 -0.6830
# 10 vertex normals

vt 1.0000 0.0000 0.0000
vt 1.0000 1.0000 0.0000
vt 0.0000 1.0000 0.0000
vt 0.0000 0.0000 0.0000
vt 0.0714 0.0714 0.0000
vt 0.9286 0.0714 0.0000
vt 0.9286 0.9286 0.0000
vt 0.0714 0.9286 0.0000
vt 1.0000 0.9500 0.0000
vt 0.0000 0.9500 0.0000
vt 0.0714 1.0600 0.0000
vt 0.9286 1.0600 0.0000
# 12 texture coords

g Box122
usemtl Material__1
s 2
f 1/1/1 2/2/1 3/3/1 
f 3/3/1 4/4/1 1/1/1 
s 4
f 5/5/2 6/6/2 7/7/2 
f 7/7/2 8/8/2 5/5/2 
s 8
f 1/4/3 4/1/3 9/9/3 
f 9/9/3 10/10/3 1/4/3 
s 16
f 4/4/4 3/1/4 11/9/4 
f 11/9/4 9/10/4 4/4/4 
s 32
f 3/4/5 2/1/5 12/9/5 
f 12/9/5 11/10/5 3/4/5 
s 64
f 2/4/6 1/1/6 10/9/6 
f 10/9/6 12/10/6 2/4/6 
s off
f 13/11/7 10/10/7 9/9/7 
f 9/9/7 14/12/7 13/11/7 
f 14/11/8 9/10/8 11/9/8 
f 11/9/8 15/12/8 14/11/8 
f 15/11/9 11/10/9 12/9/9 
f 12/9/9 16/12/9 15/11/9 
f 16/11/10 12/10/10 10/9/10 
f 10/9/10 13/12/10 16/11/10 
f 13/11/2 14/12/2 17/6/2 
f 17/6/2 18/5/2 13/11/2 
f 14/11/2 15/12/2 19/7/2 
f 19/7/2 17/6/2 14/11/2 
f 15/11/2 16/12/2 20/8/2 
f 20/8/2 19/7/2 15/11/2 
f 16/11/2 13/12/2 18/5/2 
f 18/5/2 20/8/2 16/11/2 
f 18/5/3 17/6/3 6/6/3 
f 6/6/3 5/5/3 18/5/3 
f 17/6/4 19/7/4 7/7/4 
f 7/7/4 6/6/4 17/6/4 
f 19/7/5 20/8/5 8/8/5 
f 8/8/5 7/7/5 19/7/5 
f 20/8/6 18/5/6 5/5/6 
f 5/5/6 8/8/6 20/8/6 
# 36 faces

#
# object Box016
#

#
# object Box022
#

