# 3ds Max Wavefront OBJ Exporter v0.97b - (c)2007 guruware
# File Created: 03.11.2013 14:45:03

mtllib Obstacle_018.mtl

#
# object Box016
#

#
# object Box114
#

v  2517.9971 9.9774 -2266.3115
v  2519.2625 9.9774 -2267.8196
v  2520.7705 9.9774 -2266.5542
v  2519.5051 9.9774 -2265.0461
v  2517.9971 49.3475 -2266.3115
v  2519.5051 49.3475 -2265.0461
v  2520.7705 49.3475 -2266.5542
v  2519.2625 49.3475 -2267.8196
v  2496.0352 9.9774 -2284.7400
v  2497.3003 9.9774 -2286.2478
v  2498.8083 9.9774 -2284.9824
v  2497.5430 9.9774 -2283.4746
v  2496.0352 49.3475 -2284.7400
v  2497.5430 49.3475 -2283.4746
v  2498.8083 49.3475 -2284.9824
v  2497.3003 49.3475 -2286.2478
v  2488.6396 48.2749 -2284.2876
v  2564.5593 48.2749 -2374.7654
v  2594.7185 48.2749 -2349.4587
v  2518.7988 48.2749 -2258.9812
v  2488.6396 50.2434 -2284.2876
v  2518.7988 50.2434 -2258.9812
v  2594.7185 50.2434 -2349.4587
v  2564.5593 50.2434 -2374.7654
v  2564.7280 9.9774 -2366.6050
v  2565.9934 9.9774 -2368.1128
v  2567.5012 9.9774 -2366.8477
v  2566.2358 9.9774 -2365.3396
v  2564.7280 49.3475 -2366.6050
v  2566.2358 49.3475 -2365.3396
v  2567.5012 49.3475 -2366.8477
v  2565.9934 49.3475 -2368.1128
v  2586.6899 9.9774 -2348.1765
v  2587.9553 9.9774 -2349.6846
v  2589.4634 9.9774 -2348.4192
v  2588.1980 9.9774 -2346.9111
v  2586.6899 49.3475 -2348.1765
v  2588.1980 49.3475 -2346.9111
v  2589.4634 49.3475 -2348.4192
v  2587.9553 49.3475 -2349.6846
# 40 vertices

vn 0.0000 -1.0000 -0.0000
vn 0.0000 1.0000 -0.0000
vn -0.6428 0.0000 0.7660
vn 0.7660 0.0000 0.6428
vn 0.6428 0.0000 -0.7660
vn -0.7660 0.0000 -0.6428
# 6 vertex normals

vt 1.0000 0.0000 0.0000
vt 1.0000 1.0000 0.0000
vt 0.0000 1.0000 0.0000
vt 0.0000 0.0000 0.0000
# 4 texture coords

g Box114
usemtl 03___Default
s 2
f 1/1/1 2/2/1 3/3/1 
f 3/3/1 4/4/1 1/1/1 
s 4
f 5/4/2 6/1/2 7/2/2 
f 7/2/2 8/3/2 5/4/2 
s 8
f 1/4/3 4/1/3 6/2/3 
f 6/2/3 5/3/3 1/4/3 
s 16
f 4/4/4 3/1/4 7/2/4 
f 7/2/4 6/3/4 4/4/4 
s 32
f 3/4/5 2/1/5 8/2/5 
f 8/2/5 7/3/5 3/4/5 
s 64
f 2/4/6 1/1/6 5/2/6 
f 5/2/6 8/3/6 2/4/6 
s 2
f 9/1/1 10/2/1 11/3/1 
f 11/3/1 12/4/1 9/1/1 
s 4
f 13/4/2 14/1/2 15/2/2 
f 15/2/2 16/3/2 13/4/2 
s 8
f 9/4/3 12/1/3 14/2/3 
f 14/2/3 13/3/3 9/4/3 
s 16
f 12/4/4 11/1/4 15/2/4 
f 15/2/4 14/3/4 12/4/4 
s 32
f 11/4/5 10/1/5 16/2/5 
f 16/2/5 15/3/5 11/4/5 
s 64
f 10/4/6 9/1/6 13/2/6 
f 13/2/6 16/3/6 10/4/6 
s 2
f 17/1/1 18/2/1 19/3/1 
f 19/3/1 20/4/1 17/1/1 
s 4
f 21/4/2 22/1/2 23/2/2 
f 23/2/2 24/3/2 21/4/2 
s 8
f 17/4/3 20/1/3 22/2/3 
f 22/2/3 21/3/3 17/4/3 
s 16
f 20/4/4 19/1/4 23/2/4 
f 23/2/4 22/3/4 20/4/4 
s 32
f 19/4/5 18/1/5 24/2/5 
f 24/2/5 23/3/5 19/4/5 
s 64
f 18/4/6 17/1/6 21/2/6 
f 21/2/6 24/3/6 18/4/6 
s 2
f 25/1/1 26/2/1 27/3/1 
f 27/3/1 28/4/1 25/1/1 
s 4
f 29/4/2 30/1/2 31/2/2 
f 31/2/2 32/3/2 29/4/2 
s 8
f 25/4/3 28/1/3 30/2/3 
f 30/2/3 29/3/3 25/4/3 
s 16
f 28/4/4 27/1/4 31/2/4 
f 31/2/4 30/3/4 28/4/4 
s 32
f 27/4/5 26/1/5 32/2/5 
f 32/2/5 31/3/5 27/4/5 
s 64
f 26/4/6 25/1/6 29/2/6 
f 29/2/6 32/3/6 26/4/6 
s 2
f 33/1/1 34/2/1 35/3/1 
f 35/3/1 36/4/1 33/1/1 
s 4
f 37/4/2 38/1/2 39/2/2 
f 39/2/2 40/3/2 37/4/2 
s 8
f 33/4/3 36/1/3 38/2/3 
f 38/2/3 37/3/3 33/4/3 
s 16
f 36/4/4 35/1/4 39/2/4 
f 39/2/4 38/3/4 36/4/4 
s 32
f 35/4/5 34/1/5 40/2/5 
f 40/2/5 39/3/5 35/4/5 
s 64
f 34/4/6 33/1/6 37/2/6 
f 37/2/6 40/3/6 34/4/6 
# 60 faces

#
# object Box016
#

#
# object Box022
#

