# 3ds Max Wavefront OBJ Exporter v0.97b - (c)2007 guruware
# File Created: 03.11.2013 15:00:16

mtllib Obstacle_037.mtl

#
# object Box096
#

v  2257.1987 9.9413 -3809.8972
v  2241.3916 9.9413 -3787.3220
v  2218.8164 9.9413 -3803.1292
v  2234.6235 9.9413 -3825.7043
v  2254.4570 49.3114 -3809.4136
v  2235.1072 49.3114 -3822.9626
v  2221.5581 49.3114 -3803.6128
v  2240.9080 49.3114 -3790.0637
v  2291.9185 9.9413 -3859.4819
v  2269.3435 9.9413 -3875.2893
v  2269.3435 47.3429 -3875.2893
v  2291.9185 47.3429 -3859.4819
v  2218.8164 47.3429 -3803.1292
v  2234.6235 47.3429 -3825.7043
v  2241.3916 47.3429 -3787.3220
v  2257.1987 47.3429 -3809.8972
v  2289.1768 49.3114 -3858.9985
v  2269.8269 49.3114 -3872.5476
# 18 vertices

vn 0.0000 -1.0000 -0.0000
vn 0.0000 1.0000 -0.0000
vn 0.5736 0.0000 -0.8192
vn -0.8192 0.0000 -0.5736
vn -0.5736 0.0000 0.8192
vn 0.8192 0.0000 0.5736
vn 0.4056 0.7071 -0.5792
vn -0.5792 0.7071 -0.4056
vn -0.4056 0.7071 0.5792
vn 0.5792 0.7071 0.4056
# 10 vertex normals

vt 1.0000 0.0000 0.0000
vt 1.0000 1.0000 0.0000
vt 0.0000 1.0000 0.0000
vt 0.0000 0.0000 0.0000
vt 0.0714 0.0714 0.0000
vt 0.9286 0.0714 0.0000
vt 0.9286 0.9286 0.0000
vt 0.0714 0.9286 0.0000
vt 1.0000 0.9500 0.0000
vt 0.0000 0.9500 0.0000
vt 0.0714 1.0600 0.0000
vt 0.9286 1.0600 0.0000
# 12 texture coords

g Box096
usemtl Material__2
s 2
f 1/1/1 2/2/1 3/3/1 
f 3/3/1 4/4/1 1/1/1 
s 4
f 5/5/2 6/6/2 7/7/2 
f 7/7/2 8/8/2 5/5/2 
s 8
f 9/4/3 10/1/3 11/9/3 
f 11/9/3 12/10/3 9/4/3 
s 16
f 4/4/4 3/1/4 13/9/4 
f 13/9/4 14/10/4 4/4/4 
s 32
f 3/4/5 2/1/5 15/9/5 
f 15/9/5 13/10/5 3/4/5 
s 64
f 2/4/6 1/1/6 16/9/6 
f 16/9/6 15/10/6 2/4/6 
s off
f 17/11/7 12/10/7 11/9/7 
f 11/9/7 18/12/7 17/11/7 
f 6/11/8 14/10/8 13/9/8 
f 13/9/8 7/12/8 6/11/8 
f 7/11/9 13/10/9 15/9/9 
f 15/9/9 8/12/9 7/11/9 
f 8/11/10 15/10/10 16/9/10 
f 16/9/10 5/12/10 8/11/10 
f 1/1/1 4/4/1 10/1/1 
f 10/1/1 9/4/1 1/1/1 
f 4/4/4 14/10/4 11/9/4 
f 11/9/4 10/1/4 4/4/4 
f 14/10/8 6/11/8 18/12/8 
f 18/12/8 11/9/8 14/10/8 
f 6/6/2 5/5/2 17/11/2 
f 17/11/2 18/12/2 6/6/2 
f 5/12/10 16/9/10 12/10/10 
f 12/10/10 17/11/10 5/12/10 
f 16/9/6 1/1/6 9/4/6 
f 9/4/6 12/10/6 16/9/6 
# 32 faces

#
# object Box016
#

#
# object Box016
#

#
# object Box022
#

