# 3ds Max Wavefront OBJ Exporter v0.97b - (c)2007 guruware
# File Created: 03.11.2013 14:59:48

mtllib Obstacle_036.mtl

#
# object Box073
#

v  2088.9255 8.9338 -4063.0107
v  2088.9255 8.9338 -4057.1055
v  2069.2405 8.9338 -4057.1055
v  2069.2405 8.9338 -4063.0107
v  2088.9255 28.6189 -4063.0107
v  2069.2405 28.6189 -4063.0107
v  2069.2405 28.6189 -4057.1055
v  2088.9255 28.6189 -4057.1055
# 8 vertices

vn 0.0000 -1.0000 -0.0000
vn 0.0000 1.0000 -0.0000
vn 0.0000 0.0000 -1.0000
vn -1.0000 0.0000 -0.0000
vn -0.0000 0.0000 1.0000
vn 1.0000 0.0000 0.0000
# 6 vertex normals

vt 1.0000 0.0000 0.0000
vt 1.0000 1.0000 0.0000
vt 0.0000 1.0000 0.0000
vt 0.0000 0.0000 0.0000
# 4 texture coords

g Box073
usemtl Material__0
s 2
f 1/1/1 2/2/1 3/3/1 
f 3/3/1 4/4/1 1/1/1 
s 4
f 5/4/2 6/1/2 7/2/2 
f 7/2/2 8/3/2 5/4/2 
s 8
f 1/4/3 4/1/3 6/2/3 
f 6/2/3 5/3/3 1/4/3 
s 16
f 4/4/4 3/1/4 7/2/4 
f 7/2/4 6/3/4 4/4/4 
s 32
f 3/4/5 2/1/5 8/2/5 
f 8/2/5 7/3/5 3/4/5 
s 64
f 2/4/6 1/1/6 5/2/6 
f 5/2/6 8/3/6 2/4/6 
# 12 faces

#
# object Box074
#

v  2089.8010 27.3105 -4063.7690
v  2089.8010 27.3105 -3985.0288
v  2085.8640 27.3105 -3985.0288
v  2085.8640 27.3105 -4063.7690
v  2089.8010 30.0940 -4063.7690
v  2085.8640 30.0940 -4063.7690
v  2085.8640 30.0940 -3985.0288
v  2089.8010 30.0940 -3985.0288
v  2084.0408 27.3105 -4063.7690
v  2084.0408 27.3105 -3985.0288
v  2080.1038 27.3105 -3985.0288
v  2080.1038 27.3105 -4063.7690
v  2084.0408 30.0940 -4063.7690
v  2080.1038 30.0940 -4063.7690
v  2080.1038 30.0940 -3985.0288
v  2084.0408 30.0940 -3985.0288
v  2077.8748 27.3105 -4063.7690
v  2077.8748 27.3105 -3985.0288
v  2073.9377 27.3105 -3985.0288
v  2073.9377 27.3105 -4063.7690
v  2077.8748 30.0940 -4063.7690
v  2073.9377 30.0940 -4063.7690
v  2073.9377 30.0940 -3985.0288
v  2077.8748 30.0940 -3985.0288
v  2072.2603 27.3105 -4063.7690
v  2072.2603 27.3105 -3985.0288
v  2068.3232 27.3105 -3985.0288
v  2068.3232 27.3105 -4063.7690
v  2072.2603 30.0940 -4063.7690
v  2068.3232 30.0940 -4063.7690
v  2068.3232 30.0940 -3985.0288
v  2072.2603 30.0940 -3985.0288
# 32 vertices

vn 0.0000 -1.0000 -0.0000
vn 0.0000 1.0000 -0.0000
vn 0.0000 0.0000 -1.0000
vn -1.0000 0.0000 -0.0000
vn -0.0000 0.0000 1.0000
vn 1.0000 0.0000 0.0000
# 6 vertex normals

vt 1.0000 0.0000 0.0000
vt 1.0000 1.0000 0.0000
vt 0.0000 1.0000 0.0000
vt 0.0000 0.0000 0.0000
# 4 texture coords

g Box074
usemtl Material__0
s 2
f 9/5/7 10/6/7 11/7/7 
f 11/7/7 12/8/7 9/5/7 
s 4
f 13/8/8 14/5/8 15/6/8 
f 15/6/8 16/7/8 13/8/8 
s 8
f 9/8/9 12/5/9 14/6/9 
f 14/6/9 13/7/9 9/8/9 
s 16
f 12/8/10 11/5/10 15/6/10 
f 15/6/10 14/7/10 12/8/10 
s 32
f 11/8/11 10/5/11 16/6/11 
f 16/6/11 15/7/11 11/8/11 
s 64
f 10/8/12 9/5/12 13/6/12 
f 13/6/12 16/7/12 10/8/12 
s 2
f 17/5/7 18/6/7 19/7/7 
f 19/7/7 20/8/7 17/5/7 
s 4
f 21/8/8 22/5/8 23/6/8 
f 23/6/8 24/7/8 21/8/8 
s 8
f 17/8/9 20/5/9 22/6/9 
f 22/6/9 21/7/9 17/8/9 
s 16
f 20/8/10 19/5/10 23/6/10 
f 23/6/10 22/7/10 20/8/10 
s 32
f 19/8/11 18/5/11 24/6/11 
f 24/6/11 23/7/11 19/8/11 
s 64
f 18/8/12 17/5/12 21/6/12 
f 21/6/12 24/7/12 18/8/12 
s 2
f 25/5/7 26/6/7 27/7/7 
f 27/7/7 28/8/7 25/5/7 
s 4
f 29/8/8 30/5/8 31/6/8 
f 31/6/8 32/7/8 29/8/8 
s 8
f 25/8/9 28/5/9 30/6/9 
f 30/6/9 29/7/9 25/8/9 
s 16
f 28/8/10 27/5/10 31/6/10 
f 31/6/10 30/7/10 28/8/10 
s 32
f 27/8/11 26/5/11 32/6/11 
f 32/6/11 31/7/11 27/8/11 
s 64
f 26/8/12 25/5/12 29/6/12 
f 29/6/12 32/7/12 26/8/12 
s 2
f 33/5/7 34/6/7 35/7/7 
f 35/7/7 36/8/7 33/5/7 
s 4
f 37/8/8 38/5/8 39/6/8 
f 39/6/8 40/7/8 37/8/8 
s 8
f 33/8/9 36/5/9 38/6/9 
f 38/6/9 37/7/9 33/8/9 
s 16
f 36/8/10 35/5/10 39/6/10 
f 39/6/10 38/7/10 36/8/10 
s 32
f 35/8/11 34/5/11 40/6/11 
f 40/6/11 39/7/11 35/8/11 
s 64
f 34/8/12 33/5/12 37/6/12 
f 37/6/12 40/7/12 34/8/12 
# 48 faces

#
# object Box075
#

v  2088.9255 8.9338 -3991.5493
v  2088.9255 8.9338 -3985.6440
v  2069.2405 8.9338 -3985.6440
v  2069.2405 8.9338 -3991.5493
v  2088.9255 28.6189 -3991.5493
v  2069.2405 28.6189 -3991.5493
v  2069.2405 28.6189 -3985.6440
v  2088.9255 28.6189 -3985.6440
# 8 vertices

vn 0.0000 -1.0000 -0.0000
vn 0.0000 1.0000 -0.0000
vn 0.0000 0.0000 -1.0000
vn -1.0000 0.0000 -0.0000
vn -0.0000 0.0000 1.0000
vn 1.0000 0.0000 0.0000
# 6 vertex normals

vt 1.0000 0.0000 0.0000
vt 1.0000 1.0000 0.0000
vt 0.0000 1.0000 0.0000
vt 0.0000 0.0000 0.0000
# 4 texture coords

g Box075
usemtl Material__0
s 2
f 41/9/13 42/10/13 43/11/13 
f 43/11/13 44/12/13 41/9/13 
s 4
f 45/12/14 46/9/14 47/10/14 
f 47/10/14 48/11/14 45/12/14 
s 8
f 41/12/15 44/9/15 46/10/15 
f 46/10/15 45/11/15 41/12/15 
s 16
f 44/12/16 43/9/16 47/10/16 
f 47/10/16 46/11/16 44/12/16 
s 32
f 43/12/17 42/9/17 48/10/17 
f 48/10/17 47/11/17 43/12/17 
s 64
f 42/12/18 41/9/18 45/10/18 
f 45/10/18 48/11/18 42/12/18 
# 12 faces

#
# object Box016
#

#
# object Box016
#

#
# object Box022
#

