# 3ds Max Wavefront OBJ Exporter v0.97b - (c)2007 guruware
# File Created: 03.11.2013 16:21:13

mtllib Obstacle_078.mtl

#
# object Box150
#

v  1605.2960 140.1280 -3965.1321
v  1631.9161 140.1280 -3972.2649
v  1639.0490 140.1280 -3945.6448
v  1612.4288 140.1280 -3938.5120
v  1616.5835 181.6241 -3958.6152
v  1618.9457 181.6241 -3949.7996
v  1627.7615 181.6241 -3952.1616
v  1625.3993 181.6241 -3960.9773
v  1612.4288 177.5296 -3938.5120
v  1605.2960 177.5296 -3965.1321
v  1639.0490 177.5296 -3945.6448
v  1631.9161 177.5296 -3972.2649
v  1607.7070 179.4981 -3963.7400
v  1613.8208 179.4981 -3940.9229
v  1636.6379 179.4981 -3947.0369
v  1630.5242 179.4981 -3969.8540
v  1618.9457 179.4981 -3949.7996
v  1616.5835 179.4981 -3958.6152
v  1627.7615 179.4981 -3952.1616
v  1625.3993 179.4981 -3960.9773
# 20 vertices

vn 0.0000 -1.0000 -0.0000
vn 0.0000 1.0000 -0.0000
vn -0.9659 0.0000 0.2588
vn 0.2588 0.0000 0.9659
vn 0.9659 0.0000 -0.2588
vn -0.2588 0.0000 -0.9659
vn -0.6830 0.7071 0.1830
vn 0.1830 0.7071 0.6830
vn 0.6830 0.7071 -0.1830
vn -0.1830 0.7071 -0.6830
# 10 vertex normals

vt 1.0000 0.0000 0.0000
vt 1.0000 1.0000 0.0000
vt 0.0000 1.0000 0.0000
vt 0.0000 0.0000 0.0000
vt 0.0714 0.0714 0.0000
vt 0.9286 0.0714 0.0000
vt 0.9286 0.9286 0.0000
vt 0.0714 0.9286 0.0000
vt 1.0000 0.9500 0.0000
vt 0.0000 0.9500 0.0000
vt 0.0714 1.0600 0.0000
vt 0.9286 1.0600 0.0000
# 12 texture coords

g Box150
usemtl Material__1
s 2
f 1/1/1 2/2/1 3/3/1 
f 3/3/1 4/4/1 1/1/1 
s 4
f 5/5/2 6/6/2 7/7/2 
f 7/7/2 8/8/2 5/5/2 
s 8
f 1/4/3 4/1/3 9/9/3 
f 9/9/3 10/10/3 1/4/3 
s 16
f 4/4/4 3/1/4 11/9/4 
f 11/9/4 9/10/4 4/4/4 
s 32
f 3/4/5 2/1/5 12/9/5 
f 12/9/5 11/10/5 3/4/5 
s 64
f 2/4/6 1/1/6 10/9/6 
f 10/9/6 12/10/6 2/4/6 
s off
f 13/11/7 10/10/7 9/9/7 
f 9/9/7 14/12/7 13/11/7 
f 14/11/8 9/10/8 11/9/8 
f 11/9/8 15/12/8 14/11/8 
f 15/11/9 11/10/9 12/9/9 
f 12/9/9 16/12/9 15/11/9 
f 16/11/10 12/10/10 10/9/10 
f 10/9/10 13/12/10 16/11/10 
f 13/11/2 14/12/2 17/6/2 
f 17/6/2 18/5/2 13/11/2 
f 14/11/2 15/12/2 19/7/2 
f 19/7/2 17/6/2 14/11/2 
f 15/11/2 16/12/2 20/8/2 
f 20/8/2 19/7/2 15/11/2 
f 16/11/2 13/12/2 18/5/2 
f 18/5/2 20/8/2 16/11/2 
f 18/5/3 17/6/3 6/6/3 
f 6/6/3 5/5/3 18/5/3 
f 17/6/4 19/7/4 7/7/4 
f 7/7/4 6/6/4 17/6/4 
f 19/7/5 20/8/5 8/8/5 
f 8/8/5 7/7/5 19/7/5 
f 20/8/6 18/5/6 5/5/6 
f 5/5/6 8/8/6 20/8/6 
# 36 faces

