# 3ds Max Wavefront OBJ Exporter v0.97b - (c)2007 guruware
# File Created: 04.11.2013 17:35:48

mtllib WallL.mtl

#
# object Box011
#

v  2210.5520 259.8425 -3424.2126
v  2198.7410 259.8425 -3424.2126
v  2210.5520 259.8425 -3412.4016
v  2210.5520 259.8425 -3123.6948
v  2210.5520 259.8425 -3111.8838
v  2210.5520 259.8425 -3077.7559
v  2198.7410 259.8425 -3412.4016
v  2198.7410 259.8425 -3077.7559
v  2198.7410 141.7323 -3424.2126
v  2198.7410 141.7323 -3412.4016
v  2198.7410 141.7323 -3077.7559
v  2210.5520 141.7323 -3077.7559
v  2210.5520 141.7323 -3111.8838
v  2210.5520 141.7323 -3123.6948
v  2210.5520 141.7323 -3412.4016
v  2210.5520 141.7323 -3424.2126
# 16 vertices

vn 0.0000 1.0000 -0.0000
vn 0.0000 -1.0000 -0.0000
vn -1.0000 0.0000 -0.0000
vn 0.0000 0.0000 1.0000
vn 1.0000 0.0000 -0.0000
vn 1.0000 0.0000 0.0000
vn -0.9990 0.0000 0.0437
vn 0.0000 0.0000 -1.0000
vn -1.0000 0.0000 0.0000
# 9 vertex normals

vt 0.5750 2.7000 1.2500
vt 0.4250 2.7000 1.2500
vt 0.5750 2.5500 1.2500
vt 0.5750 -1.1166 1.2500
vt 0.5750 -1.2666 1.2500
vt 0.5750 -1.7000 1.2500
vt 0.4250 2.5500 1.2500
vt 0.4250 -1.7000 1.2500
vt -1.7000 -0.2500 0.4250
vt -1.5500 -0.2500 0.4250
vt -1.5500 1.2500 0.4250
vt -1.7000 1.2500 0.4250
vt 2.7000 -0.2500 0.4250
vt 2.7000 1.2500 0.4250
vt 0.4250 -0.2500 -1.7000
vt 0.5750 -0.2500 -1.7000
vt 0.5750 1.2500 -1.7000
vt 0.4250 1.2500 -1.7000
vt -1.7000 -0.2500 0.5750
vt -1.2666 -0.2500 0.5750
vt -1.2666 1.2500 0.5750
vt -1.7000 1.2500 0.5750
vt -1.1166 -0.2500 0.5750
vt 2.5500 -0.2500 0.5750
vt 2.5500 1.2500 0.5750
vt -1.1166 1.2500 0.5750
vt 2.7000 -0.2500 0.5750
vt 2.7000 1.2500 0.5750
vt 0.4250 -0.2500 2.7000
vt 0.5750 -0.2500 2.7000
vt 0.5750 1.2500 2.7000
vt 0.4250 1.2500 2.7000
vt 2.5500 -0.2500 0.4250
vt 2.5500 1.2500 0.4250
vt -1.5500 -0.2500 0.5750
vt -1.5500 1.2500 0.5750
# 36 texture coords

g Box011
usemtl 01___Default
s off
f 1/1/1 2/2/1 2/2/1 
f 1/1/2 1/1/2 2/2/2 
f 3/3/1 1/1/1 2/2/1 
f 4/4/1 3/3/1 2/2/1 
f 5/5/1 4/4/1 2/2/1 
f 6/6/1 5/5/1 2/2/1 
f 6/6/1 2/2/1 7/7/1 
f 6/6/1 7/7/1 8/8/1 
f 9/9/3 10/10/3 7/11/3 
f 7/11/3 2/12/3 9/9/3 
f 10/10/3 11/13/3 8/14/3 
f 8/14/3 7/11/3 10/10/3 
f 11/15/4 12/16/4 6/17/4 
f 6/17/4 8/18/4 11/15/4 
f 12/19/5 13/20/5 5/21/5 
f 5/21/5 6/22/5 12/19/5 
f 14/23/6 15/24/6 3/25/6 
f 3/25/6 4/26/6 14/23/6 
f 15/24/5 16/27/5 1/28/5 
f 1/28/5 3/25/5 15/24/5 
f 16/19/7 16/19/7 1/22/7 
f 1/22/7 1/22/7 16/19/7 
f 16/29/8 9/30/8 2/31/8 
f 2/31/8 1/32/8 16/29/8 
f 9/9/3 9/9/3 2/12/3 
f 2/12/3 2/12/3 9/9/3 
f 10/33/5 9/13/5 2/14/5 
f 2/14/5 7/34/5 10/33/5 
f 16/19/9 15/35/9 3/36/9 
f 3/36/9 1/22/9 16/19/9 
# 30 faces

