# 3ds Max Wavefront OBJ Exporter v0.97b - (c)2007 guruware
# File Created: 04.11.2013 17:38:51

mtllib WallG.mtl

#
# object Box011
#

v  2411.8621 259.8425 -3424.2126
v  2411.8618 259.8425 -3868.3252
v  2400.0510 259.8425 -3868.3252
v  2400.0515 259.8425 -3424.2126
v  2411.8621 141.7323 -3424.2126
v  2411.8618 141.7323 -3868.3252
v  2400.0510 141.7323 -3868.3252
v  2400.0515 141.7323 -3424.2126
# 8 vertices

vn 0.0000 1.0000 -0.0000
vn 1.0000 0.0000 -0.0000
vn -1.0000 0.0000 0.0000
# 3 vertex normals

vt 0.5750 -2.3201 1.2500
vt 0.5750 3.3201 1.2500
vt 0.4250 3.3201 1.2500
vt 0.4250 -2.3201 1.2500
vt -2.3201 -0.2500 0.5750
vt 3.3201 -0.2500 0.5750
vt 3.3201 1.2500 0.5750
vt -2.3201 1.2500 0.5750
vt -2.3201 -0.2500 0.4250
vt 3.3201 -0.2500 0.4250
vt 3.3201 1.2500 0.4250
vt -2.3201 1.2500 0.4250
# 12 texture coords

g Box011
usemtl 01___Default
s off
f 1/1/1 2/2/1 3/3/1 
f 3/3/1 4/4/1 1/1/1 
f 5/5/2 6/6/2 2/7/2 
f 2/7/2 1/8/2 5/5/2 
f 7/9/3 8/10/3 4/11/3 
f 4/11/3 3/12/3 7/9/3 
# 6 faces

