# 3ds Max Wavefront OBJ Exporter v0.97b - (c)2007 guruware
# File Created: 02.11.2013 18:57:34

mtllib WallD.mtl

#
# object Box011
#

v  1960.5511 259.8425 -4223.4253
v  1948.7401 259.8425 -4223.4253
v  1948.7401 259.8425 -4211.6143
v  1948.7401 259.8425 -4112.6772
v  1960.5511 259.8425 -4211.6143
v  1960.5511 259.8425 -4112.6772
v  1960.5511 141.7323 -4223.4253
v  1948.7401 141.7323 -4223.4253
v  1948.7401 141.7323 -4211.6143
v  1948.7401 141.7323 -4112.6772
v  1960.5511 141.7323 -4112.6772
v  1960.5511 141.7323 -4211.6143
# 12 vertices

vn 0.0000 1.0000 -0.0000
vn 0.0000 0.0000 -1.0000
vn -1.0000 0.0000 0.0000
vn 0.0000 0.0000 1.0000
vn 1.0000 0.0000 0.0000
# 5 vertex normals

vt 0.6250 0.5000 0.0000
# 1 texture coords

g Box011
usemtl 01___Default
s off
f 1/1/1 2/1/1 3/1/1 
f 1/1/1 3/1/1 4/1/1 
f 5/1/1 1/1/1 4/1/1 
f 6/1/1 5/1/1 4/1/1 
f 7/1/2 8/1/2 2/1/2 
f 2/1/2 1/1/2 7/1/2 
f 9/1/3 10/1/3 4/1/3 
f 4/1/3 3/1/3 9/1/3 
f 10/1/4 11/1/4 6/1/4 
f 6/1/4 4/1/4 10/1/4 
f 11/1/5 12/1/5 5/1/5 
f 5/1/5 6/1/5 11/1/5 
# 12 faces

