# 3ds Max Wavefront OBJ Exporter v0.97b - (c)2007 guruware
# File Created: 04.11.2013 17:29:42

mtllib WallX.mtl

#
# object Box011
#

v  1805.0325 259.8425 -2613.1887
v  1805.0464 259.8425 -2624.9995
v  1411.3386 259.8425 -2624.9998
v  1411.3390 259.8425 -2625.0000
v  1411.3251 259.8425 -2613.1892
v  1411.3251 141.7323 -2613.1892
v  1805.0325 141.7323 -2613.1887
v  1805.0464 141.7323 -2624.9995
v  1411.3386 141.7323 -2624.9998
v  1411.3390 141.7323 -2625.0000
v  1399.5283 141.7323 -2625.0005
v  1399.5283 259.8425 -2625.0005
# 12 vertices

vn 0.0000 1.0000 -0.0000
vn 0.0000 -1.0000 -0.0000
vn -0.0000 0.0000 1.0000
vn 1.0000 0.0000 0.0012
vn 0.0000 0.0000 -1.0000
vn 0.6000 0.0000 0.8000
vn -0.6000 0.0000 -0.8000
# 7 vertex normals

vt 3.0749 0.4250 1.2500
vt 3.0750 0.5750 1.2500
vt -1.9250 0.5750 1.2500
vt -1.9252 0.4250 1.2500
vt -1.9252 -0.2500 0.4250
vt 3.0749 -0.2500 0.4250
vt 3.0749 1.2500 0.4250
vt -1.9252 1.2500 0.4250
vt 0.4250 -0.2500 3.0749
vt 0.5750 -0.2500 3.0750
vt 0.5750 1.2500 3.0750
vt 0.4250 1.2500 3.0749
vt -2.0750 -0.2500 0.5750
vt 2.9250 -0.2500 0.5750
vt 2.9250 1.2500 0.5750
vt -2.0750 1.2500 0.5750
vt -1.9250 -0.2500 0.5750
vt -1.9250 1.2500 0.5750
vt 3.0750 -0.2500 0.5750
vt 3.0750 1.2500 0.5750
# 20 texture coords

g Box011
usemtl 01___Default
s off
f 1/1/1 2/2/1 3/3/1 
f 1/1/2 3/3/2 4/3/2 
f 1/1/1 4/3/1 5/4/1 
f 6/5/3 7/6/3 1/7/3 
f 1/7/3 5/8/3 6/5/3 
f 7/9/4 8/10/4 2/11/4 
f 2/11/4 1/12/4 7/9/4 
f 8/13/5 9/14/5 3/15/5 
f 3/15/5 2/16/5 8/13/5 
f 9/17/6 10/17/6 4/18/6 
f 4/18/6 3/18/6 9/17/6 
f 10/14/5 11/19/5 12/20/5 
f 12/20/5 4/15/5 10/14/5 
f 11/13/3 10/17/3 4/18/3 
f 4/18/3 12/16/3 11/13/3 
f 10/14/7 9/14/7 3/15/7 
f 3/15/7 4/15/7 10/14/7 
# 17 faces

