# 3ds Max Wavefront OBJ Exporter v0.97b - (c)2007 guruware
# File Created: 04.11.2013 17:37:57

mtllib WallI.mtl

#
# object Box011
#

v  2682.4802 259.8425 -3868.3252
v  2997.9536 259.8425 -3868.3252
v  2997.9536 259.8425 -3880.1362
v  2818.7051 259.8425 -3880.1362
v  2806.8938 259.8425 -3880.1362
v  2682.4800 259.8425 -3880.1362
v  3009.7646 259.8425 -3868.3252
v  3009.7646 259.8425 -3880.1362
v  3009.7646 141.7323 -3868.3252
v  3009.7646 141.7323 -3880.1362
v  2997.9536 141.7323 -3880.1362
v  2818.7051 141.7323 -3880.1362
v  2806.8938 141.7323 -3880.1362
v  2682.4800 141.7323 -3880.1362
v  2682.4802 141.7323 -3868.3252
v  2997.9536 141.7323 -3868.3252
# 16 vertices

vn 0.0000 1.0000 -0.0000
vn 1.0000 0.0000 -0.0000
vn 0.0000 0.0000 -1.0000
vn -1.0000 0.0000 0.0000
vn 0.0000 0.0000 1.0000
# 5 vertex normals

vt -1.5783 0.4250 1.2500
vt 2.4283 0.4250 1.2500
vt 2.4283 0.5750 1.2500
vt 0.1518 0.5750 1.2500
vt 0.0018 0.5750 1.2500
vt -1.5783 0.5750 1.2500
vt 2.5783 0.4250 1.2500
vt 2.5783 0.5750 1.2500
vt 0.4250 -0.2500 2.5783
vt 0.5750 -0.2500 2.5783
vt 0.5750 1.2500 2.5783
vt 0.4250 1.2500 2.5783
vt -1.4283 -0.2500 0.5750
vt 0.8482 -0.2500 0.5750
vt 0.8482 1.2500 0.5750
vt -1.4283 1.2500 0.5750
vt 0.9982 -0.2500 0.5750
vt 2.5783 -0.2500 0.5750
vt 2.5783 1.2500 0.5750
vt 0.9982 1.2500 0.5750
vt 0.4250 -0.2500 -1.5783
vt 0.5750 -0.2500 -1.5783
vt 0.5750 1.2500 -1.5783
vt 0.4250 1.2500 -1.5783
vt -1.5783 -0.2500 0.4250
vt 2.4283 -0.2500 0.4250
vt 2.4283 1.2500 0.4250
vt -1.5783 1.2500 0.4250
# 28 texture coords

g Box011
usemtl 01___Default
s off
f 1/1/1 2/2/1 3/3/1 
f 1/1/1 3/3/1 4/4/1 
f 1/1/1 4/4/1 5/5/1 
f 1/1/1 5/5/1 6/6/1 
f 3/3/1 2/2/1 7/7/1 
f 7/7/1 8/8/1 3/3/1 
f 9/9/2 10/10/2 8/11/2 
f 8/11/2 7/12/2 9/9/2 
f 11/13/3 12/14/3 4/15/3 
f 4/15/3 3/16/3 11/13/3 
f 13/17/3 14/18/3 6/19/3 
f 6/19/3 5/20/3 13/17/3 
f 14/21/4 15/22/4 1/23/4 
f 1/23/4 6/24/4 14/21/4 
f 15/25/5 16/26/5 2/27/5 
f 2/27/5 1/28/5 15/25/5 
# 16 faces

