# 3ds Max Wavefront OBJ Exporter v0.97b - (c)2007 guruware
# File Created: 06.09.2013 16:37:24

mtllib bulding1.mtl

#
# object Box010
#

v  1241.6561 0.0000 -2241.3779
v  2029.0577 0.0000 -2241.3779
v  2029.0577 0.0000 -2229.3674
v  1241.6561 0.0000 -2229.3674
v  2029.0577 11.8110 -2229.3674
v  2029.0577 11.8110 -2241.3779
v  1241.6561 11.8110 -2241.3779
v  1241.6561 11.8110 -2229.3674
v  1241.6561 0.0000 -2217.5564
v  2029.0577 0.0000 -2217.5564
v  2029.0577 11.8110 -2217.5564
v  1241.6561 11.8110 -2217.5564
v  2029.0577 0.0000 -3016.7688
v  1241.6561 0.0000 -3016.7688
v  1241.6561 11.8110 -3016.7688
v  2029.0577 11.8110 -3016.7688
v  2040.8688 0.0000 -2229.3674
v  2040.8688 11.8110 -2229.3674
v  2040.8688 11.8110 -2217.5564
v  2040.8688 0.0000 -2217.5564
v  2029.0577 141.7323 -2229.3674
v  1241.6561 141.7323 -2229.3674
v  1241.6561 141.7323 -2217.5564
v  2029.0577 141.7323 -2217.5564
v  1241.6561 129.9213 -2229.3674
v  2029.0577 129.9213 -2229.3674
v  1241.6561 129.9213 -2217.5564
v  2029.0577 129.9213 -2217.5564
v  2040.8688 129.9213 -2229.3674
v  2040.8688 129.9213 -2217.5564
v  2029.0577 129.9213 -2327.7925
v  1241.6561 129.9213 -2327.7925
v  1241.6561 141.7323 -2327.7925
v  2029.0577 141.7323 -2327.7925
v  2040.8688 141.7323 -2229.3674
v  2040.8688 141.7323 -2217.5564
v  2029.0577 0.0000 -3827.7925
v  2029.0577 11.8110 -3827.7925
v  2040.8688 11.8110 -3827.7925
v  2040.8688 0.0000 -3827.7925
v  2029.0577 11.8110 -3028.5798
v  2029.0577 129.9213 -3028.5798
v  2040.8688 129.9213 -3028.5798
v  2040.8688 11.8110 -3028.5798
v  2029.0577 141.7323 -3028.5798
v  2040.8688 141.7323 -3028.5798
v  2029.0577 129.9213 -3016.7688
v  1930.6326 129.9213 -2229.3674
v  1930.6326 141.7323 -2229.3674
v  1930.6326 141.7323 -3016.7688
v  1930.6326 129.9213 -3016.7688
v  2040.8688 141.7323 -3016.7688
v  2029.0577 141.7323 -3016.7688
v  2040.8688 129.9213 -3016.7688
v  2040.8688 11.8110 -3016.7688
v  2040.8688 0.0000 -3016.7688
v  1229.8451 0.0000 -3016.7688
v  1229.8451 11.8110 -3016.7688
v  1229.8451 11.8110 -3028.5798
v  1229.8451 0.0000 -3028.5798
v  1229.8451 129.9213 -3016.7688
v  1229.8451 129.9213 -3028.5798
v  1229.8451 141.7323 -3016.7688
v  1229.8451 141.7323 -3028.5798
v  2040.8688 0.0000 -3028.5798
v  2029.0577 0.0000 -3028.5798
v  1241.6561 129.9213 -3016.7688
v  2029.0577 129.9213 -2918.3438
v  2029.0577 141.7323 -2918.3438
v  1241.6561 141.7323 -2918.3438
v  1241.6561 129.9213 -2918.3438
v  1241.6561 141.7323 -3028.5798
v  1241.6561 141.7323 -3016.7688
v  1241.6561 129.9213 -3028.5798
v  1241.6561 11.8110 -3028.5798
v  1241.6561 0.0000 -3827.7925
v  1241.6561 11.8110 -3827.7925
v  1241.6561 0.0000 -3028.5798
v  1229.8451 11.8110 -2217.5564
v  1229.8451 0.0000 -2217.5564
v  1229.8451 129.9213 -2217.5564
v  1229.8451 141.7323 -2217.5564
v  1241.6561 141.7323 -3827.7925
v  1241.6561 129.9213 -3827.7925
v  1229.8451 129.9213 -3827.7925
v  1229.8451 141.7323 -3827.7925
v  1229.8451 0.0000 -3827.7925
v  1229.8451 11.8110 -3827.7925
v  1340.0813 129.9213 -3016.7688
v  1340.0813 141.7323 -3016.7688
v  1340.0813 141.7323 -2229.3674
v  1340.0813 129.9213 -2229.3674
v  1229.8451 141.7323 -2229.3674
v  1229.8451 129.9213 -2229.3674
v  1229.8451 11.8110 -2229.3674
v  1229.8451 0.0000 -2229.3674
v  2040.8688 11.8110 -3815.9814
v  2029.0577 11.8110 -3815.9814
v  2828.2703 11.8110 -3028.5798
v  2828.2703 0.0000 -3028.5798
v  2828.2703 0.0000 -3815.9814
v  2828.2703 11.8110 -3815.9814
v  2029.0577 0.0000 -3815.9814
v  2040.8688 0.0000 -3815.9814
v  1241.6561 0.0000 -3815.9814
v  1229.8451 0.0000 -3815.9814
v  1229.8451 11.8110 -3815.9814
v  1241.6561 129.9213 -3815.9814
v  1229.8451 129.9213 -3815.9814
v  1241.6561 11.8110 -3815.9814
v  2840.0813 11.8110 -3815.9814
v  2840.0813 0.0000 -3815.9814
v  2840.0813 0.0000 -3827.7925
v  2840.0813 11.8110 -3827.7925
v  2029.0577 129.9213 -3815.9814
v  2029.0577 129.9213 -3827.7925
v  2840.0813 129.9213 -3827.7925
v  2840.0813 129.9213 -3815.9814
v  2040.8688 129.9213 -3827.7925
v  2040.8688 129.9213 -3815.9814
v  2040.8688 11.8110 -1418.3438
v  2040.8688 0.0000 -1418.3438
v  2828.2703 0.0000 -1418.3438
v  2828.2703 11.8110 -1418.3438
v  2828.2703 0.0000 -3016.7688
v  2828.2703 11.8110 -3016.7688
v  2828.2703 0.0000 -2229.3674
v  2828.2703 11.8110 -2229.3674
v  2828.2703 0.0000 -2217.5564
v  2828.2703 11.8110 -2217.5564
v  1229.8451 0.0000 -1430.1548
v  1229.8451 11.8110 -1430.1548
v  2828.2703 0.0000 -1430.1548
v  2040.8688 0.0000 -1430.1548
v  2828.2703 11.8110 -1430.1548
v  2040.8688 11.8110 -1430.1548
v  1229.8451 0.0000 -1418.3438
v  1229.8451 11.8110 -1418.3438
v  1241.6561 141.7323 -3815.9814
v  1229.8451 141.7323 -3815.9814
v  2840.0813 141.7323 -3815.9814
v  2840.0813 141.7323 -3827.7925
v  2029.0577 141.7323 -3815.9814
v  2029.0577 141.7323 -3827.7925
v  2040.8688 141.7323 -3815.9814
v  2040.8688 141.7323 -3827.7925
v  2828.2703 0.0000 -3827.7925
v  2828.2703 11.8110 -3827.7925
v  2828.2703 129.9213 -3827.7925
v  2828.2703 129.9213 -3815.9814
v  2828.2703 141.7323 -3815.9814
v  2828.2703 141.7323 -3827.7925
v  2828.2703 11.8110 -1418.3435
v  2828.2703 0.0000 -1418.3435
v  2840.0813 0.0000 -1418.3435
v  2840.0813 11.8110 -1418.3435
v  2828.2703 129.9213 -1418.3435
v  2840.0813 129.9213 -1418.3435
v  2828.2703 141.7323 -1418.3435
v  2840.0813 141.7323 -1418.3435
v  2828.2703 0.0000 -1430.1545
v  2828.2703 11.8110 -1430.1545
v  2840.0813 0.0000 -1430.1545
v  2840.0813 11.8110 -1430.1545
v  2828.2703 129.9213 -1430.1545
v  2840.0813 129.9213 -1430.1545
v  2828.2703 141.7323 -1430.1545
v  2840.0813 141.7323 -1430.1545
v  1229.8451 129.9213 -1430.1545
v  1229.8451 11.8110 -1430.1545
v  1229.8451 11.8110 -1418.3435
v  1229.8451 129.9213 -1418.3435
v  1229.8451 141.7323 -1430.1545
v  1229.8451 141.7323 -1418.3435
v  2029.0577 11.8110 -2218.6848
v  2029.0577 0.0000 -1430.1548
v  2029.0577 11.8110 -1431.2832
v  1241.6561 11.8110 -2218.6848
v  1241.6561 0.0000 -1430.1548
v  1241.6561 11.8110 -1431.2832
v  1241.6561 11.8110 -1430.1545
v  1241.6561 129.9213 -1430.1545
v  1241.6561 11.8110 -1418.3435
v  1241.6561 129.9213 -1418.3435
v  1241.6561 141.7323 -1430.1545
v  1241.6561 141.7323 -1418.3435
v  1253.4672 0.0000 -1430.1548
v  1253.4672 11.8110 -1430.1548
v  1253.4672 0.0000 -1418.3438
v  1253.4672 11.8110 -1418.3438
v  1241.6561 11.8110 -1430.1548
v  1241.6561 0.0000 -1418.3438
v  1241.6561 11.8110 -1418.3438
v  1241.6561 129.9213 -2217.5562
v  1241.6561 11.8110 -2217.5562
v  1229.8451 11.8110 -2217.5562
v  1229.8451 129.9213 -2217.5562
v  1241.6561 141.7323 -2217.5562
v  1229.8451 141.7323 -2217.5562
# 199 vertices

vn 0.0000 -1.0000 -0.0000
vn 0.0000 1.0000 -0.0000
vn 0.0000 0.0000 1.0000
vn 1.0000 0.0000 -0.0000
vn 0.0000 0.0000 -1.0000
vn -1.0000 0.0000 -0.0000
vn 0.0947 -0.0947 -0.9910
vn -0.0951 0.0000 0.9955
vn 0.0000 0.0951 0.9955
vn 0.0000 -0.0951 -0.9955
vn -0.0951 0.0000 -0.9955
vn 0.0947 0.0947 0.9910
# 12 vertex normals

vt 1.0000 0.5000 0.0000
vt 0.0000 0.5000 0.0000
vt 0.0000 0.0000 0.0000
vt 1.0000 0.0000 0.0000
vt 1.0000 1.0000 0.0000
vt 0.0000 1.0000 0.0000
vt 0.5000 0.0000 0.0000
vt 0.5000 1.0000 0.0000
# 8 texture coords

g Box010
usemtl wire_166229229
s 2
f 1/1/1 2/2/1 3/3/1 
f 3/3/1 4/4/1 1/1/1 
s 4
f 5/4/2 6/1/2 7/2/2 
f 7/2/2 8/3/2 5/4/2 
s 8
f 9/3/3 10/4/3 11/5/3 
f 11/5/3 12/6/3 9/3/3 
s 16
f 2/7/4 6/8/4 5/6/4 
f 5/6/4 3/3/4 2/7/4 
s 32
f 13/3/5 14/4/5 15/5/5 
f 15/5/5 16/6/5 13/3/5 
s 64
f 1/7/6 7/8/6 15/6/6 
f 15/6/6 14/3/6 1/7/6 
s 2
f 14/5/1 13/6/1 2/2/1 
f 2/2/1 1/1/1 14/5/1 
s 4
f 16/5/2 15/6/2 7/2/2 
f 7/2/2 6/1/2 16/5/2 
s 16
f 13/4/4 16/5/4 6/8/4 
f 6/8/4 2/7/4 13/4/4 
s 64
f 4/4/6 8/5/6 7/8/6 
f 7/8/6 1/7/6 4/4/6 
s off
f 4/4/1 3/3/1 10/4/1 
f 10/4/1 9/3/1 4/4/1 
f 17/3/4 18/6/4 19/5/4 
f 19/5/4 20/4/4 17/3/4 
f 21/4/2 22/3/2 23/6/2 
f 23/6/2 24/5/2 21/4/2 
f 8/5/6 4/4/6 9/3/6 
f 9/3/6 12/6/6 8/5/6 
f 5/4/5 8/3/5 25/3/5 
f 25/3/5 26/4/5 5/4/5 
f 8/5/6 12/6/6 27/6/6 
f 27/6/6 25/3/6 8/5/6 
f 12/6/3 11/5/3 28/5/3 
f 28/5/3 27/6/3 12/6/3 
f 19/5/4 18/6/4 29/4/4 
f 29/4/4 30/5/4 19/5/4 
f 31/4/5 32/3/5 33/3/5 
f 33/3/5 34/4/5 31/4/5 
f 25/3/6 27/6/6 23/6/6 
f 23/6/6 22/3/6 25/3/6 
f 27/6/3 28/5/3 24/5/3 
f 24/5/3 23/6/3 27/6/3 
f 30/5/4 29/4/4 35/4/4 
f 35/4/4 36/5/4 30/5/4 
f 26/4/1 25/3/1 32/3/1 
f 32/3/1 31/4/1 26/4/1 
f 25/3/6 22/3/6 33/3/6 
f 33/3/6 32/3/6 25/3/6 
f 22/3/2 21/4/2 34/4/2 
f 34/4/2 33/3/2 22/3/2 
f 21/4/4 26/4/4 31/4/4 
f 31/4/4 34/4/4 21/4/4 
f 37/3/5 38/6/5 39/6/5 
f 39/6/5 40/3/5 37/3/5 
f 41/4/5 42/4/5 43/4/5 
f 43/4/5 44/6/5 41/4/5 
f 42/4/5 45/4/5 46/4/5 
f 46/4/5 43/4/5 42/4/5 
f 21/4/2 24/5/2 36/5/2 
f 36/5/2 35/4/2 21/4/2 
f 24/5/3 28/5/3 30/5/3 
f 30/5/3 36/5/3 24/5/3 
f 28/5/3 11/5/3 19/5/3 
f 19/5/3 30/5/3 28/5/3 
f 11/5/3 10/4/3 20/4/3 
f 20/4/3 19/5/3 11/5/3 
f 10/4/1 3/3/1 17/3/1 
f 17/3/1 20/4/1 10/4/1 
f 4/3/6 8/6/6 15/6/6 
f 15/6/6 14/3/6 4/3/6 
f 5/4/6 26/4/6 47/4/6 
f 47/4/6 16/4/6 5/4/6 
f 48/4/6 49/4/6 50/4/6 
f 50/4/6 51/4/6 48/4/6 
f 21/4/2 35/4/2 52/4/2 
f 52/4/2 53/4/2 21/4/2 
f 35/4/4 29/4/4 54/4/4 
f 54/4/4 52/4/4 35/4/4 
f 29/4/4 18/6/4 55/6/4 
f 55/6/4 54/4/4 29/4/4 
f 18/6/4 17/3/4 56/3/4 
f 56/3/4 55/6/4 18/6/4 
f 17/3/1 3/3/1 13/3/1 
f 13/3/1 56/3/1 17/3/1 
f 57/3/6 58/6/6 59/6/6 
f 59/6/6 60/3/6 57/3/6 
f 58/4/6 61/4/6 62/4/6 
f 62/4/6 59/4/6 58/4/6 
f 61/4/6 63/4/6 64/4/6 
f 64/4/6 62/4/6 61/4/6 
f 53/4/2 52/4/2 46/4/2 
f 46/4/2 45/4/2 53/4/2 
f 52/4/4 54/4/4 43/4/4 
f 43/4/4 46/4/4 52/4/4 
f 54/4/4 55/6/4 44/6/4 
f 44/6/4 43/4/4 54/4/4 
f 55/6/4 56/3/4 65/3/4 
f 65/3/4 44/6/4 55/6/4 
f 56/3/1 13/3/1 66/3/1 
f 66/3/1 65/3/1 56/3/1 
f 13/3/3 16/6/3 15/6/3 
f 15/6/3 14/3/3 13/3/3 
f 16/4/3 47/4/3 67/4/3 
f 67/4/3 15/4/3 16/4/3 
f 68/4/3 69/4/3 70/4/3 
f 70/4/3 71/4/3 68/4/3 
f 53/4/2 45/4/2 72/4/2 
f 72/4/2 73/4/2 53/4/2 
f 45/4/5 42/4/5 74/4/5 
f 74/4/5 72/4/5 45/4/5 
f 42/4/5 41/4/5 75/4/5 
f 75/4/5 74/4/5 42/4/5 
f 38/6/5 37/3/5 76/3/5 
f 76/3/5 77/6/5 38/6/5 
f 66/3/1 13/3/1 14/3/1 
f 14/3/1 78/3/1 66/3/1 
f 26/4/3 21/4/3 49/4/3 
f 49/4/3 48/4/3 26/4/3 
f 21/4/2 53/4/2 50/4/2 
f 50/4/2 49/4/2 21/4/2 
f 53/4/5 47/4/5 51/4/5 
f 51/4/5 50/4/5 53/4/5 
f 47/4/1 26/4/1 48/4/1 
f 48/4/1 51/4/1 47/4/1 
f 9/3/3 12/6/3 79/6/3 
f 79/6/3 80/3/3 9/3/3 
f 12/4/3 27/4/3 81/4/3 
f 81/4/3 79/4/3 12/4/3 
f 27/4/3 23/4/3 82/4/3 
f 82/4/3 81/4/3 27/4/3 
f 73/4/2 72/4/2 64/4/2 
f 64/4/2 63/4/2 73/4/2 
f 83/4/5 84/4/5 85/4/5 
f 85/4/5 86/4/5 83/4/5 
f 74/4/5 75/4/5 59/4/5 
f 59/4/5 62/4/5 74/4/5 
f 77/6/5 76/3/5 87/3/5 
f 87/3/5 88/6/5 77/6/5 
f 78/3/1 14/3/1 57/3/1 
f 57/3/1 60/3/1 78/3/1 
f 14/3/4 15/6/4 8/6/4 
f 8/6/4 4/3/4 14/3/4 
f 15/4/4 67/4/4 25/4/4 
f 25/4/4 8/4/4 15/4/4 
f 89/4/4 90/4/4 91/4/4 
f 91/4/4 92/4/4 89/4/4 
f 73/4/2 63/4/2 93/4/2 
f 93/4/2 22/4/2 73/4/2 
f 63/4/6 61/4/6 94/4/6 
f 94/4/6 93/4/6 63/4/6 
f 61/4/6 58/4/6 95/4/6 
f 95/4/6 94/4/6 61/4/6 
f 58/6/6 57/3/6 96/3/6 
f 96/3/6 95/6/6 58/6/6 
f 57/3/1 14/3/1 4/3/1 
f 4/3/1 96/3/1 57/3/1 
f 4/3/4 8/6/4 12/6/4 
f 12/6/4 9/3/4 4/3/4 
f 8/4/4 25/4/4 27/4/4 
f 27/4/4 12/4/4 8/4/4 
f 25/4/4 22/4/4 23/4/4 
f 23/4/4 27/4/4 25/4/4 
f 22/4/2 93/4/2 82/4/2 
f 82/4/2 23/4/2 22/4/2 
f 93/4/6 94/4/6 81/4/6 
f 81/4/6 82/4/6 93/4/6 
f 94/4/6 95/4/6 79/4/6 
f 79/4/6 81/4/6 94/4/6 
f 95/6/6 96/3/6 80/3/6 
f 80/3/6 79/6/6 95/6/6 
f 96/3/1 4/3/1 9/3/1 
f 9/3/1 80/3/1 96/3/1 
f 47/4/4 53/4/4 69/4/4 
f 69/4/4 68/4/4 47/4/4 
f 53/4/2 73/4/2 70/4/2 
f 70/4/2 69/4/2 53/4/2 
f 73/4/6 67/4/6 71/4/6 
f 71/4/6 70/4/6 73/4/6 
f 67/4/1 47/4/1 68/4/1 
f 68/4/1 71/4/1 67/4/1 
f 67/4/5 73/4/5 90/4/5 
f 90/4/5 89/4/5 67/4/5 
f 73/4/2 22/4/2 91/4/2 
f 91/4/2 90/4/2 73/4/2 
f 22/4/3 25/4/3 92/4/3 
f 92/4/3 91/4/3 22/4/3 
f 25/4/1 67/4/1 89/4/1 
f 89/4/1 92/4/1 25/4/1 
f 41/4/2 44/6/2 97/6/2 
f 97/6/2 98/6/2 41/4/2 
f 99/6/4 100/3/4 101/3/4 
f 101/3/4 102/6/4 99/6/4 
f 65/3/1 66/3/1 103/3/1 
f 103/3/1 104/3/1 65/3/1 
f 66/3/1 78/3/1 105/3/1 
f 105/3/1 103/3/1 66/3/1 
f 78/3/1 60/3/1 106/3/1 
f 106/3/1 105/3/1 78/3/1 
f 60/3/6 59/6/6 107/6/6 
f 107/6/6 106/3/6 60/3/6 
f 62/4/2 74/4/2 108/6/2 
f 108/6/2 109/6/2 62/4/2 
f 75/4/2 41/4/2 98/6/2 
f 98/6/2 110/6/2 75/4/2 
f 3/3/3 5/6/3 8/6/3 
f 8/6/3 4/3/3 3/3/3 
f 5/4/2 16/4/2 15/6/2 
f 15/6/2 8/6/2 5/4/2 
f 16/6/5 13/3/5 14/3/5 
f 14/3/5 15/6/5 16/6/5 
f 13/3/1 3/3/1 4/3/1 
f 4/3/1 14/3/1 13/3/1 
f 98/6/2 97/6/2 39/6/2 
f 39/6/2 38/6/2 98/6/2 
f 111/6/4 112/3/4 113/3/4 
f 113/3/4 114/6/4 111/6/4 
f 104/3/1 103/3/1 37/3/1 
f 37/3/1 40/3/1 104/3/1 
f 103/3/1 105/3/1 76/3/1 
f 76/3/1 37/3/1 103/3/1 
f 105/3/1 106/3/1 87/3/1 
f 87/3/1 76/3/1 105/3/1 
f 106/3/6 107/6/6 88/6/6 
f 88/6/6 87/3/6 106/3/6 
f 109/6/2 108/6/2 84/6/2 
f 84/6/2 85/6/2 109/6/2 
f 108/6/2 115/6/2 116/6/2 
f 116/6/2 84/6/2 108/6/2 
f 59/4/3 75/4/3 74/4/3 
f 74/4/3 62/4/3 59/4/3 
f 75/4/4 110/6/4 108/6/4 
f 108/6/4 74/4/4 75/4/4 
f 110/6/3 98/6/3 115/6/3 
f 115/6/3 108/6/3 110/6/3 
f 111/6/4 114/6/4 117/6/4 
f 117/6/4 118/6/4 111/6/4 
f 38/6/5 77/6/5 84/6/5 
f 84/6/5 116/6/5 38/6/5 
f 77/6/5 88/6/5 85/6/5 
f 85/6/5 84/6/5 77/6/5 
f 88/6/6 107/6/6 109/6/6 
f 109/6/6 85/6/6 88/6/6 
f 107/6/6 59/6/6 62/4/6 
f 62/4/6 109/6/6 107/6/6 
f 98/6/1 38/6/1 39/6/1 
f 39/6/1 97/6/1 98/6/1 
f 38/6/5 116/6/5 119/6/5 
f 119/6/5 39/6/5 38/6/5 
f 116/6/2 115/6/2 120/6/2 
f 120/6/2 119/6/2 116/6/2 
f 115/6/3 98/6/3 97/6/3 
f 97/6/3 120/6/3 115/6/3 
f 121/6/3 122/3/3 123/3/3 
f 123/3/3 124/6/3 121/6/3 
f 65/3/1 104/3/1 101/3/1 
f 101/3/1 100/3/1 65/3/1 
f 104/3/5 97/6/5 102/6/5 
f 102/6/5 101/3/5 104/3/5 
f 97/6/2 44/6/2 99/6/2 
f 99/6/2 102/6/2 97/6/2 
f 44/6/6 65/3/6 56/3/6 
f 56/3/6 55/6/6 44/6/6 
f 65/3/1 100/3/1 125/3/1 
f 125/3/1 56/3/1 65/3/1 
f 100/3/4 99/6/4 126/6/4 
f 126/6/4 125/3/4 100/3/4 
f 99/6/2 44/6/2 55/6/2 
f 55/6/2 126/6/2 99/6/2 
f 55/6/6 56/3/6 17/3/6 
f 17/3/6 18/6/6 55/6/6 
f 56/3/1 125/3/1 127/3/1 
f 127/3/1 17/3/1 56/3/1 
f 125/3/4 126/6/4 128/6/4 
f 128/6/4 127/3/4 125/3/4 
f 126/6/2 55/6/2 18/6/2 
f 18/6/2 128/6/2 126/6/2 
f 18/6/6 17/3/6 20/3/6 
f 20/3/6 19/6/6 18/6/6 
f 17/3/1 127/3/1 129/3/1 
f 129/3/1 20/3/1 17/3/1 
f 127/3/4 128/6/4 130/6/4 
f 130/6/4 129/3/4 127/3/4 
f 128/6/2 18/6/2 19/6/2 
f 19/6/2 130/6/2 128/6/2 
f 79/6/6 80/3/6 131/3/6 
f 131/3/6 132/6/6 79/6/6 
f 20/3/1 129/3/1 133/3/1 
f 133/3/1 134/3/1 20/3/1 
f 129/3/4 130/6/4 135/6/4 
f 135/6/4 133/3/4 129/3/4 
f 130/6/2 19/6/2 136/6/2 
f 136/6/2 135/6/2 130/6/2 
f 132/6/6 131/3/6 137/3/6 
f 137/3/6 138/6/6 132/6/6 
f 134/3/1 133/3/1 123/3/1 
f 123/3/1 122/3/1 134/3/1 
f 133/3/4 135/6/4 124/6/4 
f 124/6/4 123/3/4 133/3/4 
f 135/6/2 136/6/2 121/6/2 
f 121/6/2 124/6/2 135/6/2 
f 72/4/4 74/4/4 108/4/4 
f 108/4/4 139/4/4 72/4/4 
f 74/4/1 62/4/1 109/4/1 
f 109/4/1 108/4/1 74/4/1 
f 62/4/6 64/4/6 140/4/6 
f 140/4/6 109/4/6 62/4/6 
f 64/4/2 72/4/2 139/4/2 
f 139/4/2 140/4/2 64/4/2 
f 141/4/4 118/4/4 117/4/4 
f 117/4/4 142/4/4 141/4/4 
f 108/4/1 109/4/1 85/4/1 
f 85/4/1 84/4/1 108/4/1 
f 109/4/6 140/4/6 86/4/6 
f 86/4/6 85/4/6 109/4/6 
f 140/4/2 139/4/2 83/4/2 
f 83/4/2 86/4/2 140/4/2 
f 139/4/3 108/4/3 115/4/3 
f 115/4/3 143/4/3 139/4/3 
f 108/4/1 84/4/1 116/4/1 
f 116/4/1 115/4/1 108/4/1 
f 84/4/5 83/4/5 144/4/5 
f 144/4/5 116/4/5 84/4/5 
f 83/4/2 139/4/2 143/4/2 
f 143/4/2 144/4/2 83/4/2 
f 143/4/3 115/4/3 120/4/3 
f 120/4/3 145/4/3 143/4/3 
f 115/4/1 116/4/1 119/4/1 
f 119/4/1 120/4/1 115/4/1 
f 116/4/5 144/4/5 146/4/5 
f 146/4/5 119/4/5 116/4/5 
f 144/4/2 143/4/2 145/4/2 
f 145/4/2 146/4/2 144/4/2 
f 97/6/3 104/3/3 101/3/3 
f 101/3/3 102/6/3 97/6/3 
f 104/3/1 40/3/1 147/3/1 
f 147/3/1 101/3/1 104/3/1 
f 40/3/5 39/6/5 148/6/5 
f 148/6/5 147/3/5 40/3/5 
f 39/6/2 97/6/2 102/6/2 
f 102/6/2 148/6/2 39/6/2 
f 97/6/1 39/6/1 148/6/1 
f 148/6/1 102/6/1 97/6/1 
f 39/6/5 119/6/5 149/6/5 
f 149/6/5 148/6/5 39/6/5 
f 119/6/2 120/6/2 150/6/2 
f 150/6/2 149/6/2 119/6/2 
f 120/6/3 97/6/3 102/6/3 
f 102/6/3 150/6/3 120/6/3 
f 145/4/3 120/4/3 150/4/3 
f 150/4/3 151/4/3 145/4/3 
f 120/4/1 119/4/1 149/4/1 
f 149/4/1 150/4/1 120/4/1 
f 119/4/5 146/4/5 152/4/5 
f 152/4/5 149/4/5 119/4/5 
f 146/4/2 145/4/2 151/4/2 
f 151/4/2 152/4/2 146/4/2 
f 153/6/3 154/3/3 155/3/3 
f 155/3/3 156/6/3 153/6/3 
f 101/3/1 147/3/1 113/3/1 
f 113/3/1 112/3/1 101/3/1 
f 147/3/5 148/6/5 114/6/5 
f 114/6/5 113/3/5 147/3/5 
f 148/6/2 102/6/2 111/6/2 
f 111/6/2 114/6/2 148/6/2 
f 102/6/1 148/6/1 114/6/1 
f 114/6/1 111/6/1 102/6/1 
f 148/6/5 149/6/5 117/6/5 
f 117/6/5 114/6/5 148/6/5 
f 149/6/2 150/6/2 118/6/2 
f 118/6/2 117/6/2 149/6/2 
f 157/6/3 153/6/3 156/6/3 
f 156/6/3 158/6/3 157/6/3 
f 159/4/3 157/4/3 158/4/3 
f 158/4/3 160/4/3 159/4/3 
f 150/4/1 149/4/1 117/4/1 
f 117/4/1 118/4/1 150/4/1 
f 149/4/5 152/4/5 142/4/5 
f 142/4/5 117/4/5 149/4/5 
f 152/4/2 151/4/2 141/4/2 
f 141/4/2 142/4/2 152/4/2 
f 102/6/6 101/3/6 161/3/6 
f 161/3/6 162/6/6 102/6/6 
f 101/3/1 112/3/1 163/3/1 
f 163/3/1 161/3/1 101/3/1 
f 112/3/4 111/6/4 164/6/4 
f 164/6/4 163/3/4 112/3/4 
f 111/6/2 102/6/2 162/6/2 
f 162/6/2 164/6/2 111/6/2 
f 150/6/6 102/6/6 162/6/6 
f 162/6/6 165/6/6 150/6/6 
f 102/6/1 111/6/1 164/6/1 
f 164/6/1 162/6/1 102/6/1 
f 111/6/4 118/6/4 166/6/4 
f 166/6/4 164/6/4 111/6/4 
f 118/6/2 150/6/2 165/6/2 
f 165/6/2 166/6/2 118/6/2 
f 151/4/6 150/4/6 165/4/6 
f 165/4/6 167/4/6 151/4/6 
f 150/4/1 118/4/1 166/4/1 
f 166/4/1 165/4/1 150/4/1 
f 118/4/4 141/4/4 168/4/4 
f 168/4/4 166/4/4 118/4/4 
f 141/4/2 151/4/2 167/4/2 
f 167/4/2 168/4/2 141/4/2 
f 162/6/6 161/3/6 154/3/6 
f 154/3/6 153/6/6 162/6/6 
f 161/3/1 163/3/1 155/3/1 
f 155/3/1 154/3/1 161/3/1 
f 163/3/4 164/6/4 156/6/4 
f 156/6/4 155/3/4 163/3/4 
f 164/6/2 162/6/2 153/6/2 
f 153/6/2 156/6/2 164/6/2 
f 169/6/6 170/6/6 171/6/6 
f 171/6/6 172/6/6 169/6/6 
f 162/6/1 164/6/1 156/6/1 
f 156/6/1 153/6/1 162/6/1 
f 164/6/4 166/6/4 158/6/4 
f 158/6/4 156/6/4 164/6/4 
f 166/6/2 165/6/2 157/6/2 
f 157/6/2 158/6/2 166/6/2 
f 173/4/6 169/4/6 172/4/6 
f 172/4/6 174/4/6 173/4/6 
f 165/4/1 166/4/1 158/4/1 
f 158/4/1 157/4/1 165/4/1 
f 166/4/4 168/4/4 160/4/4 
f 160/4/4 158/4/4 166/4/4 
f 168/4/2 167/4/2 159/4/2 
f 159/4/2 160/4/2 168/4/2 
f 19/6/5 20/3/5 10/3/5 
f 10/3/7 175/6/7 19/6/7 
f 20/3/1 134/3/1 176/3/1 
f 176/3/1 10/3/1 20/3/1 
f 134/3/8 136/6/8 177/6/8 
f 177/6/9 176/3/9 134/3/9 
f 136/6/2 19/6/2 175/6/2 
f 175/6/2 177/6/2 136/6/2 
f 175/6/10 10/3/10 9/3/10 
f 9/3/10 178/6/10 175/6/10 
f 10/3/1 176/3/1 179/3/1 
f 179/3/1 9/3/1 10/3/1 
f 176/3/9 177/6/9 180/6/9 
f 180/6/9 179/3/9 176/3/9 
f 177/6/2 175/6/2 178/6/2 
f 178/6/2 180/6/2 177/6/2 
f 178/6/10 9/3/10 80/3/10 
f 80/3/11 79/6/11 178/6/11 
f 9/3/1 179/3/1 131/3/1 
f 131/3/1 80/3/1 9/3/1 
f 179/3/12 180/6/12 132/6/12 
f 132/6/3 131/3/3 179/3/3 
f 180/6/2 178/6/2 79/6/2 
f 79/6/2 132/6/2 180/6/2 
f 165/6/5 162/6/5 181/6/5 
f 181/6/5 182/6/5 165/6/5 
f 162/6/1 153/6/1 183/6/1 
f 183/6/1 181/6/1 162/6/1 
f 153/6/3 157/6/3 184/6/3 
f 184/6/3 183/6/3 153/6/3 
f 157/6/2 165/6/2 182/6/2 
f 182/6/2 184/6/2 157/6/2 
f 167/4/5 165/4/5 182/4/5 
f 182/4/5 185/4/5 167/4/5 
f 165/4/1 157/4/1 184/4/1 
f 184/4/1 182/4/1 165/4/1 
f 157/4/3 159/4/3 186/4/3 
f 186/4/3 184/4/3 157/4/3 
f 159/4/2 167/4/2 185/4/2 
f 185/4/2 186/4/2 159/4/2 
f 136/6/5 134/3/5 187/3/5 
f 187/3/5 188/6/5 136/6/5 
f 134/3/1 122/3/1 189/3/1 
f 189/3/1 187/3/1 134/3/1 
f 122/3/3 121/6/3 190/6/3 
f 190/6/3 189/3/3 122/3/3 
f 121/6/2 136/6/2 188/6/2 
f 188/6/2 190/6/2 121/6/2 
f 188/6/5 187/3/5 179/3/5 
f 179/3/5 191/6/5 188/6/5 
f 187/3/1 189/3/1 192/3/1 
f 192/3/1 179/3/1 187/3/1 
f 189/3/3 190/6/3 193/6/3 
f 193/6/3 192/3/3 189/3/3 
f 190/6/2 188/6/2 191/6/2 
f 191/6/2 193/6/2 190/6/2 
f 191/6/5 179/3/5 131/3/5 
f 131/3/5 132/6/5 191/6/5 
f 179/3/1 192/3/1 137/3/1 
f 137/3/1 131/3/1 179/3/1 
f 192/3/3 193/6/3 138/6/3 
f 138/6/3 137/3/3 192/3/3 
f 193/6/2 191/6/2 132/6/2 
f 132/6/2 138/6/2 193/6/2 
f 194/6/5 195/6/5 196/6/5 
f 196/6/5 197/6/5 194/6/5 
f 181/6/1 183/6/1 171/6/1 
f 171/6/1 170/6/1 181/6/1 
f 183/6/3 184/6/3 172/6/3 
f 172/6/3 171/6/3 183/6/3 
f 184/6/2 182/6/2 169/6/2 
f 169/6/2 172/6/2 184/6/2 
f 198/4/5 194/4/5 197/4/5 
f 197/4/5 199/4/5 198/4/5 
f 182/4/1 184/4/1 172/4/1 
f 172/4/1 169/4/1 182/4/1 
f 184/4/3 186/4/3 174/4/3 
f 174/4/3 172/4/3 184/4/3 
f 186/4/2 185/4/2 173/4/2 
f 173/4/2 174/4/2 186/4/2 
f 182/6/4 181/6/4 195/6/4 
f 195/6/4 194/6/4 182/6/4 
f 181/6/1 170/6/1 196/6/1 
f 196/6/1 195/6/1 181/6/1 
f 170/6/6 169/6/6 197/6/6 
f 197/6/6 196/6/6 170/6/6 
f 169/6/2 182/6/2 194/6/2 
f 194/6/2 197/6/2 169/6/2 
f 185/4/4 182/4/4 194/4/4 
f 194/4/4 198/4/4 185/4/4 
f 182/4/1 169/4/1 197/4/1 
f 197/4/1 194/4/1 182/4/1 
f 169/4/6 173/4/6 199/4/6 
f 199/4/6 197/4/6 169/4/6 
f 173/4/2 185/4/2 198/4/2 
f 198/4/2 199/4/2 173/4/2 
# 524 faces

