# 3ds Max Wavefront OBJ Exporter v0.97b - (c)2007 guruware
# File Created: 03.11.2013 18:58:02

mtllib Door_29.mtl

#
# object Box275
#

v  1957.0675 141.6537 -3994.3352
v  1956.0990 141.6537 -3994.3352
v  1956.0990 141.6537 -4053.3904
v  1957.0675 141.6537 -4053.3904
v  1957.0675 259.7640 -3994.3352
v  1957.0675 259.7640 -4053.3904
v  1956.0990 259.7640 -4053.3904
v  1956.0990 259.7640 -3994.3352
v  1955.0990 142.6537 -4052.3904
v  1955.0990 142.6537 -3995.3352
v  1955.0990 258.7640 -3995.3352
v  1955.0990 258.7640 -4052.3904
# 12 vertices

vn 0.0000 -1.0000 -0.0000
vn 0.0000 1.0000 -0.0000
vn 1.0000 0.0000 -0.0000
vn -0.0000 0.0000 -1.0000
vn -1.0000 0.0000 0.0000
vn 0.0000 0.0000 1.0000
vn -0.7071 -0.7071 0.0000
vn -0.7071 0.7071 0.0000
vn -0.7071 0.0000 -0.7071
vn -0.7071 0.0000 0.7071
# 10 vertex normals

vt 1.0000 0.0000 0.0000
vt 1.0000 0.4920 0.0000
vt 0.0000 0.4920 0.0000
vt 0.0000 0.0000 0.0000
vt 1.0000 1.0000 0.0000
vt 0.0000 1.0000 0.0000
vt 0.4920 0.0000 0.0000
vt 0.4920 1.0000 0.0000
vt 0.0169 0.0085 0.0000
vt 0.9831 0.0085 0.0000
vt 0.9831 0.9915 0.0000
vt 0.0169 0.9915 0.0000
vt 0.5080 0.0000 0.0000
vt 0.5080 1.0000 0.0000
vt 1.0000 -0.1800 0.0000
vt 0.0000 -0.1800 0.0000
vt 0.0000 1.1800 0.0000
vt 1.0000 1.1800 0.0000
vt 0.1794 -0.0000 0.0000
vt 0.1794 1.0000 0.0000
vt 0.0155 0.0085 0.0000
vt 0.0155 0.9915 0.0000
# 22 texture coords

g Box275
usemtl Material__3
s 2
f 1/1/1 2/2/1 3/3/1 
f 3/3/1 4/4/1 1/1/1 
s 4
f 5/4/2 6/1/2 7/2/2 
f 7/2/2 8/3/2 5/4/2 
s 8
f 1/4/3 4/1/3 6/5/3 
f 6/5/3 5/6/3 1/4/3 
s 16
f 4/4/4 3/7/4 7/8/4 
f 7/8/4 6/6/4 4/4/4 
s 32
f 9/9/5 10/10/5 11/11/5 
f 11/11/5 12/12/5 9/9/5 
s 64
f 2/13/6 1/1/6 5/5/6 
f 5/5/6 8/14/6 2/13/6 
s off
f 2/15/7 10/10/7 9/9/7 
f 9/9/7 3/16/7 2/15/7 
f 7/17/8 12/12/8 11/11/8 
f 11/11/8 8/18/8 7/17/8 
f 3/19/9 9/9/9 12/12/9 
f 12/12/9 7/20/9 3/19/9 
f 10/21/10 2/13/10 8/14/10 
f 8/14/10 11/22/10 10/21/10 
# 20 faces

#
# object Box276
#

v  1957.0675 141.6537 -4053.3284
v  1956.0990 141.6537 -4053.3284
v  1956.0990 141.6537 -4112.3833
v  1957.0675 141.6537 -4112.3833
v  1957.0675 259.7640 -4053.3284
v  1957.0675 259.7640 -4112.3833
v  1956.0990 259.7640 -4112.3833
v  1956.0990 259.7640 -4053.3284
v  1955.0990 142.6537 -4111.3833
v  1955.0990 142.6537 -4054.3284
v  1955.0990 258.7640 -4054.3284
v  1955.0990 258.7640 -4111.3833
# 12 vertices

vn 0.0000 -1.0000 -0.0000
vn 0.0000 1.0000 -0.0000
vn 1.0000 0.0000 -0.0000
vn -0.0000 0.0000 -1.0000
vn -1.0000 0.0000 0.0000
vn 0.0000 0.0000 1.0000
vn -0.7071 -0.7071 0.0000
vn -0.7071 0.7071 0.0000
vn -0.7071 0.0000 -0.7071
vn -0.7071 0.0000 0.7071
# 10 vertex normals

vt 1.0000 0.0000 0.0000
vt 1.0000 0.4920 0.0000
vt 0.0000 0.4920 0.0000
vt 0.0000 0.0000 0.0000
vt 1.0000 1.0000 0.0000
vt 0.0000 1.0000 0.0000
vt 0.4920 0.0000 0.0000
vt 0.4920 1.0000 0.0000
vt 0.0169 0.0085 0.0000
vt 0.9831 0.0085 0.0000
vt 0.9831 0.9915 0.0000
vt 0.0169 0.9915 0.0000
vt 0.5080 0.0000 0.0000
vt 0.5080 1.0000 0.0000
vt 1.0000 -0.1800 0.0000
vt 0.0000 -0.1800 0.0000
vt 0.0000 1.1800 0.0000
vt 1.0000 1.1800 0.0000
vt 0.1794 -0.0000 0.0000
vt 0.1794 1.0000 0.0000
vt 0.0155 0.0085 0.0000
vt 0.0155 0.9915 0.0000
# 22 texture coords

g Box276
usemtl Material__6
s 2
f 13/23/11 14/24/11 15/25/11 
f 15/25/11 16/26/11 13/23/11 
s 4
f 17/26/12 18/23/12 19/24/12 
f 19/24/12 20/25/12 17/26/12 
s 8
f 13/26/13 16/23/13 18/27/13 
f 18/27/13 17/28/13 13/26/13 
s 16
f 16/26/14 15/29/14 19/30/14 
f 19/30/14 18/28/14 16/26/14 
s 32
f 21/31/15 22/32/15 23/33/15 
f 23/33/15 24/34/15 21/31/15 
s 64
f 14/35/16 13/23/16 17/27/16 
f 17/27/16 20/36/16 14/35/16 
s off
f 14/37/17 22/32/17 21/31/17 
f 21/31/17 15/38/17 14/37/17 
f 19/39/18 24/34/18 23/33/18 
f 23/33/18 20/40/18 19/39/18 
f 15/41/19 21/31/19 24/34/19 
f 24/34/19 19/42/19 15/41/19 
f 22/43/20 14/35/20 20/36/20 
f 20/36/20 23/44/20 22/43/20 
# 20 faces

#
# object Box277
#

v  1951.7976 187.9836 -4059.3701
v  1950.3503 187.9836 -4059.3701
v  1950.3503 187.9836 -4069.7969
v  1951.7976 187.9836 -4069.7969
v  1951.7976 187.9836 -4060.9688
v  1951.7976 189.7602 -4060.9688
v  1951.7976 189.7602 -4069.7969
v  1950.3503 189.7602 -4069.7969
v  1951.7976 189.7602 -4059.3701
v  1950.3503 189.7602 -4059.3701
v  1955.2639 186.9100 -4062.0425
v  1955.2639 190.8338 -4062.0425
v  1955.2639 190.8338 -4058.2966
v  1955.2639 186.9100 -4058.2966
v  1954.1598 189.7602 -4059.3701
v  1954.1598 189.7602 -4060.9688
v  1954.1598 187.9836 -4059.3701
v  1954.1598 187.9836 -4060.9688
# 18 vertices

vn 0.0000 -1.0000 -0.0000
vn 0.0000 1.0000 -0.0000
vn 1.0000 0.0000 -0.0000
vn -0.0000 0.0000 -1.0000
vn -1.0000 0.0000 0.0000
vn 0.0000 0.0000 1.0000
vn -0.6971 0.7169 0.0000
vn -0.6971 0.0000 0.7169
vn -0.6971 -0.7169 0.0000
vn -0.6971 0.0000 -0.7169
# 10 vertex normals

vt 1.0000 0.0000 0.0000
vt 1.0000 1.0000 0.0000
vt 0.0000 1.0000 0.0000
vt 0.0000 0.0000 0.0000
vt 0.5000 0.0000 0.0000
vt 0.5000 1.0000 0.0000
# 6 texture coords

g Box277
usemtl Material__5
s 2
f 25/45/21 26/46/21 27/47/21 
f 27/47/21 28/48/21 29/49/21 
f 25/45/21 27/47/21 29/49/21 
s 4
f 30/49/22 31/45/22 32/46/22 
f 33/48/22 30/49/22 32/46/22 
f 33/48/22 32/46/22 34/47/22 
s 8
f 35/49/23 36/50/23 37/47/23 
f 37/47/23 38/48/23 35/49/23 
s 16
f 28/48/24 27/45/24 32/46/24 
f 32/46/24 31/47/24 28/48/24 
s 32
f 27/48/25 26/45/25 34/46/25 
f 34/46/25 32/47/25 27/48/25 
s 64
f 26/48/26 25/45/26 33/46/26 
f 33/46/26 34/47/26 26/48/26 
s 8
f 28/45/23 31/46/23 30/50/23 
f 30/50/23 29/49/23 28/45/23 
s off
f 30/49/22 33/48/22 39/47/22 
f 39/47/22 40/50/22 30/49/22 
f 33/46/26 25/45/26 41/48/26 
f 41/48/26 39/47/26 33/46/26 
f 25/45/21 29/49/21 42/49/21 
f 42/49/21 41/48/21 25/45/21 
f 29/49/24 30/50/24 40/50/24 
f 40/50/24 42/49/24 29/49/24 
f 40/50/27 39/47/27 37/47/27 
f 37/47/27 36/50/27 40/50/27 
f 39/47/28 41/48/28 38/48/28 
f 38/48/28 37/47/28 39/47/28 
f 41/48/29 42/49/29 35/49/29 
f 35/49/29 38/48/29 41/48/29 
f 42/49/30 40/50/30 36/50/30 
f 36/50/30 35/49/30 42/49/30 
# 32 faces

#
# object Box278
#

v  1951.7976 189.9118 -4047.3838
v  1950.3503 189.9118 -4047.3838
v  1950.3503 189.9118 -4036.9570
v  1951.7976 189.9118 -4036.9570
v  1951.7976 189.9118 -4045.7852
v  1951.7976 188.1352 -4045.7852
v  1951.7976 188.1352 -4036.9573
v  1950.3503 188.1352 -4036.9573
v  1951.7976 188.1352 -4047.3838
v  1950.3503 188.1352 -4047.3838
v  1955.2639 190.9854 -4044.7114
v  1955.2639 187.0616 -4044.7114
v  1955.2639 187.0616 -4048.4573
v  1955.2639 190.9854 -4048.4573
v  1954.1598 188.1352 -4047.3838
v  1954.1598 188.1352 -4045.7852
v  1954.1598 189.9118 -4047.3838
v  1954.1598 189.9118 -4045.7852
# 18 vertices

vn 0.0000 1.0000 0.0000
vn -0.0000 -1.0000 -0.0000
vn 1.0000 0.0000 -0.0000
vn 0.0000 -0.0000 1.0000
vn -1.0000 0.0000 0.0000
vn -0.0000 0.0000 -1.0000
vn -0.6971 -0.7169 -0.0000
vn -0.6971 0.0000 -0.7169
vn -0.6971 0.7169 0.0000
vn -0.6971 -0.0000 0.7169
# 10 vertex normals

vt 1.0000 0.0000 0.0000
vt 1.0000 1.0000 0.0000
vt 0.0000 1.0000 0.0000
vt 0.0000 0.0000 0.0000
vt 0.5000 0.0000 0.0000
vt 0.5000 1.0000 0.0000
# 6 texture coords

g Box278
usemtl Material__4
s 2
f 43/51/31 44/52/31 45/53/31 
f 45/53/31 46/54/31 47/55/31 
f 43/51/31 45/53/31 47/55/31 
s 4
f 48/55/32 49/51/32 50/52/32 
f 51/54/32 48/55/32 50/52/32 
f 51/54/32 50/52/32 52/53/32 
s 8
f 53/55/33 54/56/33 55/53/33 
f 55/53/33 56/54/33 53/55/33 
s 16
f 46/54/34 45/51/34 50/52/34 
f 50/52/34 49/53/34 46/54/34 
s 32
f 45/54/35 44/51/35 52/52/35 
f 52/52/35 50/53/35 45/54/35 
s 64
f 44/54/36 43/51/36 51/52/36 
f 51/52/36 52/53/36 44/54/36 
s 8
f 46/51/33 49/52/33 48/56/33 
f 48/56/33 47/55/33 46/51/33 
s off
f 48/55/32 51/54/32 57/53/32 
f 57/53/32 58/56/32 48/55/32 
f 51/52/36 43/51/36 59/54/36 
f 59/54/36 57/53/36 51/52/36 
f 43/51/31 47/55/31 60/55/31 
f 60/55/31 59/54/31 43/51/31 
f 47/55/34 48/56/34 58/56/34 
f 58/56/34 60/55/34 47/55/34 
f 58/56/37 57/53/37 55/53/37 
f 55/53/37 54/56/37 58/56/37 
f 57/53/38 59/54/38 56/54/38 
f 56/54/38 55/53/38 57/53/38 
f 59/54/39 60/55/39 53/55/39 
f 53/55/39 56/54/39 59/54/39 
f 60/55/40 58/56/40 54/56/40 
f 54/56/40 53/55/40 60/55/40 
# 32 faces

#
# object Box279
#

v  1960.2227 189.9118 -4059.3701
v  1961.6699 189.9118 -4059.3701
v  1961.6699 189.9118 -4069.7969
v  1960.2227 189.9118 -4069.7969
v  1960.2227 189.9118 -4060.9688
v  1960.2227 188.1352 -4060.9688
v  1960.2227 188.1352 -4069.7966
v  1961.6699 188.1352 -4069.7966
v  1960.2227 188.1352 -4059.3701
v  1961.6699 188.1352 -4059.3701
v  1956.7563 190.9854 -4062.0425
v  1956.7563 187.0616 -4062.0425
v  1956.7563 187.0616 -4058.2966
v  1956.7563 190.9854 -4058.2966
v  1957.8605 188.1352 -4059.3701
v  1957.8605 188.1352 -4060.9688
v  1957.8605 189.9118 -4059.3701
v  1957.8605 189.9118 -4060.9688
# 18 vertices

vn -0.0000 1.0000 -0.0000
vn 0.0000 -1.0000 0.0000
vn -1.0000 0.0000 0.0000
vn -0.0000 -0.0000 -1.0000
vn 1.0000 0.0000 -0.0000
vn 0.0000 0.0000 1.0000
vn 0.6971 -0.7169 -0.0000
vn 0.6971 0.0000 0.7169
vn 0.6971 0.7169 -0.0000
vn 0.6971 -0.0000 -0.7169
# 10 vertex normals

vt 1.0000 0.0000 0.0000
vt 1.0000 1.0000 0.0000
vt 0.0000 1.0000 0.0000
vt 0.0000 0.0000 0.0000
vt 0.5000 0.0000 0.0000
vt 0.5000 1.0000 0.0000
# 6 texture coords

g Box279
usemtl Material__4
s 2
f 61/57/41 62/58/41 63/59/41 
f 63/59/41 64/60/41 65/61/41 
f 61/57/41 63/59/41 65/61/41 
s 4
f 66/61/42 67/57/42 68/58/42 
f 69/60/42 66/61/42 68/58/42 
f 69/60/42 68/58/42 70/59/42 
s 8
f 71/61/43 72/62/43 73/59/43 
f 73/59/43 74/60/43 71/61/43 
s 16
f 64/60/44 63/57/44 68/58/44 
f 68/58/44 67/59/44 64/60/44 
s 32
f 63/60/45 62/57/45 70/58/45 
f 70/58/45 68/59/45 63/60/45 
s 64
f 62/60/46 61/57/46 69/58/46 
f 69/58/46 70/59/46 62/60/46 
s 8
f 64/57/43 67/58/43 66/62/43 
f 66/62/43 65/61/43 64/57/43 
s off
f 66/61/42 69/60/42 75/59/42 
f 75/59/42 76/62/42 66/61/42 
f 69/58/46 61/57/46 77/60/46 
f 77/60/46 75/59/46 69/58/46 
f 61/57/41 65/61/41 78/61/41 
f 78/61/41 77/60/41 61/57/41 
f 65/61/44 66/62/44 76/62/44 
f 76/62/44 78/61/44 65/61/44 
f 76/62/47 75/59/47 73/59/47 
f 73/59/47 72/62/47 76/62/47 
f 75/59/48 77/60/48 74/60/48 
f 74/60/48 73/59/48 75/59/48 
f 77/60/49 78/61/49 71/61/49 
f 71/61/49 74/60/49 77/60/49 
f 78/61/50 76/62/50 72/62/50 
f 72/62/50 71/61/50 78/61/50 
# 32 faces

#
# object Box280
#

v  1960.2227 187.9836 -4047.3838
v  1961.6699 187.9836 -4047.3838
v  1961.6699 187.9836 -4036.9570
v  1960.2227 187.9836 -4036.9570
v  1960.2227 187.9836 -4045.7852
v  1960.2227 189.7602 -4045.7852
v  1960.2227 189.7602 -4036.9570
v  1961.6699 189.7602 -4036.9570
v  1960.2227 189.7602 -4047.3838
v  1961.6699 189.7602 -4047.3838
v  1956.7563 186.9100 -4044.7114
v  1956.7563 190.8338 -4044.7114
v  1956.7563 190.8338 -4048.4573
v  1956.7563 186.9100 -4048.4573
v  1957.8605 189.7602 -4047.3835
v  1957.8605 189.7602 -4045.7852
v  1957.8605 187.9836 -4047.3835
v  1957.8605 187.9836 -4045.7852
# 18 vertices

vn 0.0000 -1.0000 -0.0000
vn 0.0000 1.0000 -0.0000
vn -1.0000 0.0000 0.0000
vn 0.0000 0.0000 1.0000
vn 1.0000 0.0000 -0.0000
vn -0.0000 0.0000 -1.0000
vn 0.6971 0.7169 -0.0000
vn 0.6971 0.0000 -0.7169
vn 0.6971 -0.7169 -0.0000
vn 0.6971 0.0000 0.7169
# 10 vertex normals

vt 1.0000 0.0000 0.0000
vt 1.0000 1.0000 0.0000
vt 0.0000 1.0000 0.0000
vt 0.0000 0.0000 0.0000
vt 0.5000 0.0000 0.0000
vt 0.5000 1.0000 0.0000
# 6 texture coords

g Box280
usemtl Material__5
s 2
f 79/63/51 80/64/51 81/65/51 
f 81/65/51 82/66/51 83/67/51 
f 79/63/51 81/65/51 83/67/51 
s 4
f 84/67/52 85/63/52 86/64/52 
f 87/66/52 84/67/52 86/64/52 
f 87/66/52 86/64/52 88/65/52 
s 8
f 89/67/53 90/68/53 91/65/53 
f 91/65/53 92/66/53 89/67/53 
s 16
f 82/66/54 81/63/54 86/64/54 
f 86/64/54 85/65/54 82/66/54 
s 32
f 81/66/55 80/63/55 88/64/55 
f 88/64/55 86/65/55 81/66/55 
s 64
f 80/66/56 79/63/56 87/64/56 
f 87/64/56 88/65/56 80/66/56 
s 8
f 82/63/53 85/64/53 84/68/53 
f 84/68/53 83/67/53 82/63/53 
s off
f 84/67/52 87/66/52 93/65/52 
f 93/65/52 94/68/52 84/67/52 
f 87/64/56 79/63/56 95/66/56 
f 95/66/56 93/65/56 87/64/56 
f 79/63/51 83/67/51 96/67/51 
f 96/67/51 95/66/51 79/63/51 
f 83/67/54 84/68/54 94/68/54 
f 94/68/54 96/67/54 83/67/54 
f 94/68/57 93/65/57 91/65/57 
f 91/65/57 90/68/57 94/68/57 
f 93/65/58 95/66/58 92/66/58 
f 92/66/58 91/65/58 93/65/58 
f 95/66/59 96/67/59 89/67/59 
f 89/67/59 92/66/59 95/66/59 
f 96/67/60 94/68/60 90/68/60 
f 90/68/60 89/67/60 96/67/60 
# 32 faces

