# 3ds Max Wavefront OBJ Exporter v0.97b - (c)2007 guruware
# File Created: 02.11.2013 21:39:03

mtllib FrontRight2ndFloor2.mtl

#
# object Box011
#

v  1411.3386 129.9213 -2425.7588
v  2198.7402 129.9213 -2425.7588
v  2198.7402 129.9213 -2436.0239
v  1830.9580 129.9213 -2436.0239
v  1819.1470 129.9213 -2436.0239
v  1411.3386 129.9213 -2436.0239
v  1411.3386 129.9213 -1955.7085
v  1805.0394 129.9213 -1955.7086
v  1805.0394 129.9213 -1967.5197
v  1411.3386 129.9213 -1967.5197
v  1819.1470 129.9213 -2613.1890
v  1830.9580 129.9213 -2613.1890
v  2210.5513 129.9213 -2625.0000
v  2198.7402 129.9213 -2625.0000
v  2210.5513 129.9213 -2613.1890
v  2198.7402 129.9213 -2613.1890
v  1964.8746 129.9213 -2613.1890
v  1964.8748 129.9213 -2625.0000
v  1411.3386 129.9213 -2625.0000
v  1411.3386 129.9213 -2613.1890
v  1740.2644 129.9213 -2613.1890
v  1740.2644 129.9213 -2625.0000
v  1905.8196 129.9213 -2613.1890
v  1905.8198 129.9213 -2625.0000
v  1799.3196 129.9213 -2613.1890
v  1799.3196 129.9213 -2625.0000
v  2210.5513 129.9213 -2358.1602
v  2198.7402 129.9213 -2358.1597
v  2210.5513 129.9213 -2093.7710
v  2210.5513 129.9213 -2160.8252
v  2210.5513 129.9213 -2172.6362
v  2210.5513 129.9213 -2240.0496
v  2198.7402 129.9213 -2240.0496
v  2198.7402 129.9213 -2093.7710
v  1411.3533 129.9213 -1967.5184
v  1399.5422 129.9213 -1967.5197
v  1399.5422 141.7323 -1967.5197
v  1411.3459 141.7323 -1967.5184
v  1399.5277 141.7323 -1967.5201
v  1399.5277 129.9213 -1967.5201
v  1399.5277 129.9213 -1955.7097
v  1399.5277 141.7323 -1955.7097
v  1805.0403 129.9213 -2723.4246
v  1509.7639 129.9213 -2723.4250
v  1509.7639 141.7323 -2723.4250
v  1805.0403 141.7323 -2723.4246
v  1805.0396 129.9213 -1967.5190
v  1805.0396 129.9213 -1955.7086
v  1805.0396 141.7323 -1955.7086
v  1805.0396 141.7323 -1967.5190
v  1411.3384 141.7323 -1967.5195
v  2210.5513 129.9213 -1967.5197
v  2198.7405 129.9213 -1967.5197
v  2198.7410 129.9213 -2625.0000
v  2210.5520 129.9213 -2625.0000
v  1805.0403 129.9213 -2624.9995
v  1399.5283 129.9213 -2625.0005
v  1399.5283 141.7323 -2625.0005
v  2198.7388 141.7323 -2085.6299
v  2198.7371 141.7323 -2267.2837
v  1805.0403 141.7323 -2267.2832
v  2198.7405 141.7323 -1967.5197
v  2210.5513 141.7323 -1967.5197
v  2210.5447 141.7323 -2085.6299
v  2198.7410 141.7323 -2625.0000
v  2198.7412 129.9213 -2723.4253
v  2198.7412 141.7323 -2723.4253
v  2100.3149 129.9213 -2723.4248
v  1399.5284 129.9213 -2723.4258
v  1419.6720 129.9213 -2723.4253
v  1399.5259 141.7323 -2723.4258
v  1923.1566 141.7323 -2624.9998
v  1805.0464 141.7323 -2624.9995
v  2100.3149 141.7323 -2723.4248
v  1521.5750 129.9213 -2723.4250
v  1521.5750 141.7323 -2723.4250
v  1686.9304 141.7323 -2267.2834
v  1411.3350 141.7323 -2267.2837
v  1411.3386 141.7323 -2624.9998
v  1411.3386 141.7323 -2723.4253
v  1805.0325 141.7323 -2613.1887
v  1923.1427 141.7323 -2613.1890
v  1805.0386 141.7323 -2279.0942
v  2198.7271 141.7323 -2613.1892
v  2198.7339 141.7323 -2279.0811
v  1411.3251 141.7323 -2613.1892
v  1411.3317 141.7323 -2279.0947
v  1686.9279 141.7323 -2279.0947
v  1529.4489 129.9213 -1955.7085
v  1411.3386 135.8268 -1955.7085
v  1515.6694 135.8268 -1955.7085
v  1529.4489 135.8268 -1955.7085
v  1411.3386 141.7323 -1955.7085
v  1515.6694 141.7323 -1955.7085
# 94 vertices

vn 0.0000 1.0000 -0.0000
vn 1.0000 0.0000 -0.0000
vn 0.0001 0.0000 -1.0000
vn -1.0000 0.0000 -0.0000
vn 0.0000 0.0000 -1.0000
vn 0.0000 -1.0000 -0.0000
vn -0.0000 0.0000 1.0000
vn 1.0000 0.0000 0.0000
vn -1.0000 0.0000 0.0000
vn -1.0000 -0.0002 -0.0000
vn -0.0000 0.0000 -1.0000
# 11 vertex normals

vt 0.5000 0.5093 0.0000
vt 0.6042 0.5093 0.0000
vt 0.5833 0.5185 0.0000
vt 0.5556 0.5185 0.0000
vt 0.5278 0.5185 0.0000
vt 0.5000 0.5185 0.0000
vt 0.5000 0.5031 0.0000
vt 0.5621 0.5017 0.0000
vt 0.5617 0.5034 0.0000
vt 0.5000 0.5062 0.0000
vt 0.5208 0.5278 0.0000
vt 0.5417 0.5278 0.0000
vt 0.7083 0.5556 0.0000
vt 0.6667 0.5556 0.0000
vt 0.5833 0.5556 0.0000
vt 0.6250 0.5278 0.0000
vt 0.5625 0.5278 0.0000
vt 0.5556 0.5278 0.0000
vt 0.5556 0.5556 0.0000
vt 0.5000 0.5556 0.0000
vt 0.5000 0.5278 0.0000
vt 0.5069 0.5278 0.0000
vt 0.5093 0.5556 0.0000
vt 0.5486 0.5278 0.0000
vt 0.5278 0.5556 0.0000
vt 0.5139 0.5278 0.0000
vt 0.5185 0.5556 0.0000
vt 0.6875 0.5278 0.0000
vt 0.6875 0.5247 0.0000
vt 0.6111 0.5062 0.0000
vt 0.6875 0.5062 0.0000
vt 0.6875 0.5093 0.0000
vt 0.6875 0.5185 0.0000
vt 0.6875 0.5216 0.0000
vt 0.6181 0.5031 0.0000
vt 0.6204 0.5021 0.0000
vt 0.5000 0.5000 0.0000
vt 0.0000 0.5000 0.0000
vt 0.5625 0.5000 0.0000
vt 0.5750 -4.3750 0.0005
vt 0.5750 -4.3750 0.9995
vt -4.5750 -4.3750 0.9995
vt -4.5750 -4.3750 0.0005
vt 0.5750 -4.2250 0.9995
vt -4.4250 -4.2250 0.9995
vt -4.5750 -4.2250 0.9995
vt 0.6875 0.5000 0.0000
vt 0.6250 0.5000 0.0000
vt 5.5750 -2.7250 0.9995
vt 5.5750 -0.4180 0.9995
vt 0.5750 -0.4180 0.9995
vt 5.5750 -4.2250 0.9995
vt 0.5938 0.5000 0.0000
vt 2.0751 4.1250 0.9995
vt 5.5750 4.1250 0.9995
vt 5.5750 5.3750 0.9995
vt 0.5751 4.1250 0.9995
vt 4.3250 5.3750 0.9995
vt 0.5750 5.3750 0.9995
vt -0.9250 -0.4180 0.9995
vt -4.4251 -0.4180 0.9995
vt -4.4250 4.1250 0.9995
vt -3.1750 5.3750 0.9995
vt -4.4250 5.3750 0.9995
vt 0.5749 3.9750 0.9995
vt 2.0749 3.9750 0.9995
vt 0.5750 -0.2680 0.9995
vt 5.5748 3.9750 0.9995
vt 5.5749 -0.2682 0.9995
vt -4.4252 3.9750 0.9995
vt -4.4251 -0.2680 0.9995
vt -0.9250 -0.2680 0.9995
vt 0.5155 0.5027 0.0000
vt 0.5078 0.5029 0.0000
# 74 texture coords

g Box011
usemtl 01___Default
s 4
f 1/1/1 2/2/1 3/3/1 
f 1/1/1 3/3/1 4/4/1 
f 1/1/1 4/4/1 5/5/1 
f 6/6/1 1/1/1 5/5/1 
f 7/7/1 8/8/1 9/9/1 
f 9/9/1 10/10/1 7/7/1 
f 11/11/1 5/5/1 4/4/1 
f 4/4/1 12/12/1 11/11/1 
f 13/13/1 13/14/2 14/15/1 
f 15/16/1 13/13/1 14/15/1 
f 16/17/1 15/16/1 14/15/1 
f 17/18/1 16/17/1 14/15/1 
f 17/18/1 14/15/1 18/19/1 
f 19/20/1 20/21/1 21/22/1 
f 21/22/1 22/23/1 19/20/1 
f 12/12/1 23/24/1 24/25/1 
f 11/11/1 12/12/1 24/25/1 
f 25/26/1 11/11/1 24/25/1 
f 25/26/1 24/25/1 26/27/1 
f 15/28/1 15/16/1 16/17/1 
f 27/29/1 15/28/1 16/17/1 
f 27/29/1 16/17/1 3/3/1 
f 27/29/1 3/3/1 2/2/1 
f 27/29/1 2/2/1 28/30/1 
f 29/31/1 30/32/1 31/33/1 
f 31/33/1 32/34/1 33/35/1 
f 29/31/1 31/33/1 33/35/1 
f 29/31/1 33/35/1 34/36/1 
s off
f 35/37/3 36/38/3 37/38/3 
f 37/38/3 38/37/3 35/37/3 
f 39/39/4 40/39/4 41/39/4 
f 41/39/4 42/39/4 39/39/4 
f 43/39/5 44/39/5 45/39/5 
f 45/39/5 46/39/5 43/39/5 
f 47/39/6 48/39/6 41/39/6 
f 41/39/6 40/39/6 47/39/6 
f 48/40/7 49/41/7 42/42/7 
f 42/42/7 41/43/7 48/40/7 
f 49/41/1 50/44/1 51/45/1 
f 49/41/1 51/45/1 39/46/1 
f 49/41/1 39/46/1 42/42/1 
f 52/47/6 53/48/6 54/48/6 
f 54/48/6 55/47/6 52/47/6 
f 53/48/6 47/39/6 56/39/6 
f 56/39/6 54/48/6 53/48/6 
f 47/39/6 40/39/6 57/39/6 
f 57/39/6 56/39/6 47/39/6 
f 40/39/4 39/39/4 58/39/4 
f 58/39/4 57/39/4 40/39/4 
f 59/49/1 60/50/1 61/51/1 
f 62/52/1 59/49/1 61/51/1 
f 50/44/1 62/52/1 61/51/1 
f 63/47/1 64/47/1 59/48/1 
f 59/48/1 62/48/1 63/47/1 
f 65/48/8 54/48/8 66/48/8 
f 66/48/8 67/48/8 65/48/8 
f 54/48/6 56/39/6 43/39/6 
f 54/48/6 43/39/6 68/53/6 
f 54/48/6 68/53/6 66/48/6 
f 56/39/6 57/39/6 69/39/6 
f 56/39/6 69/39/6 70/39/6 
f 56/39/6 70/39/6 44/39/6 
f 56/39/6 44/39/6 43/39/6 
f 57/39/9 58/39/9 71/39/9 
f 71/39/10 69/39/10 57/39/10 
f 72/54/1 65/55/1 67/56/1 
f 73/57/1 72/54/1 67/56/1 
f 73/57/1 67/56/1 74/58/1 
f 73/57/1 74/58/1 46/59/1 
f 43/39/11 46/39/11 74/53/11 
f 74/53/11 68/53/11 43/39/11 
f 45/39/7 44/39/7 75/39/7 
f 75/39/7 76/39/7 45/39/7 
f 50/44/1 61/51/1 77/60/1 
f 50/44/1 77/60/1 78/61/1 
f 51/45/1 50/44/1 78/61/1 
f 79/62/1 73/57/1 46/59/1 
f 79/62/1 46/59/1 45/63/1 
f 79/62/1 45/63/1 80/64/1 
f 73/57/1 81/65/1 82/66/1 
f 82/66/1 72/54/1 73/57/1 
f 82/66/1 81/65/1 83/67/1 
f 84/68/1 82/66/1 83/67/1 
f 85/69/1 84/68/1 83/67/1 
f 81/65/1 86/70/1 87/71/1 
f 81/65/1 87/71/1 88/72/1 
f 83/67/1 81/65/1 88/72/1 
f 83/67/1 88/72/1 77/60/1 
f 77/60/1 61/51/1 83/67/1 
f 89/73/5 7/7/5 90/7/5 
f 89/73/5 90/7/5 91/74/5 
f 89/73/5 91/74/5 92/73/5 
f 91/74/5 90/7/5 93/7/5 
f 93/7/5 94/74/5 91/74/5 
# 94 faces

