# 3ds Max Wavefront OBJ Exporter v0.97b - (c)2007 guruware
# File Created: 08.10.2013 16:42:59

mtllib fstStair1.mtl

#
# object Box011
#

v  1667.2441 76.7717 -1825.7866
v  1667.2441 76.7717 -1955.7085
v  1653.4646 76.7717 -1955.7085
v  1653.4646 76.7717 -1825.7865
v  1805.0394 17.7165 -1825.7867
v  1805.0396 17.7165 -1955.7085
v  1791.2600 17.7165 -1955.7085
v  1791.2599 17.7165 -1825.7867
v  1791.2599 23.6220 -1825.7867
v  1791.2600 23.6220 -1955.7085
v  1777.4805 23.6220 -1955.7085
v  1777.4805 23.6220 -1825.7867
v  1777.4805 29.5276 -1825.7867
v  1777.4805 29.5276 -1955.7085
v  1763.7009 29.5276 -1955.7085
v  1763.7009 29.5276 -1825.7867
v  1763.7009 35.4331 -1825.7867
v  1763.7009 35.4331 -1955.7085
v  1749.9214 35.4331 -1955.7085
v  1749.9214 35.4331 -1825.7866
v  1749.9214 41.3386 -1825.7866
v  1749.9214 41.3386 -1955.7085
v  1736.1418 41.3386 -1955.7085
v  1736.1418 41.3386 -1825.7866
v  1736.1418 47.2441 -1825.7866
v  1736.1418 47.2441 -1955.7085
v  1722.3623 47.2441 -1955.7085
v  1722.3623 47.2441 -1825.7866
v  1722.3623 53.1496 -1825.7866
v  1722.3623 53.1496 -1955.7085
v  1708.5828 53.1496 -1955.7085
v  1708.5828 53.1496 -1825.7866
v  1708.5828 59.0551 -1825.7866
v  1708.5828 59.0551 -1955.7085
v  1694.8032 59.0551 -1955.7085
v  1694.8032 59.0551 -1825.7866
v  1694.8032 64.9606 -1825.7866
v  1694.8032 64.9606 -1955.7085
v  1681.0237 64.9606 -1955.7085
v  1681.0237 64.9606 -1825.7866
v  1681.0237 70.8661 -1825.7866
v  1681.0237 70.8661 -1955.7085
v  1667.2441 70.8661 -1955.7085
v  1667.2441 70.8661 -1825.7866
v  1529.4489 129.9213 -1955.7085
v  1529.4487 129.9213 -1825.7864
v  1543.2283 129.9213 -1825.7864
v  1543.2284 129.9213 -1955.7085
v  1543.2284 124.0157 -1955.7085
v  1543.2283 124.0157 -1825.7864
v  1557.0078 124.0157 -1825.7864
v  1557.0079 124.0157 -1955.7085
v  1557.0079 118.1102 -1955.7085
v  1557.0078 118.1102 -1825.7864
v  1570.7874 118.1102 -1825.7864
v  1570.7875 118.1102 -1955.7085
v  1570.7875 112.2047 -1955.7085
v  1570.7874 112.2047 -1825.7864
v  1584.5669 112.2047 -1825.7865
v  1584.5669 112.2047 -1955.7085
v  1584.5669 106.2992 -1955.7085
v  1584.5669 106.2992 -1825.7865
v  1598.3464 106.2992 -1825.7865
v  1598.3464 106.2992 -1955.7085
v  1598.3464 100.3937 -1955.7085
v  1598.3464 100.3937 -1825.7865
v  1612.1260 100.3937 -1825.7865
v  1612.1260 100.3937 -1955.7085
v  1612.1260 94.4882 -1955.7085
v  1612.1260 94.4882 -1825.7865
v  1625.9055 94.4882 -1825.7865
v  1625.9055 94.4882 -1955.7085
v  1625.9055 88.5827 -1955.7085
v  1625.9055 88.5827 -1825.7865
v  1639.6851 88.5827 -1825.7865
v  1639.6851 88.5827 -1955.7085
v  1639.6851 82.6772 -1955.7085
v  1639.6851 82.6772 -1825.7865
v  1653.4646 82.6772 -1825.7865
v  1653.4646 82.6772 -1955.7085
v  1791.2599 11.8110 -1825.7867
v  1805.0394 11.8110 -1825.7867
v  1805.0396 11.8110 -1955.7085
v  1791.2600 11.8110 -1955.7085
v  1777.4805 11.8110 -1825.7867
v  1777.4805 11.8110 -1955.7085
v  1763.7009 11.8110 -1825.7867
v  1763.7009 11.8110 -1955.7085
v  1749.9214 11.8110 -1825.7866
v  1749.9214 11.8110 -1955.7085
v  1736.1418 11.8110 -1825.7866
v  1736.1418 11.8110 -1955.7085
v  1722.3623 11.8110 -1825.7866
v  1722.3623 11.8110 -1955.7085
v  1708.5828 11.8110 -1825.7866
v  1708.5828 11.8110 -1955.7085
v  1694.8032 11.8110 -1825.7866
v  1694.8032 11.8110 -1955.7085
v  1681.0237 11.8110 -1825.7866
v  1681.0237 11.8110 -1955.7085
v  1667.2441 11.8110 -1825.7866
v  1667.2441 11.8110 -1955.7085
v  1653.4646 11.8110 -1825.7865
v  1653.4646 11.8110 -1955.7085
v  1639.6851 11.8110 -1825.7865
v  1639.6851 11.8110 -1955.7085
v  1625.9055 11.8110 -1825.7865
v  1625.9055 11.8110 -1955.7085
v  1612.1260 11.8110 -1825.7865
v  1612.1260 11.8110 -1955.7085
v  1598.3464 11.8110 -1825.7865
v  1598.3464 11.8110 -1955.7085
v  1584.5669 11.8110 -1825.7865
v  1584.5669 11.8110 -1955.7085
v  1570.7874 11.8110 -1825.7864
v  1570.7875 11.8110 -1955.7085
v  1557.0078 11.8110 -1825.7864
v  1557.0079 11.8110 -1955.7085
v  1543.2283 11.8110 -1825.7864
v  1543.2284 11.8110 -1955.7085
v  1529.4487 11.8110 -1825.7864
v  1529.4489 11.8110 -1955.7085
# 122 vertices

vn 0.0000 1.0000 -0.0000
vn 0.0000 0.0000 1.0000
vn 1.0000 0.0000 0.0000
vn 0.0000 0.0000 -1.0000
vn -1.0000 0.0000 -0.0000
vn 1.0000 0.0000 -0.0000
# 6 vertex normals

vt 0.5469 0.5000 0.0000
vt 0.5233 0.5026 0.0000
vt 0.5225 0.5026 0.0000
vt 0.5453 0.5000 0.0000
vt 0.5625 0.5000 0.0000
vt 0.5311 0.5024 0.0000
vt 0.5303 0.5024 0.0000
vt 0.5609 0.5000 0.0000
vt 0.5295 0.5024 0.0000
vt 0.5594 0.5000 0.0000
vt 0.5287 0.5025 0.0000
vt 0.5578 0.5000 0.0000
vt 0.5280 0.5025 0.0000
vt 0.5562 0.5000 0.0000
vt 0.5272 0.5025 0.0000
vt 0.5547 0.5000 0.0000
vt 0.5264 0.5025 0.0000
vt 0.5531 0.5000 0.0000
vt 0.5256 0.5025 0.0000
vt 0.5516 0.5000 0.0000
vt 0.5248 0.5025 0.0000
vt 0.5500 0.5000 0.0000
vt 0.5241 0.5026 0.0000
vt 0.5484 0.5000 0.0000
vt 0.5155 0.5027 0.0000
vt 0.5313 0.5000 0.0000
vt 0.5328 0.5000 0.0000
vt 0.5163 0.5027 0.0000
vt 0.5344 0.5000 0.0000
vt 0.5171 0.5027 0.0000
vt 0.5359 0.5000 0.0000
vt 0.5179 0.5027 0.0000
vt 0.5375 0.5000 0.0000
vt 0.5186 0.5027 0.0000
vt 0.5391 0.5000 0.0000
vt 0.5194 0.5027 0.0000
vt 0.5406 0.5000 0.0000
vt 0.5202 0.5026 0.0000
vt 0.5422 0.5000 0.0000
vt 0.5210 0.5026 0.0000
vt 0.5437 0.5000 0.0000
vt 0.5217 0.5026 0.0000
# 42 texture coords

g Box011
usemtl wire_177088027
s 4
f 1/1/1 2/2/1 3/3/1 
f 3/3/1 4/4/1 1/1/1 
f 5/5/1 6/6/1 7/7/1 
f 7/7/1 8/8/1 5/5/1 
f 9/8/1 10/7/1 11/9/1 
f 11/9/1 12/10/1 9/8/1 
f 13/10/1 14/9/1 15/11/1 
f 15/11/1 16/12/1 13/10/1 
f 17/12/1 18/11/1 19/13/1 
f 19/13/1 20/14/1 17/12/1 
f 21/14/1 22/13/1 23/15/1 
f 23/15/1 24/16/1 21/14/1 
f 25/16/1 26/15/1 27/17/1 
f 27/17/1 28/18/1 25/16/1 
f 29/18/1 30/17/1 31/19/1 
f 31/19/1 32/20/1 29/18/1 
f 33/20/1 34/19/1 35/21/1 
f 35/21/1 36/22/1 33/20/1 
f 37/22/1 38/21/1 39/23/1 
f 39/23/1 40/24/1 37/22/1 
f 41/24/1 42/23/1 43/2/1 
f 43/2/1 44/1/1 41/24/1 
f 45/25/1 46/26/1 47/27/1 
f 47/27/1 48/28/1 45/25/1 
f 49/28/1 50/27/1 51/29/1 
f 51/29/1 52/30/1 49/28/1 
f 53/30/1 54/29/1 55/31/1 
f 55/31/1 56/32/1 53/30/1 
f 57/32/1 58/31/1 59/33/1 
f 59/33/1 60/34/1 57/32/1 
f 61/34/1 62/33/1 63/35/1 
f 63/35/1 64/36/1 61/34/1 
f 65/36/1 66/35/1 67/37/1 
f 67/37/1 68/38/1 65/36/1 
f 69/38/1 70/37/1 71/39/1 
f 71/39/1 72/40/1 69/38/1 
f 73/40/1 74/39/1 75/41/1 
f 75/41/1 76/42/1 73/40/1 
f 77/42/1 78/41/1 79/4/1 
f 79/4/1 80/3/1 77/42/1 
s off
f 81/8/2 82/5/2 5/5/2 
f 5/5/2 8/8/2 81/8/2 
f 82/5/3 83/6/3 6/6/3 
f 6/6/3 5/5/3 82/5/3 
f 83/6/4 84/7/4 7/7/4 
f 7/7/4 6/6/4 83/6/4 
f 84/7/5 81/8/5 8/8/5 
f 8/8/5 7/7/5 84/7/5 
f 85/10/2 81/8/2 9/8/2 
f 9/8/2 12/10/2 85/10/2 
f 81/8/3 84/7/3 10/7/3 
f 10/7/3 9/8/3 81/8/3 
f 84/7/4 86/9/4 11/9/4 
f 11/9/4 10/7/4 84/7/4 
f 86/9/5 85/10/5 12/10/5 
f 12/10/5 11/9/5 86/9/5 
f 87/12/2 85/10/2 13/10/2 
f 13/10/2 16/12/2 87/12/2 
f 85/10/6 86/9/6 14/9/6 
f 14/9/6 13/10/6 85/10/6 
f 86/9/4 88/11/4 15/11/4 
f 15/11/4 14/9/4 86/9/4 
f 88/11/5 87/12/5 16/12/5 
f 16/12/5 15/11/5 88/11/5 
f 89/14/2 87/12/2 17/12/2 
f 17/12/2 20/14/2 89/14/2 
f 87/12/3 88/11/3 18/11/3 
f 18/11/3 17/12/3 87/12/3 
f 88/11/4 90/13/4 19/13/4 
f 19/13/4 18/11/4 88/11/4 
f 90/13/5 89/14/5 20/14/5 
f 20/14/5 19/13/5 90/13/5 
f 91/16/2 89/14/2 21/14/2 
f 21/14/2 24/16/2 91/16/2 
f 89/14/3 90/13/3 22/13/3 
f 22/13/3 21/14/3 89/14/3 
f 90/13/4 92/15/4 23/15/4 
f 23/15/4 22/13/4 90/13/4 
f 92/15/5 91/16/5 24/16/5 
f 24/16/5 23/15/5 92/15/5 
f 93/18/2 91/16/2 25/16/2 
f 25/16/2 28/18/2 93/18/2 
f 91/16/3 92/15/3 26/15/3 
f 26/15/3 25/16/3 91/16/3 
f 92/15/4 94/17/4 27/17/4 
f 27/17/4 26/15/4 92/15/4 
f 94/17/5 93/18/5 28/18/5 
f 28/18/5 27/17/5 94/17/5 
f 95/20/2 93/18/2 29/18/2 
f 29/18/2 32/20/2 95/20/2 
f 93/18/3 94/17/3 30/17/3 
f 30/17/3 29/18/3 93/18/3 
f 94/17/4 96/19/4 31/19/4 
f 31/19/4 30/17/4 94/17/4 
f 96/19/5 95/20/5 32/20/5 
f 32/20/5 31/19/5 96/19/5 
f 97/22/2 95/20/2 33/20/2 
f 33/20/2 36/22/2 97/22/2 
f 95/20/3 96/19/3 34/19/3 
f 34/19/3 33/20/3 95/20/3 
f 96/19/4 98/21/4 35/21/4 
f 35/21/4 34/19/4 96/19/4 
f 98/21/5 97/22/5 36/22/5 
f 36/22/5 35/21/5 98/21/5 
f 99/24/2 97/22/2 37/22/2 
f 37/22/2 40/24/2 99/24/2 
f 97/22/3 98/21/3 38/21/3 
f 38/21/3 37/22/3 97/22/3 
f 98/21/4 100/23/4 39/23/4 
f 39/23/4 38/21/4 98/21/4 
f 100/23/5 99/24/5 40/24/5 
f 40/24/5 39/23/5 100/23/5 
f 101/1/2 99/24/2 41/24/2 
f 41/24/2 44/1/2 101/1/2 
f 99/24/6 100/23/6 42/23/6 
f 42/23/6 41/24/6 99/24/6 
f 100/23/4 102/2/4 43/2/4 
f 43/2/4 42/23/4 100/23/4 
f 102/2/5 101/1/5 44/1/5 
f 44/1/5 43/2/5 102/2/5 
f 103/4/2 101/1/2 1/1/2 
f 1/1/2 4/4/2 103/4/2 
f 101/1/6 102/2/6 2/2/6 
f 2/2/6 1/1/6 101/1/6 
f 102/2/4 104/3/4 3/3/4 
f 3/3/4 2/2/4 102/2/4 
f 104/3/5 103/4/5 4/4/5 
f 4/4/5 3/3/5 104/3/5 
f 105/41/2 103/4/2 79/4/2 
f 79/4/2 78/41/2 105/41/2 
f 103/4/3 104/3/3 80/3/3 
f 80/3/3 79/4/3 103/4/3 
f 104/3/4 106/42/4 77/42/4 
f 77/42/4 80/3/4 104/3/4 
f 106/42/5 105/41/5 78/41/5 
f 78/41/5 77/42/5 106/42/5 
f 107/39/2 105/41/2 75/41/2 
f 75/41/2 74/39/2 107/39/2 
f 105/41/3 106/42/3 76/42/3 
f 76/42/3 75/41/3 105/41/3 
f 106/42/4 108/40/4 73/40/4 
f 73/40/4 76/42/4 106/42/4 
f 108/40/5 107/39/5 74/39/5 
f 74/39/5 73/40/5 108/40/5 
f 109/37/2 107/39/2 71/39/2 
f 71/39/2 70/37/2 109/37/2 
f 107/39/3 108/40/3 72/40/3 
f 72/40/3 71/39/3 107/39/3 
f 108/40/4 110/38/4 69/38/4 
f 69/38/4 72/40/4 108/40/4 
f 110/38/5 109/37/5 70/37/5 
f 70/37/5 69/38/5 110/38/5 
f 111/35/2 109/37/2 67/37/2 
f 67/37/2 66/35/2 111/35/2 
f 109/37/3 110/38/3 68/38/3 
f 68/38/3 67/37/3 109/37/3 
f 110/38/4 112/36/4 65/36/4 
f 65/36/4 68/38/4 110/38/4 
f 112/36/5 111/35/5 66/35/5 
f 66/35/5 65/36/5 112/36/5 
f 113/33/2 111/35/2 63/35/2 
f 63/35/2 62/33/2 113/33/2 
f 111/35/3 112/36/3 64/36/3 
f 64/36/3 63/35/3 111/35/3 
f 112/36/4 114/34/4 61/34/4 
f 61/34/4 64/36/4 112/36/4 
f 114/34/5 113/33/5 62/33/5 
f 62/33/5 61/34/5 114/34/5 
f 115/31/2 113/33/2 59/33/2 
f 59/33/2 58/31/2 115/31/2 
f 113/33/3 114/34/3 60/34/3 
f 60/34/3 59/33/3 113/33/3 
f 114/34/4 116/32/4 57/32/4 
f 57/32/4 60/34/4 114/34/4 
f 116/32/5 115/31/5 58/31/5 
f 58/31/5 57/32/5 116/32/5 
f 117/29/2 115/31/2 55/31/2 
f 55/31/2 54/29/2 117/29/2 
f 115/31/3 116/32/3 56/32/3 
f 56/32/3 55/31/3 115/31/3 
f 116/32/4 118/30/4 53/30/4 
f 53/30/4 56/32/4 116/32/4 
f 118/30/5 117/29/5 54/29/5 
f 54/29/5 53/30/5 118/30/5 
f 119/27/2 117/29/2 51/29/2 
f 51/29/2 50/27/2 119/27/2 
f 117/29/3 118/30/3 52/30/3 
f 52/30/3 51/29/3 117/29/3 
f 118/30/4 120/28/4 49/28/4 
f 49/28/4 52/30/4 118/30/4 
f 120/28/5 119/27/5 50/27/5 
f 50/27/5 49/28/5 120/28/5 
f 121/26/2 119/27/2 47/27/2 
f 47/27/2 46/26/2 121/26/2 
f 119/27/3 120/28/3 48/28/3 
f 48/28/3 47/27/3 119/27/3 
f 120/28/4 122/25/4 45/25/4 
f 45/25/4 48/28/4 120/28/4 
# 198 faces

