# 3ds Max Wavefront OBJ Exporter v0.97b - (c)2007 guruware
# File Created: 02.11.2013 17:37:57

mtllib fstStair1_01.mtl

#
# object Box011
#

v  1805.0394 17.7165 -1825.7867
v  1805.0396 17.7165 -1955.7085
v  1791.2600 17.7165 -1955.7085
v  1791.2599 17.7165 -1825.7867
v  1791.2599 11.8110 -1825.7867
v  1805.0394 11.8110 -1825.7867
v  1805.0396 11.8110 -1955.7085
v  1791.2600 11.8110 -1955.7085
# 8 vertices

vn 0.0000 1.0000 -0.0000
vn 0.0000 0.0000 1.0000
vn 1.0000 0.0000 0.0000
vn 0.0000 0.0000 -1.0000
vn -1.0000 0.0000 -0.0000
# 5 vertex normals

vt 0.5875 -0.3250 0.9995
vt 0.5875 1.3250 0.9995
vt 0.4125 1.3250 0.9995
vt 0.4125 -0.3250 0.9995
vt 0.5609 0.5000 0.0000
vt 0.5625 0.5000 0.0000
vt 0.5875 -0.3250 0.0005
vt 0.5875 1.3250 0.0005
vt 0.5311 0.5024 0.0000
vt 0.5303 0.5024 0.0000
# 10 texture coords

g Box011
usemtl 01___Default
s 4
f 1/1/1 2/2/1 3/3/1 
f 3/3/1 4/4/1 1/1/1 
s off
f 5/5/2 6/6/2 1/6/2 
f 1/6/2 4/5/2 5/5/2 
f 6/7/3 7/8/3 2/2/3 
f 2/2/3 1/1/3 6/7/3 
f 7/9/4 8/10/4 3/10/4 
f 3/10/4 2/9/4 7/9/4 
f 8/10/5 5/5/5 4/5/5 
f 4/5/5 3/10/5 8/10/5 
# 10 faces

