# 3ds Max Wavefront OBJ Exporter v0.97b - (c)2007 guruware
# File Created: 04.11.2013 17:17:43

mtllib fstWallI.mtl

#
# object Box011
#

v  2210.5513 129.9213 -2613.1890
v  2198.7402 129.9213 -2613.1890
v  2210.5513 129.9213 -2358.1602
v  2198.7402 129.9213 -2436.0239
v  2198.7402 129.9213 -2425.7588
v  2198.7402 129.9213 -2358.1597
v  2198.7402 129.9213 -2625.0000
v  2210.5513 129.9213 -2625.0000
v  2210.5513 129.9213 -2928.1497
v  2210.5513 129.9213 -2939.9607
v  2210.5513 129.9213 -2959.6458
v  2198.7402 129.9213 -2959.6455
v  2198.7402 11.8110 -2425.7588
v  2198.7402 11.8110 -2358.1597
v  2210.5513 11.8110 -2358.1602
v  2210.5513 11.8110 -2613.1890
v  2210.5513 11.8110 -2625.0000
v  2210.5513 11.8110 -2928.1497
v  2210.5513 11.8110 -2939.9607
v  2210.5513 11.8110 -2959.6458
v  2198.7402 11.8110 -2959.6455
v  2198.7402 11.8110 -2625.0000
v  2198.7402 11.8110 -2613.1890
v  2198.7402 11.8110 -2436.0239
# 24 vertices

vn 0.0000 1.0000 -0.0000
vn 1.0000 0.0000 -0.0000
vn -1.0000 0.0000 0.0000
vn 0.0000 0.0000 1.0000
vn 1.0000 0.0000 0.0000
vn -0.0000 0.0000 -1.0000
vn -1.0000 0.0000 -0.0000
# 7 vertex normals

vt 0.5750 -0.0806 1.2500
vt 0.4250 -0.0806 1.2500
vt 0.5750 -3.3194 1.2500
vt 0.4250 -2.3306 1.2500
vt 0.4250 -2.4609 1.2500
vt 0.4250 -3.3194 1.2500
vt 0.4250 0.0694 1.2500
vt 0.5750 0.0694 1.2500
vt 0.5750 3.9194 1.2500
vt 0.5750 4.0694 1.2500
vt 0.5750 4.3194 1.2500
vt 0.4250 4.3194 1.2500
vt 3.4609 -0.2500 0.4250
vt 4.3194 -0.2500 0.4250
vt 4.3194 1.2500 0.4250
vt 3.4609 1.2500 0.4250
vt 0.4250 -0.2500 -3.3194
vt 0.5750 -0.2500 -3.3194
vt 0.5750 1.2500 -3.3194
vt 0.4250 1.2500 -3.3194
vt -3.3194 -0.2500 0.5750
vt -0.0806 -0.2500 0.5750
vt -0.0806 1.2500 0.5750
vt -3.3194 1.2500 0.5750
vt 0.5750 -0.2500 -0.0806
vt 0.5750 1.2500 -0.0806
vt 0.0694 -0.2500 0.5750
vt 0.0694 1.2500 0.5750
vt 0.5750 -0.2500 0.0694
vt 0.5750 1.2500 0.0694
vt 3.9194 -0.2500 0.5750
vt 3.9194 1.2500 0.5750
vt 4.0694 -0.2500 0.5750
vt 4.0694 1.2500 0.5750
vt 4.3194 -0.2500 0.5750
vt 4.3194 1.2500 0.5750
vt 0.4250 -0.2500 4.3194
vt 0.5750 -0.2500 4.3194
vt 0.5750 1.2500 4.3194
vt 0.4250 1.2500 4.3194
vt -3.3194 -0.2500 0.4250
vt 0.9306 -0.2500 0.4250
vt 0.9306 1.2500 0.4250
vt -3.3194 1.2500 0.4250
vt 1.0806 -0.2500 0.4250
vt 3.3306 -0.2500 0.4250
vt 3.3306 1.2500 0.4250
vt 1.0806 1.2500 0.4250
vt -3.0694 -0.2500 0.5750
vt -2.9194 -0.2500 0.5750
vt -2.9194 1.2500 0.5750
vt -3.0694 1.2500 0.5750
# 52 texture coords

g Box011
usemtl 01___Default
s 4
f 1/1/1 1/1/2 2/2/1 
f 3/3/1 1/1/1 2/2/1 
f 3/3/1 2/2/1 4/4/1 
f 3/3/1 4/4/1 5/5/1 
f 3/3/1 5/5/1 6/6/1 
f 7/7/1 8/8/1 9/9/1 
f 7/7/1 9/9/1 10/10/1 
f 7/7/1 10/10/1 11/11/1 
f 12/12/1 7/7/1 11/11/1 
s off
f 13/13/3 14/14/3 6/15/3 
f 6/15/3 5/16/3 13/13/3 
f 14/17/4 15/18/4 3/19/4 
f 3/19/4 6/20/4 14/17/4 
f 15/21/2 16/22/2 1/23/2 
f 1/23/2 3/24/2 15/21/2 
f 16/25/4 16/25/4 1/26/4 
f 1/26/4 1/26/4 16/25/4 
f 16/22/2 17/27/2 8/28/2 
f 8/28/2 1/23/2 16/22/2 
f 17/29/4 17/29/4 8/30/4 
f 8/30/4 8/30/4 17/29/4 
f 17/27/2 18/31/2 9/32/2 
f 9/32/2 8/28/2 17/27/2 
f 18/31/2 19/33/2 10/34/2 
f 10/34/2 9/32/2 18/31/2 
f 19/33/5 20/35/5 11/36/5 
f 11/36/5 10/34/5 19/33/5 
f 20/37/6 21/38/6 12/39/6 
f 12/39/6 11/40/6 20/37/6 
f 21/41/7 22/42/7 7/43/7 
f 7/43/7 12/44/7 21/41/7 
f 23/45/3 24/46/3 4/47/3 
f 4/47/3 2/48/3 23/45/3 
f 19/49/7 18/50/7 9/51/7 
f 9/51/7 10/52/7 19/49/7 
# 35 faces

