# 3ds Max Wavefront OBJ Exporter v0.97b - (c)2007 guruware
# File Created: 04.11.2013 17:23:15

mtllib fstWallS.mtl

#
# object Box011
#

v  2688.7795 129.9213 -3109.2520
v  2700.5908 129.9213 -3109.2520
v  2700.5906 129.9213 -3184.5735
v  2688.7795 129.9213 -3184.5735
v  2700.5908 11.8110 -3109.2520
v  2700.5906 11.8110 -3184.5735
v  2688.7795 11.8110 -3184.5735
v  2688.7795 11.8110 -3109.2520
# 8 vertices

vn 0.0000 1.0000 -0.0000
vn 1.0000 0.0000 -0.0000
vn -0.0000 0.0000 -1.0000
vn -1.0000 0.0000 0.0000
# 4 vertex normals

vt 0.4250 0.0217 1.2500
vt 0.5750 0.0217 1.2500
vt 0.5750 0.9783 1.2500
vt 0.4250 0.9783 1.2500
vt 0.0217 -0.2500 0.5750
vt 0.9783 -0.2500 0.5750
vt 0.9783 1.2500 0.5750
vt 0.0217 1.2500 0.5750
vt 0.4250 -0.2500 0.9783
vt 0.5750 -0.2500 0.9783
vt 0.5750 1.2500 0.9783
vt 0.4250 1.2500 0.9783
vt 0.0217 -0.2500 0.4250
vt 0.9783 -0.2500 0.4250
vt 0.9783 1.2500 0.4250
vt 0.0217 1.2500 0.4250
# 16 texture coords

g Box011
usemtl 01___Default
s 4
f 1/1/1 2/2/1 3/3/1 
f 3/3/1 4/4/1 1/1/1 
s off
f 5/5/2 6/6/2 3/7/2 
f 3/7/2 2/8/2 5/5/2 
f 6/9/3 7/10/3 4/11/3 
f 4/11/3 3/12/3 6/9/3 
f 7/13/4 8/14/4 1/15/4 
f 1/15/4 4/16/4 7/13/4 
# 8 faces

