# 3ds Max Wavefront OBJ Exporter v0.97b - (c)2007 guruware
# File Created: 04.11.2013 17:25:55

mtllib fstWallY.mtl

#
# object Box011
#

v  1529.4490 129.9213 -3669.6851
v  1529.4490 129.9213 -3581.6929
v  1541.2698 129.9213 -3581.6929
v  1541.2599 129.9213 -3581.6926
v  1541.2599 129.9213 -3597.4409
v  1541.2599 129.9213 -3669.6851
v  1541.2599 11.8110 -3597.4409
v  1541.2599 11.8110 -3581.6926
v  1541.2599 11.8110 -3669.6851
v  1529.4490 11.8110 -3669.6851
v  1529.4490 11.8110 -3581.6929
v  1541.2698 11.8110 -3581.6929
# 12 vertices

vn 0.0000 1.0000 -0.0000
vn 0.0000 -1.0000 -0.0000
vn -1.0000 0.0000 -0.0000
vn 1.0000 0.0000 -0.0000
vn 0.0000 0.0000 -1.0000
vn -0.0000 0.0000 1.0000
vn -0.0186 0.0000 -0.9998
# 7 vertex normals

vt 0.4249 1.0588 1.2500
vt 0.4249 -0.0587 1.2500
vt 0.5751 -0.0587 1.2500
vt 0.5749 -0.0588 1.2500
vt 0.5749 0.1413 1.2500
vt 0.5749 1.0588 1.2500
vt 0.8587 -0.2500 0.5749
vt 1.0588 -0.2500 0.5749
vt 1.0588 1.2500 0.5749
vt 0.8587 1.2500 0.5749
vt -0.0588 -0.2500 0.5749
vt 0.1413 -0.2500 0.5749
vt 0.1413 1.2500 0.5749
vt -0.0588 1.2500 0.5749
vt 0.4251 -0.2500 1.0588
vt 0.5751 -0.2500 1.0588
vt 0.5751 1.2500 1.0588
vt 0.4251 1.2500 1.0588
vt -0.0588 -0.2500 0.4249
vt 1.0587 -0.2500 0.4249
vt 1.0587 1.2500 0.4249
vt -0.0588 1.2500 0.4249
vt 0.4249 -0.2500 -0.0587
vt 0.5751 -0.2500 -0.0587
vt 0.5751 1.2500 -0.0587
vt 0.4249 1.2500 -0.0587
vt 0.4251 -0.2500 -0.0588
vt 0.4251 1.2500 -0.0588
# 28 texture coords

g Box011
usemtl 01___Default
s 4
f 1/1/1 2/2/1 3/3/2 
f 1/1/1 3/3/2 4/4/2 
f 1/1/1 4/4/2 5/5/1 
f 1/1/1 5/5/1 6/6/1 
s off
f 7/7/3 8/8/3 4/9/3 
f 4/9/3 5/10/3 7/7/3 
f 8/11/4 7/12/4 5/13/4 
f 5/13/4 4/14/4 8/11/4 
f 7/12/4 9/8/4 6/9/4 
f 6/9/4 5/13/4 7/12/4 
f 9/15/5 10/16/5 1/17/5 
f 1/17/5 6/18/5 9/15/5 
f 10/19/3 11/20/3 2/21/3 
f 2/21/3 1/22/3 10/19/3 
f 11/23/6 12/24/6 3/25/6 
f 3/25/6 2/26/6 11/23/6 
f 12/23/7 8/27/7 4/28/7 
f 4/28/7 3/26/7 12/23/7 
# 18 faces

