# 3ds Max Wavefront OBJ Exporter v0.97b - (c)2007 guruware
# File Created: 04.11.2013 17:25:06

mtllib fstWallW.mtl

#
# object Box011
#

v  1529.4490 129.9213 -3424.2124
v  1411.3386 129.9213 -3424.2124
v  1411.3386 129.9213 -3412.4016
v  1541.2795 129.9213 -3424.2124
v  1690.2429 129.9213 -3424.2124
v  1690.2429 129.9213 -3412.4016
v  1411.3386 11.8110 -3412.4016
v  1411.3386 11.8110 -3424.2124
v  1690.2429 11.8110 -3412.4016
v  1690.2429 11.8110 -3424.2124
v  1541.2795 11.8110 -3424.2124
v  1529.4490 11.8110 -3424.2124
# 12 vertices

vn 0.0000 1.0000 -0.0000
vn 1.0000 0.0000 -0.0000
vn -1.0000 0.0000 -0.0000
vn 0.0000 0.0000 1.0000
vn 1.0000 0.0000 0.0000
vn 0.0000 0.0000 -1.0000
# 6 vertex normals

vt 0.2290 0.5750 1.2500
vt -1.2710 0.5750 1.2500
vt -1.2710 0.4250 1.2500
vt 0.3792 0.5750 1.2500
vt 2.2710 0.5750 1.2500
vt 2.2710 0.4250 1.2500
vt 0.4250 -0.2500 -1.2710
vt 0.5750 -0.2500 -1.2710
vt 0.5750 1.2500 -1.2710
vt 0.4250 1.2500 -1.2710
vt -1.2710 -0.2500 0.4250
vt 2.2710 -0.2500 0.4250
vt 2.2710 1.2500 0.4250
vt -1.2710 1.2500 0.4250
vt 0.4250 -0.2500 2.2710
vt 0.5750 -0.2500 2.2710
vt 0.5750 1.2500 2.2710
vt 0.4250 1.2500 2.2710
vt -1.2710 -0.2500 0.5750
vt 0.6208 -0.2500 0.5750
vt 0.6208 1.2500 0.5750
vt -1.2710 1.2500 0.5750
vt 0.7710 -0.2500 0.5750
vt 0.7710 1.2500 0.5750
vt 2.2710 -0.2500 0.5750
vt 2.2710 1.2500 0.5750
# 26 texture coords

g Box011
usemtl 01___Default
s 4
f 1/1/1 2/2/1 3/3/1 
f 4/4/1 1/1/1 3/3/1 
f 5/5/1 4/4/1 3/3/1 
f 5/5/1 3/3/1 6/6/1 
s off
f 7/7/2 8/8/2 2/9/2 
f 2/9/2 3/10/2 7/7/2 
f 8/7/3 7/8/3 3/9/3 
f 3/9/3 2/10/3 8/7/3 
f 7/11/4 9/12/4 6/13/4 
f 6/13/4 3/14/4 7/11/4 
f 9/15/5 10/16/5 5/17/5 
f 5/17/5 6/18/5 9/15/5 
f 10/19/6 11/20/6 4/21/6 
f 4/21/6 5/22/6 10/19/6 
f 11/20/6 12/23/6 1/24/6 
f 1/24/6 4/21/6 11/20/6 
f 12/23/6 8/25/6 2/26/6 
f 2/26/6 1/24/6 12/23/6 
# 18 faces

