# 3ds Max Wavefront OBJ Exporter v0.97b - (c)2007 guruware
# File Created: 02.11.2013 17:35:05

mtllib LeftBalcony.mtl

#
# object Box011
#

v  1521.5742 141.7323 -3412.4014
v  1521.5742 129.9213 -3412.4014
v  1521.5754 129.9213 -3313.9766
v  1521.5754 141.7323 -3313.9766
v  2100.3127 141.7323 -3412.4014
v  2100.3127 129.9213 -3412.4014
v  2100.3137 129.9213 -3313.9763
v  2100.3137 141.7323 -3313.9763
# 8 vertices

vn -1.0000 0.0000 0.0000
vn 0.0000 0.0000 -1.0000
vn 0.0000 -1.0000 -0.0000
vn -0.0000 0.0000 1.0000
vn 0.0000 1.0000 -0.0000
# 5 vertex normals

vt 0.5938 0.5000 0.0000
vt 4.1750 -0.1250 0.5000
vt 4.1750 1.1250 0.5000
vt -3.1750 1.1250 0.5000
vt -3.1750 -0.1250 0.5000
# 5 texture coords

g Box011
usemtl 01___Default
s off
f 1/1/1 2/1/1 3/1/1 
f 3/1/1 4/1/1 1/1/1 
f 5/1/2 6/1/2 2/1/2 
f 2/1/2 1/1/2 5/1/2 
f 6/1/3 7/1/3 3/1/3 
f 3/1/3 2/1/3 6/1/3 
f 7/1/4 8/1/4 4/1/4 
f 4/1/4 3/1/4 7/1/4 
f 8/2/5 5/3/5 1/4/5 
f 1/4/5 4/5/5 8/2/5 
# 10 faces

