# 3ds Max Wavefront OBJ Exporter v0.97b - (c)2007 guruware
# File Created: 03.11.2013 14:46:44

mtllib Obstacle_020.mtl

#
# object Box016
#

#
# object Box120
#

v  2463.7537 10.0573 -2481.7393
v  2490.3738 10.0573 -2488.8721
v  2497.5066 10.0573 -2462.2520
v  2470.8865 10.0573 -2455.1191
v  2475.0413 51.5534 -2475.2224
v  2477.4033 51.5534 -2466.4067
v  2486.2190 51.5534 -2468.7688
v  2483.8569 51.5534 -2477.5845
v  2470.8865 47.4589 -2455.1191
v  2463.7537 47.4589 -2481.7393
v  2497.5066 47.4589 -2462.2520
v  2490.3738 47.4589 -2488.8721
v  2466.1646 49.4274 -2480.3472
v  2472.2786 49.4274 -2457.5300
v  2495.0957 49.4274 -2463.6440
v  2488.9817 49.4274 -2486.4612
v  2477.4033 49.4274 -2466.4067
v  2475.0413 49.4274 -2475.2224
v  2486.2190 49.4274 -2468.7688
v  2483.8569 49.4274 -2477.5845
# 20 vertices

vn 0.0000 -1.0000 -0.0000
vn 0.0000 1.0000 -0.0000
vn -0.9659 0.0000 0.2588
vn 0.2588 0.0000 0.9659
vn 0.9659 0.0000 -0.2588
vn -0.2588 0.0000 -0.9659
vn -0.6830 0.7071 0.1830
vn 0.1830 0.7071 0.6830
vn 0.6830 0.7071 -0.1830
vn -0.1830 0.7071 -0.6830
# 10 vertex normals

vt 1.0000 0.0000 0.0000
vt 1.0000 1.0000 0.0000
vt 0.0000 1.0000 0.0000
vt 0.0000 0.0000 0.0000
vt 0.0714 0.0714 0.0000
vt 0.9286 0.0714 0.0000
vt 0.9286 0.9286 0.0000
vt 0.0714 0.9286 0.0000
vt 1.0000 0.9500 0.0000
vt 0.0000 0.9500 0.0000
vt 0.0714 1.0600 0.0000
vt 0.9286 1.0600 0.0000
# 12 texture coords

g Box120
usemtl Material__1
s 2
f 1/1/1 2/2/1 3/3/1 
f 3/3/1 4/4/1 1/1/1 
s 4
f 5/5/2 6/6/2 7/7/2 
f 7/7/2 8/8/2 5/5/2 
s 8
f 1/4/3 4/1/3 9/9/3 
f 9/9/3 10/10/3 1/4/3 
s 16
f 4/4/4 3/1/4 11/9/4 
f 11/9/4 9/10/4 4/4/4 
s 32
f 3/4/5 2/1/5 12/9/5 
f 12/9/5 11/10/5 3/4/5 
s 64
f 2/4/6 1/1/6 10/9/6 
f 10/9/6 12/10/6 2/4/6 
s off
f 13/11/7 10/10/7 9/9/7 
f 9/9/7 14/12/7 13/11/7 
f 14/11/8 9/10/8 11/9/8 
f 11/9/8 15/12/8 14/11/8 
f 15/11/9 11/10/9 12/9/9 
f 12/9/9 16/12/9 15/11/9 
f 16/11/10 12/10/10 10/9/10 
f 10/9/10 13/12/10 16/11/10 
f 13/11/2 14/12/2 17/6/2 
f 17/6/2 18/5/2 13/11/2 
f 14/11/2 15/12/2 19/7/2 
f 19/7/2 17/6/2 14/11/2 
f 15/11/2 16/12/2 20/8/2 
f 20/8/2 19/7/2 15/11/2 
f 16/11/2 13/12/2 18/5/2 
f 18/5/2 20/8/2 16/11/2 
f 18/5/3 17/6/3 6/6/3 
f 6/6/3 5/5/3 18/5/3 
f 17/6/4 19/7/4 7/7/4 
f 7/7/4 6/6/4 17/6/4 
f 19/7/5 20/8/5 8/8/5 
f 8/8/5 7/7/5 19/7/5 
f 20/8/6 18/5/6 5/5/6 
f 5/5/6 8/8/6 20/8/6 
# 36 faces

#
# object Box016
#

#
# object Box022
#

