# 3ds Max Wavefront OBJ Exporter v0.97b - (c)2007 guruware
# File Created: 03.11.2013 15:01:37

mtllib Obstacle_040.mtl

#
# object Box016
#

#
# object Box111
#

v  2775.8901 9.9774 -3861.2656
v  2774.3821 9.9774 -3860.0002
v  2773.1167 9.9774 -3861.5083
v  2774.6248 9.9774 -3862.7737
v  2775.8901 49.3475 -3861.2656
v  2774.6248 49.3475 -3862.7737
v  2773.1167 49.3475 -3861.5083
v  2774.3821 49.3475 -3860.0002
v  2794.3184 9.9774 -3839.3035
v  2792.8105 9.9774 -3838.0383
v  2791.5452 9.9774 -3839.5461
v  2793.0530 9.9774 -3840.8115
v  2794.3184 49.3475 -3839.3035
v  2793.0530 49.3475 -3840.8115
v  2791.5452 49.3475 -3839.5461
v  2792.8105 49.3475 -3838.0383
v  2801.6802 48.2749 -3838.4646
v  2711.2024 48.2749 -3762.5449
v  2685.8958 48.2749 -3792.7041
v  2776.3735 48.2749 -3868.6240
v  2801.6802 50.2434 -3838.4646
v  2776.3735 50.2434 -3868.6240
v  2685.8958 50.2434 -3792.7041
v  2711.2024 50.2434 -3762.5449
v  2712.4534 9.9774 -3770.6106
v  2710.9456 9.9774 -3769.3455
v  2709.6802 9.9774 -3770.8533
v  2711.1880 9.9774 -3772.1187
v  2712.4534 49.3475 -3770.6106
v  2711.1880 49.3475 -3772.1187
v  2709.6802 49.3475 -3770.8533
v  2710.9456 49.3475 -3769.3455
v  2694.0251 9.9774 -3792.5728
v  2692.5171 9.9774 -3791.3074
v  2691.2517 9.9774 -3792.8154
v  2692.7598 9.9774 -3794.0808
v  2694.0251 49.3475 -3792.5728
v  2692.7598 49.3475 -3794.0808
v  2691.2517 49.3475 -3792.8154
v  2692.5171 49.3475 -3791.3074
# 40 vertices

vn 0.0000 -1.0000 -0.0000
vn 0.0000 1.0000 -0.0000
vn 0.7660 0.0000 -0.6428
vn -0.6428 0.0000 -0.7660
vn -0.7660 0.0000 0.6428
vn 0.6428 0.0000 0.7660
# 6 vertex normals

vt 1.0000 0.0000 0.0000
vt 1.0000 1.0000 0.0000
vt 0.0000 1.0000 0.0000
vt 0.0000 0.0000 0.0000
# 4 texture coords

g Box111
usemtl 03___Default
s 2
f 1/1/1 2/2/1 3/3/1 
f 3/3/1 4/4/1 1/1/1 
s 4
f 5/4/2 6/1/2 7/2/2 
f 7/2/2 8/3/2 5/4/2 
s 8
f 1/4/3 4/1/3 6/2/3 
f 6/2/3 5/3/3 1/4/3 
s 16
f 4/4/4 3/1/4 7/2/4 
f 7/2/4 6/3/4 4/4/4 
s 32
f 3/4/5 2/1/5 8/2/5 
f 8/2/5 7/3/5 3/4/5 
s 64
f 2/4/6 1/1/6 5/2/6 
f 5/2/6 8/3/6 2/4/6 
s 2
f 9/1/1 10/2/1 11/3/1 
f 11/3/1 12/4/1 9/1/1 
s 4
f 13/4/2 14/1/2 15/2/2 
f 15/2/2 16/3/2 13/4/2 
s 8
f 9/4/3 12/1/3 14/2/3 
f 14/2/3 13/3/3 9/4/3 
s 16
f 12/4/4 11/1/4 15/2/4 
f 15/2/4 14/3/4 12/4/4 
s 32
f 11/4/5 10/1/5 16/2/5 
f 16/2/5 15/3/5 11/4/5 
s 64
f 10/4/6 9/1/6 13/2/6 
f 13/2/6 16/3/6 10/4/6 
s 2
f 17/1/1 18/2/1 19/3/1 
f 19/3/1 20/4/1 17/1/1 
s 4
f 21/4/2 22/1/2 23/2/2 
f 23/2/2 24/3/2 21/4/2 
s 8
f 17/4/3 20/1/3 22/2/3 
f 22/2/3 21/3/3 17/4/3 
s 16
f 20/4/4 19/1/4 23/2/4 
f 23/2/4 22/3/4 20/4/4 
s 32
f 19/4/5 18/1/5 24/2/5 
f 24/2/5 23/3/5 19/4/5 
s 64
f 18/4/6 17/1/6 21/2/6 
f 21/2/6 24/3/6 18/4/6 
s 2
f 25/1/1 26/2/1 27/3/1 
f 27/3/1 28/4/1 25/1/1 
s 4
f 29/4/2 30/1/2 31/2/2 
f 31/2/2 32/3/2 29/4/2 
s 8
f 25/4/3 28/1/3 30/2/3 
f 30/2/3 29/3/3 25/4/3 
s 16
f 28/4/4 27/1/4 31/2/4 
f 31/2/4 30/3/4 28/4/4 
s 32
f 27/4/5 26/1/5 32/2/5 
f 32/2/5 31/3/5 27/4/5 
s 64
f 26/4/6 25/1/6 29/2/6 
f 29/2/6 32/3/6 26/4/6 
s 2
f 33/1/1 34/2/1 35/3/1 
f 35/3/1 36/4/1 33/1/1 
s 4
f 37/4/2 38/1/2 39/2/2 
f 39/2/2 40/3/2 37/4/2 
s 8
f 33/4/3 36/1/3 38/2/3 
f 38/2/3 37/3/3 33/4/3 
s 16
f 36/4/4 35/1/4 39/2/4 
f 39/2/4 38/3/4 36/4/4 
s 32
f 35/4/5 34/1/5 40/2/5 
f 40/2/5 39/3/5 35/4/5 
s 64
f 34/4/6 33/1/6 37/2/6 
f 37/2/6 40/3/6 34/4/6 
# 60 faces

#
# object Box016
#

#
# object Box022
#

