# 3ds Max Wavefront OBJ Exporter v0.97b - (c)2007 guruware
# File Created: 03.11.2013 14:15:43

mtllib Obstacle_006.mtl

#
# object Box016
#

#
# object Box125
#

v  1586.5146 9.9413 -2262.7803
v  1610.3816 9.9413 -2249.0007
v  1596.6021 9.9413 -2225.1338
v  1572.7351 9.9413 -2238.9133
v  1587.2352 49.3114 -2260.0913
v  1575.4242 49.3114 -2239.6338
v  1595.8815 49.3114 -2227.8228
v  1607.6925 49.3114 -2248.2803
v  1534.0924 9.9413 -2293.0461
v  1520.3130 9.9413 -2269.1794
v  1520.3130 47.3429 -2269.1794
v  1534.0924 47.3429 -2293.0461
v  1596.6021 47.3429 -2225.1338
v  1572.7351 47.3429 -2238.9133
v  1610.3816 47.3429 -2249.0007
v  1586.5146 47.3429 -2262.7803
v  1534.8130 49.3114 -2290.3572
v  1523.0020 49.3114 -2269.8999
# 18 vertices

vn 0.0000 -1.0000 -0.0000
vn 0.0000 1.0000 -0.0000
vn -0.8660 0.0000 -0.5000
vn -0.5000 0.0000 0.8660
vn 0.8660 0.0000 0.5000
vn 0.5000 0.0000 -0.8660
vn -0.6124 0.7071 -0.3536
vn -0.3536 0.7071 0.6124
vn 0.6124 0.7071 0.3536
vn 0.3536 0.7071 -0.6124
# 10 vertex normals

vt 1.0000 0.0000 0.0000
vt 1.0000 1.0000 0.0000
vt 0.0000 1.0000 0.0000
vt 0.0000 0.0000 0.0000
vt 0.0714 0.0714 0.0000
vt 0.9286 0.0714 0.0000
vt 0.9286 0.9286 0.0000
vt 0.0714 0.9286 0.0000
vt 1.0000 0.9500 0.0000
vt 0.0000 0.9500 0.0000
vt 0.0714 1.0600 0.0000
vt 0.9286 1.0600 0.0000
# 12 texture coords

g Box125
usemtl Material__2
s 2
f 1/1/1 2/2/1 3/3/1 
f 3/3/1 4/4/1 1/1/1 
s 4
f 5/5/2 6/6/2 7/7/2 
f 7/7/2 8/8/2 5/5/2 
s 8
f 9/4/3 10/1/3 11/9/3 
f 11/9/3 12/10/3 9/4/3 
s 16
f 4/4/4 3/1/4 13/9/4 
f 13/9/4 14/10/4 4/4/4 
s 32
f 3/4/5 2/1/5 15/9/5 
f 15/9/5 13/10/5 3/4/5 
s 64
f 2/4/6 1/1/6 16/9/6 
f 16/9/6 15/10/6 2/4/6 
s off
f 17/11/7 12/10/7 11/9/7 
f 11/9/7 18/12/7 17/11/7 
f 6/11/8 14/10/8 13/9/8 
f 13/9/8 7/12/8 6/11/8 
f 7/11/9 13/10/9 15/9/9 
f 15/9/9 8/12/9 7/11/9 
f 8/11/10 15/10/10 16/9/10 
f 16/9/10 5/12/10 8/11/10 
f 1/1/1 4/4/1 10/1/1 
f 10/1/1 9/4/1 1/1/1 
f 4/4/4 14/10/4 11/9/4 
f 11/9/4 10/1/4 4/4/4 
f 14/10/8 6/11/8 18/12/8 
f 18/12/8 11/9/8 14/10/8 
f 6/6/2 5/5/2 17/11/2 
f 17/11/2 18/12/2 6/6/2 
f 5/12/10 16/9/10 12/10/10 
f 12/10/10 17/11/10 5/12/10 
f 16/9/6 1/1/6 9/4/6 
f 9/4/6 12/10/6 16/9/6 
# 32 faces

#
# object Box016
#

#
# object Box022
#

