# 3ds Max Wavefront OBJ Exporter v0.97b - (c)2007 guruware
# File Created: 03.11.2013 15:00:38

mtllib Obstacle_038.mtl

#
# object Box016
#

#
# object Box022
#

v  2360.9543 9.9774 -4008.4194
v  2359.6890 9.9774 -4009.9275
v  2361.1970 9.9774 -4011.1929
v  2362.4624 9.9774 -4009.6848
v  2360.9543 49.3475 -4008.4194
v  2362.4624 49.3475 -4009.6848
v  2361.1970 49.3475 -4011.1929
v  2359.6890 49.3475 -4009.9275
v  2338.9922 9.9774 -3989.9912
v  2337.7271 9.9774 -3991.4990
v  2339.2349 9.9774 -3992.7644
v  2340.5002 9.9774 -3991.2566
v  2338.9922 49.3475 -3989.9912
v  2340.5002 49.3475 -3991.2566
v  2339.2349 49.3475 -3992.7644
v  2337.7271 49.3475 -3991.4990
v  2338.1533 48.2749 -3982.6294
v  2262.2336 48.2749 -4073.1072
v  2292.3928 48.2749 -4098.4136
v  2368.3127 48.2749 -4007.9360
v  2338.1533 50.2434 -3982.6294
v  2368.3127 50.2434 -4007.9360
v  2292.3928 50.2434 -4098.4136
v  2262.2336 50.2434 -4073.1072
v  2270.2993 9.9774 -4071.8562
v  2269.0342 9.9774 -4073.3640
v  2270.5420 9.9774 -4074.6294
v  2271.8074 9.9774 -4073.1216
v  2270.2993 49.3475 -4071.8562
v  2271.8074 49.3475 -4073.1216
v  2270.5420 49.3475 -4074.6294
v  2269.0342 49.3475 -4073.3640
v  2292.2615 9.9774 -4090.2844
v  2290.9961 9.9774 -4091.7925
v  2292.5042 9.9774 -4093.0579
v  2293.7695 9.9774 -4091.5498
v  2292.2615 49.3475 -4090.2844
v  2293.7695 49.3475 -4091.5498
v  2292.5042 49.3475 -4093.0579
v  2290.9961 49.3475 -4091.7925
# 40 vertices

vn 0.0000 -1.0000 -0.0000
vn 0.0000 1.0000 -0.0000
vn 0.6428 0.0000 0.7660
vn 0.7660 0.0000 -0.6428
vn -0.6428 0.0000 -0.7660
vn -0.7660 0.0000 0.6428
# 6 vertex normals

vt 1.0000 0.0000 0.0000
vt 1.0000 1.0000 0.0000
vt 0.0000 1.0000 0.0000
vt 0.0000 0.0000 0.0000
# 4 texture coords

g Box022
usemtl 03___Default
s 2
f 1/1/1 2/2/1 3/3/1 
f 3/3/1 4/4/1 1/1/1 
s 4
f 5/4/2 6/1/2 7/2/2 
f 7/2/2 8/3/2 5/4/2 
s 8
f 1/4/3 4/1/3 6/2/3 
f 6/2/3 5/3/3 1/4/3 
s 16
f 4/4/4 3/1/4 7/2/4 
f 7/2/4 6/3/4 4/4/4 
s 32
f 3/4/5 2/1/5 8/2/5 
f 8/2/5 7/3/5 3/4/5 
s 64
f 2/4/6 1/1/6 5/2/6 
f 5/2/6 8/3/6 2/4/6 
s 2
f 9/1/1 10/2/1 11/3/1 
f 11/3/1 12/4/1 9/1/1 
s 4
f 13/4/2 14/1/2 15/2/2 
f 15/2/2 16/3/2 13/4/2 
s 8
f 9/4/3 12/1/3 14/2/3 
f 14/2/3 13/3/3 9/4/3 
s 16
f 12/4/4 11/1/4 15/2/4 
f 15/2/4 14/3/4 12/4/4 
s 32
f 11/4/5 10/1/5 16/2/5 
f 16/2/5 15/3/5 11/4/5 
s 64
f 10/4/6 9/1/6 13/2/6 
f 13/2/6 16/3/6 10/4/6 
s 2
f 17/1/1 18/2/1 19/3/1 
f 19/3/1 20/4/1 17/1/1 
s 4
f 21/4/2 22/1/2 23/2/2 
f 23/2/2 24/3/2 21/4/2 
s 8
f 17/4/3 20/1/3 22/2/3 
f 22/2/3 21/3/3 17/4/3 
s 16
f 20/4/4 19/1/4 23/2/4 
f 23/2/4 22/3/4 20/4/4 
s 32
f 19/4/5 18/1/5 24/2/5 
f 24/2/5 23/3/5 19/4/5 
s 64
f 18/4/6 17/1/6 21/2/6 
f 21/2/6 24/3/6 18/4/6 
s 2
f 25/1/1 26/2/1 27/3/1 
f 27/3/1 28/4/1 25/1/1 
s 4
f 29/4/2 30/1/2 31/2/2 
f 31/2/2 32/3/2 29/4/2 
s 8
f 25/4/3 28/1/3 30/2/3 
f 30/2/3 29/3/3 25/4/3 
s 16
f 28/4/4 27/1/4 31/2/4 
f 31/2/4 30/3/4 28/4/4 
s 32
f 27/4/5 26/1/5 32/2/5 
f 32/2/5 31/3/5 27/4/5 
s 64
f 26/4/6 25/1/6 29/2/6 
f 29/2/6 32/3/6 26/4/6 
s 2
f 33/1/1 34/2/1 35/3/1 
f 35/3/1 36/4/1 33/1/1 
s 4
f 37/4/2 38/1/2 39/2/2 
f 39/2/2 40/3/2 37/4/2 
s 8
f 33/4/3 36/1/3 38/2/3 
f 38/2/3 37/3/3 33/4/3 
s 16
f 36/4/4 35/1/4 39/2/4 
f 39/2/4 38/3/4 36/4/4 
s 32
f 35/4/5 34/1/5 40/2/5 
f 40/2/5 39/3/5 35/4/5 
s 64
f 34/4/6 33/1/6 37/2/6 
f 37/2/6 40/3/6 34/4/6 
# 60 faces

#
# object Box016
#

#
# object Box022
#

