# 3ds Max Wavefront OBJ Exporter v0.97b - (c)2007 guruware
# File Created: 03.11.2013 15:01:03

mtllib Obstacle_039.mtl

#
# object Box016
#

#
# object Box112
#

v  2782.8374 9.9774 -4045.5637
v  2783.3469 9.9774 -4047.4653
v  2785.2485 9.9774 -4046.9558
v  2784.7390 9.9774 -4045.0542
v  2782.8374 49.3475 -4045.5637
v  2784.7390 49.3475 -4045.0542
v  2785.2485 49.3475 -4046.9558
v  2783.3469 49.3475 -4047.4653
v  2755.1450 9.9774 -4052.9839
v  2755.6545 9.9774 -4054.8855
v  2757.5559 9.9774 -4054.3760
v  2757.0464 9.9774 -4052.4746
v  2755.1450 49.3475 -4052.9839
v  2757.0464 49.3475 -4052.4746
v  2757.5559 49.3475 -4054.3760
v  2755.6545 49.3475 -4054.8855
v  2748.6335 48.2749 -4049.4487
v  2779.2026 48.2749 -4163.5342
v  2817.2312 48.2749 -4153.3447
v  2786.6621 48.2749 -4039.2590
v  2748.6335 50.2434 -4049.4487
v  2786.6621 50.2434 -4039.2590
v  2817.2312 50.2434 -4153.3447
v  2779.2026 50.2434 -4163.5342
v  2782.8042 9.9774 -4156.2100
v  2783.3137 9.9774 -4158.1113
v  2785.2151 9.9774 -4157.6016
v  2784.7056 9.9774 -4155.7002
v  2782.8042 49.3475 -4156.2100
v  2784.7056 49.3475 -4155.7002
v  2785.2151 49.3475 -4157.6016
v  2783.3137 49.3475 -4158.1113
v  2810.4968 9.9774 -4148.7896
v  2811.0063 9.9774 -4150.6909
v  2812.9077 9.9774 -4150.1816
v  2812.3982 9.9774 -4148.2803
v  2810.4968 49.3475 -4148.7896
v  2812.3982 49.3475 -4148.2803
v  2812.9077 49.3475 -4150.1816
v  2811.0063 49.3475 -4150.6909
# 40 vertices

vn 0.0000 -1.0000 -0.0000
vn 0.0000 1.0000 -0.0000
vn -0.2588 0.0000 0.9659
vn 0.9659 0.0000 0.2588
vn 0.2588 0.0000 -0.9659
vn -0.9659 0.0000 -0.2588
# 6 vertex normals

vt 1.0000 0.0000 0.0000
vt 1.0000 1.0000 0.0000
vt 0.0000 1.0000 0.0000
vt 0.0000 0.0000 0.0000
# 4 texture coords

g Box112
usemtl 03___Default
s 2
f 1/1/1 2/2/1 3/3/1 
f 3/3/1 4/4/1 1/1/1 
s 4
f 5/4/2 6/1/2 7/2/2 
f 7/2/2 8/3/2 5/4/2 
s 8
f 1/4/3 4/1/3 6/2/3 
f 6/2/3 5/3/3 1/4/3 
s 16
f 4/4/4 3/1/4 7/2/4 
f 7/2/4 6/3/4 4/4/4 
s 32
f 3/4/5 2/1/5 8/2/5 
f 8/2/5 7/3/5 3/4/5 
s 64
f 2/4/6 1/1/6 5/2/6 
f 5/2/6 8/3/6 2/4/6 
s 2
f 9/1/1 10/2/1 11/3/1 
f 11/3/1 12/4/1 9/1/1 
s 4
f 13/4/2 14/1/2 15/2/2 
f 15/2/2 16/3/2 13/4/2 
s 8
f 9/4/3 12/1/3 14/2/3 
f 14/2/3 13/3/3 9/4/3 
s 16
f 12/4/4 11/1/4 15/2/4 
f 15/2/4 14/3/4 12/4/4 
s 32
f 11/4/5 10/1/5 16/2/5 
f 16/2/5 15/3/5 11/4/5 
s 64
f 10/4/6 9/1/6 13/2/6 
f 13/2/6 16/3/6 10/4/6 
s 2
f 17/1/1 18/2/1 19/3/1 
f 19/3/1 20/4/1 17/1/1 
s 4
f 21/4/2 22/1/2 23/2/2 
f 23/2/2 24/3/2 21/4/2 
s 8
f 17/4/3 20/1/3 22/2/3 
f 22/2/3 21/3/3 17/4/3 
s 16
f 20/4/4 19/1/4 23/2/4 
f 23/2/4 22/3/4 20/4/4 
s 32
f 19/4/5 18/1/5 24/2/5 
f 24/2/5 23/3/5 19/4/5 
s 64
f 18/4/6 17/1/6 21/2/6 
f 21/2/6 24/3/6 18/4/6 
s 2
f 25/1/1 26/2/1 27/3/1 
f 27/3/1 28/4/1 25/1/1 
s 4
f 29/4/2 30/1/2 31/2/2 
f 31/2/2 32/3/2 29/4/2 
s 8
f 25/4/3 28/1/3 30/2/3 
f 30/2/3 29/3/3 25/4/3 
s 16
f 28/4/4 27/1/4 31/2/4 
f 31/2/4 30/3/4 28/4/4 
s 32
f 27/4/5 26/1/5 32/2/5 
f 32/2/5 31/3/5 27/4/5 
s 64
f 26/4/6 25/1/6 29/2/6 
f 29/2/6 32/3/6 26/4/6 
s 2
f 33/1/1 34/2/1 35/3/1 
f 35/3/1 36/4/1 33/1/1 
s 4
f 37/4/2 38/1/2 39/2/2 
f 39/2/2 40/3/2 37/4/2 
s 8
f 33/4/3 36/1/3 38/2/3 
f 38/2/3 37/3/3 33/4/3 
s 16
f 36/4/4 35/1/4 39/2/4 
f 39/2/4 38/3/4 36/4/4 
s 32
f 35/4/5 34/1/5 40/2/5 
f 40/2/5 39/3/5 35/4/5 
s 64
f 34/4/6 33/1/6 37/2/6 
f 37/2/6 40/3/6 34/4/6 
# 60 faces

#
# object Box016
#

#
# object Box022
#

