# 3ds Max Wavefront OBJ Exporter v0.97b - (c)2007 guruware
# File Created: 02.11.2013 16:14:16

mtllib Railing2.mtl

#
# object Box044
#

v  2103.0869 140.3252 -3317.1013
v  2103.0869 140.3252 -3319.8572
v  2105.8428 140.3252 -3319.8572
v  2105.8428 140.3252 -3317.1013
v  2103.0708 169.8528 -3317.1013
v  2105.8428 169.8528 -3317.1013
v  2105.8428 169.8528 -3319.8572
v  2103.0708 169.8528 -3319.8572
v  2105.8428 167.8842 -3317.1013
v  2103.0869 167.8842 -3317.1013
v  2105.8428 167.8842 -3319.8572
v  2103.0869 167.8842 -3319.8572
v  1512.5356 167.8842 -3319.8572
v  1512.5356 167.8842 -3317.1013
v  1512.5198 169.8528 -3317.1013
v  1512.5198 169.8528 -3319.8572
v  2063.7085 167.8842 -3317.1013
v  2063.7085 167.8842 -3319.8572
v  2063.7007 169.8528 -3317.1013
v  2063.7007 169.8528 -3319.8572
v  1512.5356 140.3252 -3317.1013
v  1512.5356 140.3252 -3319.8572
v  1515.2756 140.3252 -3319.8572
v  1515.2756 140.3252 -3317.1013
v  1515.2756 169.8528 -3317.1013
v  1515.2756 169.8528 -3319.8572
v  1515.2756 167.8842 -3319.8572
v  1515.2756 167.8842 -3317.1013
v  2060.9526 140.3252 -3317.1013
v  2060.9526 140.3252 -3319.8572
v  2063.7085 140.3252 -3319.8572
v  2063.7085 140.3252 -3317.1013
v  2060.9448 169.8528 -3317.1013
v  2060.9526 167.8842 -3317.1013
v  2060.9448 169.8528 -3319.8572
v  2060.9526 167.8842 -3319.8572
v  2024.3344 167.8842 -3317.1013
v  2024.3344 167.8842 -3319.8572
v  2024.3270 169.8528 -3317.1013
v  2024.3270 169.8528 -3319.8572
v  2021.5820 140.3252 -3317.1013
v  2021.5820 140.3252 -3319.8572
v  2024.3344 140.3252 -3319.8572
v  2024.3344 140.3252 -3317.1013
v  2021.5748 169.8528 -3317.1013
v  2021.5820 167.8842 -3317.1013
v  2021.5748 169.8528 -3319.8572
v  2021.5820 167.8842 -3319.8572
v  1984.9675 167.8842 -3317.1013
v  1984.9675 167.8842 -3319.8572
v  1984.9607 169.8528 -3317.1013
v  1984.9607 169.8528 -3319.8572
v  1982.2084 140.3252 -3317.1013
v  1982.2084 140.3252 -3319.8572
v  1984.9675 140.3252 -3319.8572
v  1984.9675 140.3252 -3317.1013
v  1982.2012 169.8528 -3317.1013
v  1982.2084 167.8842 -3317.1013
v  1982.2012 169.8528 -3319.8572
v  1982.2084 167.8842 -3319.8572
v  1942.8411 140.3252 -3317.1013
v  1942.8411 140.3252 -3319.8572
v  1945.5969 140.3252 -3319.8572
v  1945.5969 140.3252 -3317.1013
v  1945.5842 169.8528 -3317.1013
v  1942.8284 169.8528 -3317.1013
v  1942.8411 167.8842 -3317.1013
v  1945.5969 167.8842 -3317.1013
v  1942.8284 169.8528 -3319.8572
v  1945.5842 169.8528 -3319.8572
v  1942.8411 167.8842 -3319.8572
v  1945.5969 167.8842 -3319.8572
v  1903.4705 140.3252 -3317.1013
v  1903.4705 140.3252 -3319.8572
v  1906.2264 140.3252 -3319.8572
v  1906.2264 140.3252 -3317.1013
v  1903.4587 169.8528 -3317.1013
v  1903.4705 167.8842 -3317.1013
v  1906.2264 167.8842 -3317.1013
v  1906.2146 169.8528 -3317.1013
v  1903.4587 169.8528 -3319.8572
v  1906.2146 169.8528 -3319.8572
v  1903.4705 167.8842 -3319.8572
v  1906.2264 167.8842 -3319.8572
v  1864.0974 140.3252 -3317.1013
v  1864.0974 140.3252 -3319.8572
v  1866.8560 140.3252 -3319.8572
v  1866.8560 140.3252 -3317.1013
v  1864.0916 169.8528 -3317.1013
v  1864.0974 167.8842 -3317.1013
v  1866.8560 167.8842 -3317.1013
v  1866.8505 169.8528 -3317.1013
v  1864.0916 169.8528 -3319.8572
v  1866.8505 169.8528 -3319.8572
v  1864.0974 167.8842 -3319.8572
v  1866.8560 167.8842 -3319.8572
v  1824.7292 140.3252 -3317.1013
v  1824.7292 140.3252 -3319.8572
v  1827.4854 140.3252 -3319.8572
v  1827.4854 140.3252 -3317.1013
v  1824.7194 169.8528 -3317.1013
v  1824.7292 167.8842 -3317.1013
v  1827.4854 167.8842 -3317.1013
v  1827.4753 169.8528 -3317.1013
v  1824.7194 169.8528 -3319.8572
v  1827.4753 169.8528 -3319.8572
v  1824.7292 167.8842 -3319.8572
v  1827.4854 167.8842 -3319.8572
v  1785.3588 140.3252 -3317.1013
v  1785.3588 140.3252 -3319.8572
v  1788.1147 140.3252 -3319.8572
v  1788.1147 140.3252 -3317.1013
v  1785.3501 169.8528 -3317.1013
v  1785.3588 167.8842 -3317.1013
v  1788.1147 167.8842 -3317.1013
v  1788.1060 169.8528 -3317.1013
v  1785.3501 169.8528 -3319.8572
v  1788.1060 169.8528 -3319.8572
v  1785.3588 167.8842 -3319.8572
v  1788.1147 167.8842 -3319.8572
v  1745.9760 140.3252 -3317.1013
v  1745.9760 140.3252 -3319.8572
v  1748.7439 140.3252 -3319.8572
v  1748.7439 140.3252 -3317.1013
v  1745.9685 169.8528 -3317.1013
v  1745.9760 167.8842 -3317.1013
v  1748.7439 167.8842 -3317.1013
v  1748.7363 169.8528 -3317.1013
v  1745.9685 169.8528 -3319.8572
v  1748.7363 169.8528 -3319.8572
v  1745.9760 167.8842 -3319.8572
v  1748.7439 167.8842 -3319.8572
v  1706.5941 140.3252 -3317.1013
v  1706.5941 140.3252 -3319.8572
v  1709.3733 140.3252 -3319.8572
v  1709.3733 140.3252 -3317.1013
v  1706.5880 169.8528 -3317.1013
v  1706.5941 167.8842 -3317.1013
v  1709.3733 167.8842 -3317.1013
v  1709.3671 169.8528 -3317.1013
v  1706.5880 169.8528 -3319.8572
v  1709.3671 169.8528 -3319.8572
v  1706.5941 167.8842 -3319.8572
v  1709.3733 167.8842 -3319.8572
v  1667.2126 140.3252 -3317.1013
v  1667.2126 140.3252 -3319.8572
v  1670.0026 140.3252 -3319.8572
v  1670.0026 140.3252 -3317.1013
v  1667.2075 169.8528 -3317.1013
v  1667.2126 167.8842 -3317.1013
v  1670.0026 167.8842 -3317.1013
v  1669.9974 169.8528 -3317.1013
v  1667.2075 169.8528 -3319.8572
v  1669.9974 169.8528 -3319.8572
v  1667.2126 167.8842 -3319.8572
v  1670.0026 167.8842 -3319.8572
v  1627.8752 140.3252 -3317.1013
v  1627.8752 140.3252 -3319.8572
v  1630.6320 140.3252 -3319.8572
v  1630.6320 140.3252 -3317.1013
v  1627.8712 169.8528 -3317.1013
v  1627.8752 167.8842 -3317.1013
v  1630.6320 167.8842 -3317.1013
v  1630.6278 169.8528 -3317.1013
v  1627.8712 169.8528 -3319.8572
v  1630.6278 169.8528 -3319.8572
v  1627.8752 167.8842 -3319.8572
v  1630.6320 167.8842 -3319.8572
v  1588.4934 140.3252 -3317.1013
v  1588.4934 140.3252 -3319.8572
v  1591.2614 140.3252 -3319.8572
v  1591.2614 140.3252 -3317.1013
v  1588.4906 169.8528 -3317.1013
v  1588.4934 167.8842 -3317.1013
v  1591.2614 167.8842 -3317.1013
v  1591.2583 169.8528 -3317.1013
v  1588.4906 169.8528 -3319.8572
v  1591.2583 169.8528 -3319.8572
v  1588.4934 167.8842 -3319.8572
v  1591.2614 167.8842 -3319.8572
v  1549.1115 140.3252 -3317.1013
v  1549.1115 140.3252 -3319.8572
v  1551.8905 140.3252 -3319.8572
v  1551.8905 140.3252 -3317.1013
v  1549.1100 169.8528 -3317.1013
v  1549.1115 167.8842 -3317.1013
v  1551.8905 167.8842 -3317.1013
v  1551.8889 169.8528 -3317.1013
v  1549.1100 169.8528 -3319.8572
v  1551.8889 169.8528 -3319.8572
v  1549.1115 167.8842 -3319.8572
v  1551.8905 167.8842 -3319.8572
# 192 vertices

vn 0.0000 -1.0000 -0.0000
vn 0.0000 1.0000 -0.0000
vn 0.0000 0.0000 1.0000
vn 1.0000 0.0000 -0.0000
vn 0.0000 0.0000 -1.0000
vn -1.0000 0.0000 -0.0000
vn -1.0000 -0.0081 -0.0000
vn -0.0000 1.0000 -0.0000
vn -0.0000 -0.0000 1.0000
vn -0.0000 -0.0000 -1.0000
vn -0.0000 -1.0000 -0.0000
vn -1.0000 -0.0000 -0.0000
vn -0.0000 0.0000 1.0000
vn -0.0000 0.0000 -1.0000
vn 1.0000 -0.0000 -0.0000
# 15 vertex normals

vt 1.0000 0.0000 0.0000
vt 1.0000 1.0000 0.0000
vt 0.0000 1.0000 0.0000
vt 0.0000 0.0000 0.0000
vt 0.9614 1.0000 0.0000
vt 0.0036 1.0000 0.0000
vt 0.9546 1.0000 0.0000
vt 0.9009 1.0000 0.0000
vt 0.8960 1.0000 0.0000
vt 0.8455 1.0000 0.0000
vt 0.8417 1.0000 0.0000
vt 0.7865 1.0000 0.0000
vt 0.7911 1.0000 0.0000
vt 0.7296 1.0000 0.0000
vt 0.7343 1.0000 0.0000
vt 0.6802 1.0000 0.0000
vt 0.6849 1.0000 0.0000
vt 0.6135 1.0000 0.0000
vt 0.6184 1.0000 0.0000
vt 0.5386 1.0000 0.0000
vt 0.5442 1.0000 0.0000
vt 0.4659 1.0000 0.0000
vt 0.4720 1.0000 0.0000
vt 0.3807 1.0000 0.0000
vt 0.3850 1.0000 0.0000
vt 0.3198 1.0000 0.0000
vt 0.3243 1.0000 0.0000
vt 0.2553 1.0000 0.0000
vt 0.2605 1.0000 0.0000
vt 0.1804 1.0000 0.0000
vt 0.1862 1.0000 0.0000
vt 0.0953 1.0000 0.0000
vt 0.1028 1.0000 0.0000
# 33 texture coords

g Box044
usemtl 02___Default
s 2
f 1/1/1 2/2/1 3/3/1 
f 3/3/1 4/4/1 1/1/1 
s 4
f 5/4/2 6/1/2 7/2/2 
f 7/2/2 8/3/2 5/4/2 
s 8
f 1/4/3 4/1/3 9/2/3 
f 9/2/3 10/3/3 1/4/3 
s 16
f 4/4/4 3/1/4 11/2/4 
f 11/2/4 9/3/4 4/4/4 
s 32
f 3/4/5 2/1/5 12/2/5 
f 12/2/5 11/3/5 3/4/5 
s 64
f 2/4/6 1/1/6 10/2/6 
f 10/2/6 12/3/6 2/4/6 
s off
f 9/3/4 11/2/4 7/2/4 
f 7/2/4 6/1/4 9/3/4 
f 11/3/5 12/2/5 8/3/5 
f 8/3/5 7/2/5 11/3/5 
f 13/3/7 14/2/7 15/4/7 
f 15/4/7 16/3/7 13/3/7 
f 10/2/1 17/2/1 18/3/1 
f 18/3/1 12/3/1 10/2/1 
f 5/4/3 19/4/3 17/2/3 
f 17/2/3 10/2/3 5/4/3 
f 8/3/2 20/3/2 19/4/2 
f 19/4/2 5/4/2 8/3/2 
f 12/2/5 18/5/5 20/3/5 
f 20/3/5 8/3/5 12/2/5 
f 21/2/1 22/3/1 23/3/1 
f 23/3/1 24/2/1 21/2/1 
f 16/3/2 15/4/2 25/4/2 
f 25/4/2 26/3/2 16/3/2 
f 13/3/5 16/3/5 26/3/5 
f 26/3/5 27/6/5 13/3/5 
f 14/2/6 13/3/6 22/3/6 
f 22/3/6 21/2/6 14/2/6 
f 13/3/5 27/6/5 23/3/5 
f 23/3/5 22/3/5 13/3/5 
f 27/3/4 28/2/4 24/2/4 
f 24/2/4 23/3/4 27/3/4 
f 28/2/3 14/2/3 21/2/3 
f 21/2/3 24/2/3 28/2/3 
f 29/2/1 30/3/1 31/3/1 
f 31/3/1 32/2/1 29/2/1 
f 19/4/3 33/4/3 34/2/3 
f 34/2/3 17/2/3 19/4/3 
f 35/3/2 33/4/2 19/4/2 
f 19/4/2 20/3/2 35/3/2 
f 36/7/5 35/3/5 20/3/5 
f 20/3/5 18/5/5 36/7/5 
f 37/2/1 38/3/1 36/3/1 
f 36/3/1 34/2/1 37/2/1 
f 39/4/3 37/2/3 34/2/3 
f 34/2/3 33/4/3 39/4/3 
f 40/3/8 39/4/8 33/4/8 
f 33/4/8 35/3/8 40/3/8 
f 38/8/5 40/3/5 35/3/5 
f 35/3/5 36/7/5 38/8/5 
f 41/2/1 42/3/1 43/3/1 
f 43/3/1 44/2/1 41/2/1 
f 39/4/9 45/4/9 46/2/9 
f 46/2/9 37/2/9 39/4/9 
f 47/3/8 45/4/8 39/4/8 
f 39/4/8 40/3/8 47/3/8 
f 48/9/10 47/3/10 40/3/10 
f 40/3/10 38/8/10 48/9/10 
f 49/2/11 50/3/11 48/3/11 
f 48/3/11 46/2/11 49/2/11 
f 51/4/3 49/2/3 46/2/3 
f 46/2/3 45/4/3 51/4/3 
f 52/3/2 51/4/2 45/4/2 
f 45/4/2 47/3/2 52/3/2 
f 50/10/5 52/3/5 47/3/5 
f 47/3/5 48/9/5 50/10/5 
f 53/2/1 54/3/1 55/3/1 
f 55/3/1 56/2/1 53/2/1 
f 57/4/3 58/2/3 49/2/3 
f 49/2/3 51/4/3 57/4/3 
f 59/3/2 57/4/2 51/4/2 
f 51/4/2 52/3/2 59/3/2 
f 60/11/5 59/3/5 52/3/5 
f 52/3/5 50/10/5 60/11/5 
f 61/2/1 62/3/1 63/3/1 
f 63/3/1 64/2/1 61/2/1 
f 65/4/3 66/4/3 67/2/3 
f 67/2/3 68/2/3 65/4/3 
f 69/3/2 66/4/2 65/4/2 
f 65/4/2 70/3/2 69/3/2 
f 71/12/5 69/3/5 70/3/5 
f 70/3/5 72/13/5 71/12/5 
f 73/2/1 74/3/1 75/3/1 
f 75/3/1 76/2/1 73/2/1 
f 77/4/3 78/2/3 79/2/3 
f 79/2/3 80/4/3 77/4/3 
f 81/3/2 77/4/2 80/4/2 
f 80/4/2 82/3/2 81/3/2 
f 83/14/5 81/3/5 82/3/5 
f 82/3/5 84/15/5 83/14/5 
f 85/2/1 86/3/1 87/3/1 
f 87/3/1 88/2/1 85/2/1 
f 89/4/3 90/2/3 91/2/3 
f 91/2/3 92/4/3 89/4/3 
f 93/3/8 89/4/8 92/4/8 
f 92/4/8 94/3/8 93/3/8 
f 95/16/5 93/3/5 94/3/5 
f 94/3/5 96/17/5 95/16/5 
f 97/2/1 98/3/1 99/3/1 
f 99/3/1 100/2/1 97/2/1 
f 101/4/3 102/2/3 103/2/3 
f 103/2/3 104/4/3 101/4/3 
f 105/3/8 101/4/8 104/4/8 
f 104/4/8 106/3/8 105/3/8 
f 107/18/5 105/3/5 106/3/5 
f 106/3/5 108/19/5 107/18/5 
f 109/2/1 110/3/1 111/3/1 
f 111/3/1 112/2/1 109/2/1 
f 113/4/3 114/2/3 115/2/3 
f 115/2/3 116/4/3 113/4/3 
f 117/3/2 113/4/2 116/4/2 
f 116/4/2 118/3/2 117/3/2 
f 119/20/5 117/3/5 118/3/5 
f 118/3/5 120/21/5 119/20/5 
f 121/2/1 122/3/1 123/3/1 
f 123/3/1 124/2/1 121/2/1 
f 125/4/9 126/2/9 127/2/9 
f 127/2/9 128/4/9 125/4/9 
f 129/3/2 125/4/2 128/4/2 
f 128/4/2 130/3/2 129/3/2 
f 131/22/10 129/3/10 130/3/10 
f 130/3/10 132/23/10 131/22/10 
f 133/2/1 134/3/1 135/3/1 
f 135/3/1 136/2/1 133/2/1 
f 137/4/3 138/2/3 139/2/3 
f 139/2/3 140/4/3 137/4/3 
f 141/3/2 137/4/2 140/4/2 
f 140/4/2 142/3/2 141/3/2 
f 143/24/5 141/3/5 142/3/5 
f 142/3/5 144/25/5 143/24/5 
f 145/2/1 146/3/1 147/3/1 
f 147/3/1 148/2/1 145/2/1 
f 149/4/3 150/2/3 151/2/3 
f 151/2/3 152/4/3 149/4/3 
f 153/3/2 149/4/2 152/4/2 
f 152/4/2 154/3/2 153/3/2 
f 155/26/5 153/3/5 154/3/5 
f 154/3/5 156/27/5 155/26/5 
f 157/2/11 158/3/11 159/3/11 
f 159/3/11 160/2/11 157/2/11 
f 161/4/3 162/2/3 163/2/3 
f 163/2/3 164/4/3 161/4/3 
f 165/3/2 161/4/2 164/4/2 
f 164/4/2 166/3/2 165/3/2 
f 167/28/5 165/3/5 166/3/5 
f 166/3/5 168/29/5 167/28/5 
f 169/2/1 170/3/1 171/3/1 
f 171/3/1 172/2/1 169/2/1 
f 173/4/3 174/2/3 175/2/3 
f 175/2/3 176/4/3 173/4/3 
f 177/3/2 173/4/2 176/4/2 
f 176/4/2 178/3/2 177/3/2 
f 179/30/5 177/3/5 178/3/5 
f 178/3/5 180/31/5 179/30/5 
f 181/2/1 182/3/1 183/3/1 
f 183/3/1 184/2/1 181/2/1 
f 185/4/3 186/2/3 187/2/3 
f 187/2/3 188/4/3 185/4/3 
f 189/3/8 185/4/8 188/4/8 
f 188/4/8 190/3/8 189/3/8 
f 191/32/5 189/3/5 190/3/5 
f 190/3/5 192/33/5 191/32/5 
f 68/2/1 72/3/1 60/3/1 
f 60/3/1 58/2/1 68/2/1 
f 65/4/3 68/2/3 58/2/3 
f 58/2/3 57/4/3 65/4/3 
f 70/3/2 65/4/2 57/4/2 
f 57/4/2 59/3/2 70/3/2 
f 72/13/5 70/3/5 59/3/5 
f 59/3/5 60/11/5 72/13/5 
f 79/2/1 84/3/1 71/3/1 
f 71/3/1 67/2/1 79/2/1 
f 80/4/3 79/2/3 67/2/3 
f 67/2/3 66/4/3 80/4/3 
f 82/3/2 80/4/2 66/4/2 
f 66/4/2 69/3/2 82/3/2 
f 84/15/5 82/3/5 69/3/5 
f 69/3/5 71/12/5 84/15/5 
f 91/2/1 96/3/1 83/3/1 
f 83/3/1 78/2/1 91/2/1 
f 92/4/3 91/2/3 78/2/3 
f 78/2/3 77/4/3 92/4/3 
f 94/3/2 92/4/2 77/4/2 
f 77/4/2 81/3/2 94/3/2 
f 96/17/5 94/3/5 81/3/5 
f 81/3/5 83/14/5 96/17/5 
f 103/2/1 108/3/1 95/3/1 
f 95/3/1 90/2/1 103/2/1 
f 104/4/3 103/2/3 90/2/3 
f 90/2/3 89/4/3 104/4/3 
f 106/3/2 104/4/2 89/4/2 
f 89/4/2 93/3/2 106/3/2 
f 108/19/5 106/3/5 93/3/5 
f 93/3/5 95/16/5 108/19/5 
f 115/2/1 120/3/1 107/3/1 
f 107/3/1 102/2/1 115/2/1 
f 116/4/3 115/2/3 102/2/3 
f 102/2/3 101/4/3 116/4/3 
f 118/3/2 116/4/2 101/4/2 
f 101/4/2 105/3/2 118/3/2 
f 120/21/5 118/3/5 105/3/5 
f 105/3/5 107/18/5 120/21/5 
f 127/2/1 132/3/1 119/3/1 
f 119/3/1 114/2/1 127/2/1 
f 128/4/3 127/2/3 114/2/3 
f 114/2/3 113/4/3 128/4/3 
f 130/3/8 128/4/8 113/4/8 
f 113/4/8 117/3/8 130/3/8 
f 132/23/5 130/3/5 117/3/5 
f 117/3/5 119/20/5 132/23/5 
f 139/2/1 144/3/1 131/3/1 
f 131/3/1 126/2/1 139/2/1 
f 140/4/3 139/2/3 126/2/3 
f 126/2/3 125/4/3 140/4/3 
f 142/3/2 140/4/2 125/4/2 
f 125/4/2 129/3/2 142/3/2 
f 144/25/5 142/3/5 129/3/5 
f 129/3/5 131/22/5 144/25/5 
f 151/2/1 156/3/1 143/3/1 
f 143/3/1 138/2/1 151/2/1 
f 152/4/3 151/2/3 138/2/3 
f 138/2/3 137/4/3 152/4/3 
f 154/3/2 152/4/2 137/4/2 
f 137/4/2 141/3/2 154/3/2 
f 156/27/5 154/3/5 141/3/5 
f 141/3/5 143/24/5 156/27/5 
f 163/2/1 168/3/1 155/3/1 
f 155/3/1 150/2/1 163/2/1 
f 164/4/3 163/2/3 150/2/3 
f 150/2/3 149/4/3 164/4/3 
f 166/3/2 164/4/2 149/4/2 
f 149/4/2 153/3/2 166/3/2 
f 168/29/5 166/3/5 153/3/5 
f 153/3/5 155/26/5 168/29/5 
f 175/2/1 180/3/1 167/3/1 
f 167/3/1 162/2/1 175/2/1 
f 176/4/3 175/2/3 162/2/3 
f 162/2/3 161/4/3 176/4/3 
f 178/3/2 176/4/2 161/4/2 
f 161/4/2 165/3/2 178/3/2 
f 180/31/5 178/3/5 165/3/5 
f 165/3/5 167/28/5 180/31/5 
f 187/2/1 192/3/1 179/3/1 
f 179/3/1 174/2/1 187/2/1 
f 188/4/9 187/2/9 174/2/9 
f 174/2/9 173/4/9 188/4/9 
f 190/3/8 188/4/8 173/4/8 
f 173/4/8 177/3/8 190/3/8 
f 192/33/10 190/3/10 177/3/10 
f 177/3/10 179/30/10 192/33/10 
f 28/2/11 27/3/11 191/3/11 
f 191/3/11 186/2/11 28/2/11 
f 25/4/3 28/2/3 186/2/3 
f 186/2/3 185/4/3 25/4/3 
f 26/3/2 25/4/2 185/4/2 
f 185/4/2 189/3/2 26/3/2 
f 27/6/5 26/3/5 189/3/5 
f 189/3/5 191/32/5 27/6/5 
f 17/2/3 34/2/3 29/2/3 
f 29/2/3 32/2/3 17/2/3 
f 34/2/6 36/3/6 30/3/6 
f 30/3/6 29/2/6 34/2/6 
f 36/7/5 18/5/5 31/3/5 
f 31/3/5 30/3/5 36/7/5 
f 18/3/4 17/2/4 32/2/4 
f 32/2/4 31/3/4 18/3/4 
f 37/2/9 46/2/9 41/2/9 
f 41/2/9 44/2/9 37/2/9 
f 46/2/12 48/3/12 42/3/12 
f 42/3/12 41/2/12 46/2/12 
f 48/9/10 38/8/10 43/3/10 
f 43/3/10 42/3/10 48/9/10 
f 38/3/4 37/2/4 44/2/4 
f 44/2/4 43/3/4 38/3/4 
f 49/2/3 58/2/3 53/2/3 
f 53/2/3 56/2/3 49/2/3 
f 58/2/6 60/3/6 54/3/6 
f 54/3/6 53/2/6 58/2/6 
f 60/11/5 50/10/5 55/3/5 
f 55/3/5 54/3/5 60/11/5 
f 50/3/4 49/2/4 56/2/4 
f 56/2/4 55/3/4 50/3/4 
f 68/2/3 67/2/3 61/2/3 
f 61/2/3 64/2/3 68/2/3 
f 67/2/6 71/3/6 62/3/6 
f 62/3/6 61/2/6 67/2/6 
f 71/12/5 72/13/5 63/3/5 
f 63/3/5 62/3/5 71/12/5 
f 72/3/4 68/2/4 64/2/4 
f 64/2/4 63/3/4 72/3/4 
f 79/2/3 78/2/3 73/2/3 
f 73/2/3 76/2/3 79/2/3 
f 78/2/6 83/3/6 74/3/6 
f 74/3/6 73/2/6 78/2/6 
f 83/14/5 84/15/5 75/3/5 
f 75/3/5 74/3/5 83/14/5 
f 84/3/4 79/2/4 76/2/4 
f 76/2/4 75/3/4 84/3/4 
f 91/2/3 90/2/3 85/2/3 
f 85/2/3 88/2/3 91/2/3 
f 90/2/6 95/3/6 86/3/6 
f 86/3/6 85/2/6 90/2/6 
f 95/16/5 96/17/5 87/3/5 
f 87/3/5 86/3/5 95/16/5 
f 96/3/4 91/2/4 88/2/4 
f 88/2/4 87/3/4 96/3/4 
f 103/2/3 102/2/3 97/2/3 
f 97/2/3 100/2/3 103/2/3 
f 102/2/6 107/3/6 98/3/6 
f 98/3/6 97/2/6 102/2/6 
f 107/18/5 108/19/5 99/3/5 
f 99/3/5 98/3/5 107/18/5 
f 108/3/4 103/2/4 100/2/4 
f 100/2/4 99/3/4 108/3/4 
f 115/2/3 114/2/3 109/2/3 
f 109/2/3 112/2/3 115/2/3 
f 114/2/6 119/3/6 110/3/6 
f 110/3/6 109/2/6 114/2/6 
f 119/20/5 120/21/5 111/3/5 
f 111/3/5 110/3/5 119/20/5 
f 120/3/4 115/2/4 112/2/4 
f 112/2/4 111/3/4 120/3/4 
f 127/2/13 126/2/13 121/2/13 
f 121/2/13 124/2/13 127/2/13 
f 126/2/6 131/3/6 122/3/6 
f 122/3/6 121/2/6 126/2/6 
f 131/22/14 132/23/14 123/3/14 
f 123/3/14 122/3/14 131/22/14 
f 132/3/4 127/2/4 124/2/4 
f 124/2/4 123/3/4 132/3/4 
f 139/2/3 138/2/3 133/2/3 
f 133/2/3 136/2/3 139/2/3 
f 138/2/6 143/3/6 134/3/6 
f 134/3/6 133/2/6 138/2/6 
f 143/24/5 144/25/5 135/3/5 
f 135/3/5 134/3/5 143/24/5 
f 144/3/4 139/2/4 136/2/4 
f 136/2/4 135/3/4 144/3/4 
f 151/2/3 150/2/3 145/2/3 
f 145/2/3 148/2/3 151/2/3 
f 150/2/6 155/3/6 146/3/6 
f 146/3/6 145/2/6 150/2/6 
f 155/26/5 156/27/5 147/3/5 
f 147/3/5 146/3/5 155/26/5 
f 156/3/4 151/2/4 148/2/4 
f 148/2/4 147/3/4 156/3/4 
f 163/2/3 162/2/3 157/2/3 
f 157/2/3 160/2/3 163/2/3 
f 162/2/6 167/3/6 158/3/6 
f 158/3/6 157/2/6 162/2/6 
f 167/28/5 168/29/5 159/3/5 
f 159/3/5 158/3/5 167/28/5 
f 168/3/15 163/2/15 160/2/15 
f 160/2/15 159/3/15 168/3/15 
f 175/2/3 174/2/3 169/2/3 
f 169/2/3 172/2/3 175/2/3 
f 174/2/6 179/3/6 170/3/6 
f 170/3/6 169/2/6 174/2/6 
f 179/30/5 180/31/5 171/3/5 
f 171/3/5 170/3/5 179/30/5 
f 180/3/4 175/2/4 172/2/4 
f 172/2/4 171/3/4 180/3/4 
f 187/2/3 186/2/3 181/2/3 
f 181/2/3 184/2/3 187/2/3 
f 186/2/6 191/3/6 182/3/6 
f 182/3/6 181/2/6 186/2/6 
f 191/32/5 192/33/5 183/3/5 
f 183/3/5 182/3/5 191/32/5 
f 192/3/4 187/2/4 184/2/4 
f 184/2/4 183/3/4 192/3/4 
# 376 faces

