# 3ds Max Wavefront OBJ Exporter v0.97b - (c)2007 guruware
# File Created: 03.11.2013 15:56:30

mtllib Railing8.mtl

#
# object Box048
#

v  1813.3064 140.3252 -1962.4680
v  1813.3064 140.3252 -1965.2239
v  1816.0623 140.3252 -1965.2239
v  1816.0623 140.3252 -1962.4680
v  1813.2903 169.8528 -1962.4680
v  1816.0623 169.8528 -1962.4680
v  1816.0623 169.8528 -1965.2239
v  1813.2903 169.8528 -1965.2239
v  1816.0623 167.8842 -1962.4680
v  1813.3064 167.8842 -1962.4680
v  1816.0623 167.8842 -1965.2239
v  1813.3064 167.8842 -1965.2239
v  1816.0623 167.8842 -1914.8154
v  1813.3064 167.8842 -1914.8154
v  1816.0623 169.8528 -1914.8154
v  1813.3064 169.8528 -1914.8154
v  1816.0623 167.8842 -1796.7053
v  1813.3064 167.8842 -1796.7053
v  1813.3064 167.8842 -1833.3196
v  1816.0623 167.8842 -1833.3196
v  1816.0623 169.8528 -1796.7053
v  1816.0623 169.8528 -1833.3196
v  1813.3064 169.8528 -1796.7053
v  1813.3064 169.8528 -1833.3196
v  1816.0623 167.8842 -1836.0754
v  1813.3064 167.8842 -1836.0754
v  1813.3064 167.8842 -1872.6895
v  1816.0623 167.8842 -1872.6895
v  1816.0623 169.8528 -1836.0754
v  1816.0623 169.8528 -1872.6895
v  1813.3064 169.8528 -1836.0754
v  1813.3064 169.8528 -1872.6895
v  1816.0623 167.8842 -1875.4456
v  1813.3064 167.8842 -1875.4456
v  1813.3064 167.8842 -1912.0596
v  1816.0623 167.8842 -1912.0596
v  1816.0623 169.8528 -1875.4456
v  1816.0623 169.8528 -1912.0596
v  1813.3064 169.8528 -1875.4456
v  1813.3064 169.8528 -1912.0596
v  1816.0623 140.3252 -1833.3196
v  1813.3064 140.3252 -1833.3196
v  1813.3064 140.3252 -1836.0754
v  1816.0623 140.3252 -1836.0754
v  1816.0623 140.3252 -1872.6895
v  1813.3064 140.3252 -1872.6895
v  1813.3064 140.3252 -1875.4456
v  1816.0623 140.3252 -1875.4456
v  1816.0623 140.3252 -1912.0596
v  1813.3064 140.3252 -1912.0596
v  1813.3064 140.3252 -1914.8154
v  1816.0623 140.3252 -1914.8154
# 52 vertices

vn 0.0000 -1.0000 -0.0000
vn 0.0000 1.0000 -0.0000
vn 0.0000 0.0000 1.0000
vn 1.0000 0.0000 -0.0000
vn 0.0000 0.0000 -1.0000
vn -1.0000 0.0000 -0.0000
vn -1.0000 -0.0082 0.0003
# 7 vertex normals

vt 1.0000 0.0000 0.0000
vt 1.0000 1.0000 0.0000
vt 0.0000 1.0000 0.0000
vt 0.0000 0.0000 0.0000
vt 0.1802 1.0000 0.0000
vt 0.8198 1.0000 0.0000
vt 0.6826 1.0000 0.0000
vt 0.5187 1.0000 0.0000
vt 0.3174 1.0000 0.0000
vt 0.4813 1.0000 0.0000
vt 0.5043 1.0000 0.0000
vt 0.3628 1.0000 0.0000
vt 0.4957 1.0000 0.0000
vt 0.6372 1.0000 0.0000
vt 0.3484 1.0000 0.0000
vt 0.1944 1.0000 0.0000
vt 0.6516 1.0000 0.0000
vt 0.8056 1.0000 0.0000
# 18 texture coords

g Box048
usemtl 02___Default
s 2
f 1/1/1 2/2/1 3/3/1 
f 3/3/1 4/4/1 1/1/1 
s 4
f 5/4/2 6/1/2 7/2/2 
f 7/2/2 8/3/2 5/4/2 
s 8
f 1/4/3 4/1/3 9/2/3 
f 9/2/3 10/3/3 1/4/3 
s 16
f 4/4/4 3/1/4 11/2/4 
f 11/2/4 9/3/4 4/4/4 
s 32
f 3/4/5 2/1/5 12/2/5 
f 12/2/5 11/3/5 3/4/5 
s 64
f 2/4/6 1/1/6 10/2/6 
f 10/2/6 12/3/6 2/4/6 
s off
f 9/3/4 11/2/4 7/2/4 
f 7/2/4 6/1/4 9/3/4 
f 11/3/5 12/2/5 8/3/5 
f 8/3/5 7/2/5 11/3/5 
f 9/2/1 13/2/1 14/3/1 
f 14/3/1 10/3/1 9/2/1 
f 6/1/4 15/1/4 13/5/4 
f 13/5/4 9/3/4 6/1/4 
f 5/4/2 16/4/2 15/1/2 
f 15/1/2 6/1/2 5/4/2 
f 10/2/6 14/6/6 16/4/6 
f 16/4/7 5/4/7 10/2/7 
f 17/2/1 18/3/1 19/3/1 
f 19/3/1 20/2/1 17/2/1 
f 21/1/4 17/7/4 20/8/4 
f 20/8/4 22/1/4 21/1/4 
f 23/4/2 21/1/2 22/1/2 
f 22/1/2 24/4/2 23/4/2 
f 18/9/6 23/4/6 24/4/6 
f 24/4/6 19/10/6 18/9/6 
f 25/2/1 26/3/1 27/3/1 
f 27/3/1 28/2/1 25/2/1 
f 29/1/4 25/11/4 28/12/4 
f 28/12/4 30/1/4 29/1/4 
f 31/4/2 29/1/2 30/1/2 
f 30/1/2 32/4/2 31/4/2 
f 26/13/6 31/4/6 32/4/6 
f 32/4/6 27/14/6 26/13/6 
f 33/2/1 34/3/1 35/3/1 
f 35/3/1 36/2/1 33/2/1 
f 37/1/4 33/15/4 36/16/4 
f 36/16/4 38/1/4 37/1/4 
f 39/4/2 37/1/2 38/1/2 
f 38/1/2 40/4/2 39/4/2 
f 34/17/6 39/4/6 40/4/6 
f 40/4/6 35/18/6 34/17/6 
f 41/2/1 42/3/1 43/3/1 
f 43/3/1 44/2/1 41/2/1 
f 22/1/4 20/8/4 25/11/4 
f 25/11/4 29/1/4 22/1/4 
f 24/4/2 22/1/2 29/1/2 
f 29/1/2 31/4/2 24/4/2 
f 19/10/6 24/4/6 31/4/6 
f 31/4/6 26/13/6 19/10/6 
f 45/2/1 46/3/1 47/3/1 
f 47/3/1 48/2/1 45/2/1 
f 30/1/4 28/12/4 33/15/4 
f 33/15/4 37/1/4 30/1/4 
f 32/4/2 30/1/2 37/1/2 
f 37/1/2 39/4/2 32/4/2 
f 27/14/6 32/4/6 39/4/6 
f 39/4/6 34/17/6 27/14/6 
f 49/2/1 50/3/1 51/3/1 
f 51/3/1 52/2/1 49/2/1 
f 38/1/4 36/16/4 13/5/4 
f 13/5/4 15/1/4 38/1/4 
f 40/4/2 38/1/2 15/1/2 
f 15/1/2 16/4/2 40/4/2 
f 35/18/6 40/4/6 16/4/6 
f 16/4/6 14/6/6 35/18/6 
f 20/2/3 19/3/3 42/3/3 
f 42/3/3 41/2/3 20/2/3 
f 19/10/6 26/13/6 43/3/6 
f 43/3/6 42/3/6 19/10/6 
f 26/3/5 25/2/5 44/2/5 
f 44/2/5 43/3/5 26/3/5 
f 25/11/4 20/8/4 41/2/4 
f 41/2/4 44/2/4 25/11/4 
f 28/2/3 27/3/3 46/3/3 
f 46/3/3 45/2/3 28/2/3 
f 27/14/6 34/17/6 47/3/6 
f 47/3/6 46/3/6 27/14/6 
f 34/3/5 33/2/5 48/2/5 
f 48/2/5 47/3/5 34/3/5 
f 33/15/4 28/12/4 45/2/4 
f 45/2/4 48/2/4 33/15/4 
f 36/2/3 35/3/3 50/3/3 
f 50/3/3 49/2/3 36/2/3 
f 35/18/6 14/6/6 51/3/6 
f 51/3/6 50/3/6 35/18/6 
f 14/3/5 13/2/5 52/2/5 
f 52/2/5 51/3/5 14/3/5 
f 13/5/4 36/16/4 49/2/4 
f 49/2/4 52/2/4 13/5/4 
# 96 faces

