# 3ds Max Wavefront OBJ Exporter v0.97b - (c)2007 guruware
# File Created: 03.11.2013 15:49:09

mtllib SilverKey.mtl

#
# object Box047
#

v  1399.7749 11.7105 -1815.9031
v  1399.7749 13.3794 -1815.9031
v  1399.7749 13.3794 -1814.2244
v  1399.7749 11.7105 -1814.2244
v  1398.7910 13.3794 -1814.2244
v  1398.7910 13.3794 -1815.9031
v  1398.7910 11.7105 -1815.9031
v  1398.7910 11.7105 -1814.2244
v  1399.7749 13.3794 -1812.2559
v  1398.7910 13.3794 -1812.2559
v  1398.7910 11.7105 -1812.2559
v  1399.7749 11.7105 -1812.2559
v  1399.7749 25.9414 -1814.2244
v  1399.7749 25.9414 -1815.9031
v  1398.7910 25.9414 -1815.9031
v  1398.7910 25.9414 -1814.2244
v  1399.7749 17.7625 -1815.9031
v  1398.7910 17.7625 -1815.9031
v  1399.7749 15.7446 -1815.9031
v  1399.7749 15.7446 -1814.2244
v  1398.7910 15.7446 -1814.2244
v  1398.7910 15.7446 -1815.9031
v  1399.7749 17.7625 -1814.2244
v  1398.7910 17.7625 -1814.2244
v  1399.7749 17.7625 -1812.2559
v  1398.7910 17.7625 -1812.2559
v  1398.7910 15.7446 -1812.2559
v  1399.7749 15.7446 -1812.2559
v  1400.1888 24.6761 -1819.0906
v  1400.1888 25.6303 -1819.2006
v  1400.1888 26.5846 -1819.0906
v  1400.1888 21.5760 -1815.9904
v  1400.1888 21.8895 -1816.8667
v  1400.1888 22.3814 -1817.6399
v  1400.1888 21.4659 -1815.0361
v  1400.1888 21.5760 -1814.0819
v  1400.1888 21.8895 -1813.2056
v  1400.1888 22.3814 -1812.4324
v  1400.1888 23.0265 -1811.7872
v  1400.1888 23.7998 -1811.2953
v  1400.1888 24.6761 -1810.9817
v  1400.1888 25.6303 -1810.8717
v  1400.1888 26.5846 -1810.9817
v  1400.1888 27.4609 -1811.2953
v  1400.1888 28.2341 -1811.7872
v  1400.1888 28.8793 -1812.4324
v  1400.1888 29.3712 -1813.2056
v  1400.1888 29.6847 -1814.0819
v  1400.1888 29.7948 -1815.0361
v  1400.1888 29.6847 -1815.9904
v  1400.1888 29.3712 -1816.8667
v  1400.1888 28.8793 -1817.6399
v  1400.1888 23.0265 -1818.2850
v  1400.1888 28.2341 -1818.2850
v  1400.1888 23.7998 -1818.7770
v  1400.1888 27.4609 -1818.7770
v  1398.5508 24.6761 -1819.0906
v  1398.5508 25.6303 -1819.2006
v  1398.5508 26.5846 -1819.0906
v  1398.5508 27.4609 -1818.7770
v  1398.5508 28.2341 -1818.2850
v  1398.5508 28.8793 -1817.6399
v  1398.5508 29.3712 -1816.8667
v  1398.5508 29.6847 -1815.9904
v  1398.5508 29.7948 -1815.0361
v  1398.5508 29.6847 -1814.0819
v  1398.5508 29.3712 -1813.2056
v  1398.5508 28.8793 -1812.4324
v  1398.5508 28.2341 -1811.7872
v  1398.5508 27.4609 -1811.2953
v  1398.5508 26.5846 -1810.9817
v  1398.5508 25.6303 -1810.8717
v  1398.5508 24.6761 -1810.9817
v  1398.5508 23.7998 -1811.2953
v  1398.5508 23.0265 -1811.7872
v  1398.5508 22.3814 -1812.4324
v  1398.5508 21.8895 -1813.2056
v  1398.5508 21.5760 -1814.0819
v  1398.5508 21.4659 -1815.0361
v  1398.5508 21.5760 -1815.9904
v  1398.5508 21.8895 -1816.8667
v  1398.5508 22.3814 -1817.6399
v  1398.5508 23.0265 -1818.2850
v  1398.5508 23.7998 -1818.7770
# 84 vertices

vn 1.0000 0.0000 -0.0000
vn -1.0000 -0.0000 -0.0000
vn 0.0000 0.0000 1.0000
vn -0.0000 1.0000 -0.0000
vn 0.0000 0.0000 -1.0000
vn 0.0000 -1.0000 -0.0000
vn 1.0000 -0.0000 0.0000
vn 1.0000 -0.0000 -0.0000
vn 0.0000 -0.1146 -0.9934
vn -0.0000 0.1146 -0.9934
vn -0.0000 0.3369 -0.9415
vn -0.0000 0.5367 -0.8438
vn -0.0000 0.7071 -0.7071
vn -0.0000 0.8438 -0.5367
vn -0.0000 0.9415 -0.3369
vn -0.0000 0.9934 -0.1146
vn -0.0000 0.9934 0.1146
vn -0.0000 0.9415 0.3369
vn -0.0000 0.8438 0.5367
vn -0.0000 0.7071 0.7071
vn -0.0000 0.5367 0.8438
vn -0.0000 0.3369 0.9415
vn -0.0000 0.1146 0.9934
vn 0.0000 -0.1146 0.9934
vn -0.0000 -0.3369 0.9415
vn 0.0000 -0.3369 0.9415
vn 0.0000 -0.5367 0.8438
vn -0.0000 -0.5367 0.8438
vn 0.0000 -0.7071 0.7071
vn 0.0000 -0.8438 0.5367
vn 0.0000 -0.9415 0.3369
vn 0.0000 -0.9934 0.1146
vn 0.0000 -0.9934 -0.1146
vn 0.0000 -0.9415 -0.3369
vn 0.0000 -0.8438 -0.5367
vn 0.0000 -0.7071 -0.7071
vn 0.0000 -0.5367 -0.8438
vn 0.0000 -0.3369 -0.9415
# 38 vertex normals

vt 0.0005 0.6040 0.2529
vt 0.0927 0.6040 0.2529
vt 0.0927 0.4026 0.2529
vt 0.0005 0.4026 0.2529
vt 0.0927 0.4026 0.8530
vt 0.0927 0.6040 0.8530
vt 0.0005 0.6040 0.8530
vt 0.0005 0.4026 0.8530
vt 0.0927 0.1665 0.2529
vt 0.0927 0.1665 0.8530
vt 0.0005 0.1665 0.8530
vt 0.0005 0.1665 0.2529
vt 0.7866 0.4026 0.2529
vt 0.7866 0.6040 0.2529
vt 0.7866 0.6040 0.8530
vt 0.7866 0.4026 0.8530
vt 0.3348 0.6040 0.2529
vt 0.3348 0.6040 0.8530
vt 0.2234 0.6040 0.2529
vt 0.2234 0.4026 0.2529
vt 0.2234 0.4026 0.8530
vt 0.2234 0.6040 0.8530
vt 0.3348 0.4026 0.2529
vt 0.3348 0.4026 0.8530
vt 0.3348 0.1665 0.2529
vt 0.3348 0.1665 0.8530
vt 0.2234 0.1665 0.8530
vt 0.2234 0.1665 0.2529
vt 0.7167 0.9863 0.0005
vt 0.7694 0.9995 0.0005
vt 0.8222 0.9863 0.0005
vt 0.5455 0.6145 0.0005
vt 0.5628 0.7196 0.0005
vt 0.5900 0.8123 0.0005
vt 0.5394 0.5000 0.0005
vt 0.5455 0.3855 0.0005
vt 0.5628 0.2804 0.0005
vt 0.5900 0.1877 0.0005
vt 0.6256 0.1103 0.0005
vt 0.6683 0.0513 0.0005
vt 0.7167 0.0137 0.0005
vt 0.7694 0.0005 0.0005
vt 0.8222 0.0137 0.0005
vt 0.8706 0.0513 0.0005
vt 0.9133 0.1103 0.0005
vt 0.9489 0.1877 0.0005
vt 0.9761 0.2804 0.0005
vt 0.9934 0.3855 0.0005
vt 0.9995 0.5000 0.0005
vt 0.9934 0.6145 0.0005
vt 0.9761 0.7196 0.0005
vt 0.9489 0.8123 0.0005
vt 0.6256 0.8897 0.0005
vt 0.9133 0.8897 0.0005
vt 0.6683 0.9487 0.0005
vt 0.8706 0.9487 0.0005
vt 0.7167 0.9863 0.9995
vt 0.7694 0.9995 0.9995
vt 0.8222 0.9863 0.9995
vt 0.8706 0.9487 0.9995
vt 0.9133 0.8897 0.9995
vt 0.9489 0.8123 0.9995
vt 0.9761 0.7196 0.9995
vt 0.9934 0.6145 0.9995
vt 0.9995 0.5000 0.9995
vt 0.9934 0.3855 0.9995
vt 0.9761 0.2804 0.9995
vt 0.9489 0.1877 0.9995
vt 0.9133 0.1103 0.9995
vt 0.8706 0.0513 0.9995
vt 0.8222 0.0137 0.9995
vt 0.7694 0.0005 0.9995
vt 0.7167 0.0137 0.9995
vt 0.6683 0.0513 0.9995
vt 0.6256 0.1103 0.9995
vt 0.5900 0.1877 0.9995
vt 0.5628 0.2804 0.9995
vt 0.5455 0.3855 0.9995
vt 0.5394 0.5000 0.9995
vt 0.5455 0.6145 0.9995
vt 0.5628 0.7196 0.9995
vt 0.5900 0.8123 0.9995
vt 0.6256 0.8897 0.9995
vt 0.6683 0.9487 0.9995
# 84 texture coords

g Box047
usemtl 02___Default
s 2
f 1/1/1 2/2/1 3/3/1 
f 3/3/1 4/4/1 1/1/1 
s 4
f 5/5/2 6/6/2 7/7/2 
f 7/7/2 8/8/2 5/5/2 
s 8
f 9/9/3 10/10/3 11/11/3 
f 11/11/3 12/12/3 9/9/3 
s 16
f 13/13/4 14/14/4 15/15/4 
f 15/15/4 16/16/4 13/13/4 
s 32
f 17/17/5 18/18/5 15/15/5 
f 15/15/5 14/14/5 17/17/5 
s 64
f 1/1/6 4/4/6 8/8/6 
f 8/8/6 7/7/6 1/1/6 
s 2
f 19/19/1 20/20/1 3/3/1 
f 3/3/1 2/2/1 19/19/1 
s 4
f 21/21/2 22/22/2 6/6/2 
f 6/6/2 5/5/2 21/21/2 
s 8
f 20/20/3 21/21/3 5/5/3 
f 5/5/3 3/3/3 20/20/3 
s 32
f 1/1/5 7/7/5 6/6/5 
f 6/6/5 2/2/5 1/1/5 
f 2/2/5 6/6/5 22/22/5 
f 22/22/5 19/19/5 2/2/5 
s 2
f 17/17/1 23/23/1 20/20/1 
f 20/20/1 19/19/1 17/17/1 
s 4
f 24/24/2 18/18/2 22/22/2 
f 22/22/2 21/21/2 24/24/2 
s 8
f 25/25/3 26/26/3 27/27/3 
f 27/27/3 28/28/3 25/25/3 
s 32
f 19/19/5 22/22/5 18/18/5 
f 18/18/5 17/17/5 19/19/5 
s 2
f 14/14/1 13/13/1 23/23/1 
f 23/23/1 17/17/1 14/14/1 
s 4
f 16/16/2 15/15/2 18/18/2 
f 18/18/2 24/24/2 16/16/2 
s 8
f 13/13/3 16/16/3 24/24/3 
f 24/24/3 23/23/3 13/13/3 
s off
f 24/24/2 21/21/2 27/27/2 
f 27/27/2 26/26/2 24/24/2 
f 21/21/6 20/20/6 28/28/6 
f 28/28/6 27/27/6 21/21/6 
f 20/20/1 23/23/1 25/25/1 
f 25/25/1 28/28/1 20/20/1 
f 23/23/4 24/24/4 26/26/4 
f 26/26/4 25/25/4 23/23/4 
f 5/5/2 8/8/2 11/11/2 
f 11/11/2 10/10/2 5/5/2 
f 8/8/6 4/4/6 12/12/6 
f 12/12/6 11/11/6 8/8/6 
f 4/4/1 3/3/1 9/9/1 
f 9/9/1 12/12/1 4/4/1 
f 3/3/4 5/5/4 10/10/4 
f 10/10/4 9/9/4 3/3/4 
s 1
f 29/29/7 30/30/7 31/31/8 
f 32/32/1 33/33/1 34/34/8 
f 35/35/8 32/32/1 34/34/8 
f 36/36/8 35/35/8 34/34/8 
f 37/37/1 36/36/8 34/34/8 
f 38/38/8 37/37/1 34/34/8 
f 39/39/8 38/38/8 34/34/8 
f 40/40/8 39/39/8 34/34/8 
f 41/41/8 40/40/8 34/34/8 
f 42/42/8 41/41/8 34/34/8 
f 43/43/8 42/42/8 34/34/8 
f 44/44/8 43/43/8 34/34/8 
f 45/45/8 44/44/8 34/34/8 
f 46/46/8 45/45/8 34/34/8 
f 47/47/8 46/46/8 34/34/8 
f 48/48/8 47/47/8 34/34/8 
f 49/49/8 48/48/8 34/34/8 
f 50/50/8 49/49/8 34/34/8 
f 51/51/8 50/50/8 34/34/8 
f 52/52/7 51/51/8 34/34/8 
f 52/52/7 34/34/8 53/53/8 
f 54/54/8 52/52/7 53/53/8 
f 54/54/8 53/53/8 55/55/8 
f 56/56/8 54/54/8 55/55/8 
f 31/31/8 56/56/8 55/55/8 
f 29/29/7 31/31/8 55/55/8 
s off
f 57/57/9 58/58/9 30/30/9 
f 30/30/9 29/29/9 57/57/9 
f 58/58/10 59/59/10 31/31/10 
f 31/31/10 30/30/10 58/58/10 
f 59/59/11 60/60/11 56/56/11 
f 56/56/11 31/31/11 59/59/11 
f 60/60/12 61/61/12 54/54/12 
f 54/54/12 56/56/12 60/60/12 
f 61/61/13 62/62/13 52/52/13 
f 52/52/13 54/54/13 61/61/13 
f 62/62/14 63/63/14 51/51/14 
f 51/51/14 52/52/14 62/62/14 
f 63/63/15 64/64/15 50/50/15 
f 50/50/15 51/51/15 63/63/15 
f 64/64/16 65/65/16 49/49/16 
f 49/49/16 50/50/16 64/64/16 
f 65/65/17 66/66/17 48/48/17 
f 48/48/17 49/49/17 65/65/17 
f 66/66/18 67/67/18 47/47/18 
f 47/47/18 48/48/18 66/66/18 
f 67/67/19 68/68/19 46/46/19 
f 46/46/19 47/47/19 67/67/19 
f 68/68/20 69/69/20 45/45/20 
f 45/45/20 46/46/20 68/68/20 
f 69/69/21 70/70/21 44/44/21 
f 44/44/21 45/45/21 69/69/21 
f 70/70/22 71/71/22 43/43/22 
f 43/43/22 44/44/22 70/70/22 
f 71/71/23 72/72/23 42/42/23 
f 42/42/23 43/43/23 71/71/23 
f 72/72/24 73/73/24 41/41/24 
f 41/41/24 42/42/24 72/72/24 
f 73/73/25 74/74/25 40/40/25 
f 40/40/26 41/41/26 73/73/26 
f 74/74/27 75/75/27 39/39/27 
f 39/39/28 40/40/28 74/74/28 
f 75/75/29 76/76/29 38/38/29 
f 38/38/29 39/39/29 75/75/29 
f 76/76/30 77/77/30 37/37/30 
f 37/37/30 38/38/30 76/76/30 
f 77/77/31 78/78/31 36/36/31 
f 36/36/31 37/37/31 77/77/31 
f 78/78/32 79/79/32 35/35/32 
f 35/35/32 36/36/32 78/78/32 
f 79/79/33 80/80/33 32/32/33 
f 32/32/33 35/35/33 79/79/33 
f 80/80/34 81/81/34 33/33/34 
f 33/33/34 32/32/34 80/80/34 
f 81/81/35 82/82/35 34/34/35 
f 34/34/35 33/33/35 81/81/35 
f 82/82/36 83/83/36 53/53/36 
f 53/53/36 34/34/36 82/82/36 
f 83/83/37 84/84/37 55/55/37 
f 55/55/37 53/53/37 83/83/37 
f 84/84/38 57/57/38 29/29/38 
f 29/29/38 55/55/38 84/84/38 
# 134 faces

