# 3ds Max Wavefront OBJ Exporter v0.97b - (c)2007 guruware
# File Created: 04.11.2013 17:33:51

mtllib WallP.mtl

#
# object Box011
#

v  2210.5520 259.8425 -2928.1497
v  2210.5520 259.8425 -2916.3386
v  2618.4436 259.8425 -2916.3386
v  2618.4436 259.8425 -2928.1497
v  2210.5520 141.7323 -2916.3386
v  2618.4436 141.7323 -2916.3386
v  2618.4436 141.7323 -2928.1497
v  2210.5520 141.7323 -2928.1497
# 8 vertices

vn 0.0000 1.0000 -0.0000
vn -0.0000 0.0000 1.0000
vn 1.0000 0.0000 0.0000
vn 0.0000 0.0000 -1.0000
# 4 vertex normals

vt 0.6875 0.5000 0.0000
vt 0.7083 0.5000 0.0000
vt -2.0901 -0.2500 0.5000
vt 3.0901 -0.2500 0.5000
vt 3.0901 1.2500 0.5000
vt -2.0901 1.2500 0.5000
# 6 texture coords

g Box011
usemtl 01___Default
s off
f 1/1/1 2/1/1 3/2/1 
f 3/2/1 4/2/1 1/1/1 
f 5/1/2 6/2/2 3/2/2 
f 3/2/2 2/1/2 5/1/2 
f 6/2/3 7/2/3 4/2/3 
f 4/2/3 3/2/3 6/2/3 
f 7/3/4 8/4/4 1/5/4 
f 1/5/4 4/6/4 7/3/4 
# 8 faces

