# 3ds Max Wavefront OBJ Exporter v0.97b - (c)2007 guruware
# File Created: 04.11.2013 17:30:06

mtllib WallW.mtl

#
# object Box011
#

v  2198.7410 259.8425 -2625.0000
v  1923.1566 259.8425 -2624.9998
v  1923.1427 259.8425 -2613.1890
v  2198.7271 259.8425 -2613.1892
v  2210.5520 259.8425 -2625.0000
v  2210.5449 259.8425 -2613.1890
v  2210.5381 259.8425 -2613.1892
v  2198.7410 141.7323 -2625.0000
v  2210.5520 141.7323 -2625.0000
v  1923.1566 141.7323 -2624.9998
v  1923.1427 141.7323 -2613.1890
v  2198.7271 141.7323 -2613.1892
v  2210.5381 141.7323 -2613.1892
v  2210.5449 141.7323 -2613.1890
v  2347.7927 259.8425 -2613.1890
v  2347.7979 259.8425 -2625.0000
v  2347.7979 141.7323 -2625.0000
v  2347.7927 141.7323 -2613.1890
# 18 vertices

vn 0.0000 1.0000 -0.0000
vn 0.0000 -1.0000 -0.0000
vn 0.0000 0.0000 1.0000
vn 0.0000 0.0000 -1.0000
vn -0.0000 0.0000 -1.0000
vn -1.0000 0.0000 -0.0012
vn -0.0570 0.0000 0.9984
vn 1.0000 0.0000 0.0006
vn -1.0000 0.0000 -0.0006
vn 1.0000 0.0000 0.0004
# 10 vertex normals

vt 1.3035 0.5750 1.2500
vt -2.1964 0.5750 1.2500
vt -2.1966 0.4250 1.2500
vt 1.3034 0.4250 1.2500
vt 1.4535 0.5750 1.2500
vt 1.4534 0.4250 1.2500
vt 1.3035 -0.2500 0.5750
vt 1.4535 -0.2500 0.5750
vt 1.4535 1.2500 0.5750
vt 1.3035 1.2500 0.5750
vt -0.4535 -0.2500 0.5750
vt -0.3035 -0.2500 0.5750
vt -0.3035 1.2500 0.5750
vt -0.4535 1.2500 0.5750
vt 3.1964 -0.2500 0.5750
vt 3.1964 1.2500 0.5750
vt 0.4250 -0.2500 -2.1964
vt 0.5750 -0.2500 -2.1966
vt 0.5750 1.2500 -2.1966
vt 0.4250 1.2500 -2.1964
vt -2.1966 -0.2500 0.4250
vt 1.3034 -0.2500 0.4250
vt 1.3034 1.2500 0.4250
vt -2.1966 1.2500 0.4250
vt 1.4534 -0.2500 0.4250
vt 1.4534 1.2500 0.4250
vt 0.4250 -0.2500 1.4534
vt 0.5750 -0.2500 1.4535
vt 0.5750 1.2500 1.4535
vt 0.4250 1.2500 1.4534
vt 3.1965 0.4250 1.2500
vt 3.1966 0.5750 1.2500
vt -2.1966 -0.2500 0.5750
vt -2.1966 1.2500 0.5750
vt 0.4250 -0.2500 1.4535
vt 0.5750 -0.2500 1.4534
vt 0.5750 1.2500 1.4534
vt 0.4250 1.2500 1.4535
vt 3.1965 -0.2500 0.4250
vt 3.1965 1.2500 0.4250
vt 0.4250 -0.2500 3.1965
vt 0.5750 -0.2500 3.1966
vt 0.5750 1.2500 3.1966
vt 0.4250 1.2500 3.1965
# 44 texture coords

g Box011
usemtl 01___Default
s off
f 1/1/1 2/2/1 3/3/1 
f 3/3/1 4/4/1 1/1/1 
f 5/5/1 1/1/1 4/4/1 
f 6/6/1 5/5/1 4/4/1 
f 7/6/2 6/6/2 4/4/2 
f 8/7/3 9/8/3 5/9/3 
f 5/9/3 1/10/3 8/7/3 
f 9/11/4 8/12/4 1/13/4 
f 1/13/4 5/14/4 9/11/4 
f 8/12/5 10/15/5 2/16/5 
f 2/16/5 1/13/5 8/12/5 
f 10/17/6 11/18/6 3/19/6 
f 3/19/6 2/20/6 10/17/6 
f 11/21/3 12/22/3 4/23/3 
f 4/23/3 3/24/3 11/21/3 
f 13/25/7 14/25/7 6/26/7 
f 6/26/7 7/26/7 13/25/7 
f 14/27/8 9/28/8 5/29/8 
f 5/29/8 6/30/8 14/27/8 
f 5/5/1 6/6/1 15/31/1 
f 15/31/1 16/32/1 5/5/1 
f 17/33/4 9/11/4 5/14/4 
f 5/14/4 16/34/4 17/33/4 
f 9/35/9 14/36/9 6/37/9 
f 6/37/9 5/38/9 9/35/9 
f 14/25/3 18/39/3 15/40/3 
f 15/40/3 6/26/3 14/25/3 
f 18/41/10 17/42/10 16/43/10 
f 16/43/10 15/44/10 18/41/10 
# 29 faces

