# 3ds Max Wavefront OBJ Exporter v0.97b - (c)2007 guruware
# File Created: 04.11.2013 17:38:24

mtllib WallH.mtl

#
# object Box011
#

v  2997.9536 259.8425 -3412.4016
v  2997.9536 259.8425 -3424.2126
v  2624.6460 259.8425 -3424.2126
v  2624.6460 259.8425 -3412.4016
v  3009.7646 259.8425 -3412.4016
v  3009.7646 259.8425 -3424.2126
v  2997.9536 141.7323 -3424.2126
v  2624.6460 141.7323 -3424.2126
v  2624.6460 141.7323 -3412.4016
v  2997.9536 141.7323 -3412.4016
v  3009.7646 141.7323 -3412.4016
v  3009.7646 141.7323 -3424.2126
# 12 vertices

vn 0.0000 1.0000 -0.0000
vn 0.0000 0.0000 -1.0000
vn -1.0000 0.0000 -0.0000
vn 0.0000 0.0000 1.0000
vn 1.0000 0.0000 -0.0000
# 5 vertex normals

vt 2.7955 0.4250 1.2500
vt 2.7955 0.5750 1.2500
vt -1.9455 0.5750 1.2500
vt -1.9455 0.4250 1.2500
vt 2.9455 0.4250 1.2500
vt 2.9455 0.5750 1.2500
vt -1.7955 -0.2500 0.5750
vt 2.9455 -0.2500 0.5750
vt 2.9455 1.2500 0.5750
vt -1.7955 1.2500 0.5750
vt 0.4250 -0.2500 -1.9455
vt 0.5750 -0.2500 -1.9455
vt 0.5750 1.2500 -1.9455
vt 0.4250 1.2500 -1.9455
vt -1.9455 -0.2500 0.4250
vt 2.7955 -0.2500 0.4250
vt 2.7955 1.2500 0.4250
vt -1.9455 1.2500 0.4250
vt 0.4250 -0.2500 2.9455
vt 0.5750 -0.2500 2.9455
vt 0.5750 1.2500 2.9455
vt 0.4250 1.2500 2.9455
# 22 texture coords

g Box011
usemtl 01___Default
s off
f 1/1/1 2/2/1 3/3/1 
f 3/3/1 4/4/1 1/1/1 
f 2/2/1 1/1/1 5/5/1 
f 5/5/1 6/6/1 2/2/1 
f 7/7/2 8/8/2 3/9/2 
f 3/9/2 2/10/2 7/7/2 
f 8/11/3 9/12/3 4/13/3 
f 4/13/3 3/14/3 8/11/3 
f 9/15/4 10/16/4 1/17/4 
f 1/17/4 4/18/4 9/15/4 
f 11/19/5 12/20/5 6/21/5 
f 6/21/5 5/22/5 11/19/5 
# 12 faces

