# 3ds Max Wavefront OBJ Exporter v0.97b - (c)2007 guruware
# File Created: 04.11.2013 17:42:37

mtllib WallA.mtl

#
# object Box011
#

v  1529.4497 259.8425 -3412.4016
v  1529.4497 259.8425 -3424.2126
v  1411.3386 259.8425 -3424.2126
v  1411.3386 259.8425 -3412.4016
v  1399.5286 259.8425 -3424.2124
v  1399.5286 259.8425 -3412.4016
v  1668.0315 259.8425 -3424.2126
v  1529.4497 259.8425 -3424.2129
v  1668.0315 259.8425 -3412.4016
v  1411.3403 141.7323 -3412.4019
v  1399.5293 141.7323 -3412.4021
v  1399.5293 259.8425 -3412.4021
v  1411.3403 259.8425 -3412.4019
v  1399.5286 141.7323 -3424.2124
v  1399.5286 141.7323 -3412.4016
v  1411.3386 141.7323 -3412.4016
v  1529.4497 141.7323 -3412.4016
v  1668.0315 141.7323 -3412.4016
v  1668.0315 141.7323 -3424.2126
v  1529.4497 141.7323 -3424.2129
v  1529.4497 141.7323 -3424.2126
v  1411.3386 141.7323 -3424.2126
# 22 vertices

vn 0.0000 1.0000 -0.0000
vn 0.0000 0.0000 -0.0000
vn 0.0000 0.0000 -1.0000
vn -1.0000 0.0000 -0.0000
vn 0.0000 0.0000 1.0000
vn 1.0000 0.0000 -0.0000
vn -0.0000 0.0000 -1.0000
# 7 vertex normals

vt 0.4450 0.4250 1.2500
vt 0.4450 0.5750 1.2500
vt -1.0550 0.5750 1.2500
vt -1.0550 0.4250 1.2500
vt -1.2050 0.5750 1.2500
vt -1.2050 0.4250 1.2500
vt 2.2050 0.5750 1.2500
vt 2.2050 0.4250 1.2500
vt 2.0550 -0.2500 0.4250
vt 2.2050 -0.2500 0.4250
vt 2.2050 1.2500 0.4250
vt 2.0550 1.2500 0.4250
vt 0.4250 -0.2500 -1.2050
vt 0.5750 -0.2500 -1.2050
vt 0.5750 1.2500 -1.2050
vt 0.4250 1.2500 -1.2050
vt -1.2050 -0.2500 0.4250
vt -1.0550 -0.2500 0.4250
vt -1.0550 1.2500 0.4250
vt -1.2050 1.2500 0.4250
vt 0.4450 -0.2500 0.4250
vt 0.4450 1.2500 0.4250
vt 0.4250 -0.2500 2.2050
vt 0.5750 -0.2500 2.2050
vt 0.5750 1.2500 2.2050
vt 0.4250 1.2500 2.2050
vt -1.2050 -0.2500 0.5750
vt 0.5550 -0.2500 0.5750
vt 0.5550 1.2500 0.5750
vt -1.2050 1.2500 0.5750
vt 0.4250 -0.2500 0.4450
vt 0.4250 1.2500 0.4450
vt 2.0550 -0.2500 0.5750
vt 2.0550 1.2500 0.5750
vt 0.4250 -0.2500 -1.0550
vt 0.4250 1.2500 -1.0550
# 36 texture coords

g Box011
usemtl 01___Default
s off
f 1/1/1 2/2/1 3/3/1 
f 3/3/1 4/4/1 1/1/1 
f 3/3/1 5/5/1 6/6/1 
f 3/3/1 6/6/1 4/4/1 
f 3/3/2 3/3/2 4/4/2 
f 7/7/1 8/2/1 2/2/1 
f 7/7/1 2/2/1 1/1/1 
f 7/7/1 1/1/1 9/8/1 
f 10/9/3 11/10/3 12/11/3 
f 12/11/3 13/12/3 10/9/3 
f 14/13/4 15/14/4 6/15/4 
f 6/15/4 5/16/4 14/13/4 
f 15/17/5 16/18/5 4/19/5 
f 4/19/5 6/20/5 15/17/5 
f 16/18/5 17/21/5 1/22/5 
f 1/22/5 4/19/5 16/18/5 
f 17/21/5 18/10/5 9/11/5 
f 9/11/5 1/22/5 17/21/5 
f 18/23/6 19/24/6 7/25/6 
f 7/25/6 9/26/6 18/23/6 
f 19/27/3 20/28/3 8/29/3 
f 8/29/3 7/30/3 19/27/3 
f 20/31/4 21/31/4 2/32/4 
f 2/32/4 8/32/4 20/31/4 
f 21/28/7 22/33/7 3/34/7 
f 3/34/7 2/29/7 21/28/7 
f 22/35/4 22/35/4 3/36/4 
f 3/36/4 3/36/4 22/35/4 
# 28 faces

