# 3ds Max Wavefront OBJ Exporter v0.97b - (c)2007 guruware
# File Created: 04.11.2013 17:32:03

mtllib WallS.mtl

#
# object Box011
#

v  2771.2998 259.8425 -2026.5748
v  2771.2996 259.8425 -2147.7197
v  2771.2991 259.8425 -2159.5308
v  2771.2988 259.8425 -2319.8818
v  2759.4863 259.8425 -2319.8818
v  2759.4873 259.8425 -2026.5748
v  2771.2991 141.7323 -2159.5308
v  2771.2988 141.7323 -2319.8818
v  2759.4863 141.7323 -2319.8818
v  2759.4873 141.7323 -2026.5748
v  2771.2998 141.7323 -2026.5748
v  2771.2996 141.7323 -2147.7197
# 12 vertices

vn 0.0000 1.0000 -0.0000
vn 1.0000 0.0000 -0.0000
vn 0.0000 0.0000 -1.0000
vn -1.0000 0.0000 0.0000
vn 0.0000 0.0000 1.0000
# 5 vertex normals

vt 0.5750 -1.3625 1.2500
vt 0.5750 0.1760 1.2500
vt 0.5750 0.3260 1.2500
vt 0.5750 2.3625 1.2500
vt 0.4250 2.3625 1.2500
vt 0.4250 -1.3625 1.2500
vt 0.3260 -0.2500 0.5750
vt 2.3625 -0.2500 0.5750
vt 2.3625 1.2500 0.5750
vt 0.3260 1.2500 0.5750
vt 0.4250 -0.2500 2.3625
vt 0.5750 -0.2500 2.3625
vt 0.5750 1.2500 2.3625
vt 0.4250 1.2500 2.3625
vt -1.3625 -0.2500 0.4250
vt 2.3625 -0.2500 0.4250
vt 2.3625 1.2500 0.4250
vt -1.3625 1.2500 0.4250
vt 0.4250 -0.2500 -1.3625
vt 0.5750 -0.2500 -1.3625
vt 0.5750 1.2500 -1.3625
vt 0.4250 1.2500 -1.3625
vt -1.3625 -0.2500 0.5750
vt 0.1760 -0.2500 0.5750
vt 0.1760 1.2500 0.5750
vt -1.3625 1.2500 0.5750
# 26 texture coords

g Box011
usemtl 01___Default
s off
f 1/1/1 2/2/1 3/3/1 
f 3/3/1 4/4/1 5/5/1 
f 1/1/1 3/3/1 5/5/1 
f 1/1/1 5/5/1 6/6/1 
f 7/7/2 8/8/2 4/9/2 
f 4/9/2 3/10/2 7/7/2 
f 8/11/3 9/12/3 5/13/3 
f 5/13/3 4/14/3 8/11/3 
f 9/15/4 10/16/4 6/17/4 
f 6/17/4 5/18/4 9/15/4 
f 10/19/5 11/20/5 1/21/5 
f 1/21/5 6/22/5 10/19/5 
f 11/23/2 12/24/2 2/25/2 
f 2/25/2 1/26/2 11/23/2 
# 14 faces

