# 3ds Max Wavefront OBJ Exporter v0.97b - (c)2007 guruware
# File Created: 04.11.2013 17:31:37

mtllib WallT.mtl

#
# object Box011
#

v  2771.2981 259.8425 -1825.7874
v  2771.3003 259.8425 -1967.5197
v  2759.4893 259.8425 -1967.5197
v  2759.4893 259.8425 -1825.7874
v  2771.2981 141.7323 -1825.7874
v  2771.3003 141.7323 -1967.5197
v  2759.4893 141.7323 -1967.5197
v  2759.4893 141.7323 -1825.7874
# 8 vertices

vn 0.0000 1.0000 -0.0000
vn 1.0000 0.0000 0.0000
vn 0.0000 0.0000 -1.0000
vn -1.0000 0.0000 -0.0000
# 4 vertex normals

vt 0.5750 -0.4000 1.2500
vt 0.5750 1.4000 1.2500
vt 0.4250 1.4000 1.2500
vt 0.4250 -0.4000 1.2500
vt -0.4000 -0.2500 0.5750
vt 1.4000 -0.2500 0.5750
vt 1.4000 1.2500 0.5750
vt -0.4000 1.2500 0.5750
vt 0.4250 -0.2500 1.4000
vt 0.5750 -0.2500 1.4000
vt 0.5750 1.2500 1.4000
vt 0.4250 1.2500 1.4000
vt -0.4000 -0.2500 0.4250
vt 1.4000 -0.2500 0.4250
vt 1.4000 1.2500 0.4250
vt -0.4000 1.2500 0.4250
# 16 texture coords

g Box011
usemtl 01___Default
s off
f 1/1/1 2/2/1 3/3/1 
f 3/3/1 4/4/1 1/1/1 
f 5/5/2 6/6/2 2/7/2 
f 2/7/2 1/8/2 5/5/2 
f 6/9/3 7/10/3 3/11/3 
f 3/11/3 2/12/3 6/9/3 
f 7/13/4 8/14/4 4/15/4 
f 4/15/4 3/16/4 7/13/4 
# 8 faces

