# 3ds Max Wavefront OBJ Exporter v0.97b - (c)2007 guruware
# File Created: 04.11.2013 17:41:22

mtllib WallC.mtl

#
# object Box011
#

v  1948.7401 259.8425 -3868.3252
v  1960.5511 259.8425 -3868.3252
v  1960.5511 259.8425 -3880.1362
v  1948.7401 259.8425 -3880.1362
v  1948.7401 259.8425 -3424.2126
v  1960.5510 259.8425 -3424.2126
v  1960.5511 259.8425 -3994.5659
v  1948.7401 259.8425 -3994.5659
v  1960.5510 141.7323 -3424.2126
v  1960.5511 141.7323 -3868.3252
v  1960.5511 141.7323 -3880.1362
v  1960.5511 141.7323 -3994.5659
v  1948.7401 141.7323 -3994.5659
v  1948.7401 141.7323 -3880.1362
v  1948.7401 141.7323 -3868.3252
v  1948.7401 141.7323 -3424.2126
# 16 vertices

vn 0.0000 1.0000 -0.0000
vn 1.0000 0.0000 0.0000
vn 0.0000 0.0000 -1.0000
vn -1.0000 0.0000 0.0000
vn -1.0000 0.0000 -0.0000
# 5 vertex normals

vt 0.4250 2.5185 1.2500
vt 0.5750 2.5185 1.2500
vt 0.5750 2.6685 1.2500
vt 0.4250 2.6685 1.2500
vt 0.4250 -3.1217 1.2500
vt 0.5750 -3.1217 1.2500
vt 0.5750 4.1217 1.2500
vt 0.4250 4.1217 1.2500
vt -3.1217 -0.2500 0.5750
vt 2.5185 -0.2500 0.5750
vt 2.5185 1.2500 0.5750
vt -3.1217 1.2500 0.5750
vt 2.6685 -0.2500 0.5750
vt 4.1217 -0.2500 0.5750
vt 4.1217 1.2500 0.5750
vt 2.6685 1.2500 0.5750
vt 0.4250 -0.2500 4.1217
vt 0.5750 -0.2500 4.1217
vt 0.5750 1.2500 4.1217
vt 0.4250 1.2500 4.1217
vt -3.1217 -0.2500 0.4250
vt -1.6685 -0.2500 0.4250
vt -1.6685 1.2500 0.4250
vt -3.1217 1.2500 0.4250
vt -1.5185 -0.2500 0.4250
vt -1.5185 1.2500 0.4250
vt 4.1217 -0.2500 0.4250
vt 4.1217 1.2500 0.4250
# 28 texture coords

g Box011
usemtl 01___Default
s off
f 1/1/1 2/2/1 3/3/1 
f 3/3/1 4/4/1 1/1/1 
f 5/5/1 6/6/1 2/2/1 
f 2/2/1 1/1/1 5/5/1 
f 7/7/1 8/8/1 4/4/1 
f 4/4/1 3/3/1 7/7/1 
f 9/9/2 10/10/2 2/11/2 
f 2/11/2 6/12/2 9/9/2 
f 11/13/2 12/14/2 7/15/2 
f 7/15/2 3/16/2 11/13/2 
f 12/17/3 13/18/3 8/19/3 
f 8/19/3 7/20/3 12/17/3 
f 13/21/4 14/22/4 4/23/4 
f 4/23/4 8/24/4 13/21/4 
f 14/22/5 15/25/5 1/26/5 
f 1/26/5 4/23/5 14/22/5 
f 15/25/4 16/27/4 5/28/4 
f 5/28/4 1/26/4 15/25/4 
# 18 faces

