# 3ds Max Wavefront OBJ Exporter v0.97b - (c)2007 guruware
# File Created: 04.10.2013 15:14:22

mtllib FirstFloor.mtl

#
# object Box011
#

v  1399.5396 0.0000 -1813.9622
v  1399.5396 0.0000 -4223.4111
v  3009.7759 0.0000 -4223.4111
v  3009.7759 0.0000 -1813.9622
v  3009.7759 11.8110 -1813.9751
v  1399.5396 11.8110 -1813.9751
v  3009.7759 11.8110 -4223.4238
v  3009.7639 11.8110 -4211.6128
v  3009.7639 11.8110 -1825.7861
v  1399.5396 11.8110 -4223.4238
v  1399.5276 11.8110 -1825.7861
v  1399.5276 11.8110 -4211.6128
v  1690.2429 11.8110 -3412.4016
v  1808.3531 11.8110 -3412.4016
v  1808.3531 11.8110 -3424.2124
v  1690.2429 11.8110 -3424.2124
v  1905.8196 11.8110 -2613.1890
v  1964.8746 11.8110 -2613.1890
v  1964.8748 11.8110 -2625.0000
v  1905.8198 11.8110 -2625.0000
v  2997.9529 11.8110 -4211.6143
v  2700.5906 11.8110 -4211.6143
v  2700.5906 11.8110 -3698.5039
v  2700.5906 11.8110 -3424.2124
v  2997.9529 11.8110 -3424.2124
v  2198.7402 11.8110 -2959.6455
v  2210.5513 11.8110 -2959.6458
v  2210.5513 11.8110 -3077.7559
v  2198.7402 11.8110 -3077.7559
v  1411.3386 11.8110 -3412.4016
v  1411.3386 11.8110 -2625.0000
v  1740.2644 11.8110 -2625.0000
v  1799.3196 11.8110 -2625.0000
v  2198.7402 11.8110 -2625.0000
v  2198.7402 11.8110 -3412.4016
v  2796.7517 11.8110 -2939.9607
v  2796.7517 11.8110 -2928.1497
v  2914.8623 11.8110 -2928.1497
v  2914.8623 11.8110 -2939.9607
v  2369.9607 11.8110 -3412.4016
v  2529.3701 11.8110 -3412.4016
v  2529.3701 11.8110 -3424.2124
v  2369.9607 11.8110 -3424.2124
v  2210.5513 11.8110 -2613.1890
v  2635.0000 11.8110 -2613.1890
v  2635.0000 11.8110 -2625.0000
v  2210.5513 11.8110 -2625.0000
v  2210.5513 11.8110 -2240.0496
v  2210.5513 11.8110 -2358.1602
v  2198.7402 11.8110 -2358.1597
v  2198.7402 11.8110 -2240.0496
v  2997.9529 11.8110 -2160.8252
v  2997.9529 11.8110 -2172.6362
v  2646.8110 11.8110 -2172.6362
v  2646.8110 11.8110 -2160.8252
v  1411.3386 11.8110 -2613.1890
v  1411.3386 11.8110 -2436.0239
v  1819.1470 11.8110 -2436.0239
v  1740.2644 11.8110 -2613.1890
v  1799.3196 11.8110 -2613.1890
v  1819.1470 11.8110 -2613.1890
v  2198.7402 11.8110 -2436.0239
v  2198.7402 11.8110 -2613.1890
v  1830.9580 11.8110 -2613.1890
v  1830.9580 11.8110 -2436.0239
v  2210.5513 11.8110 -1825.7874
v  2997.9529 11.8110 -1825.7874
v  2210.5513 11.8110 -1975.6608
v  2210.5513 11.8110 -2093.7710
v  2210.5513 11.8110 -2160.8252
v  2210.5513 11.8110 -2172.6362
v  2635.0000 11.8110 -2172.6362
v  2634.9998 11.8110 -2613.1890
v  2997.9529 11.8110 -2613.1890
v  2881.9688 11.8110 -2613.1890
v  2763.8584 11.8110 -2613.1890
v  2646.8110 11.8110 -2613.1890
v  2881.9683 11.8110 -2625.0000
v  2763.8584 11.8110 -2625.0000
v  2198.7402 11.8110 -1975.6608
v  2198.7402 11.8110 -2093.7710
v  2198.7402 11.8110 -2425.7588
v  1411.3386 11.8110 -2425.7588
v  2198.7402 11.8110 -1967.5197
v  1411.3386 11.8110 -1967.5197
v  1805.0394 11.8110 -1967.5197
v  2198.7402 11.8110 -1955.7086
v  1805.0394 11.8110 -1955.7086
v  2796.7517 11.8110 -3109.2520
v  2796.7517 11.8110 -3097.4409
v  2914.8621 11.8110 -3097.4409
v  2914.8621 11.8110 -3109.2520
v  2210.5513 11.8110 -2928.1497
v  2997.9529 11.8110 -2625.0000
v  2997.9529 11.8110 -2928.1494
v  2688.7795 11.8110 -3184.5735
v  2700.5906 11.8110 -3184.5735
v  2700.5906 11.8110 -3302.6838
v  2688.7795 11.8110 -3302.6838
v  2210.5513 11.8110 -2939.9607
v  2997.9529 11.8110 -2939.9607
v  2210.5513 11.8110 -3097.4409
v  2997.9529 11.8110 -3097.4409
v  2210.5513 11.8110 -3412.4016
v  2210.5513 11.8110 -3109.2520
v  2688.7795 11.8110 -3109.2520
v  2688.7795 11.8110 -3412.4016
v  2997.9529 11.8110 -3109.2520
v  2997.9529 11.8110 -3412.4016
v  2700.5906 11.8110 -3412.4016
v  2700.5903 11.8110 -3412.4016
v  2700.5908 11.8110 -3109.2520
v  2688.7795 11.8110 -4211.6143
v  2688.7795 11.8110 -3698.5039
v  2053.2678 11.8110 -3920.2756
v  2053.2678 11.8110 -3802.1655
v  2065.0789 11.8110 -3802.1655
v  2065.0789 11.8110 -3920.2756
v  1529.4490 11.8110 -3787.7954
v  1529.4490 11.8110 -3669.6851
v  1541.2599 11.8110 -3669.6851
v  1541.2599 11.8110 -3787.7954
v  2443.9331 11.8110 -3698.5039
v  2325.8228 11.8110 -3698.5039
v  2325.8228 11.8110 -3686.6929
v  2443.9331 11.8110 -3686.6929
v  2539.1733 11.8110 -3967.1553
v  2550.9844 11.8110 -3967.1750
v  2550.9844 11.8110 -4085.2856
v  2539.1736 11.8110 -4085.2656
v  2065.0789 11.8110 -3443.9763
v  2065.0786 11.8110 -3424.2124
v  2198.7402 11.8110 -3424.2124
v  2065.0789 11.8110 -3562.0867
v  2065.0789 11.8110 -3686.6929
v  2210.5513 11.8110 -3424.2124
v  2688.7795 11.8110 -3424.2124
v  2688.7795 11.8110 -3686.6929
v  2065.0789 11.8110 -3698.5039
v  2539.1733 11.8110 -3698.5039
v  2065.0791 11.8110 -4211.6143
v  2539.1736 11.8110 -4211.6143
v  2550.9844 11.8110 -4211.6338
v  2550.9844 11.8110 -3698.5237
v  1849.0945 11.8110 -3597.4409
v  1849.0945 11.8110 -3581.6926
v  1967.2046 11.8110 -3581.6929
v  1967.2047 11.8110 -3597.4409
v  2053.2678 11.8110 -4211.6143
v  1541.2599 11.8110 -4211.6143
v  1541.2599 11.8110 -3597.4409
v  2053.2678 11.8110 -3597.4409
v  2053.2874 11.8110 -3424.2124
v  2053.2808 11.8110 -3443.9761
v  1541.2795 11.8110 -3424.2124
v  2053.2744 11.8110 -3562.0869
v  2053.2678 11.8110 -3581.6929
v  1541.2698 11.8110 -3581.6929
v  1541.2599 11.8110 -3581.6926
v  1529.4490 11.8110 -3424.2124
v  1529.4490 11.8110 -3581.6929
v  2688.7798 11.8110 -3424.2124
v  2198.7402 11.8110 -1825.7874
v  1805.0396 11.8110 -1955.7085
v  1805.0394 11.8110 -1825.7867
v  1411.3386 11.8110 -3787.7954
v  1411.3386 11.8110 -3424.2124
# 167 vertices

vn 0.0000 -1.0000 -0.0000
vn 0.0000 0.0011 1.0000
vn 1.0000 0.0006 -0.0005
vn 1.0000 0.0000 -0.0000
vn 1.0000 0.0006 0.0000
vn 0.9794 0.2020 0.0010
vn 1.0000 0.0008 -0.0003
vn 1.0000 -0.0000 -0.0010
vn 0.0000 -0.0011 -1.0000
vn -1.0000 -0.0005 -0.0005
vn -1.0000 0.0000 -0.0000
vn -1.0000 -0.0006 0.0000
vn -0.9794 -0.2020 0.0010
vn -1.0000 -0.0008 -0.0003
vn -1.0000 -0.0000 -0.0010
vn 0.0000 1.0000 -0.0000
# 16 vertex normals

vt 1.0000 0.0000 0.0000
vt 1.0000 1.0000 0.0000
vt 0.0000 1.0000 0.0000
vt 0.0000 0.0000 0.0000
vt 0.7500 1.0000 0.0000
vt 0.5000 1.0000 0.0000
vt 0.2500 1.0000 0.0000
vt 0.5139 0.5833 0.0000
vt 0.5278 0.5833 0.0000
vt 0.5370 0.6667 0.0000
vt 0.5324 0.6667 0.0000
vt 0.5486 0.5278 0.0000
vt 0.5556 0.5278 0.0000
vt 0.5556 0.5556 0.0000
vt 0.5278 0.5556 0.0000
vt 0.7500 0.7500 0.0000
vt 0.6250 0.7500 0.0000
vt 0.6719 0.7083 0.0000
vt 0.7188 0.6667 0.0000
vt 0.7500 0.6667 0.0000
vt 0.5833 0.5648 0.0000
vt 0.6667 0.5648 0.0000
vt 0.6667 0.5741 0.0000
vt 0.5833 0.5741 0.0000
vt 0.5000 0.5833 0.0000
vt 0.5000 0.5556 0.0000
vt 0.5093 0.5556 0.0000
vt 0.5185 0.5556 0.0000
vt 0.5833 0.5556 0.0000
vt 0.5417 0.5833 0.0000
vt 0.5833 0.5833 0.0000
vt 0.6944 0.5658 0.0000
vt 0.6944 0.5607 0.0000
vt 0.7222 0.5628 0.0000
vt 0.7222 0.5700 0.0000
vt 0.6713 0.5833 0.0000
vt 0.6759 0.5833 0.0000
vt 0.6354 0.6667 0.0000
vt 0.6302 0.6667 0.0000
vt 0.6250 0.5278 0.0000
vt 0.6875 0.5278 0.0000
vt 0.6979 0.5278 0.0000
vt 0.7292 0.5556 0.0000
vt 0.7083 0.5556 0.0000
vt 0.6875 0.5216 0.0000
vt 0.6875 0.5247 0.0000
vt 0.6111 0.5062 0.0000
vt 0.6181 0.5031 0.0000
vt 0.7500 0.5093 0.0000
vt 0.7500 0.5185 0.0000
vt 0.7396 0.5185 0.0000
vt 0.7188 0.5093 0.0000
vt 0.5000 0.5278 0.0000
vt 0.5000 0.5185 0.0000
vt 0.5278 0.5185 0.0000
vt 0.5069 0.5278 0.0000
vt 0.5139 0.5278 0.0000
vt 0.5208 0.5278 0.0000
vt 0.5833 0.5185 0.0000
vt 0.5625 0.5278 0.0000
vt 0.5417 0.5278 0.0000
vt 0.5556 0.5185 0.0000
vt 0.6875 0.5000 0.0000
vt 0.7500 0.5000 0.0000
vt 0.6875 0.5031 0.0000
vt 0.6875 0.5062 0.0000
vt 0.6875 0.5093 0.0000
vt 0.6875 0.5185 0.0000
vt 0.7083 0.5185 0.0000
vt 0.7083 0.5278 0.0000
vt 0.7500 0.5278 0.0000
vt 0.7431 0.5278 0.0000
vt 0.7361 0.5278 0.0000
vt 0.7292 0.5278 0.0000
vt 0.7292 0.5185 0.0000
vt 0.7431 0.5556 0.0000
vt 0.7361 0.5556 0.0000
vt 0.6227 0.5010 0.0000
vt 0.6204 0.5021 0.0000
vt 0.6042 0.5093 0.0000
vt 0.5000 0.5093 0.0000
vt 0.6235 0.5007 0.0000
vt 0.5000 0.5062 0.0000
vt 0.5617 0.5034 0.0000
vt 0.6242 0.5003 0.0000
vt 0.5621 0.5017 0.0000
vt 0.6944 0.5802 0.0000
vt 0.6944 0.5772 0.0000
vt 0.7222 0.5772 0.0000
vt 0.7222 0.5802 0.0000
vt 0.6667 0.5556 0.0000
vt 0.6667 0.5586 0.0000
vt 0.7500 0.5556 0.0000
vt 0.7500 0.5648 0.0000
vt 0.6821 0.5813 0.0000
vt 0.6975 0.5813 0.0000
vt 0.7099 0.5823 0.0000
vt 0.6883 0.5823 0.0000
vt 0.6667 0.5617 0.0000
vt 0.7500 0.5741 0.0000
vt 0.6667 0.5772 0.0000
vt 0.7500 0.5772 0.0000
vt 0.6667 0.5833 0.0000
vt 0.6667 0.5802 0.0000
vt 0.6759 0.5802 0.0000
vt 0.6690 0.5833 0.0000
vt 0.6806 0.5833 0.0000
vt 0.6944 0.5833 0.0000
vt 0.7500 0.5802 0.0000
vt 0.7500 0.5833 0.0000
vt 0.7361 0.5833 0.0000
vt 0.7222 0.5833 0.0000
vt 0.6852 0.5802 0.0000
vt 0.6875 0.6667 0.0000
vt 0.5625 0.7500 0.0000
vt 0.5755 0.7361 0.0000
vt 0.5231 0.7407 0.0000
vt 0.5255 0.7315 0.0000
vt 0.5509 0.7315 0.0000
vt 0.5463 0.7407 0.0000
vt 0.5081 0.7361 0.0000
vt 0.5093 0.7222 0.0000
vt 0.5170 0.7315 0.0000
vt 0.5154 0.7407 0.0000
vt 0.5629 0.7222 0.0000
vt 0.5592 0.7222 0.0000
vt 0.5845 0.6944 0.0000
vt 0.5995 0.6944 0.0000
vt 0.5606 0.7315 0.0000
vt 0.5702 0.7315 0.0000
vt 0.5629 0.7407 0.0000
vt 0.5546 0.7407 0.0000
vt 0.5787 0.6759 0.0000
vt 0.5833 0.6667 0.0000
vt 0.6250 0.6667 0.0000
vt 0.5741 0.6852 0.0000
vt 0.5694 0.6944 0.0000
vt 0.6276 0.6667 0.0000
vt 0.6406 0.6667 0.0000
vt 0.6146 0.6944 0.0000
vt 0.5556 0.7222 0.0000
vt 0.5666 0.7222 0.0000
vt 0.5417 0.7500 0.0000
vt 0.5486 0.7500 0.0000
vt 0.5556 0.7500 0.0000
vt 0.5885 0.7222 0.0000
vt 0.5775 0.7222 0.0000
vt 0.5216 0.7222 0.0000
vt 0.5270 0.6944 0.0000
vt 0.5309 0.6944 0.0000
vt 0.5247 0.7222 0.0000
vt 0.5208 0.7500 0.0000
vt 0.5139 0.7500 0.0000
vt 0.5185 0.7222 0.0000
vt 0.5278 0.7222 0.0000
vt 0.5417 0.6667 0.0000
vt 0.5394 0.6759 0.0000
vt 0.5278 0.6667 0.0000
vt 0.5370 0.6852 0.0000
vt 0.5347 0.6944 0.0000
vt 0.5255 0.6806 0.0000
vt 0.5231 0.6944 0.0000
vt 0.5139 0.6667 0.0000
vt 0.5104 0.7083 0.0000
vt 0.6563 0.6667 0.0000
vt 0.6250 0.5000 0.0000
vt 0.5311 0.5024 0.0000
vt 0.5625 0.5000 0.0000
vt 0.5000 0.7083 0.0000
vt 0.5000 0.6667 0.0000
vt 0.5075 0.7431 0.0000
# 171 texture coords

g Box011
usemtl wire_177088027
s 2
f 1/1/1 2/2/1 3/3/1 
f 3/3/1 4/4/1 1/1/1 
s 8
f 1/4/2 4/1/2 5/2/2 
f 5/2/2 6/3/2 1/4/2 
s 16
f 4/4/3 3/1/4 7/2/5 
f 4/4/3 7/2/5 8/5/6 
f 4/4/3 8/5/6 9/6/7 
f 4/4/3 9/6/7 5/3/8 
s 32
f 3/4/9 2/1/9 10/2/9 
f 10/2/9 7/3/9 3/4/9 
s 64
f 2/4/10 1/1/11 6/2/12 
f 2/4/10 6/2/12 11/6/13 
f 2/4/10 11/6/13 12/7/14 
f 2/4/10 12/7/14 10/3/15 
s 4
f 13/8/16 14/9/16 15/10/16 
f 15/10/16 16/11/16 13/8/16 
f 17/12/16 18/13/16 19/14/16 
f 19/14/16 20/15/16 17/12/16 
f 21/16/16 22/17/16 23/18/16 
f 21/16/16 23/18/16 24/19/16 
f 25/20/16 21/16/16 24/19/16 
f 26/21/1 27/22/16 28/23/16 
f 28/23/16 29/24/16 26/21/1 
f 30/25/16 31/26/16 32/27/16 
f 30/25/16 32/27/16 33/28/16 
f 30/25/16 33/28/16 20/15/16 
f 30/25/16 20/15/16 19/14/16 
f 30/25/16 19/14/16 34/29/16 
f 13/8/16 30/25/16 34/29/16 
f 14/9/16 13/8/16 34/29/16 
f 35/30/16 14/9/16 34/29/16 
f 35/30/16 34/29/16 26/21/1 
f 35/30/16 26/21/1 29/24/16 
f 35/31/4 35/30/16 29/24/16 
f 36/32/16 37/33/16 38/34/16 
f 38/34/16 39/35/16 36/32/16 
f 40/36/16 41/37/16 42/38/16 
f 42/38/16 43/39/16 40/36/16 
f 44/40/16 44/41/16 45/42/16 
f 45/42/16 46/43/16 47/44/16 
f 44/40/16 45/42/16 47/44/16 
f 48/45/16 49/46/16 50/47/16 
f 50/47/16 51/48/16 48/45/16 
f 52/49/16 53/50/16 54/51/16 
f 54/51/16 55/52/16 52/49/16 
f 56/53/16 57/54/16 58/55/16 
f 59/56/16 56/53/16 58/55/16 
f 60/57/16 59/56/16 58/55/16 
f 61/58/16 60/57/16 58/55/16 
f 62/59/16 63/60/16 18/13/16 
f 62/59/16 18/13/16 17/12/16 
f 62/59/16 17/12/16 64/61/16 
f 65/62/16 62/59/16 64/61/16 
f 32/27/16 59/56/16 60/57/16 
f 60/57/16 33/28/16 32/27/16 
f 66/63/16 67/64/16 52/49/16 
f 66/63/16 52/49/16 55/52/16 
f 68/65/16 66/63/16 55/52/16 
f 69/66/16 68/65/16 55/52/16 
f 70/67/16 69/66/16 55/52/16 
f 48/45/16 71/68/16 72/69/16 
f 49/46/16 48/45/16 72/69/16 
f 44/41/16 49/46/16 72/69/16 
f 45/42/16 44/41/16 72/69/16 
f 73/70/1 45/42/16 72/69/16 
f 53/50/16 74/71/16 75/72/16 
f 53/50/16 75/72/16 76/73/16 
f 53/50/16 76/73/16 77/74/16 
f 54/51/16 53/50/16 77/74/16 
f 54/75/1 54/51/16 77/74/16 
f 76/73/16 75/72/16 78/76/16 
f 78/76/16 79/77/16 76/73/16 
f 80/78/16 68/65/16 69/66/16 
f 69/66/16 81/79/16 80/78/16 
f 50/47/16 82/80/16 83/81/16 
f 51/48/16 50/47/16 83/81/16 
f 81/79/16 51/48/16 83/81/16 
f 80/78/16 81/79/16 83/81/16 
f 84/82/16 80/78/16 83/81/16 
f 83/81/16 85/83/16 86/84/16 
f 84/82/16 83/81/16 86/84/16 
f 87/85/16 84/82/16 86/84/16 
f 86/84/16 88/86/16 87/85/16 
f 89/87/16 90/88/16 91/89/16 
f 91/89/16 92/90/16 89/87/16 
f 47/91/16 47/44/16 46/43/16 
f 93/92/16 47/91/16 46/43/16 
f 78/76/16 94/93/16 95/94/16 
f 79/77/16 78/76/16 95/94/16 
f 46/43/16 79/77/16 95/94/16 
f 46/43/16 95/94/16 38/34/16 
f 46/43/16 38/34/16 37/33/16 
f 93/92/16 46/43/16 37/33/16 
f 96/95/1 97/96/16 98/97/16 
f 98/97/16 99/98/1 96/95/1 
f 27/22/16 100/99/16 36/32/16 
f 27/22/16 36/32/16 39/35/16 
f 27/22/16 39/35/16 101/100/16 
f 28/23/16 27/22/16 101/100/16 
f 102/101/16 28/23/16 101/100/16 
f 101/100/16 103/102/16 91/89/16 
f 101/100/16 91/89/16 90/88/16 
f 102/101/16 101/100/16 90/88/16 
f 104/103/1 105/104/16 106/105/16 
f 104/106/16 104/103/1 106/105/16 
f 40/36/16 104/106/16 106/105/16 
f 41/37/16 40/36/16 106/105/16 
f 107/107/16 41/37/16 106/105/16 
f 107/107/16 106/105/16 96/95/1 
f 107/107/16 96/95/1 99/98/1 
f 107/108/1 107/107/16 99/98/1 
f 89/87/16 92/90/16 108/109/16 
f 89/87/16 108/109/16 109/110/16 
f 89/87/16 109/110/16 110/111/16 
f 89/87/16 110/111/16 111/112/16 
f 89/87/16 111/112/16 98/97/16 
f 89/87/16 98/97/16 97/96/16 
f 112/113/16 89/87/16 97/96/16 
f 110/111/16 109/110/16 25/20/16 
f 110/111/16 25/20/16 24/19/16 
f 110/111/16 24/19/16 24/114/16 
f 22/17/16 113/115/16 114/116/16 
f 114/116/16 23/18/16 22/17/16 
f 115/117/16 116/118/16 117/119/16 
f 117/119/16 118/120/16 115/117/16 
f 119/121/16 120/122/16 121/123/16 
f 121/123/16 122/124/16 119/121/16 
f 123/125/16 124/126/16 125/127/16 
f 125/127/16 126/128/16 123/125/16 
f 127/129/16 128/130/16 129/131/16 
f 129/131/16 130/132/16 127/129/16 
f 131/133/16 132/134/16 133/135/16 
f 134/136/16 131/133/16 133/135/16 
f 135/137/16 134/136/16 133/135/16 
f 135/137/16 133/135/16 136/138/16 
f 135/137/16 136/138/16 43/39/16 
f 135/137/16 43/39/16 42/38/16 
f 135/137/16 42/38/16 137/139/16 
f 137/139/16 138/140/16 126/128/16 
f 137/139/16 126/128/16 125/127/16 
f 135/137/16 137/139/16 125/127/16 
f 117/119/16 139/141/16 124/126/16 
f 117/119/16 124/126/16 123/125/16 
f 117/119/16 123/125/16 140/142/16 
f 118/120/16 117/119/16 140/142/16 
f 141/143/16 118/120/16 140/142/16 
f 141/143/16 140/142/16 127/129/16 
f 141/143/16 127/129/16 130/132/16 
f 142/144/16 141/143/16 130/132/16 
f 114/116/16 113/115/16 143/145/16 
f 114/146/16 114/116/16 143/145/16 
f 114/146/16 143/145/16 129/131/16 
f 114/146/16 129/131/16 128/130/16 
f 144/147/16 114/146/16 128/130/16 
f 145/148/16 146/149/1 147/150/1 
f 147/150/1 148/151/16 145/148/16 
f 149/152/16 150/153/16 122/124/16 
f 149/152/16 122/124/16 121/123/16 
f 149/152/16 121/123/16 151/154/16 
f 115/117/16 149/152/16 151/154/16 
f 116/118/16 115/117/16 151/154/16 
f 116/118/16 151/154/16 145/148/16 
f 116/118/16 145/148/16 148/151/16 
f 152/155/16 116/118/16 148/151/16 
f 15/10/16 153/156/16 154/157/16 
f 16/11/16 15/10/16 154/157/16 
f 155/158/16 16/11/16 154/157/16 
f 155/158/16 154/157/16 156/159/16 
f 155/158/16 156/159/16 157/160/16 
f 158/161/16 155/158/16 157/160/16 
f 158/161/16 157/160/16 147/150/1 
f 158/161/16 147/150/1 146/149/1 
f 159/162/1 158/161/16 146/149/1 
f 156/159/16 154/157/16 131/133/16 
f 131/133/16 134/136/16 156/159/16 
f 160/163/16 155/158/16 158/161/16 
f 158/161/16 161/164/16 160/163/16 
f 107/107/16 162/165/16 137/139/16 
f 107/107/16 137/139/16 42/38/16 
f 41/37/16 107/107/16 42/38/16 
f 43/39/16 136/138/16 104/106/16 
f 104/106/16 40/36/16 43/39/16 
f 163/166/16 87/85/16 88/86/16 
f 163/166/16 88/86/16 164/167/16 
f 165/168/16 163/166/16 164/167/16 
f 166/169/16 167/170/16 160/163/16 
f 166/169/16 160/163/16 161/164/16 
f 166/169/16 161/164/16 120/122/16 
f 166/169/16 120/122/16 119/121/16 
f 166/169/16 119/121/16 119/171/16 
# 190 faces

