# 3ds Max Wavefront OBJ Exporter v0.97b - (c)2007 guruware
# File Created: 02.11.2013 17:06:14

mtllib BackBalcony.mtl

#
# object Box011
#

v  2100.3127 129.9213 -3412.4014
v  2100.3127 141.7323 -3412.4014
v  2198.7390 141.7323 -3412.4016
v  2198.7390 129.9213 -3412.4016
v  2198.7412 141.7323 -2723.4253
v  2198.7412 129.9213 -2723.4253
v  2100.3149 129.9213 -2723.4248
v  2100.3137 129.9213 -3313.9763
v  2100.3149 141.7323 -2723.4248
v  2100.3137 141.7323 -3313.9763
# 10 vertices

vn -0.0000 0.0000 -1.0000
vn 1.0000 0.0000 -0.0000
vn 0.0000 -1.0000 -0.0000
vn -1.0000 0.0000 0.0000
vn 0.0000 1.0000 -0.0000
# 5 vertex normals

vt 0.5938 0.5000 0.0000
vt 0.6250 0.5000 0.0000
vt -0.1250 -3.8750 0.5000
vt 1.1250 -3.8750 0.5000
vt 1.1250 4.8750 0.5000
vt -0.1250 4.8750 0.5000
vt -0.1250 3.6250 0.5000
# 7 texture coords

g Box011
usemtl 01___Default
s off
f 1/1/1 2/1/1 3/2/1 
f 3/2/1 4/2/1 1/1/1 
f 5/2/2 6/2/2 4/2/2 
f 4/2/2 3/2/2 5/2/2 
f 6/2/3 7/1/3 8/1/3 
f 6/2/3 8/1/3 1/1/3 
f 6/2/3 1/1/3 4/2/3 
f 9/1/4 10/1/4 8/1/4 
f 8/1/4 7/1/4 9/1/4 
f 9/3/5 5/4/5 3/5/5 
f 3/5/5 2/6/5 10/7/5 
f 9/3/5 3/5/5 10/7/5 
# 12 faces

