# 3ds Max Wavefront OBJ Exporter v0.97b - (c)2007 guruware
# File Created: 06.11.2013 04:07:07

mtllib BathroomWall_3.mtl

#
# object Box011
#

v  1671.1812 129.9213 -2613.1890
v  1663.3071 129.9213 -2613.1890
v  1663.3071 129.9213 -2550.1191
v  1671.1812 129.9213 -2550.1191
v  1671.1812 11.8110 -2613.1890
v  1663.3071 11.8110 -2613.1890
v  1663.3071 11.8110 -2550.1191
v  1671.1812 11.8110 -2550.1191
# 8 vertices

vn 0.0000 1.0000 -0.0000
vn 0.0000 0.0000 -1.0000
vn -1.0000 0.0000 -0.0000
vn 0.0000 0.0000 1.0000
vn 1.0000 0.0000 -0.0000
# 5 vertex normals

vt 0.5500 0.9005 1.2500
vt 0.4500 0.9005 1.2500
vt 0.4500 0.0995 1.2500
vt 0.5500 0.0995 1.2500
vt 0.4500 -0.2500 0.9005
vt 0.5500 -0.2500 0.9005
vt 0.5500 1.2500 0.9005
vt 0.4500 1.2500 0.9005
vt 0.0995 -0.2500 0.4500
vt 0.9005 -0.2500 0.4500
vt 0.9005 1.2500 0.4500
vt 0.0995 1.2500 0.4500
vt 0.4500 -0.2500 0.0995
vt 0.5500 -0.2500 0.0995
vt 0.5500 1.2500 0.0995
vt 0.4500 1.2500 0.0995
vt 0.0995 -0.2500 0.5500
vt 0.9005 -0.2500 0.5500
vt 0.9005 1.2500 0.5500
vt 0.0995 1.2500 0.5500
# 20 texture coords

g Box011
usemtl 04___Default
s 4
f 1/1/1 2/2/1 3/3/1 
f 3/3/1 4/4/1 1/1/1 
s off
f 5/5/2 6/6/2 2/7/2 
f 2/7/2 1/8/2 5/5/2 
f 6/9/3 7/10/3 3/11/3 
f 3/11/3 2/12/3 6/9/3 
f 7/13/4 8/14/4 4/15/4 
f 4/15/4 3/16/4 7/13/4 
f 8/17/5 5/18/5 1/19/5 
f 1/19/5 4/20/5 8/17/5 
# 10 faces

#
# object Box016
#

#
# object Box016
#

#
# object Box022
#

