# 3ds Max Wavefront OBJ Exporter v0.97b - (c)2007 guruware
# File Created: 03.11.2013 16:39:52

mtllib BathroomBench.mtl

#
# object Box011
#

v  1411.3386 11.8110 -2491.3813
v  1411.3386 11.8110 -2436.0239
v  1411.3386 39.3701 -2436.0239
v  1411.3386 39.3701 -2491.3813
v  1716.1521 11.8110 -2436.0239
v  1716.1521 39.3701 -2436.0239
v  1716.1521 11.8110 -2491.3813
v  1716.1521 39.3701 -2491.3813
v  1671.1812 11.8110 -2491.3813
v  1671.1812 39.3701 -2491.3813
v  1663.3071 11.8110 -2491.3813
v  1663.3071 39.3701 -2491.3813
v  1584.5669 11.8110 -2491.3813
v  1584.5669 39.3701 -2491.3813
v  1576.6929 11.8110 -2491.3813
v  1576.6929 39.3701 -2491.3813
v  1497.9529 11.8110 -2491.3813
v  1497.9529 39.3701 -2491.3813
v  1490.0787 11.8110 -2491.3813
v  1490.0787 39.3701 -2491.3813
# 20 vertices

vn -1.0000 0.0000 -0.0000
vn 0.0000 0.0000 1.0000
vn 1.0000 0.0000 -0.0000
vn 0.0000 0.0000 -1.0000
# 4 vertex normals

vt 0.0005 0.2513 -0.5033
vt 0.0005 0.2513 1.5033
vt 0.0005 0.7487 1.5033
vt 0.0005 0.7487 -0.5033
vt 0.9995 0.2513 1.5033
vt 0.9995 0.7487 1.5033
vt 0.9995 0.2513 -0.5033
vt 0.9995 0.7487 -0.5033
vt 0.8521 0.2513 -0.5033
vt 0.8521 0.7487 -0.5033
vt 0.8263 0.2513 -0.5033
vt 0.8263 0.7487 -0.5033
vt 0.5682 0.2513 -0.5033
vt 0.5682 0.7487 -0.5033
vt 0.5424 0.2513 -0.5033
vt 0.5424 0.7487 -0.5033
vt 0.2844 0.2513 -0.5033
vt 0.2844 0.7487 -0.5033
vt 0.2586 0.2513 -0.5033
vt 0.2586 0.7487 -0.5033
# 20 texture coords

g Box011
usemtl 03___Default
s off
f 1/1/1 2/2/1 3/3/1 
f 3/3/1 4/4/1 1/1/1 
f 2/2/2 5/5/2 6/6/2 
f 6/6/2 3/3/2 2/2/2 
f 5/5/3 7/7/3 8/8/3 
f 8/8/3 6/6/3 5/5/3 
f 7/7/4 9/9/4 10/10/4 
f 10/10/4 8/8/4 7/7/4 
f 9/9/4 11/11/4 12/12/4 
f 12/12/4 10/10/4 9/9/4 
f 11/11/4 13/13/4 14/14/4 
f 14/14/4 12/12/4 11/11/4 
f 13/13/4 15/15/4 16/16/4 
f 16/16/4 14/14/4 13/13/4 
f 15/15/4 17/17/4 18/18/4 
f 18/18/4 16/16/4 15/15/4 
f 17/17/4 19/19/4 20/20/4 
f 20/20/4 18/18/4 17/17/4 
f 19/19/4 1/1/4 4/4/4 
f 4/4/4 20/20/4 19/19/4 
# 20 faces

#
# object Box016
#

#
# object Box016
#

#
# object Box022
#

