# 3ds Max Wavefront OBJ Exporter v0.97b - (c)2007 guruware
# File Created: 03.11.2013 18:40:00

mtllib Door_05.mtl

#
# object Box281
#

v  2210.5410 11.3175 -3017.2461
v  2209.5725 11.3175 -3017.2461
v  2209.5723 11.3175 -3076.3013
v  2210.5408 11.3175 -3076.3013
v  2210.5410 129.4277 -3017.2461
v  2210.5408 129.4277 -3076.3013
v  2209.5723 129.4277 -3076.3013
v  2209.5725 129.4277 -3017.2461
v  2208.5723 12.3175 -3075.3013
v  2208.5725 12.3175 -3018.2461
v  2208.5725 128.4277 -3018.2461
v  2208.5723 128.4277 -3075.3013
# 12 vertices

vn 0.0000 -1.0000 -0.0000
vn 0.0000 1.0000 -0.0000
vn 1.0000 0.0000 -0.0000
vn -0.0000 0.0000 -1.0000
vn -1.0000 0.0000 0.0000
vn 0.0000 0.0000 1.0000
vn -0.7071 -0.7071 0.0000
vn -0.7071 0.7071 0.0000
vn -0.7071 0.0000 -0.7071
vn -0.7071 0.0000 0.7071
# 10 vertex normals

vt 1.0000 0.0000 0.0000
vt 1.0000 0.4920 0.0000
vt 0.0000 0.4920 0.0000
vt 0.0000 0.0000 0.0000
vt 1.0000 1.0000 0.0000
vt 0.0000 1.0000 0.0000
vt 0.4920 0.0000 0.0000
vt 0.4920 1.0000 0.0000
vt 0.0169 0.0085 0.0000
vt 0.9831 0.0085 0.0000
vt 0.9831 0.9915 0.0000
vt 0.0169 0.9915 0.0000
vt 0.5080 0.0000 0.0000
vt 0.5080 1.0000 0.0000
vt 1.0000 -0.1800 0.0000
vt 0.0000 -0.1800 0.0000
vt 0.0000 1.1800 0.0000
vt 1.0000 1.1800 0.0000
vt 0.1794 -0.0000 0.0000
vt 0.1794 1.0000 0.0000
vt 0.0155 0.0085 0.0000
vt 0.0155 0.9915 0.0000
# 22 texture coords

g Box281
usemtl Material__6
s 2
f 1/1/1 2/2/1 3/3/1 
f 3/3/1 4/4/1 1/1/1 
s 4
f 5/4/2 6/1/2 7/2/2 
f 7/2/2 8/3/2 5/4/2 
s 8
f 1/4/3 4/1/3 6/5/3 
f 6/5/3 5/6/3 1/4/3 
s 16
f 4/4/4 3/7/4 7/8/4 
f 7/8/4 6/6/4 4/4/4 
s 32
f 9/9/5 10/10/5 11/11/5 
f 11/11/5 12/12/5 9/9/5 
s 64
f 2/13/6 1/1/6 5/5/6 
f 5/5/6 8/14/6 2/13/6 
s off
f 2/15/7 10/10/7 9/9/7 
f 9/9/7 3/16/7 2/15/7 
f 7/17/8 12/12/8 11/11/8 
f 11/11/8 8/18/8 7/17/8 
f 3/19/9 9/9/9 12/12/9 
f 12/12/9 7/20/9 3/19/9 
f 10/21/10 2/13/10 8/14/10 
f 8/14/10 11/22/10 10/21/10 
# 20 faces

#
# object Box282
#

v  2205.2710 57.6474 -3023.2881
v  2203.8237 57.6474 -3023.2881
v  2203.8237 57.6474 -3033.7144
v  2205.2710 57.6474 -3033.7144
v  2205.2710 57.6474 -3024.8865
v  2205.2710 59.4240 -3024.8865
v  2205.2710 59.4240 -3033.7144
v  2203.8237 59.4240 -3033.7144
v  2205.2710 59.4240 -3023.2881
v  2203.8237 59.4240 -3023.2881
v  2208.7373 56.5738 -3025.9602
v  2208.7373 60.4976 -3025.9602
v  2208.7373 60.4976 -3022.2144
v  2208.7373 56.5738 -3022.2144
v  2207.6333 59.4240 -3023.2881
v  2207.6333 59.4240 -3024.8865
v  2207.6333 57.6474 -3023.2881
v  2207.6333 57.6474 -3024.8865
# 18 vertices

vn 0.0000 -1.0000 -0.0000
vn 0.0000 1.0000 -0.0000
vn 1.0000 0.0000 -0.0000
vn -0.0000 0.0000 -1.0000
vn -1.0000 0.0000 0.0000
vn 0.0000 0.0000 1.0000
vn -0.6971 0.7169 0.0000
vn -0.6971 0.0000 0.7169
vn -0.6971 -0.7169 0.0000
vn -0.6971 0.0000 -0.7169
# 10 vertex normals

vt 1.0000 0.0000 0.0000
vt 1.0000 1.0000 0.0000
vt 0.0000 1.0000 0.0000
vt 0.0000 0.0000 0.0000
vt 0.5000 0.0000 0.0000
vt 0.5000 1.0000 0.0000
# 6 texture coords

g Box282
usemtl Material__5
s 2
f 13/23/11 14/24/11 15/25/11 
f 15/25/11 16/26/11 17/27/11 
f 13/23/11 15/25/11 17/27/11 
s 4
f 18/27/12 19/23/12 20/24/12 
f 21/26/12 18/27/12 20/24/12 
f 21/26/12 20/24/12 22/25/12 
s 8
f 23/27/13 24/28/13 25/25/13 
f 25/25/13 26/26/13 23/27/13 
s 16
f 16/26/14 15/23/14 20/24/14 
f 20/24/14 19/25/14 16/26/14 
s 32
f 15/26/15 14/23/15 22/24/15 
f 22/24/15 20/25/15 15/26/15 
s 64
f 14/26/16 13/23/16 21/24/16 
f 21/24/16 22/25/16 14/26/16 
s 8
f 16/23/13 19/24/13 18/28/13 
f 18/28/13 17/27/13 16/23/13 
s off
f 18/27/12 21/26/12 27/25/12 
f 27/25/12 28/28/12 18/27/12 
f 21/24/16 13/23/16 29/26/16 
f 29/26/16 27/25/16 21/24/16 
f 13/23/11 17/27/11 30/27/11 
f 30/27/11 29/26/11 13/23/11 
f 17/27/14 18/28/14 28/28/14 
f 28/28/14 30/27/14 17/27/14 
f 28/28/17 27/25/17 25/25/17 
f 25/25/17 24/28/17 28/28/17 
f 27/25/18 29/26/18 26/26/18 
f 26/26/18 25/25/18 27/25/18 
f 29/26/19 30/27/19 23/27/19 
f 23/27/19 26/26/19 29/26/19 
f 30/27/20 28/28/20 24/28/20 
f 24/28/20 23/27/20 30/27/20 
# 32 faces

#
# object Box283
#

v  2205.2710 59.5756 -3011.3013
v  2203.8237 59.5756 -3011.3013
v  2203.8237 59.5756 -3000.8750
v  2205.2710 59.5756 -3000.8750
v  2205.2710 59.5756 -3009.7029
v  2205.2710 57.7990 -3009.7029
v  2205.2710 57.7990 -3000.8750
v  2203.8237 57.7990 -3000.8750
v  2205.2710 57.7990 -3011.3015
v  2203.8237 57.7990 -3011.3015
v  2208.7373 60.6492 -3008.6292
v  2208.7373 56.7254 -3008.6292
v  2208.7373 56.7254 -3012.3750
v  2208.7373 60.6492 -3012.3750
v  2207.6333 57.7990 -3011.3015
v  2207.6333 57.7990 -3009.7029
v  2207.6333 59.5756 -3011.3013
v  2207.6333 59.5756 -3009.7029
# 18 vertices

vn 0.0000 1.0000 0.0000
vn -0.0000 -1.0000 -0.0000
vn 1.0000 0.0000 -0.0000
vn 0.0000 -0.0000 1.0000
vn -1.0000 0.0000 0.0000
vn -0.0000 0.0000 -1.0000
vn -0.6971 -0.7169 -0.0000
vn -0.6971 0.0000 -0.7169
vn -0.6971 0.7169 0.0000
vn -0.6971 -0.0000 0.7169
# 10 vertex normals

vt 1.0000 0.0000 0.0000
vt 1.0000 1.0000 0.0000
vt 0.0000 1.0000 0.0000
vt 0.0000 0.0000 0.0000
vt 0.5000 0.0000 0.0000
vt 0.5000 1.0000 0.0000
# 6 texture coords

g Box283
usemtl Material__4
s 2
f 31/29/21 32/30/21 33/31/21 
f 33/31/21 34/32/21 35/33/21 
f 31/29/21 33/31/21 35/33/21 
s 4
f 36/33/22 37/29/22 38/30/22 
f 39/32/22 36/33/22 38/30/22 
f 39/32/22 38/30/22 40/31/22 
s 8
f 41/33/23 42/34/23 43/31/23 
f 43/31/23 44/32/23 41/33/23 
s 16
f 34/32/24 33/29/24 38/30/24 
f 38/30/24 37/31/24 34/32/24 
s 32
f 33/32/25 32/29/25 40/30/25 
f 40/30/25 38/31/25 33/32/25 
s 64
f 32/32/26 31/29/26 39/30/26 
f 39/30/26 40/31/26 32/32/26 
s 8
f 34/29/23 37/30/23 36/34/23 
f 36/34/23 35/33/23 34/29/23 
s off
f 36/33/22 39/32/22 45/31/22 
f 45/31/22 46/34/22 36/33/22 
f 39/30/26 31/29/26 47/32/26 
f 47/32/26 45/31/26 39/30/26 
f 31/29/21 35/33/21 48/33/21 
f 48/33/21 47/32/21 31/29/21 
f 35/33/24 36/34/24 46/34/24 
f 46/34/24 48/33/24 35/33/24 
f 46/34/27 45/31/27 43/31/27 
f 43/31/27 42/34/27 46/34/27 
f 45/31/28 47/32/28 44/32/28 
f 44/32/28 43/31/28 45/31/28 
f 47/32/29 48/33/29 41/33/29 
f 41/33/29 44/32/29 47/32/29 
f 48/33/30 46/34/30 42/34/30 
f 42/34/30 41/33/30 48/33/30 
# 32 faces

#
# object Box284
#

v  2210.5410 11.3175 -2958.2529
v  2209.5725 11.3175 -2958.2529
v  2209.5723 11.3175 -3017.3081
v  2210.5408 11.3175 -3017.3081
v  2210.5410 129.4277 -2958.2529
v  2210.5408 129.4277 -3017.3081
v  2209.5723 129.4277 -3017.3081
v  2209.5725 129.4277 -2958.2529
v  2208.5723 12.3175 -3016.3081
v  2208.5725 12.3175 -2959.2529
v  2208.5725 128.4277 -2959.2529
v  2208.5723 128.4277 -3016.3081
# 12 vertices

vn 0.0000 -1.0000 -0.0000
vn 0.0000 1.0000 -0.0000
vn 1.0000 0.0000 -0.0000
vn -0.0000 0.0000 -1.0000
vn -1.0000 0.0000 0.0000
vn 0.0000 0.0000 1.0000
vn -0.7071 -0.7071 0.0000
vn -0.7071 0.7071 0.0000
vn -0.7071 0.0000 -0.7071
vn -0.7071 0.0000 0.7071
# 10 vertex normals

vt 1.0000 0.0000 0.0000
vt 1.0000 0.4920 0.0000
vt 0.0000 0.4920 0.0000
vt 0.0000 0.0000 0.0000
vt 1.0000 1.0000 0.0000
vt 0.0000 1.0000 0.0000
vt 0.4920 0.0000 0.0000
vt 0.4920 1.0000 0.0000
vt 0.0169 0.0085 0.0000
vt 0.9831 0.0085 0.0000
vt 0.9831 0.9915 0.0000
vt 0.0169 0.9915 0.0000
vt 0.5080 0.0000 0.0000
vt 0.5080 1.0000 0.0000
vt 1.0000 -0.1800 0.0000
vt 0.0000 -0.1800 0.0000
vt 0.0000 1.1800 0.0000
vt 1.0000 1.1800 0.0000
vt 0.1794 -0.0000 0.0000
vt 0.1794 1.0000 0.0000
vt 0.0155 0.0085 0.0000
vt 0.0155 0.9915 0.0000
# 22 texture coords

g Box284
usemtl Material__3
s 2
f 49/35/31 50/36/31 51/37/31 
f 51/37/31 52/38/31 49/35/31 
s 4
f 53/38/32 54/35/32 55/36/32 
f 55/36/32 56/37/32 53/38/32 
s 8
f 49/38/33 52/35/33 54/39/33 
f 54/39/33 53/40/33 49/38/33 
s 16
f 52/38/34 51/41/34 55/42/34 
f 55/42/34 54/40/34 52/38/34 
s 32
f 57/43/35 58/44/35 59/45/35 
f 59/45/35 60/46/35 57/43/35 
s 64
f 50/47/36 49/35/36 53/39/36 
f 53/39/36 56/48/36 50/47/36 
s off
f 50/49/37 58/44/37 57/43/37 
f 57/43/37 51/50/37 50/49/37 
f 55/51/38 60/46/38 59/45/38 
f 59/45/38 56/52/38 55/51/38 
f 51/53/39 57/43/39 60/46/39 
f 60/46/39 55/54/39 51/53/39 
f 58/55/40 50/47/40 56/48/40 
f 56/48/40 59/56/40 58/55/40 
# 20 faces

#
# object Box285
#

v  2213.6960 59.5756 -3023.2881
v  2215.1433 59.5756 -3023.2881
v  2215.1433 59.5756 -3033.7144
v  2213.6960 59.5756 -3033.7144
v  2213.6960 59.5756 -3024.8865
v  2213.6960 57.7990 -3024.8865
v  2213.6960 57.7990 -3033.7144
v  2215.1433 57.7990 -3033.7144
v  2213.6960 57.7990 -3023.2878
v  2215.1433 57.7990 -3023.2878
v  2210.2297 60.6492 -3025.9602
v  2210.2297 56.7254 -3025.9602
v  2210.2297 56.7254 -3022.2144
v  2210.2297 60.6492 -3022.2144
v  2211.3337 57.7990 -3023.2878
v  2211.3337 57.7990 -3024.8865
v  2211.3337 59.5756 -3023.2878
v  2211.3337 59.5756 -3024.8865
# 18 vertices

vn -0.0000 1.0000 -0.0000
vn 0.0000 -1.0000 0.0000
vn -1.0000 0.0000 0.0000
vn -0.0000 -0.0000 -1.0000
vn 1.0000 0.0000 -0.0000
vn 0.0000 0.0000 1.0000
vn 0.6971 -0.7169 -0.0000
vn 0.6971 0.0000 0.7169
vn 0.6971 0.7169 -0.0000
vn 0.6971 -0.0000 -0.7169
# 10 vertex normals

vt 1.0000 0.0000 0.0000
vt 1.0000 1.0000 0.0000
vt 0.0000 1.0000 0.0000
vt 0.0000 0.0000 0.0000
vt 0.5000 0.0000 0.0000
vt 0.5000 1.0000 0.0000
# 6 texture coords

g Box285
usemtl Material__4
s 2
f 61/57/41 62/58/41 63/59/41 
f 63/59/41 64/60/41 65/61/41 
f 61/57/41 63/59/41 65/61/41 
s 4
f 66/61/42 67/57/42 68/58/42 
f 69/60/42 66/61/42 68/58/42 
f 69/60/42 68/58/42 70/59/42 
s 8
f 71/61/43 72/62/43 73/59/43 
f 73/59/43 74/60/43 71/61/43 
s 16
f 64/60/44 63/57/44 68/58/44 
f 68/58/44 67/59/44 64/60/44 
s 32
f 63/60/45 62/57/45 70/58/45 
f 70/58/45 68/59/45 63/60/45 
s 64
f 62/60/46 61/57/46 69/58/46 
f 69/58/46 70/59/46 62/60/46 
s 8
f 64/57/43 67/58/43 66/62/43 
f 66/62/43 65/61/43 64/57/43 
s off
f 66/61/42 69/60/42 75/59/42 
f 75/59/42 76/62/42 66/61/42 
f 69/58/46 61/57/46 77/60/46 
f 77/60/46 75/59/46 69/58/46 
f 61/57/41 65/61/41 78/61/41 
f 78/61/41 77/60/41 61/57/41 
f 65/61/44 66/62/44 76/62/44 
f 76/62/44 78/61/44 65/61/44 
f 76/62/47 75/59/47 73/59/47 
f 73/59/47 72/62/47 76/62/47 
f 75/59/48 77/60/48 74/60/48 
f 74/60/48 73/59/48 75/59/48 
f 77/60/49 78/61/49 71/61/49 
f 71/61/49 74/60/49 77/60/49 
f 78/61/50 76/62/50 72/62/50 
f 72/62/50 71/61/50 78/61/50 
# 32 faces

#
# object Box286
#

v  2213.6960 57.6474 -3011.3013
v  2215.1433 57.6474 -3011.3013
v  2215.1433 57.6474 -3000.8750
v  2213.6960 57.6474 -3000.8750
v  2213.6960 57.6474 -3009.7029
v  2213.6960 59.4240 -3009.7029
v  2213.6960 59.4240 -3000.8750
v  2215.1433 59.4240 -3000.8750
v  2213.6960 59.4240 -3011.3013
v  2215.1433 59.4240 -3011.3013
v  2210.2297 56.5738 -3008.6292
v  2210.2297 60.4976 -3008.6292
v  2210.2297 60.4976 -3012.3750
v  2210.2297 56.5738 -3012.3750
v  2211.3337 59.4240 -3011.3013
v  2211.3337 59.4240 -3009.7029
v  2211.3337 57.6474 -3011.3013
v  2211.3337 57.6474 -3009.7029
# 18 vertices

vn 0.0000 -1.0000 -0.0000
vn 0.0000 1.0000 -0.0000
vn -1.0000 0.0000 0.0000
vn 0.0000 0.0000 1.0000
vn 1.0000 0.0000 -0.0000
vn -0.0000 0.0000 -1.0000
vn 0.6971 0.7169 -0.0000
vn 0.6971 0.0000 -0.7169
vn 0.6971 -0.7169 -0.0000
vn 0.6971 0.0000 0.7169
# 10 vertex normals

vt 1.0000 0.0000 0.0000
vt 1.0000 1.0000 0.0000
vt 0.0000 1.0000 0.0000
vt 0.0000 0.0000 0.0000
vt 0.5000 0.0000 0.0000
vt 0.5000 1.0000 0.0000
# 6 texture coords

g Box286
usemtl Material__5
s 2
f 79/63/51 80/64/51 81/65/51 
f 81/65/51 82/66/51 83/67/51 
f 79/63/51 81/65/51 83/67/51 
s 4
f 84/67/52 85/63/52 86/64/52 
f 87/66/52 84/67/52 86/64/52 
f 87/66/52 86/64/52 88/65/52 
s 8
f 89/67/53 90/68/53 91/65/53 
f 91/65/53 92/66/53 89/67/53 
s 16
f 82/66/54 81/63/54 86/64/54 
f 86/64/54 85/65/54 82/66/54 
s 32
f 81/66/55 80/63/55 88/64/55 
f 88/64/55 86/65/55 81/66/55 
s 64
f 80/66/56 79/63/56 87/64/56 
f 87/64/56 88/65/56 80/66/56 
s 8
f 82/63/53 85/64/53 84/68/53 
f 84/68/53 83/67/53 82/63/53 
s off
f 84/67/52 87/66/52 93/65/52 
f 93/65/52 94/68/52 84/67/52 
f 87/64/56 79/63/56 95/66/56 
f 95/66/56 93/65/56 87/64/56 
f 79/63/51 83/67/51 96/67/51 
f 96/67/51 95/66/51 79/63/51 
f 83/67/54 84/68/54 94/68/54 
f 94/68/54 96/67/54 83/67/54 
f 94/68/57 93/65/57 91/65/57 
f 91/65/57 90/68/57 94/68/57 
f 93/65/58 95/66/58 92/66/58 
f 92/66/58 91/65/58 93/65/58 
f 95/66/59 96/67/59 89/67/59 
f 89/67/59 92/66/59 95/66/59 
f 96/67/60 94/68/60 90/68/60 
f 90/68/60 89/67/60 96/67/60 
# 32 faces

