# 3ds Max Wavefront OBJ Exporter v0.97b - (c)2007 guruware
# File Created: 04.10.2013 17:55:45

mtllib fstStair2.mtl

#
# object Box011
#

v  1411.3386 76.7717 -3940.6497
v  1529.4490 76.7717 -3940.6497
v  1529.4490 76.7717 -3955.9351
v  1411.3386 76.7717 -3955.9351
v  1411.3386 17.7165 -3787.7954
v  1529.4490 17.7165 -3787.7954
v  1529.4490 17.7165 -3803.0808
v  1411.3386 17.7165 -3803.0811
v  1411.3386 23.6220 -3803.0811
v  1529.4490 23.6220 -3803.0808
v  1529.4490 23.6220 -3818.3662
v  1411.3386 23.6220 -3818.3662
v  1411.3386 29.5276 -3818.3662
v  1529.4490 29.5276 -3818.3662
v  1529.4490 29.5276 -3833.6516
v  1411.3386 29.5276 -3833.6519
v  1411.3386 35.4331 -3833.6519
v  1529.4490 35.4331 -3833.6516
v  1529.4490 35.4331 -3848.9370
v  1411.3386 35.4331 -3848.9370
v  1411.3386 41.3386 -3848.9370
v  1529.4490 41.3386 -3848.9370
v  1529.4490 41.3386 -3864.2224
v  1411.3386 41.3386 -3864.2227
v  1411.3386 47.2441 -3864.2227
v  1529.4490 47.2441 -3864.2224
v  1529.4490 47.2441 -3879.5078
v  1411.3386 47.2441 -3879.5081
v  1411.3386 53.1496 -3879.5081
v  1529.4490 53.1496 -3879.5078
v  1529.4490 53.1496 -3894.7935
v  1411.3386 53.1496 -3894.7935
v  1411.3386 59.0551 -3894.7935
v  1529.4490 59.0551 -3894.7935
v  1529.4490 59.0551 -3910.0786
v  1411.3386 59.0551 -3910.0789
v  1411.3386 64.9606 -3910.0789
v  1529.4490 64.9606 -3910.0786
v  1529.4490 64.9606 -3925.3643
v  1411.3386 64.9606 -3925.3643
v  1411.3386 70.8661 -3925.3643
v  1529.4490 70.8661 -3925.3643
v  1529.4490 70.8661 -3940.6497
v  1411.3386 70.8661 -3940.6497
v  1529.4490 129.9213 -4093.5039
v  1411.3386 129.9213 -4093.5039
v  1411.3386 129.9213 -4078.2185
v  1529.4490 129.9213 -4078.2185
v  1529.4490 124.0157 -4078.2185
v  1411.3386 124.0157 -4078.2185
v  1411.3386 124.0157 -4062.9331
v  1529.4490 124.0157 -4062.9331
v  1529.4490 118.1102 -4062.9331
v  1411.3386 118.1102 -4062.9331
v  1411.3386 118.1102 -4047.6477
v  1529.4490 118.1102 -4047.6475
v  1529.4490 112.2047 -4047.6475
v  1411.3386 112.2047 -4047.6477
v  1411.3386 112.2047 -4032.3623
v  1529.4490 112.2047 -4032.3623
v  1529.4490 106.2992 -4032.3623
v  1411.3386 106.2992 -4032.3623
v  1411.3386 106.2992 -4017.0767
v  1529.4490 106.2992 -4017.0767
v  1529.4490 100.3937 -4017.0767
v  1411.3386 100.3937 -4017.0767
v  1411.3386 100.3937 -4001.7915
v  1529.4490 100.3937 -4001.7913
v  1529.4490 94.4882 -4001.7913
v  1411.3386 94.4882 -4001.7915
v  1411.3386 94.4882 -3986.5059
v  1529.4490 94.4882 -3986.5059
v  1529.4490 88.5827 -3986.5059
v  1411.3386 88.5827 -3986.5059
v  1411.3386 88.5827 -3971.2205
v  1529.4490 88.5827 -3971.2205
v  1529.4490 82.6772 -3971.2205
v  1411.3386 82.6772 -3971.2205
v  1411.3386 82.6772 -3955.9351
v  1529.4490 82.6772 -3955.9351
v  1411.3386 11.8110 -3803.0811
v  1411.3386 11.8110 -3787.7954
v  1529.4490 11.8110 -3787.7954
v  1529.4490 11.8110 -3803.0808
v  1411.3386 11.8110 -3818.3662
v  1529.4490 11.8110 -3818.3662
v  1411.3386 11.8110 -3833.6519
v  1529.4490 11.8110 -3833.6516
v  1411.3386 11.8110 -3848.9370
v  1529.4490 11.8110 -3848.9370
v  1411.3386 11.8110 -3864.2227
v  1529.4490 11.8110 -3864.2224
v  1411.3386 11.8110 -3879.5081
v  1529.4490 11.8110 -3879.5078
v  1411.3386 11.8110 -3894.7935
v  1529.4490 11.8110 -3894.7935
v  1411.3386 11.8110 -3910.0789
v  1529.4490 11.8110 -3910.0786
v  1411.3386 11.8110 -3925.3643
v  1529.4490 11.8110 -3925.3643
v  1411.3386 11.8110 -3940.6497
v  1529.4490 11.8110 -3940.6497
v  1411.3386 11.8110 -3955.9351
v  1529.4490 11.8110 -3955.9351
v  1411.3386 11.8110 -3971.2205
v  1529.4490 11.8110 -3971.2205
v  1411.3386 11.8110 -3986.5059
v  1529.4490 11.8110 -3986.5059
v  1411.3386 11.8110 -4001.7915
v  1529.4490 11.8110 -4001.7913
v  1411.3386 11.8110 -4017.0767
v  1529.4490 11.8110 -4017.0767
v  1411.3386 11.8110 -4032.3623
v  1529.4490 11.8110 -4032.3623
v  1411.3386 11.8110 -4047.6477
v  1529.4490 11.8110 -4047.6475
v  1411.3386 11.8110 -4062.9331
v  1529.4490 11.8110 -4062.9331
v  1411.3386 11.8110 -4078.2185
v  1529.4490 11.8110 -4078.2185
v  1529.4490 11.8110 -4093.5039
v  1411.3386 11.8110 -4093.5039
# 122 vertices

vn 0.0000 1.0000 -0.0000
vn -1.0000 0.0000 -0.0000
vn -0.0000 0.0000 1.0000
vn 1.0000 0.0000 -0.0000
vn 0.0000 0.0000 -1.0000
vn 0.0000 0.0000 1.0000
# 6 vertex normals

vt 0.5000 0.7188 0.0000
vt 0.5074 0.7448 0.0000
vt 0.5074 0.7450 0.0000
vt 0.5000 0.7198 0.0000
vt 0.5000 0.7083 0.0000
vt 0.5075 0.7431 0.0000
vt 0.5075 0.7432 0.0000
vt 0.5000 0.7094 0.0000
vt 0.5075 0.7434 0.0000
vt 0.5000 0.7104 0.0000
vt 0.5075 0.7436 0.0000
vt 0.5000 0.7115 0.0000
vt 0.5075 0.7437 0.0000
vt 0.5000 0.7125 0.0000
vt 0.5075 0.7439 0.0000
vt 0.5000 0.7135 0.0000
vt 0.5074 0.7441 0.0000
vt 0.5000 0.7146 0.0000
vt 0.5074 0.7443 0.0000
vt 0.5000 0.7156 0.0000
vt 0.5074 0.7444 0.0000
vt 0.5000 0.7167 0.0000
vt 0.5074 0.7446 0.0000
vt 0.5000 0.7177 0.0000
vt 0.5072 0.7465 0.0000
vt 0.5000 0.7292 0.0000
vt 0.5000 0.7281 0.0000
vt 0.5072 0.7464 0.0000
vt 0.5000 0.7271 0.0000
vt 0.5073 0.7462 0.0000
vt 0.5000 0.7260 0.0000
vt 0.5073 0.7460 0.0000
vt 0.5000 0.7250 0.0000
vt 0.5073 0.7458 0.0000
vt 0.5000 0.7240 0.0000
vt 0.5073 0.7457 0.0000
vt 0.5000 0.7229 0.0000
vt 0.5073 0.7455 0.0000
vt 0.5000 0.7219 0.0000
vt 0.5073 0.7453 0.0000
vt 0.5000 0.7208 0.0000
vt 0.5073 0.7451 0.0000
# 42 texture coords

g Box011
usemtl wire_177088027
s 4
f 1/1/1 2/2/1 3/3/1 
f 3/3/1 4/4/1 1/1/1 
f 5/5/1 6/6/1 7/7/1 
f 7/7/1 8/8/1 5/5/1 
f 9/8/1 10/7/1 11/9/1 
f 11/9/1 12/10/1 9/8/1 
f 13/10/1 14/9/1 15/11/1 
f 15/11/1 16/12/1 13/10/1 
f 17/12/1 18/11/1 19/13/1 
f 19/13/1 20/14/1 17/12/1 
f 21/14/1 22/13/1 23/15/1 
f 23/15/1 24/16/1 21/14/1 
f 25/16/1 26/15/1 27/17/1 
f 27/17/1 28/18/1 25/16/1 
f 29/18/1 30/17/1 31/19/1 
f 31/19/1 32/20/1 29/18/1 
f 33/20/1 34/19/1 35/21/1 
f 35/21/1 36/22/1 33/20/1 
f 37/22/1 38/21/1 39/23/1 
f 39/23/1 40/24/1 37/22/1 
f 41/24/1 42/23/1 43/2/1 
f 43/2/1 44/1/1 41/24/1 
f 45/25/1 46/26/1 47/27/1 
f 47/27/1 48/28/1 45/25/1 
f 49/28/1 50/27/1 51/29/1 
f 51/29/1 52/30/1 49/28/1 
f 53/30/1 54/29/1 55/31/1 
f 55/31/1 56/32/1 53/30/1 
f 57/32/1 58/31/1 59/33/1 
f 59/33/1 60/34/1 57/32/1 
f 61/34/1 62/33/1 63/35/1 
f 63/35/1 64/36/1 61/34/1 
f 65/36/1 66/35/1 67/37/1 
f 67/37/1 68/38/1 65/36/1 
f 69/38/1 70/37/1 71/39/1 
f 71/39/1 72/40/1 69/38/1 
f 73/40/1 74/39/1 75/41/1 
f 75/41/1 76/42/1 73/40/1 
f 77/42/1 78/41/1 79/4/1 
f 79/4/1 80/3/1 77/42/1 
s off
f 81/8/2 82/5/2 5/5/2 
f 5/5/2 8/8/2 81/8/2 
f 82/5/3 83/6/3 6/6/3 
f 6/6/3 5/5/3 82/5/3 
f 83/6/4 84/7/4 7/7/4 
f 7/7/4 6/6/4 83/6/4 
f 84/7/5 81/8/5 8/8/5 
f 8/8/5 7/7/5 84/7/5 
f 85/10/2 81/8/2 9/8/2 
f 9/8/2 12/10/2 85/10/2 
f 81/8/3 84/7/3 10/7/3 
f 10/7/3 9/8/3 81/8/3 
f 84/7/4 86/9/4 11/9/4 
f 11/9/4 10/7/4 84/7/4 
f 86/9/5 85/10/5 12/10/5 
f 12/10/5 11/9/5 86/9/5 
f 87/12/2 85/10/2 13/10/2 
f 13/10/2 16/12/2 87/12/2 
f 85/10/3 86/9/3 14/9/3 
f 14/9/3 13/10/3 85/10/3 
f 86/9/4 88/11/4 15/11/4 
f 15/11/4 14/9/4 86/9/4 
f 88/11/5 87/12/5 16/12/5 
f 16/12/5 15/11/5 88/11/5 
f 89/14/2 87/12/2 17/12/2 
f 17/12/2 20/14/2 89/14/2 
f 87/12/3 88/11/3 18/11/3 
f 18/11/3 17/12/3 87/12/3 
f 88/11/4 90/13/4 19/13/4 
f 19/13/4 18/11/4 88/11/4 
f 90/13/5 89/14/5 20/14/5 
f 20/14/5 19/13/5 90/13/5 
f 91/16/2 89/14/2 21/14/2 
f 21/14/2 24/16/2 91/16/2 
f 89/14/3 90/13/3 22/13/3 
f 22/13/3 21/14/3 89/14/3 
f 90/13/4 92/15/4 23/15/4 
f 23/15/4 22/13/4 90/13/4 
f 92/15/5 91/16/5 24/16/5 
f 24/16/5 23/15/5 92/15/5 
f 93/18/2 91/16/2 25/16/2 
f 25/16/2 28/18/2 93/18/2 
f 91/16/3 92/15/3 26/15/3 
f 26/15/3 25/16/3 91/16/3 
f 92/15/4 94/17/4 27/17/4 
f 27/17/4 26/15/4 92/15/4 
f 94/17/5 93/18/5 28/18/5 
f 28/18/5 27/17/5 94/17/5 
f 95/20/2 93/18/2 29/18/2 
f 29/18/2 32/20/2 95/20/2 
f 93/18/3 94/17/3 30/17/3 
f 30/17/3 29/18/3 93/18/3 
f 94/17/4 96/19/4 31/19/4 
f 31/19/4 30/17/4 94/17/4 
f 96/19/5 95/20/5 32/20/5 
f 32/20/5 31/19/5 96/19/5 
f 97/22/2 95/20/2 33/20/2 
f 33/20/2 36/22/2 97/22/2 
f 95/20/3 96/19/3 34/19/3 
f 34/19/3 33/20/3 95/20/3 
f 96/19/4 98/21/4 35/21/4 
f 35/21/4 34/19/4 96/19/4 
f 98/21/5 97/22/5 36/22/5 
f 36/22/5 35/21/5 98/21/5 
f 99/24/2 97/22/2 37/22/2 
f 37/22/2 40/24/2 99/24/2 
f 97/22/3 98/21/3 38/21/3 
f 38/21/3 37/22/3 97/22/3 
f 98/21/4 100/23/4 39/23/4 
f 39/23/4 38/21/4 98/21/4 
f 100/23/5 99/24/5 40/24/5 
f 40/24/5 39/23/5 100/23/5 
f 101/1/2 99/24/2 41/24/2 
f 41/24/2 44/1/2 101/1/2 
f 99/24/3 100/23/3 42/23/3 
f 42/23/3 41/24/3 99/24/3 
f 100/23/4 102/2/4 43/2/4 
f 43/2/4 42/23/4 100/23/4 
f 102/2/5 101/1/5 44/1/5 
f 44/1/5 43/2/5 102/2/5 
f 103/4/2 101/1/2 1/1/2 
f 1/1/2 4/4/2 103/4/2 
f 101/1/6 102/2/6 2/2/6 
f 2/2/6 1/1/6 101/1/6 
f 102/2/4 104/3/4 3/3/4 
f 3/3/4 2/2/4 102/2/4 
f 104/3/5 103/4/5 4/4/5 
f 4/4/5 3/3/5 104/3/5 
f 105/41/2 103/4/2 79/4/2 
f 79/4/2 78/41/2 105/41/2 
f 103/4/3 104/3/3 80/3/3 
f 80/3/3 79/4/3 103/4/3 
f 104/3/4 106/42/4 77/42/4 
f 77/42/4 80/3/4 104/3/4 
f 106/42/5 105/41/5 78/41/5 
f 78/41/5 77/42/5 106/42/5 
f 107/39/2 105/41/2 75/41/2 
f 75/41/2 74/39/2 107/39/2 
f 105/41/3 106/42/3 76/42/3 
f 76/42/3 75/41/3 105/41/3 
f 106/42/4 108/40/4 73/40/4 
f 73/40/4 76/42/4 106/42/4 
f 108/40/5 107/39/5 74/39/5 
f 74/39/5 73/40/5 108/40/5 
f 109/37/2 107/39/2 71/39/2 
f 71/39/2 70/37/2 109/37/2 
f 107/39/3 108/40/3 72/40/3 
f 72/40/3 71/39/3 107/39/3 
f 108/40/4 110/38/4 69/38/4 
f 69/38/4 72/40/4 108/40/4 
f 110/38/5 109/37/5 70/37/5 
f 70/37/5 69/38/5 110/38/5 
f 111/35/2 109/37/2 67/37/2 
f 67/37/2 66/35/2 111/35/2 
f 109/37/3 110/38/3 68/38/3 
f 68/38/3 67/37/3 109/37/3 
f 110/38/4 112/36/4 65/36/4 
f 65/36/4 68/38/4 110/38/4 
f 112/36/5 111/35/5 66/35/5 
f 66/35/5 65/36/5 112/36/5 
f 113/33/2 111/35/2 63/35/2 
f 63/35/2 62/33/2 113/33/2 
f 111/35/6 112/36/6 64/36/6 
f 64/36/6 63/35/6 111/35/6 
f 112/36/4 114/34/4 61/34/4 
f 61/34/4 64/36/4 112/36/4 
f 114/34/5 113/33/5 62/33/5 
f 62/33/5 61/34/5 114/34/5 
f 115/31/2 113/33/2 59/33/2 
f 59/33/2 58/31/2 115/31/2 
f 113/33/3 114/34/3 60/34/3 
f 60/34/3 59/33/3 113/33/3 
f 114/34/4 116/32/4 57/32/4 
f 57/32/4 60/34/4 114/34/4 
f 116/32/5 115/31/5 58/31/5 
f 58/31/5 57/32/5 116/32/5 
f 117/29/2 115/31/2 55/31/2 
f 55/31/2 54/29/2 117/29/2 
f 115/31/3 116/32/3 56/32/3 
f 56/32/3 55/31/3 115/31/3 
f 116/32/4 118/30/4 53/30/4 
f 53/30/4 56/32/4 116/32/4 
f 118/30/5 117/29/5 54/29/5 
f 54/29/5 53/30/5 118/30/5 
f 119/27/2 117/29/2 51/29/2 
f 51/29/2 50/27/2 119/27/2 
f 117/29/6 118/30/6 52/30/6 
f 52/30/6 51/29/6 117/29/6 
f 118/30/4 120/28/4 49/28/4 
f 49/28/4 52/30/4 118/30/4 
f 120/28/5 119/27/5 50/27/5 
f 50/27/5 49/28/5 120/28/5 
f 120/28/4 121/25/4 45/25/4 
f 45/25/4 48/28/4 120/28/4 
f 121/25/5 122/26/5 46/26/5 
f 46/26/5 45/25/5 121/25/5 
f 122/26/2 119/27/2 47/27/2 
f 47/27/2 46/26/2 122/26/2 
f 119/27/6 120/28/6 48/28/6 
f 48/28/6 47/27/6 119/27/6 
# 200 faces

