# 3ds Max Wavefront OBJ Exporter v0.97b - (c)2007 guruware
# File Created: 03.11.2013 19:58:56

mtllib fstWallAA.mtl

#
# object Box011
#

v  1541.2599 129.9213 -3787.7954
v  1541.2599 129.9213 -4211.6143
v  1529.4490 129.9213 -4211.6143
v  1529.4490 129.9213 -3787.7954
v  1529.4490 11.8110 -3787.7954
v  1529.4490 11.8110 -3803.0808
v  1529.4490 11.8110 -3818.3662
v  1529.4490 11.8110 -3833.6516
v  1529.4490 11.8110 -3848.9370
v  1529.4490 11.8110 -3864.2224
v  1529.4490 11.8110 -3879.5078
v  1529.4490 11.8110 -3894.7935
v  1529.4490 11.8110 -3910.0786
v  1529.4490 11.8110 -3925.3643
v  1529.4490 11.8110 -3940.6497
v  1529.4490 11.8110 -3955.9351
v  1529.4490 11.8110 -3971.2205
v  1529.4490 11.8110 -3986.5059
v  1529.4490 11.8110 -4001.7913
v  1529.4490 11.8110 -4017.0767
v  1529.4490 11.8110 -4032.3623
v  1529.4490 11.8110 -4047.6475
v  1529.4490 11.8110 -4062.9331
v  1529.4490 11.8110 -4078.2185
v  1529.4490 11.8110 -4093.5039
v  1529.4490 11.8110 -4106.4961
v  1529.4490 11.8110 -4211.6143
v  1541.2599 11.8110 -3787.7954
v  1541.2599 11.8110 -4211.6143
v  1529.4490 17.7165 -3803.0808
v  1529.4490 17.7165 -3787.7954
v  1529.4490 23.6220 -3818.3662
v  1529.4490 23.6220 -3803.0808
v  1529.4490 29.5276 -3833.6516
v  1529.4490 29.5276 -3818.3662
v  1529.4490 35.4331 -3848.9370
v  1529.4490 35.4331 -3833.6516
v  1529.4490 41.3386 -3864.2224
v  1529.4490 41.3386 -3848.9370
v  1529.4490 47.2441 -3879.5078
v  1529.4490 47.2441 -3864.2224
v  1529.4490 53.1496 -3894.7935
v  1529.4490 53.1496 -3879.5078
v  1529.4490 59.0551 -3910.0786
v  1529.4490 59.0551 -3894.7935
v  1529.4490 64.9606 -3925.3643
v  1529.4490 64.9606 -3910.0786
v  1529.4490 70.8661 -3940.6497
v  1529.4490 70.8661 -3925.3643
v  1529.4490 76.7717 -3955.9351
v  1529.4490 76.7717 -3940.6497
v  1529.4490 82.6772 -3971.2205
v  1529.4490 82.6772 -3955.9351
v  1529.4490 88.5827 -3986.5059
v  1529.4490 88.5827 -3971.2205
v  1529.4490 94.4882 -4001.7913
v  1529.4490 94.4882 -3986.5059
v  1529.4490 100.3937 -4017.0767
v  1529.4490 100.3937 -4001.7913
v  1529.4490 106.2992 -4032.3623
v  1529.4490 106.2992 -4017.0767
v  1529.4490 112.2047 -4047.6475
v  1529.4490 112.2047 -4032.3623
v  1529.4490 118.1102 -4062.9331
v  1529.4490 118.1102 -4047.6475
v  1529.4490 124.0157 -4078.2185
v  1529.4490 124.0157 -4062.9331
v  1529.4490 129.9213 -4093.5039
v  1529.4490 129.9213 -4078.2185
# 69 vertices

vn 0.0000 1.0000 -0.0000
vn -1.0000 0.0000 -0.0000
vn 0.0000 0.0000 1.0000
vn 1.0000 0.0000 -0.0000
# 4 vertex normals

vt 0.5750 -2.1912 1.2500
vt 0.5750 3.1912 1.2500
vt 0.4250 3.1912 1.2500
vt 0.4250 -2.1913 1.2500
vt 3.1912 -0.2500 0.4250
vt 3.1913 -0.2500 0.4250
vt 3.1913 1.2500 0.4250
vt 2.9971 -0.2500 0.4250
vt 2.8030 -0.2500 0.4250
vt 2.6089 -0.2500 0.4250
vt 2.4148 -0.2500 0.4250
vt 2.2206 -0.2500 0.4250
vt 2.0265 -0.2500 0.4250
vt 1.8324 -0.2500 0.4250
vt 1.6383 -0.2500 0.4250
vt 1.4441 -0.2500 0.4250
vt 1.2500 -0.2500 0.4250
vt 1.0559 -0.2500 0.4250
vt 0.8618 -0.2500 0.4250
vt 0.6676 -0.2500 0.4250
vt 0.4735 -0.2500 0.4250
vt 0.2794 -0.2500 0.4250
vt 0.0853 -0.2500 0.4250
vt -0.1089 -0.2500 0.4250
vt -0.3030 -0.2500 0.4250
vt -0.4971 -0.2500 0.4250
vt -0.6912 -0.2500 0.4250
vt -0.8562 -0.2500 0.4250
vt -2.1912 -0.2500 0.4250
vt -2.1912 1.2500 0.4250
vt 0.4250 -0.2500 -2.1913
vt 0.5750 -0.2500 -2.1912
vt 0.5750 1.2500 -2.1912
vt 0.4250 1.2500 -2.1913
vt -2.1912 -0.2500 0.5750
vt 3.1912 -0.2500 0.5750
vt 3.1912 1.2500 0.5750
vt -2.1912 1.2500 0.5750
vt -1.9971 -0.2500 0.4250
vt -1.9971 -0.1750 0.4250
vt -2.1912 -0.1750 0.4250
vt -1.8030 -0.2500 0.4250
vt -1.8030 -0.1000 0.4250
vt -1.9971 -0.1000 0.4250
vt -1.6089 -0.2500 0.4250
vt -1.6089 -0.0250 0.4250
vt -1.8030 -0.0250 0.4250
vt -1.4148 -0.2500 0.4250
vt -1.4148 0.0500 0.4250
vt -1.6089 0.0500 0.4250
vt -1.2206 -0.2500 0.4250
vt -1.2206 0.1250 0.4250
vt -1.4148 0.1250 0.4250
vt -1.0265 -0.2500 0.4250
vt -1.0265 0.2000 0.4250
vt -1.2206 0.2000 0.4250
vt -0.8324 -0.2500 0.4250
vt -0.8324 0.2750 0.4250
vt -1.0265 0.2750 0.4250
vt -0.6383 -0.2500 0.4250
vt -0.6383 0.3500 0.4250
vt -0.8324 0.3500 0.4250
vt -0.4441 -0.2500 0.4250
vt -0.4441 0.4250 0.4250
vt -0.6383 0.4250 0.4250
vt -0.2500 -0.2500 0.4250
vt -0.2500 0.5000 0.4250
vt -0.4441 0.5000 0.4250
vt -0.0559 -0.2500 0.4250
vt -0.0559 0.5750 0.4250
vt -0.2500 0.5750 0.4250
vt 0.1382 -0.2500 0.4250
vt 0.1382 0.6500 0.4250
vt -0.0559 0.6500 0.4250
vt 0.3324 -0.2500 0.4250
vt 0.3324 0.7250 0.4250
vt 0.1382 0.7250 0.4250
vt 0.5265 -0.2500 0.4250
vt 0.5265 0.8000 0.4250
vt 0.3324 0.8000 0.4250
vt 0.7206 -0.2500 0.4250
vt 0.7206 0.8750 0.4250
vt 0.5265 0.8750 0.4250
vt 0.9147 -0.2500 0.4250
vt 0.9147 0.9500 0.4250
vt 0.7206 0.9500 0.4250
vt 1.1089 -0.2500 0.4250
vt 1.1089 1.0250 0.4250
vt 0.9147 1.0250 0.4250
vt 1.3030 -0.2500 0.4250
vt 1.3030 1.1000 0.4250
vt 1.1089 1.1000 0.4250
vt 1.4971 -0.2500 0.4250
vt 1.4971 1.1750 0.4250
vt 1.3030 1.1750 0.4250
vt 1.6912 -0.2500 0.4250
vt 1.6912 1.2500 0.4250
vt 1.4971 1.2500 0.4250
# 98 texture coords

g Box011
usemtl 01___Default
s 4
f 1/1/1 2/2/1 3/3/1 
f 3/3/1 4/4/1 1/1/1 
s off
f 5/5/2 5/6/2 4/7/2 
f 6/8/2 5/5/2 4/7/2 
f 7/9/2 6/8/2 4/7/2 
f 8/10/2 7/9/2 4/7/2 
f 9/11/2 8/10/2 4/7/2 
f 10/12/2 9/11/2 4/7/2 
f 11/13/2 10/12/2 4/7/2 
f 12/14/2 11/13/2 4/7/2 
f 13/15/2 12/14/2 4/7/2 
f 14/16/2 13/15/2 4/7/2 
f 15/17/2 14/16/2 4/7/2 
f 16/18/2 15/17/2 4/7/2 
f 17/19/2 16/18/2 4/7/2 
f 18/20/2 17/19/2 4/7/2 
f 19/21/2 18/20/2 4/7/2 
f 20/22/2 19/21/2 4/7/2 
f 21/23/2 20/22/2 4/7/2 
f 22/24/2 21/23/2 4/7/2 
f 23/25/2 22/24/2 4/7/2 
f 24/26/2 23/25/2 4/7/2 
f 25/27/2 24/26/2 4/7/2 
f 26/28/2 25/27/2 4/7/2 
f 27/29/2 26/28/2 4/7/2 
f 27/29/2 4/7/2 3/30/2 
f 5/31/3 28/32/3 1/33/3 
f 1/33/3 4/34/3 5/31/3 
f 28/35/4 29/36/4 2/37/4 
f 2/37/4 1/38/4 28/35/4 
f 5/29/4 6/39/4 30/40/4 
f 30/40/4 31/41/4 5/29/4 
f 6/39/4 7/42/4 32/43/4 
f 32/43/4 33/44/4 6/39/4 
f 7/42/4 8/45/4 34/46/4 
f 34/46/4 35/47/4 7/42/4 
f 8/45/4 9/48/4 36/49/4 
f 36/49/4 37/50/4 8/45/4 
f 9/48/4 10/51/4 38/52/4 
f 38/52/4 39/53/4 9/48/4 
f 10/51/4 11/54/4 40/55/4 
f 40/55/4 41/56/4 10/51/4 
f 11/54/4 12/57/4 42/58/4 
f 42/58/4 43/59/4 11/54/4 
f 12/57/4 13/60/4 44/61/4 
f 44/61/4 45/62/4 12/57/4 
f 13/60/4 14/63/4 46/64/4 
f 46/64/4 47/65/4 13/60/4 
f 14/63/4 15/66/4 48/67/4 
f 48/67/4 49/68/4 14/63/4 
f 15/66/4 16/69/4 50/70/4 
f 50/70/4 51/71/4 15/66/4 
f 16/69/4 17/72/4 52/73/4 
f 52/73/4 53/74/4 16/69/4 
f 17/72/4 18/75/4 54/76/4 
f 54/76/4 55/77/4 17/72/4 
f 18/75/4 19/78/4 56/79/4 
f 56/79/4 57/80/4 18/75/4 
f 19/78/4 20/81/4 58/82/4 
f 58/82/4 59/83/4 19/78/4 
f 20/81/4 21/84/4 60/85/4 
f 60/85/4 61/86/4 20/81/4 
f 21/84/4 22/87/4 62/88/4 
f 62/88/4 63/89/4 21/84/4 
f 22/87/4 23/90/4 64/91/4 
f 64/91/4 65/92/4 22/87/4 
f 23/90/4 24/93/4 66/94/4 
f 66/94/4 67/95/4 23/90/4 
f 24/93/4 25/96/4 68/97/4 
f 68/97/4 69/98/4 24/93/4 
# 70 faces

