# 3ds Max Wavefront OBJ Exporter v0.97b - (c)2007 guruware
# File Created: 04.11.2013 17:14:34

mtllib fstWallD.mtl

#
# object Box011
#

v  2646.8110 129.9213 -2172.6362
v  2635.0000 129.9213 -2172.6362
v  2210.5513 129.9213 -2172.6362
v  2210.5513 129.9213 -2160.8252
v  2646.8110 129.9213 -2160.8252
v  2210.5513 11.8110 -2160.8252
v  2646.8110 11.8110 -2160.8252
v  2646.8110 11.8110 -2172.6362
v  2635.0000 11.8110 -2172.6362
v  2210.5513 11.8110 -2172.6362
# 10 vertices

vn 0.0000 -1.0000 -0.0000
vn 0.0000 1.0000 -0.0000
vn 0.0000 0.0000 1.0000
vn 1.0000 0.0000 -0.0000
vn 0.0000 0.0000 -1.0000
# 5 vertex normals

vt 3.2702 0.5750 1.2500
vt 3.2703 0.5750 1.2500
vt 3.1202 0.5750 1.2500
vt -2.2703 0.5750 1.2500
vt -2.2703 0.4250 1.2500
vt 3.2703 0.4250 1.2500
vt -2.2703 -0.2500 0.4250
vt 3.2703 -0.2500 0.4250
vt 3.2703 1.2500 0.4250
vt -2.2703 1.2500 0.4250
vt 0.4250 -0.2500 3.2703
vt 0.5750 -0.2500 3.2702
vt 0.5750 1.2500 3.2702
vt 0.4250 1.2500 3.2703
vt 3.2702 -0.2500 0.5750
vt 3.2703 -0.2500 0.5750
vt 3.2703 1.2500 0.5750
vt 3.2702 1.2500 0.5750
vt -2.1202 -0.2500 0.5750
vt -2.1202 1.2500 0.5750
# 20 texture coords

g Box011
usemtl 01___Default
s 4
f 1/1/1 1/2/1 2/3/2 
f 2/3/2 3/4/2 4/5/2 
f 1/1/1 2/3/2 4/5/2 
f 1/1/1 4/5/2 5/6/2 
s off
f 6/7/3 7/8/3 5/9/3 
f 5/9/3 4/10/3 6/7/3 
f 7/11/4 8/12/4 1/13/4 
f 1/13/4 5/14/4 7/11/4 
f 8/15/3 8/16/3 1/17/3 
f 1/17/3 1/18/3 8/15/3 
f 9/19/5 10/16/5 3/17/5 
f 3/17/5 2/20/5 9/19/5 
# 12 faces

