# 3ds Max Wavefront OBJ Exporter v0.97b - (c)2007 guruware
# File Created: 04.11.2013 17:13:13

mtllib fstWallAH.mtl

#
# object Box011
#

v  2443.9331 129.9213 -3686.6929
v  2688.7795 129.9213 -3686.6929
v  2688.7795 129.9213 -3698.5039
v  2550.9844 129.9213 -3698.5237
v  2539.1733 129.9213 -3698.5039
v  2443.9331 129.9213 -3698.5039
v  2688.7795 11.8110 -3698.5039
v  2550.9844 11.8110 -3698.5237
v  2539.1733 11.8110 -3698.5039
v  2443.9331 11.8110 -3698.5039
v  2443.9331 11.8110 -3686.6929
v  2688.7795 11.8110 -3686.6929
# 12 vertices

vn 0.0000 1.0000 -0.0000
vn 0.8944 0.0000 -0.4472
vn 0.0001 0.0000 -1.0000
vn 0.0000 0.0000 -1.0000
vn -1.0000 0.0000 -0.0000
vn 0.0000 0.0000 1.0000
# 6 vertex normals

vt -1.0548 0.4249 1.2500
vt 2.0548 0.4249 1.2500
vt 2.0548 0.5749 1.2500
vt 0.3048 0.5751 1.2500
vt 0.1548 0.5749 1.2500
vt -1.0548 0.5749 1.2500
vt 0.5749 -0.2500 2.0548
vt 0.5749 1.2500 2.0548
vt -1.0548 -0.2500 0.5749
vt 0.6952 -0.2500 0.5751
vt 0.6952 1.2500 0.5751
vt -1.0548 1.2500 0.5749
vt 0.8452 -0.2500 0.5749
vt 2.0548 -0.2500 0.5749
vt 2.0548 1.2500 0.5749
vt 0.8452 1.2500 0.5749
vt 0.4251 -0.2500 -1.0548
vt 0.5751 -0.2500 -1.0548
vt 0.5751 1.2500 -1.0548
vt 0.4251 1.2500 -1.0548
vt -1.0548 -0.2500 0.4249
vt 2.0548 -0.2500 0.4249
vt 2.0548 1.2500 0.4249
vt -1.0548 1.2500 0.4249
# 24 texture coords

g Box011
usemtl 01___Default
s 4
f 1/1/1 2/2/1 3/3/1 
f 3/3/1 4/4/1 5/5/1 
f 1/1/1 3/3/1 5/5/1 
f 1/1/1 5/5/1 6/6/1 
s off
f 7/7/2 7/7/2 3/8/2 
f 3/8/2 3/8/2 7/7/2 
f 7/9/3 8/10/3 4/11/3 
f 4/11/3 3/12/3 7/9/3 
f 9/13/4 10/14/4 6/15/4 
f 6/15/4 5/16/4 9/13/4 
f 10/17/5 11/18/5 1/19/5 
f 1/19/5 6/20/5 10/17/5 
f 11/21/6 12/22/6 2/23/6 
f 2/23/6 1/24/6 11/21/6 
# 14 faces

