# 3ds Max Wavefront OBJ Exporter v0.97b - (c)2007 guruware
# File Created: 03.11.2013 20:05:46

mtllib fstWallA.mtl

#
# object Box011
#

v  2881.9688 129.9213 -2613.1890
v  2997.9529 129.9213 -2613.1890
v  2997.9529 129.9213 -2625.0000
v  2881.9683 129.9213 -2625.0000
v  2997.9529 11.8110 -2625.0000
v  2881.9683 11.8110 -2625.0000
v  2881.9688 11.8110 -2613.1890
v  2997.9529 11.8110 -2613.1890
# 8 vertices

vn 0.0000 1.0000 -0.0000
vn 0.0000 0.0000 -1.0000
vn -1.0000 0.0000 0.0000
vn 0.0000 0.0000 1.0000
# 4 vertex normals

vt -0.2365 0.4250 1.2500
vt 1.2365 0.4250 1.2500
vt 1.2365 0.5750 1.2500
vt -0.2365 0.5750 1.2500
vt -0.2365 -0.2500 0.5750
vt 1.2365 -0.2500 0.5750
vt 1.2365 1.2500 0.5750
vt -0.2365 1.2500 0.5750
vt 0.4250 -0.2500 -0.2365
vt 0.5750 -0.2500 -0.2365
vt 0.5750 1.2500 -0.2365
vt 0.4250 1.2500 -0.2365
vt -0.2365 -0.2500 0.4250
vt 1.2365 -0.2500 0.4250
vt 1.2365 1.2500 0.4250
vt -0.2365 1.2500 0.4250
# 16 texture coords

g Box011
usemtl 01___Default
s 4
f 1/1/1 2/2/1 3/3/1 
f 3/3/1 4/4/1 1/1/1 
s off
f 5/5/2 6/6/2 4/7/2 
f 4/7/2 3/8/2 5/5/2 
f 6/9/3 7/10/3 1/11/3 
f 1/11/3 4/12/3 6/9/3 
f 7/13/4 8/14/4 2/15/4 
f 2/15/4 1/16/4 7/13/4 
# 8 faces

