# 3ds Max Wavefront OBJ Exporter v0.97b - (c)2007 guruware
# File Created: 04.11.2013 17:25:33

mtllib fstWallX.mtl

#
# object Box011
#

v  2053.2808 129.9213 -3443.9761
v  2053.2874 129.9213 -3424.2124
v  2065.0786 129.9213 -3424.2124
v  2065.0789 129.9213 -3443.9763
v  2065.0786 11.8110 -3424.2124
v  2053.2874 11.8110 -3424.2124
v  2065.0789 11.8110 -3443.9763
v  2053.2808 11.8110 -3443.9761
# 8 vertices

vn 0.0000 1.0000 -0.0000
vn 0.0000 0.0000 -1.0000
vn 0.0000 0.0000 1.0000
vn 1.0000 0.0000 0.0000
vn -0.0000 0.0000 -1.0000
vn -1.0000 0.0000 0.0003
# 6 vertex normals

vt 0.4251 0.6255 1.2500
vt 0.4252 0.3745 1.2500
vt 0.5749 0.3745 1.2500
vt 0.5749 0.6255 1.2500
vt 0.4251 -0.2500 0.3745
vt 0.5748 -0.2500 0.3745
vt 0.5748 1.2500 0.3745
vt 0.4251 1.2500 0.3745
vt 0.4252 -0.2500 0.3745
vt 0.5749 -0.2500 0.3745
vt 0.5749 1.2500 0.3745
vt 0.4252 1.2500 0.3745
vt 0.3745 -0.2500 0.5749
vt 0.6255 -0.2500 0.5749
vt 0.6255 1.2500 0.5749
vt 0.3745 1.2500 0.5749
vt 0.4251 -0.2500 0.6255
vt 0.5749 -0.2500 0.6255
vt 0.5749 1.2500 0.6255
vt 0.4251 1.2500 0.6255
vt 0.3745 -0.2500 0.4251
vt 0.6255 -0.2500 0.4252
vt 0.6255 1.2500 0.4252
vt 0.3745 1.2500 0.4251
# 24 texture coords

g Box011
usemtl 01___Default
s 4
f 1/1/1 2/2/1 3/3/1 
f 3/3/1 4/4/1 1/1/1 
s off
f 5/5/2 6/6/2 2/7/2 
f 2/7/2 3/8/2 5/5/2 
f 6/9/3 5/10/3 3/11/3 
f 3/11/3 2/12/3 6/9/3 
f 5/13/4 7/14/4 4/15/4 
f 4/15/4 3/16/4 5/13/4 
f 7/17/5 8/18/5 1/19/5 
f 1/19/5 4/20/5 7/17/5 
f 8/21/6 6/22/6 2/23/6 
f 2/23/6 1/24/6 8/21/6 
# 12 faces

