# 3ds Max Wavefront OBJ Exporter v0.97b - (c)2007 guruware
# File Created: 04.11.2013 17:13:42

mtllib fstWallB.mtl

#
# object Box011
#

v  2763.8584 129.9213 -2625.0000
v  2635.0000 129.9213 -2625.0000
v  2635.0000 129.9213 -2613.1890
v  2634.9998 129.9213 -2613.1890
v  2646.8110 129.9213 -2613.1890
v  2763.8584 129.9213 -2613.1890
v  2646.8110 11.8110 -2613.1890
v  2763.8584 11.8110 -2613.1890
v  2763.8584 11.8110 -2625.0000
v  2635.0000 11.8110 -2625.0000
v  2635.0000 11.8110 -2613.1890
v  2634.9998 11.8110 -2613.1890
# 12 vertices

vn 0.0000 1.0000 -0.0000
vn 1.0000 0.0000 -0.0000
vn 0.0000 0.0000 1.0000
vn 1.0000 0.0000 0.0000
vn 0.0000 0.0000 -1.0000
vn -1.0000 0.0000 0.0000
# 6 vertex normals

vt 1.3183 0.5750 1.2500
vt -0.3182 0.5750 1.2500
vt -0.3182 0.4250 1.2500
vt -0.3183 0.4250 1.2500
vt -0.1682 0.4250 1.2500
vt 1.3183 0.4250 1.2500
vt -0.1682 -0.2500 0.4250
vt 1.3183 -0.2500 0.4250
vt 1.3183 1.2500 0.4250
vt -0.1682 1.2500 0.4250
vt 0.4250 -0.2500 1.3183
vt 0.5750 -0.2500 1.3183
vt 0.5750 1.2500 1.3183
vt 0.4250 1.2500 1.3183
vt -0.3183 -0.2500 0.5750
vt 1.3182 -0.2500 0.5750
vt 1.3182 1.2500 0.5750
vt -0.3183 1.2500 0.5750
vt 0.4250 -0.2500 -0.3182
vt 0.5750 -0.2500 -0.3182
vt 0.5750 1.2500 -0.3182
vt 0.4250 1.2500 -0.3182
vt 1.3182 -0.2500 0.4250
vt 1.3182 1.2500 0.4250
# 24 texture coords

g Box011
usemtl 01___Default
s 4
f 1/1/1 2/2/1 3/3/1 
f 3/3/1 4/4/2 5/5/1 
f 1/1/1 3/3/1 5/5/1 
f 1/1/1 5/5/1 6/6/1 
s off
f 7/7/3 8/8/3 6/9/3 
f 6/9/3 5/10/3 7/7/3 
f 8/11/4 9/12/4 1/13/4 
f 1/13/4 6/14/4 8/11/4 
f 9/15/5 10/16/5 2/17/5 
f 2/17/5 1/18/5 9/15/5 
f 10/19/6 11/20/6 3/21/6 
f 3/21/6 2/22/6 10/19/6 
f 11/23/5 12/8/5 4/9/5 
f 4/9/5 3/24/5 11/23/5 
# 14 faces

