# 3ds Max Wavefront OBJ Exporter v0.97b - (c)2007 guruware
# File Created: 06.11.2013 11:30:03

mtllib fstWallO.mtl

#
# object Box011
#

v  2210.5513 129.9213 -2939.9607
v  2210.5513 129.9213 -2928.1497
v  2796.7517 129.9213 -2928.1497
v  2796.7517 129.9213 -2939.9607
v  2210.5513 11.8110 -2928.1497
v  2210.5513 11.8110 -2939.9607
v  2796.7517 11.8110 -2928.1497
v  2796.7517 11.8110 -2939.9607
# 8 vertices

vn 0.0000 1.0000 -0.0000
vn 1.0000 0.0000 -0.0000
vn -1.0000 0.0000 -0.0000
vn -0.0000 0.0000 1.0000
vn 1.0000 0.0000 0.0000
vn -0.0000 0.0000 -1.0000
# 6 vertex normals

vt -3.2224 0.5750 1.2500
vt -3.2224 0.4250 1.2500
vt 4.2224 0.4250 1.2500
vt 4.2224 0.5750 1.2500
vt 0.4250 -0.2500 -3.2224
vt 0.5750 -0.2500 -3.2224
vt 0.5750 1.2500 -3.2224
vt 0.4250 1.2500 -3.2224
vt -3.2224 -0.2500 0.4250
vt 4.2224 -0.2500 0.4250
vt 4.2224 1.2500 0.4250
vt -3.2224 1.2500 0.4250
vt 0.4250 -0.2500 4.2224
vt 0.5750 -0.2500 4.2224
vt 0.5750 1.2500 4.2224
vt 0.4250 1.2500 4.2224
vt -3.2224 -0.2500 0.5750
vt 4.2224 -0.2500 0.5750
vt 4.2224 1.2500 0.5750
vt -3.2224 1.2500 0.5750
# 20 texture coords

g Box011
usemtl 04___Default
s 4
f 1/1/1 2/2/1 3/3/1 
f 3/3/1 4/4/1 1/1/1 
s off
f 5/5/2 6/6/2 1/7/2 
f 1/7/2 2/8/2 5/5/2 
f 6/5/3 5/6/3 2/7/3 
f 2/7/3 1/8/3 6/5/3 
f 5/9/4 7/10/4 3/11/4 
f 3/11/4 2/12/4 5/9/4 
f 7/13/5 8/14/5 4/15/5 
f 4/15/5 3/16/5 7/13/5 
f 8/17/6 6/18/6 1/19/6 
f 1/19/6 4/20/6 8/17/6 
# 12 faces

#
# object Box104
#

v  2551.0940 9.9413 -2916.3381
v  2578.6531 9.9413 -2916.3381
v  2578.6531 9.9413 -2888.7791
v  2551.0940 9.9413 -2888.7791
v  2553.0625 49.3114 -2914.3696
v  2553.0625 49.3114 -2890.7476
v  2576.6846 49.3114 -2890.7476
v  2576.6846 49.3114 -2914.3696
v  2490.5620 9.9413 -2916.3381
v  2490.5620 9.9413 -2888.7791
v  2490.5620 47.3429 -2888.7791
v  2490.5620 47.3429 -2916.3381
v  2578.6531 47.3429 -2888.7791
v  2551.0940 47.3429 -2888.7791
v  2578.6531 47.3429 -2916.3381
v  2551.0940 47.3429 -2916.3381
v  2492.5305 49.3114 -2914.3696
v  2492.5305 49.3114 -2890.7476
# 18 vertices

vn 0.0000 -1.0000 -0.0000
vn 0.0000 1.0000 -0.0000
vn -1.0000 0.0000 -0.0000
vn -0.0000 0.0000 1.0000
vn 1.0000 0.0000 0.0000
vn 0.0000 0.0000 -1.0000
vn -0.7071 0.7071 -0.0000
vn -0.0000 0.7071 0.7071
vn 0.7071 0.7071 0.0000
vn 0.0000 0.7071 -0.7071
# 10 vertex normals

vt 1.0000 0.0000 0.0000
vt 1.0000 1.0000 0.0000
vt 0.0000 1.0000 0.0000
vt 0.0000 0.0000 0.0000
vt 0.0714 0.0714 0.0000
vt 0.9286 0.0714 0.0000
vt 0.9286 0.9286 0.0000
vt 0.0714 0.9286 0.0000
vt 1.0000 0.9500 0.0000
vt 0.0000 0.9500 0.0000
vt 0.0714 1.0600 0.0000
vt 0.9286 1.0600 0.0000
# 12 texture coords

g Box104
usemtl Material__2
s 2
f 9/21/7 10/22/7 11/23/7 
f 11/23/7 12/24/7 9/21/7 
s 4
f 13/25/8 14/26/8 15/27/8 
f 15/27/8 16/28/8 13/25/8 
s 8
f 17/24/9 18/21/9 19/29/9 
f 19/29/9 20/30/9 17/24/9 
s 16
f 12/24/10 11/21/10 21/29/10 
f 21/29/10 22/30/10 12/24/10 
s 32
f 11/24/11 10/21/11 23/29/11 
f 23/29/11 21/30/11 11/24/11 
s 64
f 10/24/12 9/21/12 24/29/12 
f 24/29/12 23/30/12 10/24/12 
s off
f 25/31/13 20/30/13 19/29/13 
f 19/29/13 26/32/13 25/31/13 
f 14/31/14 22/30/14 21/29/14 
f 21/29/14 15/32/14 14/31/14 
f 15/31/15 21/30/15 23/29/15 
f 23/29/15 16/32/15 15/31/15 
f 16/31/16 23/30/16 24/29/16 
f 24/29/16 13/32/16 16/31/16 
f 9/21/7 12/24/7 18/21/7 
f 18/21/7 17/24/7 9/21/7 
f 12/24/10 22/30/10 19/29/10 
f 19/29/10 18/21/10 12/24/10 
f 22/30/14 14/31/14 26/32/14 
f 26/32/14 19/29/14 22/30/14 
f 14/26/8 13/25/8 25/31/8 
f 25/31/8 26/32/8 14/26/8 
f 13/32/16 24/29/16 20/30/16 
f 20/30/16 25/31/16 13/32/16 
f 24/29/12 9/21/12 17/24/12 
f 17/24/12 20/30/12 24/29/12 
# 32 faces

#
# object Box016
#

#
# object Box016
#

#
# object Box022
#

#
# object Box016
#

#
# object Box022
#

#
# object Box016
#

