# 3ds Max Wavefront OBJ Exporter v0.97b - (c)2007 guruware
# File Created: 03.11.2013 14:28:19

mtllib Obstacle_013.mtl

#
# object Box016
#

#
# object Box123
#

v  2555.2490 9.9413 -1962.1882
v  2532.6738 9.9413 -1977.9955
v  2548.4810 9.9413 -2000.5706
v  2571.0562 9.9413 -1984.7633
v  2554.7654 49.3114 -1964.9298
v  2568.3145 49.3114 -1984.2799
v  2548.9646 49.3114 -1997.8290
v  2535.4155 49.3114 -1978.4789
v  2604.8337 9.9413 -1927.4685
v  2620.6411 9.9413 -1950.0436
v  2620.6411 47.3429 -1950.0436
v  2604.8337 47.3429 -1927.4685
v  2548.4810 47.3429 -2000.5706
v  2571.0562 47.3429 -1984.7633
v  2532.6738 47.3429 -1977.9955
v  2555.2490 47.3429 -1962.1882
v  2604.3503 49.3114 -1930.2101
v  2617.8994 49.3114 -1949.5602
# 18 vertices

vn 0.0000 -1.0000 -0.0000
vn 0.0000 1.0000 -0.0000
vn 0.8192 0.0000 0.5736
vn 0.5736 0.0000 -0.8192
vn -0.8192 0.0000 -0.5736
vn -0.5736 0.0000 0.8192
vn 0.5792 0.7071 0.4056
vn 0.4056 0.7071 -0.5792
vn -0.5792 0.7071 -0.4056
vn -0.4056 0.7071 0.5792
# 10 vertex normals

vt 1.0000 0.0000 0.0000
vt 1.0000 1.0000 0.0000
vt 0.0000 1.0000 0.0000
vt 0.0000 0.0000 0.0000
vt 0.0714 0.0714 0.0000
vt 0.9286 0.0714 0.0000
vt 0.9286 0.9286 0.0000
vt 0.0714 0.9286 0.0000
vt 1.0000 0.9500 0.0000
vt 0.0000 0.9500 0.0000
vt 0.0714 1.0600 0.0000
vt 0.9286 1.0600 0.0000
# 12 texture coords

g Box123
usemtl Material__2
s 2
f 1/1/1 2/2/1 3/3/1 
f 3/3/1 4/4/1 1/1/1 
s 4
f 5/5/2 6/6/2 7/7/2 
f 7/7/2 8/8/2 5/5/2 
s 8
f 9/4/3 10/1/3 11/9/3 
f 11/9/3 12/10/3 9/4/3 
s 16
f 4/4/4 3/1/4 13/9/4 
f 13/9/4 14/10/4 4/4/4 
s 32
f 3/4/5 2/1/5 15/9/5 
f 15/9/5 13/10/5 3/4/5 
s 64
f 2/4/6 1/1/6 16/9/6 
f 16/9/6 15/10/6 2/4/6 
s off
f 17/11/7 12/10/7 11/9/7 
f 11/9/7 18/12/7 17/11/7 
f 6/11/8 14/10/8 13/9/8 
f 13/9/8 7/12/8 6/11/8 
f 7/11/9 13/10/9 15/9/9 
f 15/9/9 8/12/9 7/11/9 
f 8/11/10 15/10/10 16/9/10 
f 16/9/10 5/12/10 8/11/10 
f 1/1/1 4/4/1 10/1/1 
f 10/1/1 9/4/1 1/1/1 
f 4/4/4 14/10/4 11/9/4 
f 11/9/4 10/1/4 4/4/4 
f 14/10/8 6/11/8 18/12/8 
f 18/12/8 11/9/8 14/10/8 
f 6/6/2 5/5/2 17/11/2 
f 17/11/2 18/12/2 6/6/2 
f 5/12/10 16/9/10 12/10/10 
f 12/10/10 17/11/10 5/12/10 
f 16/9/6 1/1/6 9/4/6 
f 9/4/6 12/10/6 16/9/6 
# 32 faces

#
# object Box016
#

#
# object Box022
#

