# 3ds Max Wavefront OBJ Exporter v0.97b - (c)2007 guruware
# File Created: 03.11.2013 15:02:01

mtllib Obstacle_041.mtl

#
# object Box102
#

v  2951.8823 9.9413 -3663.2913
v  2976.8594 9.9413 -3651.6443
v  2965.2124 9.9413 -3626.6672
v  2940.2354 9.9413 -3638.3142
v  2952.8345 49.3114 -3660.6753
v  2942.8513 49.3114 -3639.2664
v  2964.2603 49.3114 -3629.2832
v  2974.2434 49.3114 -3650.6921
v  2897.0217 9.9413 -3688.8730
v  2885.3748 9.9413 -3663.8962
v  2885.3748 47.3429 -3663.8962
v  2897.0217 47.3429 -3688.8730
v  2965.2124 47.3429 -3626.6672
v  2940.2354 47.3429 -3638.3142
v  2976.8594 47.3429 -3651.6443
v  2951.8823 47.3429 -3663.2913
v  2897.9739 49.3114 -3686.2571
v  2887.9907 49.3114 -3664.8484
# 18 vertices

vn 0.0000 -1.0000 -0.0000
vn 0.0000 1.0000 -0.0000
vn -0.9063 0.0000 -0.4226
vn -0.4226 0.0000 0.9063
vn 0.9063 0.0000 0.4226
vn 0.4226 0.0000 -0.9063
vn -0.6409 0.7071 -0.2988
vn -0.2988 0.7071 0.6409
vn 0.6409 0.7071 0.2988
vn 0.2988 0.7071 -0.6409
# 10 vertex normals

vt 1.0000 0.0000 0.0000
vt 1.0000 1.0000 0.0000
vt 0.0000 1.0000 0.0000
vt 0.0000 0.0000 0.0000
vt 0.0714 0.0714 0.0000
vt 0.9286 0.0714 0.0000
vt 0.9286 0.9286 0.0000
vt 0.0714 0.9286 0.0000
vt 1.0000 0.9500 0.0000
vt 0.0000 0.9500 0.0000
vt 0.0714 1.0600 0.0000
vt 0.9286 1.0600 0.0000
# 12 texture coords

g Box102
usemtl Material__2
s 2
f 1/1/1 2/2/1 3/3/1 
f 3/3/1 4/4/1 1/1/1 
s 4
f 5/5/2 6/6/2 7/7/2 
f 7/7/2 8/8/2 5/5/2 
s 8
f 9/4/3 10/1/3 11/9/3 
f 11/9/3 12/10/3 9/4/3 
s 16
f 4/4/4 3/1/4 13/9/4 
f 13/9/4 14/10/4 4/4/4 
s 32
f 3/4/5 2/1/5 15/9/5 
f 15/9/5 13/10/5 3/4/5 
s 64
f 2/4/6 1/1/6 16/9/6 
f 16/9/6 15/10/6 2/4/6 
s off
f 17/11/7 12/10/7 11/9/7 
f 11/9/7 18/12/7 17/11/7 
f 6/11/8 14/10/8 13/9/8 
f 13/9/8 7/12/8 6/11/8 
f 7/11/9 13/10/9 15/9/9 
f 15/9/9 8/12/9 7/11/9 
f 8/11/10 15/10/10 16/9/10 
f 16/9/10 5/12/10 8/11/10 
f 1/1/1 4/4/1 10/1/1 
f 10/1/1 9/4/1 1/1/1 
f 4/4/4 14/10/4 11/9/4 
f 11/9/4 10/1/4 4/4/4 
f 14/10/8 6/11/8 18/12/8 
f 18/12/8 11/9/8 14/10/8 
f 6/6/2 5/5/2 17/11/2 
f 17/11/2 18/12/2 6/6/2 
f 5/12/10 16/9/10 12/10/10 
f 12/10/10 17/11/10 5/12/10 
f 16/9/6 1/1/6 9/4/6 
f 9/4/6 12/10/6 16/9/6 
# 32 faces

#
# object Box016
#

#
# object Box016
#

#
# object Box022
#

