# 3ds Max Wavefront OBJ Exporter v0.97b - (c)2007 guruware
# File Created: 03.11.2013 16:13:12

mtllib Obstacle_061.mtl

#
# object Box187
#

v  2437.6001 140.9192 -2160.5715
v  2416.4885 140.9192 -2178.2861
v  2434.2031 140.9192 -2199.3977
v  2455.3147 140.9192 -2181.6831
v  2437.3574 180.2892 -2163.3450
v  2452.5413 180.2892 -2181.4404
v  2434.4458 180.2892 -2196.6243
v  2419.2620 180.2892 -2178.5288
v  2483.9702 140.9192 -2121.6624
v  2501.6848 140.9192 -2142.7739
v  2501.6848 178.3207 -2142.7739
v  2483.9702 178.3207 -2121.6624
v  2434.2031 178.3207 -2199.3977
v  2455.3147 178.3207 -2181.6831
v  2416.4885 178.3207 -2178.2861
v  2437.6001 178.3207 -2160.5715
v  2483.7275 180.2892 -2124.4355
v  2498.9116 180.2892 -2142.5313
# 18 vertices

vn 0.0000 -1.0000 -0.0000
vn 0.0000 1.0000 -0.0000
vn 0.7660 0.0000 0.6428
vn 0.6428 0.0000 -0.7660
vn -0.7660 0.0000 -0.6428
vn -0.6428 0.0000 0.7660
vn 0.5417 0.7071 0.4545
vn 0.4545 0.7071 -0.5417
vn -0.5417 0.7071 -0.4545
vn -0.4545 0.7071 0.5417
# 10 vertex normals

vt 1.0000 0.0000 0.0000
vt 1.0000 1.0000 0.0000
vt 0.0000 1.0000 0.0000
vt 0.0000 0.0000 0.0000
vt 0.0714 0.0714 0.0000
vt 0.9286 0.0714 0.0000
vt 0.9286 0.9286 0.0000
vt 0.0714 0.9286 0.0000
vt 1.0000 0.9500 0.0000
vt 0.0000 0.9500 0.0000
vt 0.0714 1.0600 0.0000
vt 0.9286 1.0600 0.0000
# 12 texture coords

g Box187
usemtl Material__2
s 2
f 1/1/1 2/2/1 3/3/1 
f 3/3/1 4/4/1 1/1/1 
s 4
f 5/5/2 6/6/2 7/7/2 
f 7/7/2 8/8/2 5/5/2 
s 8
f 9/4/3 10/1/3 11/9/3 
f 11/9/3 12/10/3 9/4/3 
s 16
f 4/4/4 3/1/4 13/9/4 
f 13/9/4 14/10/4 4/4/4 
s 32
f 3/4/5 2/1/5 15/9/5 
f 15/9/5 13/10/5 3/4/5 
s 64
f 2/4/6 1/1/6 16/9/6 
f 16/9/6 15/10/6 2/4/6 
s off
f 17/11/7 12/10/7 11/9/7 
f 11/9/7 18/12/7 17/11/7 
f 6/11/8 14/10/8 13/9/8 
f 13/9/8 7/12/8 6/11/8 
f 7/11/9 13/10/9 15/9/9 
f 15/9/9 8/12/9 7/11/9 
f 8/11/10 15/10/10 16/9/10 
f 16/9/10 5/12/10 8/11/10 
f 1/1/1 4/4/1 10/1/1 
f 10/1/1 9/4/1 1/1/1 
f 4/4/4 14/10/4 11/9/4 
f 11/9/4 10/1/4 4/4/4 
f 14/10/8 6/11/8 18/12/8 
f 18/12/8 11/9/8 14/10/8 
f 6/6/2 5/5/2 17/11/2 
f 17/11/2 18/12/2 6/6/2 
f 5/12/10 16/9/10 12/10/10 
f 12/10/10 17/11/10 5/12/10 
f 16/9/6 1/1/6 9/4/6 
f 9/4/6 12/10/6 16/9/6 
# 32 faces

