# 3ds Max Wavefront OBJ Exporter v0.97b - (c)2007 guruware
# File Created: 03.11.2013 16:04:51

mtllib Obstacle_050.mtl

#
# object Box154
#

v  2052.5637 140.9211 -1848.3687
v  2046.6583 140.9211 -1848.3687
v  2046.6583 140.9211 -1868.0537
v  2052.5637 140.9211 -1868.0537
v  2052.5637 160.6062 -1848.3687
v  2052.5637 160.6062 -1868.0537
v  2046.6583 160.6062 -1868.0537
v  2046.6583 160.6062 -1848.3687
# 8 vertices

vn 0.0000 -1.0000 -0.0000
vn 0.0000 1.0000 -0.0000
vn 1.0000 0.0000 0.0000
vn 0.0000 0.0000 -1.0000
vn -1.0000 0.0000 -0.0000
vn -0.0000 0.0000 1.0000
# 6 vertex normals

vt 1.0000 0.0000 0.0000
vt 1.0000 1.0000 0.0000
vt 0.0000 1.0000 0.0000
vt 0.0000 0.0000 0.0000
# 4 texture coords

g Box154
usemtl Material__0
s 2
f 1/1/1 2/2/1 3/3/1 
f 3/3/1 4/4/1 1/1/1 
s 4
f 5/4/2 6/1/2 7/2/2 
f 7/2/2 8/3/2 5/4/2 
s 8
f 1/4/3 4/1/3 6/2/3 
f 6/2/3 5/3/3 1/4/3 
s 16
f 4/4/4 3/1/4 7/2/4 
f 7/2/4 6/3/4 4/4/4 
s 32
f 3/4/5 2/1/5 8/2/5 
f 8/2/5 7/3/5 3/4/5 
s 64
f 2/4/6 1/1/6 5/2/6 
f 5/2/6 8/3/6 2/4/6 
# 12 faces

#
# object Box155
#

v  2124.0251 140.9211 -1848.3687
v  2118.1199 140.9211 -1848.3687
v  2118.1199 140.9211 -1868.0537
v  2124.0251 140.9211 -1868.0537
v  2124.0251 160.6062 -1848.3687
v  2124.0251 160.6062 -1868.0537
v  2118.1199 160.6062 -1868.0537
v  2118.1199 160.6062 -1848.3687
# 8 vertices

vn 0.0000 -1.0000 -0.0000
vn 0.0000 1.0000 -0.0000
vn 1.0000 0.0000 0.0000
vn 0.0000 0.0000 -1.0000
vn -1.0000 0.0000 -0.0000
vn -0.0000 0.0000 1.0000
# 6 vertex normals

vt 1.0000 0.0000 0.0000
vt 1.0000 1.0000 0.0000
vt 0.0000 1.0000 0.0000
vt 0.0000 0.0000 0.0000
# 4 texture coords

g Box155
usemtl Material__0
s 2
f 9/5/7 10/6/7 11/7/7 
f 11/7/7 12/8/7 9/5/7 
s 4
f 13/8/8 14/5/8 15/6/8 
f 15/6/8 16/7/8 13/8/8 
s 8
f 9/8/9 12/5/9 14/6/9 
f 14/6/9 13/7/9 9/8/9 
s 16
f 12/8/10 11/5/10 15/6/10 
f 15/6/10 14/7/10 12/8/10 
s 32
f 11/8/11 10/5/11 16/6/11 
f 16/6/11 15/7/11 11/8/11 
s 64
f 10/8/12 9/5/12 13/6/12 
f 13/6/12 16/7/12 10/8/12 
# 12 faces

#
# object Box156
#

v  2124.7834 159.2979 -1847.4932
v  2046.0432 159.2979 -1847.4932
v  2046.0432 159.2979 -1851.4302
v  2124.7834 159.2979 -1851.4302
v  2124.7834 162.0813 -1847.4932
v  2124.7834 162.0813 -1851.4302
v  2046.0432 162.0813 -1851.4302
v  2046.0432 162.0813 -1847.4932
v  2124.7834 159.2979 -1853.2534
v  2046.0432 159.2979 -1853.2534
v  2046.0432 159.2979 -1857.1904
v  2124.7834 159.2979 -1857.1904
v  2124.7834 162.0813 -1853.2534
v  2124.7834 162.0813 -1857.1904
v  2046.0432 162.0813 -1857.1904
v  2046.0432 162.0813 -1853.2534
v  2124.7834 159.2979 -1859.4194
v  2046.0432 159.2979 -1859.4194
v  2046.0432 159.2979 -1863.3564
v  2124.7834 159.2979 -1863.3564
v  2124.7834 162.0813 -1859.4194
v  2124.7834 162.0813 -1863.3564
v  2046.0432 162.0813 -1863.3564
v  2046.0432 162.0813 -1859.4194
v  2124.7834 159.2979 -1865.0339
v  2046.0432 159.2979 -1865.0339
v  2046.0432 159.2979 -1868.9709
v  2124.7834 159.2979 -1868.9709
v  2124.7834 162.0813 -1865.0339
v  2124.7834 162.0813 -1868.9709
v  2046.0432 162.0813 -1868.9709
v  2046.0432 162.0813 -1865.0339
# 32 vertices

vn 0.0000 -1.0000 -0.0000
vn 0.0000 1.0000 -0.0000
vn 1.0000 0.0000 0.0000
vn 0.0000 0.0000 -1.0000
vn -1.0000 0.0000 -0.0000
vn -0.0000 0.0000 1.0000
# 6 vertex normals

vt 1.0000 0.0000 0.0000
vt 1.0000 1.0000 0.0000
vt 0.0000 1.0000 0.0000
vt 0.0000 0.0000 0.0000
# 4 texture coords

g Box156
usemtl Material__0
s 2
f 17/9/13 18/10/13 19/11/13 
f 19/11/13 20/12/13 17/9/13 
s 4
f 21/12/14 22/9/14 23/10/14 
f 23/10/14 24/11/14 21/12/14 
s 8
f 17/12/15 20/9/15 22/10/15 
f 22/10/15 21/11/15 17/12/15 
s 16
f 20/12/16 19/9/16 23/10/16 
f 23/10/16 22/11/16 20/12/16 
s 32
f 19/12/17 18/9/17 24/10/17 
f 24/10/17 23/11/17 19/12/17 
s 64
f 18/12/18 17/9/18 21/10/18 
f 21/10/18 24/11/18 18/12/18 
s 2
f 25/9/13 26/10/13 27/11/13 
f 27/11/13 28/12/13 25/9/13 
s 4
f 29/12/14 30/9/14 31/10/14 
f 31/10/14 32/11/14 29/12/14 
s 8
f 25/12/15 28/9/15 30/10/15 
f 30/10/15 29/11/15 25/12/15 
s 16
f 28/12/16 27/9/16 31/10/16 
f 31/10/16 30/11/16 28/12/16 
s 32
f 27/12/17 26/9/17 32/10/17 
f 32/10/17 31/11/17 27/12/17 
s 64
f 26/12/18 25/9/18 29/10/18 
f 29/10/18 32/11/18 26/12/18 
s 2
f 33/9/13 34/10/13 35/11/13 
f 35/11/13 36/12/13 33/9/13 
s 4
f 37/12/14 38/9/14 39/10/14 
f 39/10/14 40/11/14 37/12/14 
s 8
f 33/12/15 36/9/15 38/10/15 
f 38/10/15 37/11/15 33/12/15 
s 16
f 36/12/16 35/9/16 39/10/16 
f 39/10/16 38/11/16 36/12/16 
s 32
f 35/12/17 34/9/17 40/10/17 
f 40/10/17 39/11/17 35/12/17 
s 64
f 34/12/18 33/9/18 37/10/18 
f 37/10/18 40/11/18 34/12/18 
s 2
f 41/9/13 42/10/13 43/11/13 
f 43/11/13 44/12/13 41/9/13 
s 4
f 45/12/14 46/9/14 47/10/14 
f 47/10/14 48/11/14 45/12/14 
s 8
f 41/12/15 44/9/15 46/10/15 
f 46/10/15 45/11/15 41/12/15 
s 16
f 44/12/16 43/9/16 47/10/16 
f 47/10/16 46/11/16 44/12/16 
s 32
f 43/12/17 42/9/17 48/10/17 
f 48/10/17 47/11/17 43/12/17 
s 64
f 42/12/18 41/9/18 45/10/18 
f 45/10/18 48/11/18 42/12/18 
# 48 faces

