# 3ds Max Wavefront OBJ Exporter v0.97b - (c)2007 guruware
# File Created: 03.11.2013 16:22:16

mtllib Obstacle_081.mtl

#
# object Box194
#

v  2641.1372 139.6001 -3352.3403
v  2641.3088 139.6001 -3350.3792
v  2639.3477 139.6001 -3350.2075
v  2639.1760 139.6001 -3352.1687
v  2641.1372 178.9702 -3352.3403
v  2639.1760 178.9702 -3352.1687
v  2639.3477 178.9702 -3350.2075
v  2641.3088 178.9702 -3350.3792
v  2669.6975 139.6001 -3354.8389
v  2669.8691 139.6001 -3352.8779
v  2667.9080 139.6001 -3352.7063
v  2667.7366 139.6001 -3354.6675
v  2669.6975 178.9702 -3354.8389
v  2667.7366 178.9702 -3354.6675
v  2667.9080 178.9702 -3352.7063
v  2669.8691 178.9702 -3352.8779
v  2674.6072 177.8976 -3360.3882
v  2684.9011 177.8976 -3242.7273
v  2645.6809 177.8976 -3239.2959
v  2635.3870 177.8976 -3356.9568
v  2674.6072 179.8661 -3360.3882
v  2635.3870 179.8661 -3356.9568
v  2645.6809 179.8661 -3239.2959
v  2684.9011 179.8661 -3242.7273
v  2679.0117 139.6001 -3248.3784
v  2679.1831 139.6001 -3246.4175
v  2677.2222 139.6001 -3246.2458
v  2677.0505 139.6001 -3248.2068
v  2679.0117 178.9702 -3248.3784
v  2677.0505 178.9702 -3248.2068
v  2677.2222 178.9702 -3246.2458
v  2679.1831 178.9702 -3246.4175
v  2650.4512 139.6001 -3245.8796
v  2650.6228 139.6001 -3243.9187
v  2648.6619 139.6001 -3243.7471
v  2648.4902 139.6001 -3245.7080
v  2650.4512 178.9702 -3245.8796
v  2648.4902 178.9702 -3245.7080
v  2648.6619 178.9702 -3243.7471
v  2650.6228 178.9702 -3243.9187
# 40 vertices

vn 0.0000 -1.0000 -0.0000
vn 0.0000 1.0000 -0.0000
vn -0.0872 0.0000 -0.9962
vn -0.9962 0.0000 0.0872
vn 0.0872 0.0000 0.9962
vn 0.9962 0.0000 -0.0872
# 6 vertex normals

vt 1.0000 0.0000 0.0000
vt 1.0000 1.0000 0.0000
vt 0.0000 1.0000 0.0000
vt 0.0000 0.0000 0.0000
# 4 texture coords

g Box194
usemtl 03___Default
s 2
f 1/1/1 2/2/1 3/3/1 
f 3/3/1 4/4/1 1/1/1 
s 4
f 5/4/2 6/1/2 7/2/2 
f 7/2/2 8/3/2 5/4/2 
s 8
f 1/4/3 4/1/3 6/2/3 
f 6/2/3 5/3/3 1/4/3 
s 16
f 4/4/4 3/1/4 7/2/4 
f 7/2/4 6/3/4 4/4/4 
s 32
f 3/4/5 2/1/5 8/2/5 
f 8/2/5 7/3/5 3/4/5 
s 64
f 2/4/6 1/1/6 5/2/6 
f 5/2/6 8/3/6 2/4/6 
s 2
f 9/1/1 10/2/1 11/3/1 
f 11/3/1 12/4/1 9/1/1 
s 4
f 13/4/2 14/1/2 15/2/2 
f 15/2/2 16/3/2 13/4/2 
s 8
f 9/4/3 12/1/3 14/2/3 
f 14/2/3 13/3/3 9/4/3 
s 16
f 12/4/4 11/1/4 15/2/4 
f 15/2/4 14/3/4 12/4/4 
s 32
f 11/4/5 10/1/5 16/2/5 
f 16/2/5 15/3/5 11/4/5 
s 64
f 10/4/6 9/1/6 13/2/6 
f 13/2/6 16/3/6 10/4/6 
s 2
f 17/1/1 18/2/1 19/3/1 
f 19/3/1 20/4/1 17/1/1 
s 4
f 21/4/2 22/1/2 23/2/2 
f 23/2/2 24/3/2 21/4/2 
s 8
f 17/4/3 20/1/3 22/2/3 
f 22/2/3 21/3/3 17/4/3 
s 16
f 20/4/4 19/1/4 23/2/4 
f 23/2/4 22/3/4 20/4/4 
s 32
f 19/4/5 18/1/5 24/2/5 
f 24/2/5 23/3/5 19/4/5 
s 64
f 18/4/6 17/1/6 21/2/6 
f 21/2/6 24/3/6 18/4/6 
s 2
f 25/1/1 26/2/1 27/3/1 
f 27/3/1 28/4/1 25/1/1 
s 4
f 29/4/2 30/1/2 31/2/2 
f 31/2/2 32/3/2 29/4/2 
s 8
f 25/4/3 28/1/3 30/2/3 
f 30/2/3 29/3/3 25/4/3 
s 16
f 28/4/4 27/1/4 31/2/4 
f 31/2/4 30/3/4 28/4/4 
s 32
f 27/4/5 26/1/5 32/2/5 
f 32/2/5 31/3/5 27/4/5 
s 64
f 26/4/6 25/1/6 29/2/6 
f 29/2/6 32/3/6 26/4/6 
s 2
f 33/1/1 34/2/1 35/3/1 
f 35/3/1 36/4/1 33/1/1 
s 4
f 37/4/2 38/1/2 39/2/2 
f 39/2/2 40/3/2 37/4/2 
s 8
f 33/4/3 36/1/3 38/2/3 
f 38/2/3 37/3/3 33/4/3 
s 16
f 36/4/4 35/1/4 39/2/4 
f 39/2/4 38/3/4 36/4/4 
s 32
f 35/4/5 34/1/5 40/2/5 
f 40/2/5 39/3/5 35/4/5 
s 64
f 34/4/6 33/1/6 37/2/6 
f 37/2/6 40/3/6 34/4/6 
# 60 faces

