# 3ds Max Wavefront OBJ Exporter v0.97b - (c)2007 guruware
# File Created: 02.11.2013 16:14:42

mtllib Railing3.mtl

#
# object Box044
#

v  1512.5356 167.8842 -3319.8572
v  1512.5356 167.8842 -3317.1013
v  1512.5198 169.8528 -3317.1013
v  1512.5198 169.8528 -3319.8572
v  1512.5356 140.3252 -3317.1013
v  1512.5356 140.3252 -3319.8572
v  1515.2756 140.3252 -3319.8572
v  1515.2756 140.3252 -3317.1013
v  1512.5159 169.8528 -2715.5117
v  1512.5317 167.8842 -2715.5117
v  1515.2717 167.8842 -2715.5117
v  1515.2717 169.8528 -2715.5117
v  1515.2756 169.8528 -3317.1013
v  1515.2756 169.8528 -3319.8572
v  1515.2756 167.8842 -3319.8572
v  1512.5352 167.8842 -3269.4045
v  1512.5193 169.8528 -3269.4045
v  1515.2756 167.8842 -3317.1013
v  1515.2751 167.8842 -3269.4045
v  1515.2751 169.8528 -3269.4045
v  1512.5198 167.8842 -2712.7705
v  1512.5198 169.8528 -2712.7559
v  1512.5198 169.8528 -2715.5117
v  1512.5198 167.8842 -2715.5117
v  1515.2756 167.8842 -2712.7705
v  1515.2756 169.8528 -2712.7559
v  1515.2756 169.8528 -2715.5117
v  1515.2756 167.8842 -2715.5117
v  1512.5198 140.3252 -2712.7705
v  1512.5198 140.3252 -2715.5117
v  1515.2756 140.3252 -2715.5117
v  1515.2756 140.3252 -2712.7705
v  1512.5160 169.8528 -2754.8818
v  1512.5320 167.8842 -2754.8818
v  1515.2720 167.8842 -2754.8818
v  1515.2720 169.8528 -2754.8818
v  1512.5320 167.8842 -2757.6377
v  1512.5160 169.8528 -2757.6377
v  1512.5162 169.8528 -2794.2520
v  1512.5322 167.8842 -2794.2520
v  1515.2720 167.8842 -2757.6377
v  1515.2721 167.8842 -2794.2520
v  1515.2720 169.8528 -2757.6377
v  1515.2721 169.8528 -2794.2520
v  1512.5322 167.8842 -2797.0078
v  1512.5164 169.8528 -2797.0078
v  1512.5165 169.8528 -2833.6221
v  1512.5325 167.8842 -2833.6221
v  1515.2721 167.8842 -2797.0078
v  1515.2723 167.8842 -2833.6221
v  1515.2721 169.8528 -2797.0078
v  1515.2723 169.8528 -2833.6221
v  1512.5325 167.8842 -2836.3779
v  1512.5165 169.8528 -2836.3779
v  1512.5167 169.8528 -2872.9922
v  1512.5327 167.8842 -2872.9922
v  1515.2725 167.8842 -2836.3779
v  1515.2726 167.8842 -2872.9922
v  1515.2725 169.8528 -2836.3779
v  1515.2726 169.8528 -2872.9922
v  1512.5327 167.8842 -2875.7480
v  1512.5167 169.8528 -2875.7480
v  1512.5168 169.8528 -2912.3623
v  1512.5330 167.8842 -2912.3623
v  1515.2726 167.8842 -2875.7480
v  1515.2728 167.8842 -2912.3623
v  1515.2726 169.8528 -2875.7480
v  1515.2728 169.8528 -2912.3623
v  1512.5330 167.8842 -2915.1182
v  1512.5168 169.8528 -2915.1182
v  1512.5171 169.8528 -2951.7324
v  1512.5332 167.8842 -2951.7324
v  1515.2728 167.8842 -2915.1182
v  1515.2729 167.8842 -2951.7324
v  1515.2728 169.8528 -2915.1182
v  1515.2729 169.8528 -2951.7324
v  1512.5332 167.8842 -2954.4883
v  1512.5171 169.8528 -2954.4883
v  1512.5173 169.8528 -2991.1023
v  1512.5333 167.8842 -2991.1023
v  1515.2729 167.8842 -2954.4883
v  1515.2732 167.8842 -2991.1023
v  1515.2729 169.8528 -2954.4883
v  1515.2732 169.8528 -2991.1023
v  1512.5333 167.8842 -2993.8584
v  1512.5173 169.8528 -2993.8584
v  1512.5176 169.8528 -3030.4724
v  1512.5336 167.8842 -3030.4724
v  1515.2732 167.8842 -2993.8584
v  1515.2734 167.8842 -3030.4724
v  1515.2732 169.8528 -2993.8584
v  1515.2734 169.8528 -3030.4724
v  1512.5336 167.8842 -3033.2283
v  1512.5176 169.8528 -3033.2283
v  1512.5178 169.8528 -3069.8425
v  1512.5337 167.8842 -3069.8425
v  1515.2734 167.8842 -3033.2283
v  1515.2737 167.8842 -3069.8425
v  1515.2734 169.8528 -3033.2283
v  1515.2737 169.8528 -3069.8425
v  1512.5338 167.8842 -3072.5984
v  1512.5178 169.8528 -3072.5984
v  1512.5179 169.8528 -3109.2126
v  1512.5339 167.8842 -3109.2126
v  1515.2737 167.8842 -3072.5984
v  1515.2739 167.8842 -3109.2126
v  1515.2737 169.8528 -3072.5984
v  1515.2739 169.8528 -3109.2126
v  1512.5339 167.8842 -3111.9478
v  1512.5179 169.8528 -3111.9478
v  1512.5182 169.8528 -3148.5828
v  1512.5342 167.8842 -3148.5828
v  1515.2739 167.8842 -3111.9478
v  1515.2742 167.8842 -3148.5828
v  1515.2739 169.8528 -3111.9478
v  1515.2742 169.8528 -3148.5828
v  1512.5342 167.8842 -3151.3123
v  1512.5182 169.8528 -3151.3123
v  1512.5186 169.8528 -3187.9529
v  1512.5344 167.8842 -3187.9529
v  1515.2742 167.8842 -3151.3123
v  1515.2744 167.8842 -3187.9529
v  1515.2742 169.8528 -3151.3123
v  1515.2744 169.8528 -3187.9529
v  1512.5344 167.8842 -3190.6763
v  1512.5186 169.8528 -3190.6763
v  1512.5188 169.8528 -3227.3228
v  1512.5348 167.8842 -3227.3228
v  1515.2744 167.8842 -3190.6763
v  1515.2748 167.8842 -3227.3228
v  1515.2744 169.8528 -3190.6763
v  1515.2748 169.8528 -3227.3228
v  1512.5349 167.8842 -3230.0408
v  1512.5188 169.8528 -3230.0408
v  1512.5192 169.8528 -3266.6929
v  1512.5352 167.8842 -3266.6929
v  1515.2749 167.8842 -3230.0408
v  1515.2751 167.8842 -3266.6929
v  1515.2749 169.8528 -3230.0408
v  1515.2751 169.8528 -3266.6929
v  1515.2720 140.3252 -2754.8818
v  1512.5320 140.3252 -2754.8818
v  1512.5320 140.3252 -2757.6377
v  1515.2720 140.3252 -2757.6377
v  1515.2721 140.3252 -2794.2520
v  1512.5322 140.3252 -2794.2520
v  1512.5322 140.3252 -2797.0078
v  1515.2721 140.3252 -2797.0078
v  1515.2723 140.3252 -2833.6221
v  1512.5325 140.3252 -2833.6221
v  1512.5325 140.3252 -2836.3779
v  1515.2725 140.3252 -2836.3779
v  1515.2726 140.3252 -2872.9922
v  1512.5327 140.3252 -2872.9922
v  1512.5327 140.3252 -2875.7480
v  1515.2726 140.3252 -2875.7480
v  1515.2728 140.3252 -2912.3623
v  1512.5330 140.3252 -2912.3623
v  1512.5330 140.3252 -2915.1182
v  1515.2728 140.3252 -2915.1182
v  1515.2729 140.3252 -2951.7324
v  1512.5332 140.3252 -2951.7324
v  1512.5332 140.3252 -2954.4883
v  1515.2729 140.3252 -2954.4883
v  1515.2732 140.3252 -2991.1023
v  1512.5333 140.3252 -2991.1023
v  1512.5333 140.3252 -2993.8584
v  1515.2732 140.3252 -2993.8584
v  1515.2734 140.3252 -3030.4724
v  1512.5336 140.3252 -3030.4724
v  1512.5336 140.3252 -3033.2283
v  1515.2734 140.3252 -3033.2283
v  1515.2737 140.3252 -3069.8425
v  1512.5337 140.3252 -3069.8425
v  1512.5338 140.3252 -3072.5984
v  1515.2737 140.3252 -3072.5984
v  1515.2739 140.3252 -3109.2126
v  1512.5339 140.3252 -3109.2126
v  1512.5339 140.3252 -3111.9478
v  1515.2739 140.3252 -3111.9478
v  1515.2742 140.3252 -3148.5828
v  1512.5342 140.3252 -3148.5828
v  1512.5342 140.3252 -3151.3123
v  1515.2742 140.3252 -3151.3123
v  1515.2744 140.3252 -3187.9529
v  1512.5344 140.3252 -3187.9529
v  1512.5344 140.3252 -3190.6763
v  1515.2744 140.3252 -3190.6763
v  1515.2748 140.3252 -3227.3228
v  1512.5348 140.3252 -3227.3228
v  1512.5349 140.3252 -3230.0408
v  1515.2749 140.3252 -3230.0408
v  1515.2751 140.3252 -3266.6929
v  1512.5352 140.3252 -3266.6929
v  1512.5352 140.3252 -3269.4045
v  1515.2751 140.3252 -3269.4045
# 196 vertices

vn -1.0000 -0.0081 -0.0000
vn 0.0000 -1.0000 -0.0000
vn 0.0000 0.0000 1.0000
vn 0.0000 1.0000 -0.0000
vn 0.0000 0.0000 -1.0000
vn 1.0000 0.0000 0.0000
vn -1.0000 0.0000 -0.0000
vn 1.0000 0.0000 -0.0000
vn 0.0000 -0.0074 1.0000
vn -1.0000 -0.0082 -0.0000
vn 0.0000 1.0000 0.0000
# 11 vertex normals

vt 0.0000 1.0000 0.0000
vt 1.0000 1.0000 0.0000
vt 0.0000 0.0000 0.0000
vt 0.0036 1.0000 0.0000
# 4 texture coords

g Box044
usemtl 02___Default
s off
f 1/1/1 2/2/1 3/3/1 
f 3/3/1 4/1/1 1/1/1 
f 5/2/2 6/1/2 7/1/2 
f 7/1/2 8/2/2 5/2/2 
f 9/3/3 10/2/3 11/2/3 
f 11/2/3 12/3/3 9/3/3 
f 4/1/4 3/3/4 13/3/4 
f 13/3/4 14/1/4 4/1/4 
f 1/1/5 4/1/5 14/1/5 
f 14/1/5 15/4/5 1/1/5 
f 2/2/1 16/2/1 17/3/1 
f 17/3/1 3/3/1 2/2/1 
f 18/2/2 19/2/2 16/2/2 
f 16/2/2 2/2/2 18/2/2 
f 13/3/6 20/3/6 19/2/6 
f 19/2/6 18/2/6 13/3/6 
f 3/3/4 17/3/4 20/3/4 
f 20/3/4 13/3/4 3/3/4 
f 2/2/7 1/1/7 6/1/7 
f 6/1/7 5/2/7 2/2/7 
f 1/1/5 15/4/5 7/1/5 
f 7/1/5 6/1/5 1/1/5 
f 15/1/8 18/2/8 8/2/8 
f 8/2/8 7/1/8 15/1/8 
f 18/2/3 2/2/3 5/2/3 
f 5/2/3 8/2/3 18/2/3 
f 21/1/7 22/3/7 23/3/7 
f 23/3/7 24/1/7 21/1/7 
f 22/3/9 21/1/9 25/1/9 
f 25/1/9 26/3/9 22/3/9 
f 23/3/4 22/3/4 26/3/4 
f 26/3/4 27/3/4 23/3/4 
f 24/1/5 23/3/5 27/3/5 
f 27/3/5 28/1/5 24/1/5 
f 29/1/2 30/1/2 31/1/2 
f 31/1/2 32/1/2 29/1/2 
f 21/1/7 24/1/7 30/1/7 
f 30/1/7 29/1/7 21/1/7 
f 24/1/5 28/1/5 31/1/5 
f 31/1/5 30/1/5 24/1/5 
f 28/1/8 25/1/8 32/1/8 
f 32/1/8 31/1/8 28/1/8 
f 25/1/3 21/1/3 29/1/3 
f 29/1/3 32/1/3 25/1/3 
f 10/2/1 9/3/1 33/3/1 
f 33/3/1 34/2/1 10/2/1 
f 11/2/2 10/2/2 34/2/2 
f 34/2/2 35/2/2 11/2/2 
f 12/3/6 11/2/6 35/2/6 
f 35/2/6 36/3/6 12/3/6 
f 9/3/4 12/3/4 36/3/4 
f 36/3/4 33/3/4 9/3/4 
f 37/2/1 38/3/1 39/3/1 
f 39/3/1 40/2/1 37/2/1 
f 41/2/2 37/2/2 40/2/2 
f 40/2/2 42/2/2 41/2/2 
f 43/3/6 41/2/6 42/2/6 
f 42/2/6 44/3/6 43/3/6 
f 38/3/4 43/3/4 44/3/4 
f 44/3/4 39/3/4 38/3/4 
f 45/2/1 46/3/1 47/3/1 
f 47/3/1 48/2/1 45/2/1 
f 49/2/2 45/2/2 48/2/2 
f 48/2/2 50/2/2 49/2/2 
f 51/3/6 49/2/6 50/2/6 
f 50/2/6 52/3/6 51/3/6 
f 46/3/4 51/3/4 52/3/4 
f 52/3/4 47/3/4 46/3/4 
f 53/2/1 54/3/1 55/3/1 
f 55/3/1 56/2/1 53/2/1 
f 57/2/2 53/2/2 56/2/2 
f 56/2/2 58/2/2 57/2/2 
f 59/3/6 57/2/6 58/2/6 
f 58/2/6 60/3/6 59/3/6 
f 54/3/4 59/3/4 60/3/4 
f 60/3/4 55/3/4 54/3/4 
f 61/2/1 62/3/1 63/3/1 
f 63/3/1 64/2/1 61/2/1 
f 65/2/2 61/2/2 64/2/2 
f 64/2/2 66/2/2 65/2/2 
f 67/3/6 65/2/6 66/2/6 
f 66/2/6 68/3/6 67/3/6 
f 62/3/4 67/3/4 68/3/4 
f 68/3/4 63/3/4 62/3/4 
f 69/2/1 70/3/1 71/3/1 
f 71/3/10 72/2/10 69/2/10 
f 73/2/2 69/2/2 72/2/2 
f 72/2/2 74/2/2 73/2/2 
f 75/3/6 73/2/6 74/2/6 
f 74/2/6 76/3/6 75/3/6 
f 70/3/4 75/3/4 76/3/4 
f 76/3/4 71/3/4 70/3/4 
f 77/2/10 78/3/10 79/3/10 
f 79/3/10 80/2/10 77/2/10 
f 81/2/2 77/2/2 80/2/2 
f 80/2/2 82/2/2 81/2/2 
f 83/3/6 81/2/6 82/2/6 
f 82/2/6 84/3/6 83/3/6 
f 78/3/4 83/3/4 84/3/4 
f 84/3/4 79/3/4 78/3/4 
f 85/2/10 86/3/10 87/3/10 
f 87/3/10 88/2/10 85/2/10 
f 89/2/2 85/2/2 88/2/2 
f 88/2/2 90/2/2 89/2/2 
f 91/3/6 89/2/6 90/2/6 
f 90/2/6 92/3/6 91/3/6 
f 86/3/4 91/3/4 92/3/4 
f 92/3/4 87/3/4 86/3/4 
f 93/2/1 94/3/1 95/3/1 
f 95/3/1 96/2/1 93/2/1 
f 97/2/2 93/2/2 96/2/2 
f 96/2/2 98/2/2 97/2/2 
f 99/3/6 97/2/6 98/2/6 
f 98/2/6 100/3/6 99/3/6 
f 94/3/11 99/3/11 100/3/11 
f 100/3/11 95/3/11 94/3/11 
f 101/2/10 102/3/10 103/3/10 
f 103/3/1 104/2/1 101/2/1 
f 105/2/2 101/2/2 104/2/2 
f 104/2/2 106/2/2 105/2/2 
f 107/3/6 105/2/6 106/2/6 
f 106/2/6 108/3/6 107/3/6 
f 102/3/4 107/3/4 108/3/4 
f 108/3/4 103/3/4 102/3/4 
f 109/2/10 110/3/10 111/3/10 
f 111/3/1 112/2/1 109/2/1 
f 113/2/2 109/2/2 112/2/2 
f 112/2/2 114/2/2 113/2/2 
f 115/3/6 113/2/6 114/2/6 
f 114/2/6 116/3/6 115/3/6 
f 110/3/4 115/3/4 116/3/4 
f 116/3/4 111/3/4 110/3/4 
f 117/2/1 118/3/1 119/3/1 
f 119/3/1 120/2/1 117/2/1 
f 121/2/2 117/2/2 120/2/2 
f 120/2/2 122/2/2 121/2/2 
f 123/3/6 121/2/6 122/2/6 
f 122/2/6 124/3/6 123/3/6 
f 118/3/4 123/3/4 124/3/4 
f 124/3/4 119/3/4 118/3/4 
f 125/2/1 126/3/1 127/3/1 
f 127/3/1 128/2/1 125/2/1 
f 129/2/2 125/2/2 128/2/2 
f 128/2/2 130/2/2 129/2/2 
f 131/3/6 129/2/6 130/2/6 
f 130/2/6 132/3/6 131/3/6 
f 126/3/4 131/3/4 132/3/4 
f 132/3/4 127/3/4 126/3/4 
f 133/2/1 134/3/1 135/3/1 
f 135/3/1 136/2/1 133/2/1 
f 137/2/2 133/2/2 136/2/2 
f 136/2/2 138/2/2 137/2/2 
f 139/3/6 137/2/6 138/2/6 
f 138/2/6 140/3/6 139/3/6 
f 134/3/11 139/3/11 140/3/11 
f 140/3/11 135/3/11 134/3/11 
f 34/2/1 33/3/1 38/3/1 
f 38/3/1 37/2/1 34/2/1 
f 141/2/2 142/2/2 143/2/2 
f 143/2/2 144/2/2 141/2/2 
f 36/3/6 35/2/6 41/2/6 
f 41/2/6 43/3/6 36/3/6 
f 33/3/4 36/3/4 43/3/4 
f 43/3/4 38/3/4 33/3/4 
f 40/2/1 39/3/1 46/3/1 
f 46/3/1 45/2/1 40/2/1 
f 145/2/2 146/2/2 147/2/2 
f 147/2/2 148/2/2 145/2/2 
f 44/3/8 42/2/8 49/2/8 
f 49/2/8 51/3/8 44/3/8 
f 39/3/4 44/3/4 51/3/4 
f 51/3/4 46/3/4 39/3/4 
f 48/2/1 47/3/1 54/3/1 
f 54/3/1 53/2/1 48/2/1 
f 149/2/2 150/2/2 151/2/2 
f 151/2/2 152/2/2 149/2/2 
f 52/3/6 50/2/6 57/2/6 
f 57/2/6 59/3/6 52/3/6 
f 47/3/4 52/3/4 59/3/4 
f 59/3/4 54/3/4 47/3/4 
f 56/2/1 55/3/1 62/3/1 
f 62/3/1 61/2/1 56/2/1 
f 153/2/2 154/2/2 155/2/2 
f 155/2/2 156/2/2 153/2/2 
f 60/3/8 58/2/8 65/2/8 
f 65/2/8 67/3/8 60/3/8 
f 55/3/4 60/3/4 67/3/4 
f 67/3/4 62/3/4 55/3/4 
f 64/2/1 63/3/1 70/3/1 
f 70/3/1 69/2/1 64/2/1 
f 157/2/2 158/2/2 159/2/2 
f 159/2/2 160/2/2 157/2/2 
f 68/3/8 66/2/8 73/2/8 
f 73/2/8 75/3/8 68/3/8 
f 63/3/4 68/3/4 75/3/4 
f 75/3/4 70/3/4 63/3/4 
f 72/2/10 71/3/10 78/3/10 
f 78/3/10 77/2/10 72/2/10 
f 161/2/2 162/2/2 163/2/2 
f 163/2/2 164/2/2 161/2/2 
f 76/3/8 74/2/8 81/2/8 
f 81/2/8 83/3/8 76/3/8 
f 71/3/4 76/3/4 83/3/4 
f 83/3/4 78/3/4 71/3/4 
f 80/2/10 79/3/10 86/3/10 
f 86/3/10 85/2/10 80/2/10 
f 165/2/2 166/2/2 167/2/2 
f 167/2/2 168/2/2 165/2/2 
f 84/3/6 82/2/6 89/2/6 
f 89/2/6 91/3/6 84/3/6 
f 79/3/4 84/3/4 91/3/4 
f 91/3/4 86/3/4 79/3/4 
f 88/2/10 87/3/10 94/3/10 
f 94/3/1 93/2/1 88/2/1 
f 169/2/2 170/2/2 171/2/2 
f 171/2/2 172/2/2 169/2/2 
f 92/3/8 90/2/8 97/2/8 
f 97/2/8 99/3/8 92/3/8 
f 87/3/4 92/3/4 99/3/4 
f 99/3/4 94/3/4 87/3/4 
f 96/2/1 95/3/1 102/3/1 
f 102/3/10 101/2/10 96/2/10 
f 173/2/2 174/2/2 175/2/2 
f 175/2/2 176/2/2 173/2/2 
f 100/3/6 98/2/6 105/2/6 
f 105/2/6 107/3/6 100/3/6 
f 95/3/4 100/3/4 107/3/4 
f 107/3/4 102/3/4 95/3/4 
f 104/2/1 103/3/1 110/3/1 
f 110/3/10 109/2/10 104/2/10 
f 177/2/2 178/2/2 179/2/2 
f 179/2/2 180/2/2 177/2/2 
f 108/3/8 106/2/8 113/2/8 
f 113/2/8 115/3/8 108/3/8 
f 103/3/11 108/3/11 115/3/11 
f 115/3/11 110/3/11 103/3/11 
f 112/2/1 111/3/1 118/3/1 
f 118/3/1 117/2/1 112/2/1 
f 181/2/2 182/2/2 183/2/2 
f 183/2/2 184/2/2 181/2/2 
f 116/3/6 114/2/6 121/2/6 
f 121/2/6 123/3/6 116/3/6 
f 111/3/4 116/3/4 123/3/4 
f 123/3/4 118/3/4 111/3/4 
f 120/2/1 119/3/1 126/3/1 
f 126/3/1 125/2/1 120/2/1 
f 185/2/2 186/2/2 187/2/2 
f 187/2/2 188/2/2 185/2/2 
f 124/3/8 122/2/8 129/2/8 
f 129/2/8 131/3/8 124/3/8 
f 119/3/4 124/3/4 131/3/4 
f 131/3/4 126/3/4 119/3/4 
f 128/2/1 127/3/1 134/3/1 
f 134/3/1 133/2/1 128/2/1 
f 189/2/2 190/2/2 191/2/2 
f 191/2/2 192/2/2 189/2/2 
f 132/3/6 130/2/6 137/2/6 
f 137/2/6 139/3/6 132/3/6 
f 127/3/4 132/3/4 139/3/4 
f 139/3/4 134/3/4 127/3/4 
f 136/2/1 135/3/1 17/3/1 
f 17/3/1 16/2/1 136/2/1 
f 193/2/2 194/2/2 195/2/2 
f 195/2/2 196/2/2 193/2/2 
f 140/3/6 138/2/6 19/2/6 
f 19/2/6 20/3/6 140/3/6 
f 135/3/4 140/3/4 20/3/4 
f 20/3/4 17/3/4 135/3/4 
f 35/2/3 34/2/3 142/2/3 
f 142/2/3 141/2/3 35/2/3 
f 34/2/7 37/2/7 143/2/7 
f 143/2/7 142/2/7 34/2/7 
f 37/2/5 41/2/5 144/2/5 
f 144/2/5 143/2/5 37/2/5 
f 41/2/6 35/2/6 141/2/6 
f 141/2/6 144/2/6 41/2/6 
f 42/2/3 40/2/3 146/2/3 
f 146/2/3 145/2/3 42/2/3 
f 40/2/7 45/2/7 147/2/7 
f 147/2/7 146/2/7 40/2/7 
f 45/2/5 49/2/5 148/2/5 
f 148/2/5 147/2/5 45/2/5 
f 49/2/8 42/2/8 145/2/8 
f 145/2/8 148/2/8 49/2/8 
f 50/2/3 48/2/3 150/2/3 
f 150/2/3 149/2/3 50/2/3 
f 48/2/7 53/2/7 151/2/7 
f 151/2/7 150/2/7 48/2/7 
f 53/2/5 57/2/5 152/2/5 
f 152/2/5 151/2/5 53/2/5 
f 57/2/6 50/2/6 149/2/6 
f 149/2/6 152/2/6 57/2/6 
f 58/2/3 56/2/3 154/2/3 
f 154/2/3 153/2/3 58/2/3 
f 56/2/7 61/2/7 155/2/7 
f 155/2/7 154/2/7 56/2/7 
f 61/2/5 65/2/5 156/2/5 
f 156/2/5 155/2/5 61/2/5 
f 65/2/8 58/2/8 153/2/8 
f 153/2/8 156/2/8 65/2/8 
f 66/2/3 64/2/3 158/2/3 
f 158/2/3 157/2/3 66/2/3 
f 64/2/7 69/2/7 159/2/7 
f 159/2/7 158/2/7 64/2/7 
f 69/2/5 73/2/5 160/2/5 
f 160/2/5 159/2/5 69/2/5 
f 73/2/8 66/2/8 157/2/8 
f 157/2/8 160/2/8 73/2/8 
f 74/2/3 72/2/3 162/2/3 
f 162/2/3 161/2/3 74/2/3 
f 72/2/7 77/2/7 163/2/7 
f 163/2/7 162/2/7 72/2/7 
f 77/2/5 81/2/5 164/2/5 
f 164/2/5 163/2/5 77/2/5 
f 81/2/8 74/2/8 161/2/8 
f 161/2/8 164/2/8 81/2/8 
f 82/2/3 80/2/3 166/2/3 
f 166/2/3 165/2/3 82/2/3 
f 80/2/7 85/2/7 167/2/7 
f 167/2/7 166/2/7 80/2/7 
f 85/2/5 89/2/5 168/2/5 
f 168/2/5 167/2/5 85/2/5 
f 89/2/6 82/2/6 165/2/6 
f 165/2/6 168/2/6 89/2/6 
f 90/2/3 88/2/3 170/2/3 
f 170/2/3 169/2/3 90/2/3 
f 88/2/7 93/2/7 171/2/7 
f 171/2/7 170/2/7 88/2/7 
f 93/2/5 97/2/5 172/2/5 
f 172/2/5 171/2/5 93/2/5 
f 97/2/8 90/2/8 169/2/8 
f 169/2/8 172/2/8 97/2/8 
f 98/2/3 96/2/3 174/2/3 
f 174/2/3 173/2/3 98/2/3 
f 96/2/7 101/2/7 175/2/7 
f 175/2/7 174/2/7 96/2/7 
f 101/2/5 105/2/5 176/2/5 
f 176/2/5 175/2/5 101/2/5 
f 105/2/6 98/2/6 173/2/6 
f 173/2/6 176/2/6 105/2/6 
f 106/2/3 104/2/3 178/2/3 
f 178/2/3 177/2/3 106/2/3 
f 104/2/7 109/2/7 179/2/7 
f 179/2/7 178/2/7 104/2/7 
f 109/2/5 113/2/5 180/2/5 
f 180/2/5 179/2/5 109/2/5 
f 113/2/8 106/2/8 177/2/8 
f 177/2/8 180/2/8 113/2/8 
f 114/2/3 112/2/3 182/2/3 
f 182/2/3 181/2/3 114/2/3 
f 112/2/7 117/2/7 183/2/7 
f 183/2/7 182/2/7 112/2/7 
f 117/2/5 121/2/5 184/2/5 
f 184/2/5 183/2/5 117/2/5 
f 121/2/6 114/2/6 181/2/6 
f 181/2/6 184/2/6 121/2/6 
f 122/2/3 120/2/3 186/2/3 
f 186/2/3 185/2/3 122/2/3 
f 120/2/7 125/2/7 187/2/7 
f 187/2/7 186/2/7 120/2/7 
f 125/2/5 129/2/5 188/2/5 
f 188/2/5 187/2/5 125/2/5 
f 129/2/8 122/2/8 185/2/8 
f 185/2/8 188/2/8 129/2/8 
f 130/2/3 128/2/3 190/2/3 
f 190/2/3 189/2/3 130/2/3 
f 128/2/7 133/2/7 191/2/7 
f 191/2/7 190/2/7 128/2/7 
f 133/2/5 137/2/5 192/2/5 
f 192/2/5 191/2/5 133/2/5 
f 137/2/6 130/2/6 189/2/6 
f 189/2/6 192/2/6 137/2/6 
f 138/2/3 136/2/3 194/2/3 
f 194/2/3 193/2/3 138/2/3 
f 136/2/7 16/2/7 195/2/7 
f 195/2/7 194/2/7 136/2/7 
f 16/2/5 19/2/5 196/2/5 
f 196/2/5 195/2/5 16/2/5 
f 19/2/6 138/2/6 193/2/6 
f 193/2/6 196/2/6 19/2/6 
# 380 faces

