# 3ds Max Wavefront OBJ Exporter v0.97b - (c)2007 guruware
# File Created: 03.11.2013 15:55:41

mtllib Railing7.mtl

#
# object Box048
#

v  1813.3064 140.3252 -1962.4680
v  1813.3064 140.3252 -1965.2239
v  1816.0623 140.3252 -1965.2239
v  1816.0623 140.3252 -1962.4680
v  1813.2903 169.8528 -1962.4680
v  1816.0623 169.8528 -1962.4680
v  1816.0623 169.8528 -1965.2239
v  1813.2903 169.8528 -1965.2239
v  1816.0623 167.8842 -1962.4680
v  1813.3064 167.8842 -1962.4680
v  1816.0623 167.8842 -1965.2239
v  1813.3064 167.8842 -1965.2239
v  1773.9280 167.8842 -1962.4680
v  1773.9280 167.8842 -1965.2239
v  1773.9200 169.8528 -1962.4680
v  1773.9200 169.8528 -1965.2239
v  1771.1721 140.3252 -1962.4680
v  1771.1721 140.3252 -1965.2239
v  1773.9280 140.3252 -1965.2239
v  1773.9280 140.3252 -1962.4680
v  1771.1643 169.8528 -1962.4680
v  1771.1721 167.8842 -1962.4680
v  1771.1643 169.8528 -1965.2239
v  1771.1721 167.8842 -1965.2239
v  1734.5538 167.8842 -1962.4680
v  1734.5538 167.8842 -1965.2239
v  1734.5465 169.8528 -1962.4680
v  1734.5465 169.8528 -1965.2239
v  1731.8015 140.3252 -1962.4680
v  1731.8015 140.3252 -1965.2239
v  1734.5538 140.3252 -1965.2239
v  1734.5538 140.3252 -1962.4680
v  1731.7943 169.8528 -1962.4680
v  1731.8015 167.8842 -1962.4680
v  1731.7943 169.8528 -1965.2239
v  1731.8015 167.8842 -1965.2239
v  1695.1870 167.8842 -1962.4680
v  1695.1870 167.8842 -1965.2239
v  1695.1802 169.8528 -1962.4680
v  1695.1802 169.8528 -1965.2239
v  1692.4279 140.3252 -1962.4680
v  1692.4279 140.3252 -1965.2239
v  1695.1870 140.3252 -1965.2239
v  1695.1870 140.3252 -1962.4680
v  1692.4207 169.8528 -1962.4680
v  1692.4279 167.8842 -1962.4680
v  1692.4207 169.8528 -1965.2239
v  1692.4279 167.8842 -1965.2239
v  1653.0605 140.3252 -1962.4680
v  1653.0605 140.3252 -1965.2239
v  1655.8164 140.3252 -1965.2239
v  1655.8164 140.3252 -1962.4680
v  1655.8037 169.8528 -1962.4680
v  1653.0479 169.8528 -1962.4680
v  1653.0605 167.8842 -1962.4680
v  1655.8164 167.8842 -1962.4680
v  1653.0479 169.8528 -1965.2239
v  1655.8037 169.8528 -1965.2239
v  1653.0605 167.8842 -1965.2239
v  1655.8164 167.8842 -1965.2239
v  1613.6899 140.3252 -1962.4680
v  1613.6899 140.3252 -1965.2239
v  1616.4459 140.3252 -1965.2239
v  1616.4459 140.3252 -1962.4680
v  1613.6782 169.8528 -1962.4680
v  1613.6899 167.8842 -1962.4680
v  1616.4459 167.8842 -1962.4680
v  1616.4341 169.8528 -1962.4680
v  1613.6782 169.8528 -1965.2239
v  1616.4341 169.8528 -1965.2239
v  1613.6899 167.8842 -1965.2239
v  1616.4459 167.8842 -1965.2239
v  1574.3169 140.3252 -1962.4680
v  1574.3169 140.3252 -1965.2239
v  1577.0754 140.3252 -1965.2239
v  1577.0754 140.3252 -1962.4680
v  1574.3110 169.8528 -1962.4680
v  1574.3169 167.8842 -1962.4680
v  1577.0754 167.8842 -1962.4680
v  1577.0699 169.8528 -1962.4680
v  1574.3110 169.8528 -1965.2239
v  1577.0699 169.8528 -1965.2239
v  1574.3169 167.8842 -1965.2239
v  1577.0754 167.8842 -1965.2239
v  1534.9487 140.3252 -1962.4680
v  1534.9487 140.3252 -1965.2239
v  1537.7048 140.3252 -1965.2239
v  1537.7048 140.3252 -1962.4680
v  1534.9388 169.8528 -1962.4680
v  1534.9487 167.8842 -1962.4680
v  1537.7048 167.8842 -1962.4680
v  1537.6948 169.8528 -1962.4680
v  1534.9388 169.8528 -1965.2239
v  1537.6948 169.8528 -1965.2239
v  1534.9487 167.8842 -1965.2239
v  1537.7048 167.8842 -1965.2239
v  1495.5782 140.3252 -1962.4680
v  1495.5782 140.3252 -1965.2239
v  1498.3342 140.3252 -1965.2239
v  1498.3342 140.3252 -1962.4680
v  1495.5696 169.8528 -1962.4680
v  1495.5782 167.8842 -1962.4680
v  1498.3342 167.8842 -1962.4680
v  1498.3254 169.8528 -1962.4680
v  1495.5696 169.8528 -1965.2239
v  1498.3254 169.8528 -1965.2239
v  1495.5782 167.8842 -1965.2239
v  1498.3342 167.8842 -1965.2239
# 108 vertices

vn 0.0000 -1.0000 -0.0000
vn 0.0000 1.0000 -0.0000
vn 0.0000 0.0000 1.0000
vn 1.0000 0.0000 -0.0000
vn 0.0000 0.0000 -1.0000
vn -1.0000 0.0000 -0.0000
vn -0.0000 1.0000 -0.0000
vn -0.0000 -0.0000 1.0000
vn -0.0000 -0.0000 -1.0000
vn -0.0000 -1.0000 -0.0000
vn -1.0000 -0.0000 -0.0000
# 11 vertex normals

vt 1.0000 0.0000 0.0000
vt 1.0000 1.0000 0.0000
vt 0.0000 1.0000 0.0000
vt 0.0000 0.0000 0.0000
vt 0.9614 1.0000 0.0000
vt 0.9546 1.0000 0.0000
vt 0.9009 1.0000 0.0000
vt 0.8960 1.0000 0.0000
vt 0.8455 1.0000 0.0000
vt 0.8417 1.0000 0.0000
vt 0.7865 1.0000 0.0000
vt 0.7911 1.0000 0.0000
vt 0.7296 1.0000 0.0000
vt 0.7343 1.0000 0.0000
vt 0.6802 1.0000 0.0000
vt 0.6849 1.0000 0.0000
vt 0.6135 1.0000 0.0000
vt 0.6184 1.0000 0.0000
vt 0.5386 1.0000 0.0000
vt 0.5442 1.0000 0.0000
# 20 texture coords

g Box048
usemtl 02___Default
s 2
f 1/1/1 2/2/1 3/3/1 
f 3/3/1 4/4/1 1/1/1 
s 4
f 5/4/2 6/1/2 7/2/2 
f 7/2/2 8/3/2 5/4/2 
s 8
f 1/4/3 4/1/3 9/2/3 
f 9/2/3 10/3/3 1/4/3 
s 16
f 4/4/4 3/1/4 11/2/4 
f 11/2/4 9/3/4 4/4/4 
s 32
f 3/4/5 2/1/5 12/2/5 
f 12/2/5 11/3/5 3/4/5 
s 64
f 2/4/6 1/1/6 10/2/6 
f 10/2/6 12/3/6 2/4/6 
s off
f 9/3/4 11/2/4 7/2/4 
f 7/2/4 6/1/4 9/3/4 
f 11/3/5 12/2/5 8/3/5 
f 8/3/5 7/2/5 11/3/5 
f 10/2/1 13/2/1 14/3/1 
f 14/3/1 12/3/1 10/2/1 
f 5/4/3 15/4/3 13/2/3 
f 13/2/3 10/2/3 5/4/3 
f 8/3/2 16/3/2 15/4/2 
f 15/4/2 5/4/2 8/3/2 
f 12/2/5 14/5/5 16/3/5 
f 16/3/5 8/3/5 12/2/5 
f 17/2/1 18/3/1 19/3/1 
f 19/3/1 20/2/1 17/2/1 
f 15/4/3 21/4/3 22/2/3 
f 22/2/3 13/2/3 15/4/3 
f 23/3/2 21/4/2 15/4/2 
f 15/4/2 16/3/2 23/3/2 
f 24/6/5 23/3/5 16/3/5 
f 16/3/5 14/5/5 24/6/5 
f 25/2/1 26/3/1 24/3/1 
f 24/3/1 22/2/1 25/2/1 
f 27/4/3 25/2/3 22/2/3 
f 22/2/3 21/4/3 27/4/3 
f 28/3/7 27/4/7 21/4/7 
f 21/4/7 23/3/7 28/3/7 
f 26/7/5 28/3/5 23/3/5 
f 23/3/5 24/6/5 26/7/5 
f 29/2/1 30/3/1 31/3/1 
f 31/3/1 32/2/1 29/2/1 
f 27/4/8 33/4/8 34/2/8 
f 34/2/8 25/2/8 27/4/8 
f 35/3/7 33/4/7 27/4/7 
f 27/4/7 28/3/7 35/3/7 
f 36/8/9 35/3/9 28/3/9 
f 28/3/9 26/7/9 36/8/9 
f 37/2/10 38/3/10 36/3/10 
f 36/3/10 34/2/10 37/2/10 
f 39/4/3 37/2/3 34/2/3 
f 34/2/3 33/4/3 39/4/3 
f 40/3/2 39/4/2 33/4/2 
f 33/4/2 35/3/2 40/3/2 
f 38/9/5 40/3/5 35/3/5 
f 35/3/5 36/8/5 38/9/5 
f 41/2/1 42/3/1 43/3/1 
f 43/3/1 44/2/1 41/2/1 
f 45/4/3 46/2/3 37/2/3 
f 37/2/3 39/4/3 45/4/3 
f 47/3/2 45/4/2 39/4/2 
f 39/4/2 40/3/2 47/3/2 
f 48/10/5 47/3/5 40/3/5 
f 40/3/5 38/9/5 48/10/5 
f 49/2/1 50/3/1 51/3/1 
f 51/3/1 52/2/1 49/2/1 
f 53/4/3 54/4/3 55/2/3 
f 55/2/3 56/2/3 53/4/3 
f 57/3/2 54/4/2 53/4/2 
f 53/4/2 58/3/2 57/3/2 
f 59/11/5 57/3/5 58/3/5 
f 58/3/5 60/12/5 59/11/5 
f 61/2/1 62/3/1 63/3/1 
f 63/3/1 64/2/1 61/2/1 
f 65/4/3 66/2/3 67/2/3 
f 67/2/3 68/4/3 65/4/3 
f 69/3/2 65/4/2 68/4/2 
f 68/4/2 70/3/2 69/3/2 
f 71/13/5 69/3/5 70/3/5 
f 70/3/5 72/14/5 71/13/5 
f 73/2/1 74/3/1 75/3/1 
f 75/3/1 76/2/1 73/2/1 
f 77/4/3 78/2/3 79/2/3 
f 79/2/3 80/4/3 77/4/3 
f 81/3/7 77/4/7 80/4/7 
f 80/4/7 82/3/7 81/3/7 
f 83/15/5 81/3/5 82/3/5 
f 82/3/5 84/16/5 83/15/5 
f 85/2/1 86/3/1 87/3/1 
f 87/3/1 88/2/1 85/2/1 
f 89/4/3 90/2/3 91/2/3 
f 91/2/3 92/4/3 89/4/3 
f 93/3/7 89/4/7 92/4/7 
f 92/4/7 94/3/7 93/3/7 
f 95/17/5 93/3/5 94/3/5 
f 94/3/5 96/18/5 95/17/5 
f 97/2/1 98/3/1 99/3/1 
f 99/3/1 100/2/1 97/2/1 
f 101/4/3 102/2/3 103/2/3 
f 103/2/3 104/4/3 101/4/3 
f 105/3/2 101/4/2 104/4/2 
f 104/4/2 106/3/2 105/3/2 
f 107/19/5 105/3/5 106/3/5 
f 106/3/5 108/20/5 107/19/5 
f 56/2/1 60/3/1 48/3/1 
f 48/3/1 46/2/1 56/2/1 
f 53/4/3 56/2/3 46/2/3 
f 46/2/3 45/4/3 53/4/3 
f 58/3/2 53/4/2 45/4/2 
f 45/4/2 47/3/2 58/3/2 
f 60/12/5 58/3/5 47/3/5 
f 47/3/5 48/10/5 60/12/5 
f 67/2/1 72/3/1 59/3/1 
f 59/3/1 55/2/1 67/2/1 
f 68/4/3 67/2/3 55/2/3 
f 55/2/3 54/4/3 68/4/3 
f 70/3/2 68/4/2 54/4/2 
f 54/4/2 57/3/2 70/3/2 
f 72/14/5 70/3/5 57/3/5 
f 57/3/5 59/11/5 72/14/5 
f 79/2/1 84/3/1 71/3/1 
f 71/3/1 66/2/1 79/2/1 
f 80/4/3 79/2/3 66/2/3 
f 66/2/3 65/4/3 80/4/3 
f 82/3/2 80/4/2 65/4/2 
f 65/4/2 69/3/2 82/3/2 
f 84/16/5 82/3/5 69/3/5 
f 69/3/5 71/13/5 84/16/5 
f 91/2/1 96/3/1 83/3/1 
f 83/3/1 78/2/1 91/2/1 
f 92/4/3 91/2/3 78/2/3 
f 78/2/3 77/4/3 92/4/3 
f 94/3/2 92/4/2 77/4/2 
f 77/4/2 81/3/2 94/3/2 
f 96/18/5 94/3/5 81/3/5 
f 81/3/5 83/15/5 96/18/5 
f 103/2/1 108/3/1 95/3/1 
f 95/3/1 90/2/1 103/2/1 
f 104/4/3 103/2/3 90/2/3 
f 90/2/3 89/4/3 104/4/3 
f 106/3/2 104/4/2 89/4/2 
f 89/4/2 93/3/2 106/3/2 
f 108/20/5 106/3/5 93/3/5 
f 93/3/5 95/17/5 108/20/5 
f 13/2/3 22/2/3 17/2/3 
f 17/2/3 20/2/3 13/2/3 
f 22/2/6 24/3/6 18/3/6 
f 18/3/6 17/2/6 22/2/6 
f 24/6/5 14/5/5 19/3/5 
f 19/3/5 18/3/5 24/6/5 
f 14/3/4 13/2/4 20/2/4 
f 20/2/4 19/3/4 14/3/4 
f 25/2/8 34/2/8 29/2/8 
f 29/2/8 32/2/8 25/2/8 
f 34/2/11 36/3/11 30/3/11 
f 30/3/11 29/2/11 34/2/11 
f 36/8/9 26/7/9 31/3/9 
f 31/3/9 30/3/9 36/8/9 
f 26/3/4 25/2/4 32/2/4 
f 32/2/4 31/3/4 26/3/4 
f 37/2/3 46/2/3 41/2/3 
f 41/2/3 44/2/3 37/2/3 
f 46/2/6 48/3/6 42/3/6 
f 42/3/6 41/2/6 46/2/6 
f 48/10/5 38/9/5 43/3/5 
f 43/3/5 42/3/5 48/10/5 
f 38/3/4 37/2/4 44/2/4 
f 44/2/4 43/3/4 38/3/4 
f 56/2/3 55/2/3 49/2/3 
f 49/2/3 52/2/3 56/2/3 
f 55/2/6 59/3/6 50/3/6 
f 50/3/6 49/2/6 55/2/6 
f 59/11/5 60/12/5 51/3/5 
f 51/3/5 50/3/5 59/11/5 
f 60/3/4 56/2/4 52/2/4 
f 52/2/4 51/3/4 60/3/4 
f 67/2/3 66/2/3 61/2/3 
f 61/2/3 64/2/3 67/2/3 
f 66/2/6 71/3/6 62/3/6 
f 62/3/6 61/2/6 66/2/6 
f 71/13/5 72/14/5 63/3/5 
f 63/3/5 62/3/5 71/13/5 
f 72/3/4 67/2/4 64/2/4 
f 64/2/4 63/3/4 72/3/4 
f 79/2/3 78/2/3 73/2/3 
f 73/2/3 76/2/3 79/2/3 
f 78/2/6 83/3/6 74/3/6 
f 74/3/6 73/2/6 78/2/6 
f 83/15/5 84/16/5 75/3/5 
f 75/3/5 74/3/5 83/15/5 
f 84/3/4 79/2/4 76/2/4 
f 76/2/4 75/3/4 84/3/4 
f 91/2/3 90/2/3 85/2/3 
f 85/2/3 88/2/3 91/2/3 
f 90/2/6 95/3/6 86/3/6 
f 86/3/6 85/2/6 90/2/6 
f 95/17/5 96/18/5 87/3/5 
f 87/3/5 86/3/5 95/17/5 
f 96/3/4 91/2/4 88/2/4 
f 88/2/4 87/3/4 96/3/4 
f 103/2/3 102/2/3 97/2/3 
f 97/2/3 100/2/3 103/2/3 
f 102/2/6 107/3/6 98/3/6 
f 98/3/6 97/2/6 102/2/6 
f 107/19/5 108/20/5 99/3/5 
f 99/3/5 98/3/5 107/19/5 
f 108/3/4 103/2/4 100/2/4 
f 100/2/4 99/3/4 108/3/4 
# 208 faces

