# 3ds Max Wavefront OBJ Exporter v0.97b - (c)2007 guruware
# File Created: 03.11.2013 17:21:17

mtllib Roof.mtl

#
# object Box011
#

v  3009.7759 271.6536 -1813.9751
v  3009.7639 271.6536 -1825.7861
v  2997.9529 271.6536 -1825.7874
v  2771.2981 271.6536 -1825.7874
v  2759.4893 271.6536 -1825.7874
v  2210.5513 271.6536 -1825.7874
v  2198.7402 271.6536 -1825.7874
v  1805.0394 271.6536 -1825.7867
v  1411.3386 271.6536 -1825.7861
v  1399.5276 271.6536 -1825.7874
v  1399.5396 271.6536 -1813.9751
v  1399.5276 259.8425 -4211.6128
v  1399.5276 259.8425 -3787.7954
v  1411.3386 259.8425 -3787.7954
v  1411.3386 259.8425 -4211.6143
v  2198.7402 259.8425 -1825.7874
v  2210.5513 259.8425 -1825.7874
v  2210.5513 259.8425 -1967.5197
v  2198.7405 259.8425 -1967.5197
v  2771.2981 259.8425 -1825.7874
v  2771.3003 259.8425 -1967.5197
v  2759.4893 259.8425 -1967.5197
v  2759.4893 259.8425 -1825.7874
v  2997.9529 259.8425 -1825.7874
v  3009.7639 259.8425 -1825.7861
v  3009.7639 259.8425 -1967.5184
v  2997.9531 259.8425 -1967.5197
v  1399.5276 259.8425 -1825.7874
v  1411.3386 259.8425 -1825.7861
v  1411.3533 259.8425 -1967.5184
v  1399.5422 259.8425 -1967.5197
v  1411.3251 259.8425 -2613.1892
v  1411.3390 259.8425 -2625.0000
v  1399.5283 259.8425 -2625.0005
v  1411.3317 259.8425 -2279.0947
v  1411.3350 259.8425 -2267.2837
v  1411.3384 259.8425 -1967.5195
v  1399.5277 259.8425 -1967.5201
v  3009.7646 259.8425 -2624.9988
v  2997.9536 259.8425 -2625.0000
v  2997.9534 259.8425 -2613.1890
v  2997.9531 259.8425 -2159.5308
v  2997.9531 259.8425 -2147.7197
v  1411.3386 259.8425 -2624.9998
v  1411.3386 259.8425 -2723.4253
v  1411.3369 259.8425 -2723.4253
v  1399.5259 259.8425 -2723.4258
v  1529.4497 259.8425 -3412.4016
v  1529.4497 259.8425 -3424.2126
v  1411.3386 259.8425 -3424.2126
v  1411.3386 259.8425 -3412.4016
v  1411.3403 259.8425 -3412.4019
v  1399.5293 259.8425 -3412.4021
v  1529.4489 259.8425 -4223.4238
v  1399.5396 259.8425 -4223.4238
v  1529.4489 259.8425 -4211.6143
v  1948.7401 259.8425 -3868.3252
v  1960.5511 259.8425 -3868.3252
v  1960.5511 259.8425 -3880.1362
v  1948.7401 259.8425 -3880.1362
v  1399.5286 259.8425 -3787.7954
v  1399.5286 259.8425 -3424.2124
v  1399.5286 259.8425 -3412.4016
v  2198.7410 259.8425 -2625.0000
v  1923.1566 259.8425 -2624.9998
v  1923.1427 259.8425 -2613.1890
v  2198.7271 259.8425 -2613.1892
v  2210.5520 259.8425 -2625.0000
v  2210.5449 259.8425 -2613.1890
v  2210.5381 259.8425 -2613.1892
v  1805.0325 259.8425 -2613.1887
v  1805.0464 259.8425 -2624.9995
v  1668.0315 259.8425 -3424.2126
v  1529.4497 259.8425 -3424.2129
v  1668.0315 259.8425 -3412.4016
v  2198.7410 259.8425 -3412.4016
v  2198.7410 259.8425 -3424.2126
v  1960.5510 259.8425 -3424.2126
v  1948.7401 259.8425 -3424.2126
v  1786.1417 259.8425 -3424.2126
v  1786.1417 259.8425 -3412.4016
v  2210.5520 259.8425 -3880.1362
v  2198.7410 259.8425 -3880.1362
v  2198.7410 259.8425 -3868.3254
v  2210.5520 259.8425 -3868.3252
v  2210.5520 259.8425 -3424.2126
v  2210.5520 259.8425 -3412.4016
v  2210.5520 259.8425 -3123.6948
v  2210.5520 259.8425 -3111.8838
v  2210.5520 259.8425 -3077.7559
v  2198.7410 259.8425 -3077.7559
v  2198.7410 259.8425 -2959.6460
v  2210.5520 259.8425 -2916.3386
v  2210.5520 259.8425 -2928.1497
v  2210.5520 259.8425 -2959.6460
v  2198.7339 259.8425 -2279.0811
v  1805.0386 259.8425 -2279.0942
v  1805.0403 259.8425 -2267.2832
v  2198.7371 259.8425 -2267.2837
v  1686.9304 259.8425 -2267.2834
v  1686.9279 259.8425 -2279.0947
v  2759.4883 259.8425 -2625.0000
v  2759.4883 259.8425 -2613.1890
v  2771.2983 259.8425 -2613.1890
v  2771.2991 259.8425 -2159.5308
v  2771.2996 259.8425 -2147.7197
v  2771.2998 259.8425 -2026.5748
v  2771.2988 259.8425 -2319.8818
v  2759.4863 259.8425 -2319.8818
v  2759.4873 259.8425 -2026.5748
v  2759.4854 259.8425 -2613.1890
v  2759.4858 259.8425 -2378.9370
v  2771.2986 259.8425 -2378.9370
v  2997.9536 259.8425 -2916.3386
v  2997.9536 259.8425 -2928.1497
v  2736.5352 259.8425 -2928.1497
v  2736.5352 259.8425 -2916.3386
v  2618.4436 259.8425 -2916.3386
v  2618.4436 259.8425 -2928.1497
v  2618.4253 259.8425 -3111.8838
v  2618.4255 259.8425 -3123.6948
v  2997.9536 259.8425 -3111.8838
v  2997.9536 259.8425 -3123.6948
v  2736.5356 259.8425 -3123.6948
v  2736.5356 259.8425 -3111.8838
v  2506.5354 259.8425 -3412.4016
v  2400.0515 259.8425 -3424.2126
v  2411.8621 259.8425 -3424.2126
v  2506.5354 259.8425 -3424.2126
v  2997.9536 259.8425 -3412.4016
v  2997.9536 259.8425 -3424.2126
v  2624.6460 259.8425 -3424.2126
v  2624.6460 259.8425 -3412.4016
v  1529.4497 259.8425 -4223.4253
v  1529.4497 259.8425 -4211.6143
v  1948.7401 259.8425 -4211.6143
v  1948.7401 259.8425 -4223.4253
v  2411.8618 259.8425 -3868.3252
v  2400.0510 259.8425 -3868.3252
v  2210.5520 259.8425 -4223.4253
v  2210.5520 259.8425 -4211.6143
v  2806.8936 259.8425 -4211.6143
v  2806.8936 259.8425 -4223.4253
v  2564.3701 259.8425 -3880.1362
v  2328.6614 259.8425 -3880.1362
v  2328.6614 259.8425 -3868.3252
v  2564.3701 259.8425 -3868.3252
v  2682.4802 259.8425 -3868.3252
v  2997.9536 259.8425 -3868.3252
v  2997.9536 259.8425 -3880.1362
v  2818.7051 259.8425 -3880.1362
v  2806.8938 259.8425 -3880.1362
v  2682.4800 259.8425 -3880.1362
v  2818.7051 259.8425 -4000.4993
v  2806.8938 259.8425 -4000.4990
v  2818.7051 259.8425 -4223.4253
v  2806.8936 259.8425 -4071.3652
v  2818.7051 259.8425 -4211.6143
v  2818.7051 259.8425 -4071.3652
v  1960.5511 259.8425 -4223.4253
v  1948.7401 259.8425 -4112.6772
v  1960.5511 259.8425 -4211.6143
v  1960.5511 259.8425 -4112.6772
v  1960.5511 259.8425 -3994.5659
v  1948.7401 259.8425 -3994.5659
v  2210.5447 259.8425 -2085.6299
v  2198.7388 259.8425 -2085.6299
v  2198.7410 259.8425 -4223.4253
v  2198.7410 259.8425 -4211.6143
v  2997.9536 259.8425 -4223.4253
v  2997.9536 259.8425 -4211.6143
v  3009.7646 259.8425 -3880.1362
v  3009.7646 259.8425 -4211.6143
v  3009.7646 259.8425 -3868.3252
v  3009.7646 259.8425 -3424.2126
v  3009.7646 259.8425 -3412.4016
v  3009.7646 259.8425 -3123.6948
v  3009.7646 259.8425 -3111.8838
v  3009.7646 259.8425 -2928.1497
v  3009.7646 259.8425 -2916.3386
v  3009.7646 259.8425 -2625.0000
v  2465.9072 259.8425 -2625.0000
v  2465.9038 259.8425 -2613.1890
v  2347.7927 259.8425 -2613.1890
v  2347.7979 259.8425 -2625.0000
v  3009.7656 259.8425 -4223.4238
v  2997.9548 259.8425 -4223.4248
v  2997.9548 271.6536 -4223.4248
v  3009.7656 271.6536 -4223.4238
v  2771.3000 259.8425 -4223.4248
v  2771.3000 271.6536 -4223.4248
v  2759.4910 259.8425 -4223.4248
v  2759.4910 271.6536 -4223.4248
v  2210.5530 259.8425 -4223.4248
v  2210.5530 271.6536 -4223.4248
v  2198.7422 259.8425 -4223.4248
v  2198.7422 271.6536 -4223.4248
v  1805.0413 259.8425 -4223.4243
v  1805.0413 271.6536 -4223.4243
v  1411.3405 259.8425 -4223.4238
v  1411.3405 271.6536 -4223.4238
v  1399.5295 259.8425 -4223.4248
v  1399.5295 271.6536 -4223.4248
v  1399.5396 259.8425 -1813.9751
v  3009.7759 259.8425 -1813.9751
v  1805.0394 259.8425 -1825.7867
# 206 vertices

vn 0.0000 1.0000 -0.0000
vn 0.0000 -1.0000 -0.0000
vn 0.0000 0.0000 -0.0000
vn 0.0001 0.0000 -1.0000
vn 0.0000 0.0000 -1.0000
vn -0.0000 0.0000 -1.0000
vn -1.0000 0.0000 0.0010
vn 0.0000 0.0000 1.0000
vn 1.0000 0.0000 -0.0010
vn -1.0000 0.0000 -0.0000
vn 1.0000 0.0000 0.0000
# 11 vertex normals

vt 34.5836 -50.5000 0.9995
vt 34.5831 -50.0000 0.9995
vt 34.0831 -50.0000 0.9995
vt 24.4881 -50.0000 0.9995
vt 23.9882 -50.0000 0.9995
vt 0.7498 -50.0000 0.9995
vt 0.2498 -50.0000 0.9995
vt -16.4169 -50.0000 0.9995
vt -33.0836 -50.0000 0.9995
vt -33.5835 -50.0000 0.9995
vt -33.5830 -50.5000 0.9995
vt -33.5835 51.0000 0.0005
vt -33.5835 33.0584 0.0005
vt -33.0835 33.0584 0.0005
vt -33.0835 51.0000 0.0005
vt 0.2498 -50.0000 0.0005
vt 0.7498 -50.0000 0.0005
vt 0.7498 -44.0000 0.0005
vt 0.2498 -44.0000 0.0005
vt 24.4881 -50.0000 0.0005
vt 24.4882 -44.0000 0.0005
vt 23.9882 -44.0000 0.0005
vt 23.9882 -50.0000 0.0005
vt 34.0831 -50.0000 0.0005
vt 34.5831 -50.0000 0.0005
vt 34.5831 -44.0000 0.0005
vt 34.0831 -44.0000 0.0005
vt -33.5835 -50.0000 0.0005
vt -33.0836 -50.0000 0.0005
vt -33.0829 -44.0000 0.0005
vt -33.5829 -44.0000 0.0005
vt -33.0841 -16.6666 0.0005
vt -33.0835 -16.1666 0.0005
vt -33.5835 -16.1666 0.0005
vt -33.0838 -30.8099 0.0005
vt -33.0837 -31.3100 0.0005
vt -33.0836 -44.0000 0.0005
vt -33.5835 -43.9999 0.0005
vt 34.5832 -16.1667 0.0005
vt 34.0832 -16.1666 0.0005
vt 34.0831 -16.6666 0.0005
vt 34.0831 -35.8715 0.0005
vt 34.0831 -36.3715 0.0005
vt -33.0835 -12.0000 0.0005
vt -33.0836 -12.0000 0.0005
vt -33.5836 -11.9999 0.0005
vt -28.0835 17.1667 0.0005
vt -28.0835 17.6667 0.0005
vt -33.0835 17.6667 0.0005
vt -33.0835 17.1667 0.0005
vt -33.5835 17.1667 0.0005
vt -28.0835 51.5000 0.0005
vt -33.5830 51.5000 0.0005
vt -28.0835 51.0000 0.0005
vt -10.3335 36.4675 0.0005
vt -9.8335 36.4675 0.0005
vt -9.8335 36.9675 0.0005
vt -10.3335 36.9675 0.0005
vt -33.5835 17.6667 0.0005
vt 0.2498 -16.1666 0.0005
vt -11.4166 -16.1666 0.0005
vt -11.4172 -16.6666 0.0005
vt 0.2492 -16.6666 0.0005
vt 0.7498 -16.1666 0.0005
vt 0.7495 -16.6666 0.0005
vt 0.7492 -16.6666 0.0005
vt -16.4172 -16.6666 0.0005
vt -16.4166 -16.1667 0.0005
vt -22.2169 17.6667 0.0005
vt -22.2169 17.1667 0.0005
vt 0.2498 17.1667 0.0005
vt 0.2498 17.6667 0.0005
vt -9.8335 17.6667 0.0005
vt -10.3335 17.6667 0.0005
vt -17.2169 17.6667 0.0005
vt -17.2169 17.1667 0.0005
vt 0.7498 36.9675 0.0005
vt 0.2498 36.9675 0.0005
vt 0.2498 36.4675 0.0005
vt 0.7498 36.4675 0.0005
vt 0.7498 17.6667 0.0005
vt 0.7498 17.1667 0.0005
vt 0.7498 4.9448 0.0005
vt 0.7498 4.4448 0.0005
vt 0.7498 3.0000 0.0005
vt 0.2498 3.0000 0.0005
vt 0.2498 -2.0000 0.0005
vt 0.7498 -3.8333 0.0005
vt 0.7498 -3.3333 0.0005
vt 0.7498 -2.0000 0.0005
vt 0.2495 -30.8105 0.0005
vt -16.4169 -30.8100 0.0005
vt -16.4168 -31.3100 0.0005
vt 0.2497 -31.3100 0.0005
vt -21.4168 -31.3100 0.0005
vt -21.4169 -30.8100 0.0005
vt 23.9881 -16.1666 0.0005
vt 23.9881 -16.6666 0.0005
vt 24.4881 -16.6666 0.0005
vt 24.4881 -35.8715 0.0005
vt 24.4881 -36.3715 0.0005
vt 24.4881 -41.5000 0.0005
vt 24.4881 -29.0833 0.0005
vt 23.9880 -29.0833 0.0005
vt 23.9881 -41.5000 0.0005
vt 23.9880 -16.6666 0.0005
vt 23.9880 -26.5833 0.0005
vt 24.4881 -26.5833 0.0005
vt 34.0832 -3.8333 0.0005
vt 34.0832 -3.3333 0.0005
vt 23.0165 -3.3333 0.0005
vt 23.0164 -3.8333 0.0005
vt 18.0172 -3.8333 0.0005
vt 18.0172 -3.3333 0.0005
vt 18.0165 4.4448 0.0005
vt 18.0165 4.9448 0.0005
vt 34.0832 4.4448 0.0005
vt 34.0832 4.9448 0.0005
vt 23.0165 4.9448 0.0005
vt 23.0165 4.4448 0.0005
vt 13.2798 17.1667 0.0005
vt 8.7720 17.6667 0.0005
vt 9.2720 17.6667 0.0005
vt 13.2798 17.6667 0.0005
vt 34.0832 17.1667 0.0005
vt 34.0832 17.6667 0.0005
vt 18.2798 17.6667 0.0005
vt 18.2798 17.1667 0.0005
vt -10.3335 51.0000 0.0005
vt -10.3335 51.5000 0.0005
vt 9.2720 36.4675 0.0005
vt 8.7720 36.4675 0.0005
vt 0.7498 51.5000 0.0005
vt 0.7498 51.0000 0.0005
vt 25.9950 51.0000 0.0005
vt 25.9950 51.5000 0.0005
vt 15.7281 36.9675 0.0005
vt 5.7498 36.9675 0.0005
vt 5.7498 36.4675 0.0005
vt 15.7281 36.4675 0.0005
vt 20.7281 36.4675 0.0005
vt 34.0832 36.4675 0.0005
vt 34.0832 36.9675 0.0005
vt 26.4950 36.9675 0.0005
vt 25.9950 36.9675 0.0005
vt 20.7281 36.9675 0.0005
vt 26.4950 42.0628 0.0005
vt 25.9950 42.0628 0.0005
vt 26.4950 51.5000 0.0005
vt 25.9950 45.0628 0.0005
vt 26.4950 51.0000 0.0005
vt 26.4950 45.0628 0.0005
vt -9.8335 51.5000 0.0005
vt -10.3335 46.8117 0.0005
vt -9.8335 51.0000 0.0005
vt -9.8335 46.8117 0.0005
vt -9.8335 41.8117 0.0005
vt -10.3335 41.8117 0.0005
vt 0.7495 -39.0000 0.0005
vt 0.2497 -39.0000 0.0005
vt 0.2498 51.5000 0.0005
vt 0.2498 51.0000 0.0005
vt 34.0832 51.5000 0.0005
vt 34.0832 51.0000 0.0005
vt 34.5832 36.9675 0.0005
vt 34.5832 51.0000 0.0005
vt 34.5832 36.4675 0.0005
vt 34.5832 17.6667 0.0005
vt 34.5832 17.1667 0.0005
vt 34.5832 4.9448 0.0005
vt 34.5832 4.4448 0.0005
vt 34.5832 -3.3333 0.0005
vt 34.5832 -3.8333 0.0005
vt 34.5832 -16.1666 0.0005
vt 11.5599 -16.1666 0.0005
vt 11.5597 -16.6666 0.0005
vt 6.5597 -16.6666 0.0005
vt 6.5599 -16.1666 0.0005
vt 34.5832 51.5000 0.0005
vt 34.0832 51.5000 0.9995
vt 34.5832 51.5000 0.9995
vt 24.4882 51.5000 0.0005
vt 24.4882 51.5000 0.9995
vt 23.9883 51.5000 0.0005
vt 23.9883 51.5000 0.9995
vt 0.7499 51.5000 0.0005
vt 0.7499 51.5000 0.9995
vt 0.2499 51.5000 0.0005
vt 0.2499 51.5000 0.9995
vt -16.4168 51.5000 0.0005
vt -16.4168 51.5000 0.9995
vt -33.0835 51.5000 0.0005
vt -33.0835 51.5000 0.9995
vt -33.5835 51.5000 0.0005
vt -33.5835 51.5000 0.9995
vt -33.5830 -50.5000 0.0005
vt 34.5836 -50.5000 0.0005
vt -16.4169 -50.0000 0.0005
# 198 texture coords

g Box011
usemtl 08___Default
s 4
f 1/1/1 2/2/1 3/3/1 
f 1/1/1 3/3/1 4/4/1 
f 1/1/1 4/4/1 5/5/1 
f 1/1/1 5/5/1 6/6/1 
f 1/1/1 6/6/1 7/7/1 
f 1/1/1 7/7/1 8/8/1 
f 1/1/1 8/8/1 9/9/1 
f 1/1/1 9/9/1 10/10/1 
f 11/11/1 1/1/1 10/10/1 
f 12/12/1 13/13/1 14/14/1 
f 14/14/1 15/15/1 12/12/1 
s off
f 16/16/1 17/17/1 18/18/1 
f 18/18/1 19/19/1 16/16/1 
f 20/20/1 21/21/1 22/22/1 
f 22/22/1 23/23/1 20/20/1 
f 24/24/1 25/25/1 26/26/1 
f 26/26/1 27/27/1 24/24/1 
f 28/28/1 29/29/1 30/30/1 
f 30/30/1 31/31/1 28/28/1 
f 32/32/1 33/33/1 34/34/1 
f 35/35/1 32/32/1 34/34/1 
f 36/36/1 35/35/1 34/34/1 
f 37/37/1 36/36/1 34/34/1 
f 38/38/1 37/37/1 34/34/1 
f 27/27/1 26/26/1 39/39/1 
f 39/39/1 40/40/1 41/41/1 
f 39/39/1 41/41/1 42/42/1 
f 39/39/1 42/42/1 43/43/1 
f 27/27/1 39/39/1 43/43/1 
f 34/34/2 33/33/2 44/33/2 
f 44/33/1 45/44/1 46/45/1 
f 34/34/1 44/33/1 46/45/1 
f 34/34/1 46/45/1 47/46/1 
f 48/47/1 49/48/1 50/49/1 
f 50/49/1 51/50/1 48/47/1 
f 46/45/1 52/50/1 53/51/1 
f 53/51/1 47/46/1 46/45/1 
s 4
f 54/52/1 55/53/1 12/12/1 
f 54/52/1 12/12/1 15/15/1 
f 54/52/1 15/15/1 56/54/1 
s off
f 57/55/1 58/56/1 59/57/1 
f 59/57/1 60/58/1 57/55/1 
f 61/13/1 62/59/1 50/49/1 
f 50/49/1 14/14/1 61/13/1 
f 50/49/1 62/59/1 63/51/1 
f 50/49/1 63/51/1 51/50/1 
f 50/49/3 50/49/3 51/50/3 
f 64/60/1 65/61/1 66/62/1 
f 66/62/1 67/63/1 64/60/1 
f 68/64/1 64/60/1 67/63/1 
f 69/65/1 68/64/1 67/63/1 
f 70/66/2 69/65/2 67/63/2 
f 71/67/1 72/68/1 44/33/1 
f 71/67/2 44/33/2 33/33/2 
f 71/67/1 33/33/1 32/32/1 
f 73/69/1 74/48/1 49/48/1 
f 73/69/1 49/48/1 48/47/1 
f 73/69/1 48/47/1 75/70/1 
f 76/71/1 77/72/1 78/73/1 
f 76/71/1 78/73/1 79/74/1 
f 76/71/1 79/74/1 80/75/1 
f 81/76/1 76/71/1 80/75/1 
f 82/77/1 83/78/1 84/79/1 
f 84/79/1 85/80/1 82/77/1 
f 86/81/1 77/72/1 77/72/1 
f 86/81/2 86/81/2 77/72/2 
f 87/82/1 86/81/1 77/72/1 
f 88/83/1 87/82/1 77/72/1 
f 89/84/1 88/83/1 77/72/1 
f 90/85/1 89/84/1 77/72/1 
f 90/85/1 77/72/1 76/71/1 
f 90/85/1 76/71/1 91/86/1 
f 92/87/1 64/60/1 68/64/1 
f 92/87/1 68/64/1 93/88/1 
f 92/87/1 93/88/1 94/89/1 
f 92/87/1 94/89/1 95/90/1 
f 96/91/1 97/92/1 98/93/1 
f 98/93/1 99/94/1 96/91/1 
f 35/35/1 36/36/1 100/95/1 
f 100/95/1 101/96/1 35/35/1 
f 40/40/1 102/97/1 103/98/1 
f 40/40/2 103/98/2 103/98/2 
f 40/40/1 103/98/1 104/99/1 
f 41/41/1 40/40/1 104/99/1 
f 42/42/1 105/100/1 106/101/1 
f 106/101/1 43/43/1 42/42/1 
f 107/102/1 106/101/1 105/100/1 
f 105/100/1 108/103/1 109/104/1 
f 107/102/1 105/100/1 109/104/1 
f 107/102/1 109/104/1 110/105/1 
f 104/99/1 111/106/1 112/107/1 
f 112/107/1 113/108/1 104/99/1 
f 114/109/1 115/110/1 116/111/1 
f 116/111/1 117/112/1 114/109/1 
f 94/89/1 93/88/1 118/113/1 
f 118/113/1 119/114/1 94/89/1 
f 88/83/1 89/84/1 120/115/1 
f 120/115/1 121/116/1 88/83/1 
f 122/117/1 123/118/1 124/119/1 
f 124/119/1 125/120/1 122/117/1 
f 86/81/1 87/82/1 126/121/1 
f 127/122/1 86/81/1 126/121/1 
f 128/123/1 127/122/1 126/121/1 
f 129/124/1 128/123/1 126/121/1 
f 130/125/1 131/126/1 132/127/1 
f 132/127/1 133/128/1 130/125/1 
f 134/52/1 135/54/1 136/129/1 
f 136/129/1 137/130/1 134/52/1 
f 83/78/1 59/57/1 58/56/1 
f 58/56/1 84/79/1 83/78/1 
f 79/74/1 78/73/1 58/56/1 
f 58/56/1 57/55/1 79/74/1 
f 128/123/1 138/131/1 139/132/1 
f 139/132/1 127/122/1 128/123/1 
f 140/133/1 141/134/1 142/135/1 
f 142/135/1 143/136/1 140/133/1 
f 144/137/1 145/138/1 146/139/1 
f 144/137/1 146/139/1 139/132/1 
f 144/137/1 139/132/1 138/131/1 
f 144/137/1 138/131/1 147/140/1 
f 148/141/1 149/142/1 150/143/1 
f 148/141/1 150/143/1 151/144/1 
f 148/141/1 151/144/1 152/145/1 
f 148/141/1 152/145/1 153/146/1 
f 152/145/1 151/144/1 154/147/1 
f 154/147/1 155/148/1 152/145/1 
f 156/149/1 143/136/1 142/135/1 
f 156/149/1 142/135/1 157/150/1 
f 158/151/1 156/149/1 157/150/1 
f 159/152/1 158/151/1 157/150/1 
f 160/153/1 137/130/1 136/129/1 
f 160/153/1 136/129/1 161/154/1 
f 162/155/1 160/153/1 161/154/1 
f 163/156/1 162/155/1 161/154/1 
f 164/157/1 165/158/1 60/58/1 
f 60/58/1 59/57/1 164/157/1 
f 166/159/1 70/66/1 67/63/1 
f 67/63/1 96/91/1 99/94/1 
f 166/159/1 67/63/1 99/94/1 
f 166/159/1 99/94/1 167/160/1 
f 168/161/1 160/153/1 162/155/1 
f 162/155/1 169/162/1 168/161/1 
f 170/163/1 156/149/1 158/151/1 
f 158/151/1 171/164/1 170/163/1 
f 171/164/1 150/143/1 172/165/1 
f 172/165/1 173/166/1 171/164/1 
f 150/143/1 149/142/1 174/167/1 
f 174/167/1 172/165/1 150/143/1 
f 149/142/1 131/126/1 175/168/1 
f 175/168/1 174/167/1 149/142/1 
f 131/126/1 130/125/1 176/169/1 
f 176/169/1 175/168/1 131/126/1 
f 130/125/1 123/118/1 177/170/1 
f 177/170/1 176/169/1 130/125/1 
f 123/118/1 122/117/1 178/171/1 
f 178/171/1 177/170/1 123/118/1 
f 122/117/1 115/110/1 179/172/1 
f 179/172/1 178/171/1 122/117/1 
f 115/110/1 114/109/1 180/173/1 
f 180/173/1 179/172/1 115/110/1 
f 114/109/1 40/40/1 181/174/1 
f 181/174/1 180/173/1 114/109/1 
f 141/134/1 140/133/1 168/161/1 
f 141/134/3 141/134/3 168/161/3 
f 141/134/1 168/161/1 169/162/1 
f 141/134/3 169/162/3 169/162/3 
f 182/175/1 183/176/1 103/98/1 
f 103/98/1 102/97/1 182/175/1 
f 68/64/1 69/65/1 184/177/1 
f 184/177/1 185/178/1 68/64/1 
f 186/179/4 187/163/4 188/180/4 
f 188/180/4 189/181/4 186/179/4 
f 187/163/5 190/182/5 191/183/5 
f 191/183/5 188/180/5 187/163/5 
f 190/182/5 192/184/5 193/185/5 
f 193/185/5 191/183/5 190/182/5 
f 192/184/5 194/186/5 195/187/5 
f 195/187/5 193/185/5 192/184/5 
f 194/186/5 196/188/5 197/189/5 
f 197/189/5 195/187/5 194/186/5 
f 196/188/6 198/190/6 199/191/6 
f 199/191/6 197/189/6 196/188/6 
f 198/190/6 200/192/6 201/193/6 
f 201/193/6 199/191/6 198/190/6 
f 200/192/4 202/194/4 203/195/4 
f 203/195/4 201/193/4 200/192/4 
f 28/28/7 204/196/7 11/11/7 
f 11/11/7 10/10/7 28/28/7 
f 204/196/8 205/197/8 1/1/8 
f 1/1/8 11/11/8 204/196/8 
f 205/197/9 25/25/9 2/2/9 
f 2/2/9 1/1/9 205/197/9 
f 25/25/2 24/24/2 187/163/2 
f 187/163/2 186/179/2 25/25/2 
f 24/24/2 20/20/2 190/182/2 
f 190/182/2 187/163/2 24/24/2 
f 20/20/2 23/23/2 192/184/2 
f 192/184/2 190/182/2 20/20/2 
f 23/23/2 17/17/2 194/186/2 
f 194/186/2 192/184/2 23/23/2 
f 17/17/2 16/16/2 196/188/2 
f 196/188/2 194/186/2 17/17/2 
f 16/16/2 206/198/2 198/190/2 
f 198/190/2 196/188/2 16/16/2 
f 206/198/2 29/29/2 200/192/2 
f 200/192/2 198/190/2 206/198/2 
f 29/29/2 28/28/2 202/194/2 
f 202/194/2 200/192/2 29/29/2 
f 28/28/10 10/10/10 203/195/10 
f 203/195/10 202/194/10 28/28/10 
f 10/10/1 9/9/1 201/193/1 
f 201/193/1 203/195/1 10/10/1 
f 9/9/1 8/8/1 199/191/1 
f 199/191/1 201/193/1 9/9/1 
f 8/8/1 7/7/1 197/189/1 
f 197/189/1 199/191/1 8/8/1 
f 7/7/1 6/6/1 195/187/1 
f 195/187/1 197/189/1 7/7/1 
f 6/6/1 5/5/1 193/185/1 
f 193/185/1 195/187/1 6/6/1 
f 5/5/1 4/4/1 191/183/1 
f 191/183/1 193/185/1 5/5/1 
f 4/4/1 3/3/1 188/180/1 
f 188/180/1 191/183/1 4/4/1 
f 3/3/1 2/2/1 189/181/1 
f 189/181/1 188/180/1 3/3/1 
f 2/2/11 25/25/11 186/179/11 
f 186/179/11 189/181/11 2/2/11 
# 228 faces

