# 3ds Max Wavefront OBJ Exporter v0.97b - (c)2007 guruware
# File Created: 03.11.2013 16:00:49

mtllib WallAA.mtl

#
# object Box011
#

v  2997.9531 259.8425 -2159.5308
v  2771.2991 259.8425 -2159.5308
v  2771.2996 259.8425 -2147.7197
v  2997.9531 259.8425 -2147.7197
v  2997.9531 141.7323 -2159.5308
v  2771.2991 141.7323 -2159.5308
v  2771.2996 141.7323 -2147.7197
v  2997.9531 141.7323 -2147.7197
# 8 vertices

vn 0.0000 1.0000 -0.0000
vn 0.0000 0.0000 -1.0000
vn 0.0000 0.0000 1.0000
# 3 vertex normals

vt 0.7500 0.5000 0.0000
vt 0.7292 0.5000 0.0000
# 2 texture coords

g Box011
usemtl 04___Default
s off
f 1/1/1 2/2/1 3/2/1 
f 3/2/1 4/1/1 1/1/1 
f 5/1/2 6/2/2 2/2/2 
f 2/2/2 1/1/2 5/1/2 
f 7/2/3 8/1/3 4/1/3 
f 4/1/3 3/2/3 7/2/3 
# 6 faces

