# 3ds Max Wavefront OBJ Exporter v0.97b - (c)2007 guruware
# File Created: 04.11.2013 17:33:29

mtllib WallQ.mtl

#
# object Box011
#

v  2997.9536 259.8425 -2625.0000
v  2759.4883 259.8425 -2625.0000
v  2759.4883 259.8425 -2613.1890
v  2771.2983 259.8425 -2613.1890
v  2997.9534 259.8425 -2613.1890
v  3009.7646 141.7323 -2624.9988
v  2997.9536 141.7323 -2625.0000
v  3009.7646 259.8425 -2624.9988
v  2997.9534 141.7323 -2613.1890
v  2771.2983 141.7323 -2613.1890
v  2759.4883 141.7323 -2613.1890
v  2759.4854 259.8425 -2613.1890
v  3009.7646 141.7323 -2625.0000
v  3009.7646 259.8425 -2625.0000
v  2465.9072 259.8425 -2625.0000
v  2465.9038 259.8425 -2613.1890
v  2759.4883 141.7323 -2625.0000
v  2465.9038 141.7323 -2613.1890
v  2465.9072 141.7323 -2625.0000
# 19 vertices

vn 0.0000 1.0000 -0.0000
vn 0.0000 -1.0000 -0.0000
vn 0.0001 0.0000 -1.0000
vn -1.0000 0.0000 -0.0000
vn 0.0000 0.0000 -1.0000
vn 0.0000 0.0000 1.0000
vn 1.0000 0.0000 0.0000
vn -1.0000 0.0000 0.0000
vn 0.4472 0.0000 -0.8944
vn 1.0000 0.0000 -0.0000
vn -1.0000 0.0000 -0.0003
# 11 vertex normals

vt 3.8035 0.5750 1.2500
vt 0.7750 0.5750 1.2500
vt 0.7750 0.4250 1.2500
vt 0.9250 0.4250 1.2500
vt 3.8035 0.4250 1.2500
vt -2.9535 -0.2500 0.5750
vt -2.8035 -0.2500 0.5750
vt -2.8035 1.2500 0.5750
vt -2.9535 1.2500 0.5750
vt 0.4250 -0.2500 3.8035
vt 0.5750 -0.2500 3.8035
vt 0.5750 1.2500 3.8035
vt 0.4250 1.2500 3.8035
vt 0.0750 -0.2500 0.4250
vt 0.2250 -0.2500 0.4250
vt 0.2250 1.2500 0.4250
vt 0.0750 1.2500 0.4250
vt 3.8035 -0.2500 0.5750
vt 3.9535 -0.2500 0.5750
vt 3.9535 1.2500 0.5750
vt 3.8035 1.2500 0.5750
vt -2.9535 0.5750 1.2500
vt -2.9535 0.4250 1.2500
vt 0.2250 -0.2500 0.5750
vt 0.2250 1.2500 0.5750
vt 0.4250 -0.2500 0.7750
vt 0.5750 -0.2500 0.7750
vt 0.5750 1.2500 0.7750
vt 0.4250 1.2500 0.7750
vt 0.7750 -0.2500 0.4250
vt 0.9250 -0.2500 0.4250
vt 0.9250 1.2500 0.4250
vt 0.7750 1.2500 0.4250
vt 3.8035 -0.2500 0.4250
vt 3.8035 1.2500 0.4250
vt -2.9535 -0.2500 0.4250
vt -2.9535 1.2500 0.4250
vt 0.4250 -0.2500 -2.9535
vt 0.5750 -0.2500 -2.9535
vt 0.5750 1.2500 -2.9535
vt 0.4250 1.2500 -2.9535
# 41 texture coords

g Box011
usemtl 01___Default
s off
f 1/1/1 2/2/1 3/3/1 
f 1/1/2 3/3/2 3/3/2 
f 1/1/1 3/3/1 4/4/1 
f 5/5/1 1/1/1 4/4/1 
f 6/6/3 7/7/3 1/8/3 
f 1/8/3 8/9/3 6/6/3 
f 7/10/4 9/11/4 5/12/4 
f 5/12/4 1/13/4 7/10/4 
f 10/14/5 11/15/5 12/16/5 
f 12/16/5 4/17/5 10/14/5 
f 7/18/6 13/19/6 14/20/6 
f 14/20/6 1/21/6 7/18/6 
f 15/22/1 16/23/1 3/3/1 
f 3/3/1 2/2/1 15/22/1 
f 9/10/7 7/11/7 1/12/7 
f 1/12/7 5/13/7 9/10/7 
f 7/7/5 17/24/5 2/25/5 
f 2/25/5 1/8/5 7/7/5 
f 17/26/8 11/27/8 3/28/8 
f 3/28/8 2/29/8 17/26/8 
f 11/15/9 11/15/9 3/16/9 
f 3/16/9 3/16/9 11/15/9 
f 11/30/6 10/31/6 4/32/6 
f 4/32/6 3/33/6 11/30/6 
f 10/31/6 9/34/6 5/35/6 
f 5/35/6 4/32/6 10/31/6 
f 18/36/6 11/30/6 3/33/6 
f 3/33/6 16/37/6 18/36/6 
f 11/26/10 17/27/10 2/28/10 
f 2/28/10 3/29/10 11/26/10 
f 17/24/5 19/19/5 15/20/5 
f 15/20/5 2/25/5 17/24/5 
f 19/38/11 18/39/11 16/40/11 
f 16/40/11 15/41/11 19/38/11 
# 34 faces

