# 3ds Max Wavefront OBJ Exporter v0.97b - (c)2007 guruware
# File Created: 04.11.2013 17:33:05

mtllib WallR.mtl

#
# object Box011
#

v  2771.2983 259.8425 -2613.1890
v  2759.4854 259.8425 -2613.1890
v  2759.4858 259.8425 -2378.9370
v  2771.2986 259.8425 -2378.9370
v  2771.2983 141.7323 -2613.1890
v  2759.4883 141.7323 -2613.1890
v  2759.4858 141.7323 -2378.9370
v  2771.2986 141.7323 -2378.9370
v  2759.4883 259.8425 -2613.1890
# 9 vertices

vn 0.0000 1.0000 -0.0000
vn 0.0000 0.0000 -1.0000
vn -1.0000 0.0000 -0.0000
vn -1.0000 -0.0000 0.0000
vn 0.0000 0.0000 1.0000
vn 1.0000 0.0000 -0.0000
vn 0.4472 0.0000 -0.8944
# 7 vertex normals

vt 0.5750 1.9875 1.2500
vt 0.4250 1.9875 1.2500
vt 0.4250 -0.9875 1.2500
vt 0.5750 -0.9875 1.2500
vt 0.4250 -0.2500 1.9875
vt 0.5750 -0.2500 1.9875
vt 0.5750 1.2500 1.9875
vt 0.4250 1.2500 1.9875
vt -0.9875 -0.2500 0.4250
vt 1.9875 -0.2500 0.4250
vt 1.9875 1.2500 0.4250
vt -0.9875 1.2500 0.4250
vt 0.4250 -0.2500 -0.9875
vt 0.5750 -0.2500 -0.9875
vt 0.5750 1.2500 -0.9875
vt 0.4250 1.2500 -0.9875
vt -0.9875 -0.2500 0.5750
vt 1.9875 -0.2500 0.5750
vt 1.9875 1.2500 0.5750
vt -0.9875 1.2500 0.5750
# 20 texture coords

g Box011
usemtl 01___Default
s off
f 1/1/1 2/2/1 3/3/1 
f 3/3/1 4/4/1 1/1/1 
f 5/5/2 6/6/2 2/7/2 
f 2/7/2 1/8/2 5/5/2 
f 6/9/3 7/10/3 3/11/3 
f 3/11/4 2/12/4 6/9/4 
f 7/13/5 8/14/5 4/15/5 
f 4/15/5 3/16/5 7/13/5 
f 8/17/6 5/18/6 1/19/6 
f 1/19/6 4/20/6 8/17/6 
f 6/6/7 6/6/7 9/7/7 
f 9/7/7 9/7/7 6/6/7 
f 6/5/5 5/6/5 1/7/5 
f 1/7/5 9/8/5 6/5/5 
# 14 faces

