# 3ds Max Wavefront OBJ Exporter v0.97b - (c)2007 guruware
# File Created: 04.11.2013 17:41:49

mtllib WallB.mtl

#
# object Box011
#

v  2198.7410 259.8425 -3412.4016
v  2198.7410 259.8425 -3424.2126
v  1960.5510 259.8425 -3424.2126
v  1948.7401 259.8425 -3424.2126
v  1786.1417 259.8425 -3424.2126
v  1786.1417 259.8425 -3412.4016
v  2210.5520 259.8425 -3424.2126
v  2210.5520 259.8425 -3412.4016
v  2506.5354 259.8425 -3412.4016
v  2400.0515 259.8425 -3424.2126
v  2411.8621 259.8425 -3424.2126
v  2506.5354 259.8425 -3424.2126
v  2198.7410 141.7323 -3424.2126
v  2198.7410 141.7323 -3412.4016
v  2210.5520 141.7323 -3412.4016
v  2210.5520 141.7323 -3424.2126
v  1960.5510 141.7323 -3424.2126
v  1948.7401 141.7323 -3424.2126
v  1786.1417 141.7323 -3424.2126
v  1786.1417 141.7323 -3412.4016
v  2506.5354 141.7323 -3412.4016
v  2506.5354 141.7323 -3424.2126
v  2411.8621 141.7323 -3424.2126
v  2400.0515 141.7323 -3424.2126
# 24 vertices

vn 0.0000 1.0000 -0.0000
vn -1.0000 0.0000 -0.0000
vn 1.0000 0.0000 -0.0000
vn -0.9990 0.0000 0.0437
vn 0.0000 0.0000 -1.0000
vn 0.0000 0.0000 1.0000
vn -1.0000 0.0000 0.0000
# 7 vertex normals

vt 1.1655 0.4250 1.2500
vt 1.1655 0.5750 1.2500
vt -1.8595 0.5750 1.2500
vt -2.0095 0.5750 1.2500
vt -4.0745 0.5750 1.2500
vt -4.0745 0.4250 1.2500
vt 1.3155 0.5750 1.2500
vt 1.3155 0.4250 1.2500
vt 5.0745 0.4250 1.2500
vt 3.7222 0.5750 1.2500
vt 3.8721 0.5750 1.2500
vt 5.0745 0.5750 1.2500
vt 0.4250 -0.2500 1.1655
vt 0.5750 -0.2500 1.1655
vt 0.5750 1.2500 1.1655
vt 0.4250 1.2500 1.1655
vt 0.4250 -0.2500 1.3155
vt 0.5750 -0.2500 1.3155
vt 0.5750 1.2500 1.3155
vt 0.4250 1.2500 1.3155
vt -0.3155 -0.2500 0.5750
vt -0.1655 -0.2500 0.5750
vt -0.1655 1.2500 0.5750
vt -0.3155 1.2500 0.5750
vt 2.8595 -0.2500 0.5750
vt 2.8595 1.2500 0.5750
vt 3.0095 -0.2500 0.5750
vt 5.0745 -0.2500 0.5750
vt 5.0745 1.2500 0.5750
vt 3.0095 1.2500 0.5750
vt 0.4250 -0.2500 -4.0745
vt 0.5750 -0.2500 -4.0745
vt 0.5750 1.2500 -4.0745
vt 0.4250 1.2500 -4.0745
vt -4.0745 -0.2500 0.4250
vt 1.1655 -0.2500 0.4250
vt 1.1655 1.2500 0.4250
vt -4.0745 1.2500 0.4250
vt 1.3155 -0.2500 0.4250
vt 5.0745 -0.2500 0.4250
vt 5.0745 1.2500 0.4250
vt 1.3155 1.2500 0.4250
vt 0.4250 -0.2500 5.0745
vt 0.5750 -0.2500 5.0745
vt 0.5750 1.2500 5.0745
vt 0.4250 1.2500 5.0745
vt -4.0745 -0.2500 0.5750
vt -2.8721 -0.2500 0.5750
vt -2.8721 1.2500 0.5750
vt -4.0745 1.2500 0.5750
vt -2.7222 -0.2500 0.5750
vt -2.7222 1.2500 0.5750
# 52 texture coords

g Box011
usemtl 01___Default
s off
f 1/1/1 2/2/1 3/3/1 
f 1/1/1 3/3/1 4/4/1 
f 1/1/1 4/4/1 5/5/1 
f 6/6/1 1/1/1 5/5/1 
f 7/7/1 8/8/1 9/9/1 
f 10/10/1 7/7/1 9/9/1 
f 11/11/1 10/10/1 9/9/1 
f 12/12/1 11/11/1 9/9/1 
f 13/13/2 14/14/2 1/15/2 
f 1/15/2 2/16/2 13/13/2 
f 15/17/3 16/18/3 7/19/3 
f 7/19/3 8/20/3 15/17/3 
f 16/17/4 16/17/4 7/20/4 
f 7/20/4 7/20/4 16/17/4 
f 16/21/5 13/22/5 2/23/5 
f 2/23/5 7/24/5 16/21/5 
f 13/13/2 13/13/2 2/16/2 
f 2/16/2 2/16/2 13/13/2 
f 14/13/3 13/14/3 2/15/3 
f 2/15/3 1/16/3 14/13/3 
f 13/22/5 17/25/5 3/26/5 
f 3/26/5 2/23/5 13/22/5 
f 18/27/5 19/28/5 5/29/5 
f 5/29/5 4/30/5 18/27/5 
f 19/31/2 20/32/2 6/33/2 
f 6/33/2 5/34/2 19/31/2 
f 20/35/6 14/36/6 1/37/6 
f 1/37/6 6/38/6 20/35/6 
f 16/17/7 15/18/7 8/19/7 
f 8/19/7 7/20/7 16/17/7 
f 15/39/6 21/40/6 9/41/6 
f 9/41/6 8/42/6 15/39/6 
f 21/43/3 22/44/3 12/45/3 
f 12/45/3 9/46/3 21/43/3 
f 22/47/5 23/48/5 11/49/5 
f 11/49/5 12/50/5 22/47/5 
f 24/51/5 16/21/5 7/24/5 
f 7/24/5 10/52/5 24/51/5 
# 38 faces

