# 3ds Max Wavefront OBJ Exporter v0.97b - (c)2007 guruware
# File Created: 04.11.2013 17:28:34

mtllib WallZ.mtl

#
# object Box011
#

v  1411.3317 259.8425 -2279.0947
v  1411.3350 259.8425 -2267.2837
v  1686.9304 259.8425 -2267.2834
v  1686.9279 259.8425 -2279.0947
v  1411.3350 141.7323 -2267.2837
v  1686.9304 141.7323 -2267.2834
v  1686.9279 141.7323 -2279.0947
v  1411.3317 141.7323 -2279.0947
# 8 vertices

vn 0.0000 1.0000 -0.0000
vn -0.0000 0.0000 1.0000
vn 1.0000 0.0000 -0.0002
vn 0.0000 0.0000 -1.0000
# 4 vertex normals

vt -1.2501 0.5750 1.2500
vt -1.2500 0.4250 1.2500
vt 2.2501 0.4250 1.2500
vt 2.2500 0.5750 1.2500
vt -1.2500 -0.2500 0.4250
vt 2.2501 -0.2500 0.4250
vt 2.2501 1.2500 0.4250
vt -1.2500 1.2500 0.4250
vt 0.4250 -0.2500 2.2501
vt 0.5750 -0.2500 2.2500
vt 0.5750 1.2500 2.2500
vt 0.4250 1.2500 2.2501
vt -1.2500 -0.2500 0.5750
vt 2.2501 -0.2500 0.5750
vt 2.2501 1.2500 0.5750
vt -1.2500 1.2500 0.5750
# 16 texture coords

g Box011
usemtl 01___Default
s off
f 1/1/1 2/2/1 3/3/1 
f 3/3/1 4/4/1 1/1/1 
f 5/5/2 6/6/2 3/7/2 
f 3/7/2 2/8/2 5/5/2 
f 6/9/3 7/10/3 4/11/3 
f 4/11/3 3/12/3 6/9/3 
f 7/13/4 8/14/4 1/15/4 
f 1/15/4 4/16/4 7/13/4 
# 8 faces

