# 3ds Max Wavefront OBJ Exporter v0.97b - (c)2007 guruware
# File Created: 04.11.2013 17:36:26

mtllib WallK.mtl

#
# object Box011
#

v  2818.7051 259.8425 -4223.4253
v  2806.8936 259.8425 -4223.4253
v  2806.8936 259.8425 -4211.6143
v  2806.8936 259.8425 -4071.3652
v  2818.7051 259.8425 -4211.6143
v  2818.7051 259.8425 -4071.3652
v  2806.8936 141.7323 -4211.6143
v  2806.8936 141.7323 -4071.3652
v  2818.7051 141.7323 -4071.3652
v  2818.7051 141.7323 -4211.6143
v  2818.7051 141.7323 -4223.4253
v  2806.8936 141.7323 -4223.4253
# 12 vertices

vn 0.0000 1.0000 -0.0000
vn -1.0000 0.0000 -0.0000
vn 0.0000 0.0000 1.0000
vn 1.0000 0.0000 -0.0000
vn 0.0000 0.0000 -1.0000
# 5 vertex normals

vt 0.5750 1.4656 1.2500
vt 0.4250 1.4656 1.2500
vt 0.4250 1.3156 1.2500
vt 0.4250 -0.4656 1.2500
vt 0.5750 1.3156 1.2500
vt 0.5750 -0.4656 1.2500
vt -0.3156 -0.2500 0.4250
vt 1.4656 -0.2500 0.4250
vt 1.4656 1.2500 0.4250
vt -0.3156 1.2500 0.4250
vt 0.4250 -0.2500 -0.4656
vt 0.5750 -0.2500 -0.4656
vt 0.5750 1.2500 -0.4656
vt 0.4250 1.2500 -0.4656
vt -0.4656 -0.2500 0.5750
vt 1.3156 -0.2500 0.5750
vt 1.3156 1.2500 0.5750
vt -0.4656 1.2500 0.5750
vt 0.4250 -0.2500 1.4656
vt 0.5750 -0.2500 1.4656
vt 0.5750 1.2500 1.4656
vt 0.4250 1.2500 1.4656
# 22 texture coords

g Box011
usemtl 01___Default
s off
f 1/1/1 2/2/1 3/3/1 
f 1/1/1 3/3/1 4/4/1 
f 5/5/1 1/1/1 4/4/1 
f 6/6/1 5/5/1 4/4/1 
f 7/7/2 8/8/2 4/9/2 
f 4/9/2 3/10/2 7/7/2 
f 8/11/3 9/12/3 6/13/3 
f 6/13/3 4/14/3 8/11/3 
f 9/15/4 10/16/4 5/17/4 
f 5/17/4 6/18/4 9/15/4 
f 11/19/5 12/20/5 2/21/5 
f 2/21/5 1/22/5 11/19/5 
# 12 faces

